<svg width="252" height="590" viewBox="0 0 252 590" fill="none" xmlns="http://www.w3.org/2000/svg">
<g filter="url(#filter0_d_0_1)">
<path d="M40.2918 143.2V151.52H49.2517V188H59.6198V143.2H40.2918ZM73.3542 176.096C69.8343 176.096 67.1463 178.528 67.1463 182.24C67.1463 184.864 68.4903 186.848 70.6023 187.68L67.7863 197.856H74.1223L77.7703 188.64C79.2423 185.12 79.4983 183.904 79.4983 182.24C79.4983 178.592 76.9383 176.096 73.3542 176.096ZM102.54 188.768C113.612 188.768 121.74 180.384 121.74 165.6C121.74 150.816 113.612 142.432 102.54 142.432C91.5318 142.432 83.3398 150.816 83.3398 165.6C83.3398 180.384 91.5318 188.768 102.54 188.768ZM102.54 180C97.4198 180 93.8358 175.776 93.8358 165.6C93.8358 155.424 97.4198 151.2 102.54 151.2C107.724 151.2 111.308 155.424 111.308 165.6C111.308 175.776 107.724 180 102.54 180ZM145.977 188.768C157.049 188.768 165.177 180.384 165.177 165.6C165.177 150.816 157.049 142.432 145.977 142.432C134.969 142.432 126.777 150.816 126.777 165.6C126.777 180.384 134.969 188.768 145.977 188.768ZM145.977 180C140.857 180 137.273 175.776 137.273 165.6C137.273 155.424 140.857 151.2 145.977 151.2C151.161 151.2 154.745 155.424 154.745 165.6C154.745 175.776 151.161 180 145.977 180ZM189.415 188.768C200.487 188.768 208.615 180.384 208.615 165.6C208.615 150.816 200.487 142.432 189.415 142.432C178.407 142.432 170.215 150.816 170.215 165.6C170.215 180.384 178.407 188.768 189.415 188.768ZM189.415 180C184.295 180 180.711 175.776 180.711 165.6C180.711 155.424 184.295 151.2 189.415 151.2C194.599 151.2 198.183 155.424 198.183 165.6C198.183 175.776 194.599 180 189.415 180ZM98.1367 205.112C100.391 205.112 101.693 204.118 101.693 202.718C101.693 199.75 97.1427 200.996 97.1427 199.708C97.1427 199.316 97.5627 199.008 98.5427 199.008C99.2287 199.008 99.9707 199.148 100.713 199.568L101.441 198.014C100.727 197.594 99.5787 197.356 98.5427 197.356C96.3447 197.356 95.0567 198.364 95.0567 199.792C95.0567 202.802 99.6067 201.542 99.6067 202.774C99.6067 203.194 99.2287 203.46 98.2207 203.46C97.2967 203.46 96.2747 203.166 95.6027 202.732L94.8747 204.3C95.5747 204.762 96.8627 205.112 98.1367 205.112ZM104.132 196.418C104.944 196.418 105.49 195.886 105.49 195.158C105.49 194.486 104.944 193.982 104.132 193.982C103.32 193.982 102.774 194.514 102.774 195.2C102.774 195.886 103.32 196.418 104.132 196.418ZM103.04 205H105.224V197.468H103.04V205ZM112.949 197.468V198.434C112.375 197.706 111.507 197.356 110.457 197.356C108.371 197.356 106.691 198.798 106.691 200.996C106.691 203.194 108.371 204.636 110.457 204.636C111.437 204.636 112.263 204.328 112.837 203.698V204.02C112.837 205.378 112.165 206.078 110.625 206.078C109.659 206.078 108.609 205.742 107.965 205.224L107.097 206.792C107.979 207.478 109.365 207.828 110.793 207.828C113.509 207.828 115.021 206.54 115.021 203.74V197.468H112.949ZM110.891 202.844C109.743 202.844 108.903 202.102 108.903 200.996C108.903 199.89 109.743 199.148 110.891 199.148C112.039 199.148 112.865 199.89 112.865 200.996C112.865 202.102 112.039 202.844 110.891 202.844ZM121.632 197.356C120.61 197.356 119.728 197.706 119.14 198.35V197.468H117.054V205H119.238V201.276C119.238 199.89 119.994 199.246 121.044 199.246C122.01 199.246 122.57 199.806 122.57 201.024V205H124.754V200.688C124.754 198.392 123.41 197.356 121.632 197.356ZM136.102 197.468V201.192C136.102 202.578 135.374 203.222 134.366 203.222C133.4 203.222 132.84 202.662 132.84 201.402V197.468H130.656V201.724C130.656 204.048 131.986 205.112 133.876 205.112C134.8 205.112 135.64 204.762 136.214 204.104V205H138.286V197.468H136.102ZM144.762 197.356C143.754 197.356 142.942 197.678 142.396 198.336V197.468H140.31V207.716H142.494V204.202C143.054 204.818 143.824 205.112 144.762 205.112C146.876 205.112 148.514 203.6 148.514 201.234C148.514 198.868 146.876 197.356 144.762 197.356ZM144.384 203.32C143.292 203.32 142.466 202.536 142.466 201.234C142.466 199.932 143.292 199.148 144.384 199.148C145.476 199.148 146.302 199.932 146.302 201.234C146.302 202.536 145.476 203.32 144.384 203.32ZM152.51 205.112C154.764 205.112 156.066 204.118 156.066 202.718C156.066 199.75 151.516 200.996 151.516 199.708C151.516 199.316 151.936 199.008 152.916 199.008C153.602 199.008 154.344 199.148 155.086 199.568L155.814 198.014C155.1 197.594 153.952 197.356 152.916 197.356C150.718 197.356 149.43 198.364 149.43 199.792C149.43 202.802 153.98 201.542 153.98 202.774C153.98 203.194 153.602 203.46 152.594 203.46C151.67 203.46 150.648 203.166 149.976 202.732L149.248 204.3C149.948 204.762 151.236 205.112 152.51 205.112Z" fill="#FFE0B2"/>
</g>
<g filter="url(#filter1_d_0_1)">
<path d="M25.6088 245H29.1728V232.504H34.1008V229.6H20.6808V232.504H25.6088V245ZM46.7509 245H50.4909L43.6049 229.6H40.0849L33.2209 245H36.8729L38.2369 241.7H45.3869L46.7509 245ZM39.3809 238.994L41.8229 233.098L44.2649 238.994H39.3809ZM65.7287 245L62.2747 240.05C64.2767 239.192 65.4427 237.498 65.4427 235.188C65.4427 231.734 62.8687 229.6 58.7547 229.6H52.0887V245H55.6527V240.71H58.7547H58.9307L61.9007 245H65.7287ZM61.8347 235.188C61.8347 236.86 60.7347 237.872 58.5567 237.872H55.6527V232.504H58.5567C60.7347 232.504 61.8347 233.494 61.8347 235.188ZM78.6724 241.568C77.7704 242.052 76.8684 242.228 75.9004 242.228C72.9524 242.228 70.9064 240.182 70.9064 237.3C70.9064 234.374 72.9524 232.372 75.9444 232.372C77.5064 232.372 78.8044 232.922 79.9264 234.11L82.2144 231.998C80.7184 230.26 78.4744 229.336 75.7684 229.336C70.8624 229.336 67.2984 232.658 67.2984 237.3C67.2984 241.942 70.8624 245.264 75.7024 245.264C77.9024 245.264 80.2344 244.582 81.9284 243.306V237.058H78.6724V241.568ZM88.7811 242.14V238.576H95.9311V235.804H88.7811V232.46H96.8771V229.6H85.2391V245H97.1631V242.14H88.7811ZM103.189 245H106.753V232.504H111.681V229.6H98.2609V232.504H103.189V245ZM133.469 245L130.015 240.05C132.017 239.192 133.183 237.498 133.183 235.188C133.183 231.734 130.609 229.6 126.495 229.6H119.829V245H123.393V240.71H126.495H126.671L129.641 245H133.469ZM129.575 235.188C129.575 236.86 128.475 237.872 126.297 237.872H123.393V232.504H126.297C128.475 232.504 129.575 233.494 129.575 235.188ZM139.549 242.14V238.576H146.699V235.804H139.549V232.46H147.645V229.6H136.007V245H147.931V242.14H139.549ZM162.272 245H166.012L159.126 229.6H155.606L148.742 245H152.394L153.758 241.7H160.908L162.272 245ZM154.902 238.994L157.344 233.098L159.786 238.994H154.902ZM174.765 245.264C177.449 245.264 179.671 244.296 181.123 242.514L178.835 240.402C177.801 241.612 176.503 242.228 174.963 242.228C172.081 242.228 170.035 240.204 170.035 237.3C170.035 234.396 172.081 232.372 174.963 232.372C176.503 232.372 177.801 232.988 178.835 234.176L181.123 232.064C179.671 230.304 177.449 229.336 174.787 229.336C169.991 229.336 166.427 232.658 166.427 237.3C166.427 241.942 169.991 245.264 174.765 245.264ZM194.09 229.6V235.672H187.094V229.6H183.53V245H187.094V238.686H194.09V245H197.654V229.6H194.09ZM204.84 242.14V238.576H211.99V235.804H204.84V232.46H212.936V229.6H201.298V245H213.222V242.14H204.84ZM216.057 245H223.053C228.091 245 231.545 241.964 231.545 237.3C231.545 232.636 228.091 229.6 223.053 229.6H216.057V245ZM219.621 242.074V232.526H222.877C225.935 232.526 227.937 234.352 227.937 237.3C227.937 240.248 225.935 242.074 222.877 242.074H219.621Z" fill="#FFE0B2"/>
</g>
<g filter="url(#filter2_d_0_1)">
<path d="M85.3942 535.351C86.4228 537.569 87.7076 539.037 89.42 539.928L91.2558 539.379L92.1585 533.319L85.386 535.339C85.3895 535.339 85.3895 535.347 85.3942 535.351L85.3942 535.351Z" fill="#010101"/>
<path d="M84.0551 531.573L92.8089 528.968L93.7116 522.906L84.0015 525.799C83.5857 527.83 83.6067 529.659 84.0551 531.573L84.0551 531.573Z" fill="#010101"/>
<path d="M85.4986 521.282L94.3526 518.645L94.9863 514.389C94.278 514.506 93.5838 514.616 92.8592 514.739C89.5766 515.295 86.5969 519.177 85.4984 521.282H85.4986Z" fill="#010101"/>
<path d="M119.768 538.554C117.604 538.592 112.666 540.163 107.884 541.691C102.649 543.361 98.4639 544.62 95.2653 545.195C93.2292 545.557 91.5891 545.646 90.3614 545.377C90.3427 545.373 90.3194 545.373 90.2985 545.366C86.0699 544.343 83.0378 541.739 81.0181 537.384C78.2655 531.464 78.1583 526.702 80.6744 520.226C80.8562 519.744 81.1707 519.145 81.5353 518.506C81.9406 517.792 82.438 517.022 83.0472 516.218C85.1137 513.496 88.259 510.625 92.0482 509.981C93.3016 509.77 94.5212 509.57 95.7281 509.38L97.939 494.555C90.7657 495.233 83.9082 495.948 80.0259 496.553C70.2469 498.076 63.8087 510.675 58.1392 518.381C53.7467 524.36 49.5939 529.999 45.5052 534.202C34.7875 545.217 25.7817 549.366 22.5876 550.592L36.1619 581.527L36.4356 581.552C42.0165 582.042 56.0494 582.825 65.9029 579.511C70.5203 577.955 75.0763 575.248 80.3506 572.108C84.6582 569.542 89.5356 566.634 95.3574 563.822C95.4727 563.769 95.5846 563.714 95.6976 563.662C98.3266 562.392 100.952 561.154 103.525 559.964C115.13 554.586 125.541 550.193 129.802 548.428C127.951 543.376 124.609 538.465 119.768 538.555L119.768 538.554Z" fill="#010101"/>
<path d="M181.711 479.951C181.711 467.995 172.005 458.287 160.049 458.287C151.305 458.287 143.761 463.489 140.347 470.962L152.025 472.707C154 470.517 156.854 469.136 160.053 469.136C166.046 469.136 170.866 473.958 170.866 479.951C170.866 484.199 168.443 487.849 164.899 489.618L163.143 501.391C173.63 499.889 181.711 490.861 181.711 479.951L181.711 479.951Z" fill="#010101"/>
<path d="M203.34 479.951C203.34 456.007 183.989 436.658 160.047 436.658C140.356 436.658 123.788 449.746 118.516 467.707L129.355 469.322C133.756 456.599 145.819 447.475 160.046 447.475C177.998 447.475 192.52 461.999 192.52 479.95C192.52 497.416 178.768 511.631 161.492 512.391L159.875 523.235C159.93 523.235 159.987 523.238 160.045 523.238C183.992 523.238 203.339 503.891 203.339 479.945L203.34 479.951Z" fill="#010101"/>
<path d="M160.047 415.002C124.146 415.002 95.095 444.05 95.095 479.951C95.095 483.384 95.3641 486.753 95.8743 490.041C96.4067 489.992 96.9425 489.937 97.4958 489.887L98.7912 489.764L101.261 473.203C101.765 469.855 104.358 467.224 107.575 466.563C113.533 443.136 134.76 425.814 160.044 425.814C189.948 425.814 214.18 450.046 214.18 479.953C214.18 509.862 189.948 534.083 160.044 534.083C159.447 534.083 158.859 534.056 158.263 534.041L156.655 544.813C157.778 544.87 158.907 544.901 160.045 544.901C195.949 544.901 225 515.851 225 479.949C225 444.048 195.95 415 160.048 415L160.047 415.002Z" fill="#010101"/>
<path d="M158.496 478.415L109.644 471.127C107.845 470.86 106.173 472.101 105.904 473.898L96.0235 540.111C99.3434 539.348 103.498 538.026 106.42 537.093C112.871 535.03 116.984 533.772 119.692 533.727C120.336 533.715 120.988 533.759 121.624 533.854C127.067 534.663 131.582 539.252 134.331 546.764L135.916 551.107L131.649 552.878C128.852 554.039 121.348 557.192 112.291 561.269L145.397 566.21C147.197 566.477 148.871 565.241 149.142 563.443L161.267 482.156C161.533 480.357 160.29 478.68 158.496 478.414V478.415Z" fill="#010101"/>
</g>
<path d="M11.4138 274.6V272H0.833828V286H4.07383V280.9H10.5538V278.3H4.07383V274.6H11.4138ZM14.752 273.74C15.912 273.74 16.692 272.98 16.692 271.94C16.692 270.98 15.912 270.26 14.752 270.26C13.592 270.26 12.812 271.02 12.812 272C12.812 272.98 13.592 273.74 14.752 273.74ZM13.192 286H16.312V275.24H13.192V286ZM22.1876 276.66V275.24H19.2076V286H22.3276V280.92C22.3276 278.86 23.4676 277.92 25.1876 277.92C25.4276 277.92 25.6276 277.94 25.8876 277.96V275.08C24.2276 275.08 22.9476 275.62 22.1876 276.66ZM31.4018 286.16C34.6218 286.16 36.4818 284.74 36.4818 282.74C36.4818 278.5 29.9818 280.28 29.9818 278.44C29.9818 277.88 30.5818 277.44 31.9818 277.44C32.9618 277.44 34.0218 277.64 35.0818 278.24L36.1218 276.02C35.1018 275.42 33.4618 275.08 31.9818 275.08C28.8418 275.08 27.0018 276.52 27.0018 278.56C27.0018 282.86 33.5018 281.06 33.5018 282.82C33.5018 283.42 32.9618 283.8 31.5218 283.8C30.2018 283.8 28.7418 283.38 27.7818 282.76L26.7418 285C27.7418 285.66 29.5818 286.16 31.4018 286.16ZM44.5068 283.28C44.1668 283.54 43.7068 283.68 43.2468 283.68C42.4068 283.68 41.9068 283.18 41.9068 282.26V277.88H44.5868V275.48H41.9068V272.86H38.7868V275.48H37.1268V277.88H38.7868V282.3C38.7868 284.86 40.2668 286.16 42.8068 286.16C43.7668 286.16 44.7068 285.94 45.3468 285.48L44.5068 283.28ZM51.4623 272V274.6H54.2623V286H57.5023V272H51.4623ZM65.9343 286.24C69.3943 286.24 71.9343 283.62 71.9343 279C71.9343 274.38 69.3943 271.76 65.9343 271.76C62.4943 271.76 59.9343 274.38 59.9343 279C59.9343 283.62 62.4943 286.24 65.9343 286.24ZM65.9343 283.5C64.3343 283.5 63.2143 282.18 63.2143 279C63.2143 275.82 64.3343 274.5 65.9343 274.5C67.5543 274.5 68.6743 275.82 68.6743 279C68.6743 282.18 67.5543 283.5 65.9343 283.5ZM79.5085 286.24C82.9685 286.24 85.5085 283.62 85.5085 279C85.5085 274.38 82.9685 271.76 79.5085 271.76C76.0685 271.76 73.5085 274.38 73.5085 279C73.5085 283.62 76.0685 286.24 79.5085 286.24ZM79.5085 283.5C77.9085 283.5 76.7885 282.18 76.7885 279C76.7885 275.82 77.9085 274.5 79.5085 274.5C81.1285 274.5 82.2485 275.82 82.2485 279C82.2485 282.18 81.1285 283.5 79.5085 283.5ZM93.0827 286.24C96.5427 286.24 99.0827 283.62 99.0827 279C99.0827 274.38 96.5427 271.76 93.0827 271.76C89.6427 271.76 87.0827 274.38 87.0827 279C87.0827 283.62 89.6427 286.24 93.0827 286.24ZM93.0827 283.5C91.4827 283.5 90.3627 282.18 90.3627 279C90.3627 275.82 91.4827 274.5 93.0827 274.5C94.7027 274.5 95.8227 275.82 95.8227 279C95.8227 282.18 94.7027 283.5 93.0827 283.5ZM110.601 286.16C113.821 286.16 115.681 284.74 115.681 282.74C115.681 278.5 109.181 280.28 109.181 278.44C109.181 277.88 109.781 277.44 111.181 277.44C112.161 277.44 113.221 277.64 114.281 278.24L115.321 276.02C114.301 275.42 112.661 275.08 111.181 275.08C108.041 275.08 106.201 276.52 106.201 278.56C106.201 282.86 112.701 281.06 112.701 282.82C112.701 283.42 112.161 283.8 110.721 283.8C109.401 283.8 107.941 283.38 106.981 282.76L105.941 285C106.941 285.66 108.781 286.16 110.601 286.16ZM119.166 273.74C120.326 273.74 121.106 272.98 121.106 271.94C121.106 270.98 120.326 270.26 119.166 270.26C118.006 270.26 117.226 271.02 117.226 272C117.226 272.98 118.006 273.74 119.166 273.74ZM117.606 286H120.726V275.24H117.606V286ZM131.762 275.24V276.62C130.942 275.58 129.702 275.08 128.202 275.08C125.222 275.08 122.822 277.14 122.822 280.28C122.822 283.42 125.222 285.48 128.202 285.48C129.602 285.48 130.782 285.04 131.602 284.14V284.6C131.602 286.54 130.642 287.54 128.442 287.54C127.062 287.54 125.562 287.06 124.642 286.32L123.402 288.56C124.662 289.54 126.642 290.04 128.682 290.04C132.562 290.04 134.722 288.2 134.722 284.2V275.24H131.762ZM128.822 282.92C127.182 282.92 125.982 281.86 125.982 280.28C125.982 278.7 127.182 277.64 128.822 277.64C130.462 277.64 131.642 278.7 131.642 280.28C131.642 281.86 130.462 282.92 128.822 282.92ZM144.166 275.08C142.706 275.08 141.446 275.58 140.606 276.5V275.24H137.626V286H140.746V280.68C140.746 278.7 141.826 277.78 143.326 277.78C144.706 277.78 145.506 278.58 145.506 280.32V286H148.626V279.84C148.626 276.56 146.706 275.08 144.166 275.08ZM164.838 275.24V280.56C164.838 282.54 163.798 283.46 162.358 283.46C160.978 283.46 160.178 282.66 160.178 280.86V275.24H157.058V281.32C157.058 284.64 158.958 286.16 161.658 286.16C162.978 286.16 164.178 285.66 164.998 284.72V286H167.958V275.24H164.838ZM177.208 275.08C175.768 275.08 174.608 275.54 173.828 276.48V275.24H170.848V289.88H173.968V284.86C174.768 285.74 175.868 286.16 177.208 286.16C180.228 286.16 182.568 284 182.568 280.62C182.568 277.24 180.228 275.08 177.208 275.08ZM176.668 283.6C175.108 283.6 173.928 282.48 173.928 280.62C173.928 278.76 175.108 277.64 176.668 277.64C178.228 277.64 179.408 278.76 179.408 280.62C179.408 282.48 178.228 283.6 176.668 283.6ZM188.277 286.16C191.497 286.16 193.357 284.74 193.357 282.74C193.357 278.5 186.857 280.28 186.857 278.44C186.857 277.88 187.457 277.44 188.857 277.44C189.837 277.44 190.897 277.64 191.957 278.24L192.997 276.02C191.977 275.42 190.337 275.08 188.857 275.08C185.717 275.08 183.877 276.52 183.877 278.56C183.877 282.86 190.377 281.06 190.377 282.82C190.377 283.42 189.837 283.8 188.397 283.8C187.077 283.8 185.617 283.38 184.657 282.76L183.617 285C184.617 285.66 186.457 286.16 188.277 286.16ZM209.086 275.24V276.62C208.266 275.58 207.026 275.08 205.526 275.08C202.546 275.08 200.146 277.14 200.146 280.28C200.146 283.42 202.546 285.48 205.526 285.48C206.926 285.48 208.106 285.04 208.926 284.14V284.6C208.926 286.54 207.966 287.54 205.766 287.54C204.386 287.54 202.886 287.06 201.966 286.32L200.726 288.56C201.986 289.54 203.966 290.04 206.006 290.04C209.886 290.04 212.046 288.2 212.046 284.2V275.24H209.086ZM206.146 282.92C204.506 282.92 203.306 281.86 203.306 280.28C203.306 278.7 204.506 277.64 206.146 277.64C207.786 277.64 208.966 278.7 208.966 280.28C208.966 281.86 207.786 282.92 206.146 282.92ZM225.49 280.66C225.49 277.2 223.05 275.08 219.89 275.08C216.61 275.08 214.15 277.4 214.15 280.62C214.15 283.82 216.57 286.16 220.29 286.16C222.23 286.16 223.73 285.56 224.73 284.42L223.07 282.62C222.33 283.32 221.51 283.66 220.37 283.66C218.73 283.66 217.59 282.84 217.29 281.5H225.43C225.45 281.24 225.49 280.9 225.49 280.66ZM219.91 277.44C221.31 277.44 222.33 278.32 222.55 279.68H217.25C217.47 278.3 218.49 277.44 219.91 277.44ZM233.667 283.28C233.327 283.54 232.867 283.68 232.407 283.68C231.567 283.68 231.067 283.18 231.067 282.26V277.88H233.747V275.48H231.067V272.86H227.947V275.48H226.287V277.88H227.947V282.3C227.947 284.86 229.427 286.16 231.967 286.16C232.927 286.16 233.867 285.94 234.507 285.48L233.667 283.28ZM246.262 275.08C244.542 275.08 242.802 275.54 241.622 276.38L242.742 278.56C243.522 277.94 244.702 277.56 245.842 277.56C247.522 277.56 248.322 278.34 248.322 279.68H245.842C242.562 279.68 241.222 281 241.222 282.9C241.222 284.76 242.722 286.16 245.242 286.16C246.822 286.16 247.942 285.64 248.522 284.66V286H251.442V279.86C251.442 276.6 249.542 275.08 246.262 275.08ZM246.022 284.06C244.922 284.06 244.262 283.54 244.262 282.76C244.262 282.04 244.722 281.5 246.182 281.5H248.322V282.6C247.962 283.58 247.062 284.06 246.022 284.06ZM13.692 299.02C13.692 297.96 14.192 297.46 15.112 297.46C15.592 297.46 16.032 297.6 16.372 297.84L17.192 295.58C16.612 295.18 15.692 295 14.812 295C12.132 295 10.652 296.58 10.652 299V299.48H8.99203V301.88H10.652V310H13.772V301.88H16.452V299.48H13.692V299.02ZM22.588 300.66V299.24H19.608V310H22.728V304.92C22.728 302.86 23.868 301.92 25.588 301.92C25.828 301.92 26.028 301.94 26.288 301.96V299.08C24.628 299.08 23.348 299.62 22.588 300.66ZM38.5855 304.66C38.5855 301.2 36.1455 299.08 32.9855 299.08C29.7055 299.08 27.2455 301.4 27.2455 304.62C27.2455 307.82 29.6655 310.16 33.3855 310.16C35.3255 310.16 36.8255 309.56 37.8255 308.42L36.1655 306.62C35.4255 307.32 34.6055 307.66 33.4655 307.66C31.8255 307.66 30.6855 306.84 30.3855 305.5H38.5255C38.5455 305.24 38.5855 304.9 38.5855 304.66ZM33.0055 301.44C34.4055 301.44 35.4255 302.32 35.6455 303.68H30.3455C30.5655 302.3 31.5855 301.44 33.0055 301.44ZM51.2027 304.66C51.2027 301.2 48.7627 299.08 45.6027 299.08C42.3227 299.08 39.8627 301.4 39.8627 304.62C39.8627 307.82 42.2827 310.16 46.0027 310.16C47.9427 310.16 49.4427 309.56 50.4427 308.42L48.7827 306.62C48.0427 307.32 47.2227 307.66 46.0827 307.66C44.4427 307.66 43.3027 306.84 43.0027 305.5H51.1427C51.1627 305.24 51.2027 304.9 51.2027 304.66ZM45.6227 301.44C47.0227 301.44 48.0427 302.32 48.2627 303.68H42.9627C43.1827 302.3 44.2027 301.44 45.6227 301.44ZM68.8039 296V304.5L61.8439 296H59.1639V310H62.3639V301.5L69.3439 310H72.0039V296H68.8039ZM85.8963 298.6V296H75.3163V310H78.5563V304.9H85.0363V302.3H78.5563V298.6H85.8963ZM94.653 310.24C97.093 310.24 99.113 309.36 100.433 307.74L98.353 305.82C97.413 306.92 96.233 307.48 94.833 307.48C92.213 307.48 90.353 305.64 90.353 303C90.353 300.36 92.213 298.52 94.833 298.52C96.233 298.52 97.413 299.08 98.353 300.16L100.433 298.24C99.113 296.64 97.093 295.76 94.673 295.76C90.313 295.76 87.073 298.78 87.073 303C87.073 307.22 90.313 310.24 94.653 310.24ZM111.685 310.16C114.905 310.16 116.765 308.74 116.765 306.74C116.765 302.5 110.265 304.28 110.265 302.44C110.265 301.88 110.865 301.44 112.265 301.44C113.245 301.44 114.305 301.64 115.365 302.24L116.405 300.02C115.385 299.42 113.745 299.08 112.265 299.08C109.125 299.08 107.285 300.52 107.285 302.56C107.285 306.86 113.785 305.06 113.785 306.82C113.785 307.42 113.245 307.8 111.805 307.8C110.485 307.8 109.025 307.38 108.065 306.76L107.025 309C108.025 309.66 109.865 310.16 111.685 310.16ZM132.47 299.08C130.85 299.08 129.45 299.74 128.59 300.84C127.83 299.66 126.55 299.08 125.05 299.08C123.67 299.08 122.47 299.56 121.67 300.48V299.24H118.69V310H121.81V304.6C121.81 302.68 122.79 301.78 124.17 301.78C125.47 301.78 126.21 302.58 126.21 304.32V310H129.33V304.6C129.33 302.68 130.31 301.78 131.71 301.78C132.97 301.78 133.75 302.58 133.75 304.32V310H136.87V303.84C136.87 300.56 135.03 299.08 132.47 299.08ZM144.007 299.08C142.287 299.08 140.547 299.54 139.367 300.38L140.487 302.56C141.267 301.94 142.447 301.56 143.587 301.56C145.267 301.56 146.067 302.34 146.067 303.68H143.587C140.307 303.68 138.967 305 138.967 306.9C138.967 308.76 140.467 310.16 142.987 310.16C144.567 310.16 145.687 309.64 146.267 308.66V310H149.187V303.86C149.187 300.6 147.287 299.08 144.007 299.08ZM143.767 308.06C142.667 308.06 142.007 307.54 142.007 306.76C142.007 306.04 142.467 305.5 143.927 305.5H146.067V306.6C145.707 307.58 144.807 308.06 143.767 308.06ZM154.99 300.66V299.24H152.01V310H155.13V304.92C155.13 302.86 156.27 301.92 157.99 301.92C158.23 301.92 158.43 301.94 158.69 301.96V299.08C157.03 299.08 155.75 299.62 154.99 300.66ZM167.017 307.28C166.677 307.54 166.217 307.68 165.757 307.68C164.917 307.68 164.417 307.18 164.417 306.26V301.88H167.097V299.48H164.417V296.86H161.297V299.48H159.637V301.88H161.297V306.3C161.297 308.86 162.777 310.16 165.317 310.16C166.277 310.16 167.217 309.94 167.857 309.48L167.017 307.28ZM181.632 299.08C180.192 299.08 179.032 299.54 178.252 300.48V299.24H175.272V313.88H178.392V308.86C179.192 309.74 180.292 310.16 181.632 310.16C184.652 310.16 186.992 308 186.992 304.62C186.992 301.24 184.652 299.08 181.632 299.08ZM181.092 307.6C179.532 307.6 178.352 306.48 178.352 304.62C178.352 302.76 179.532 301.64 181.092 301.64C182.652 301.64 183.832 302.76 183.832 304.62C183.832 306.48 182.652 307.6 181.092 307.6ZM192.061 300.66V299.24H189.081V310H192.201V304.92C192.201 302.86 193.341 301.92 195.061 301.92C195.301 301.92 195.501 301.94 195.761 301.96V299.08C194.101 299.08 192.821 299.62 192.061 300.66ZM202.638 310.16C206.058 310.16 208.538 307.86 208.538 304.62C208.538 301.38 206.058 299.08 202.638 299.08C199.218 299.08 196.718 301.38 196.718 304.62C196.718 307.86 199.218 310.16 202.638 310.16ZM202.638 307.6C201.078 307.6 199.878 306.48 199.878 304.62C199.878 302.76 201.078 301.64 202.638 301.64C204.198 301.64 205.378 302.76 205.378 304.62C205.378 306.48 204.198 307.6 202.638 307.6ZM221.524 297.74C222.684 297.74 223.464 296.98 223.464 295.94C223.464 294.98 222.684 294.26 221.524 294.26C220.364 294.26 219.584 295.02 219.584 296C219.584 296.98 220.364 297.74 221.524 297.74ZM215.464 297.46C215.944 297.46 216.384 297.6 216.724 297.84L217.544 295.58C216.964 295.18 216.044 295 215.164 295C212.484 295 211.004 296.58 211.004 299V299.48H209.344V301.88H211.004V310H214.124V301.88H216.804V299.48H214.044V299.02C214.044 297.96 214.544 297.46 215.464 297.46ZM219.964 310H223.084V299.24H219.964V310ZM225.975 310H229.095V295.16H225.975V310ZM242.531 304.66C242.531 301.2 240.091 299.08 236.931 299.08C233.651 299.08 231.191 301.4 231.191 304.62C231.191 307.82 233.611 310.16 237.331 310.16C239.271 310.16 240.771 309.56 241.771 308.42L240.111 306.62C239.371 307.32 238.551 307.66 237.411 307.66C235.771 307.66 234.631 306.84 234.331 305.5H242.471C242.491 305.24 242.531 304.9 242.531 304.66ZM236.951 301.44C238.351 301.44 239.371 302.32 239.591 303.68H234.291C234.511 302.3 235.531 301.44 236.951 301.44ZM109.417 334.16C111.677 334.16 113.457 333.16 114.237 331.44L111.817 330.12C111.237 331.16 110.377 331.6 109.397 331.6C107.817 331.6 106.577 330.5 106.577 328.62C106.577 326.74 107.817 325.64 109.397 325.64C110.377 325.64 111.237 326.1 111.817 327.12L114.237 325.82C113.457 324.06 111.677 323.08 109.417 323.08C105.917 323.08 103.417 325.38 103.417 328.62C103.417 331.86 105.917 334.16 109.417 334.16ZM120.374 323.08C118.654 323.08 116.914 323.54 115.734 324.38L116.854 326.56C117.634 325.94 118.814 325.56 119.954 325.56C121.634 325.56 122.434 326.34 122.434 327.68H119.954C116.674 327.68 115.334 329 115.334 330.9C115.334 332.76 116.834 334.16 119.354 334.16C120.934 334.16 122.054 333.64 122.634 332.66V334H125.554V327.86C125.554 324.6 123.654 323.08 120.374 323.08ZM120.134 332.06C119.034 332.06 118.374 331.54 118.374 330.76C118.374 330.04 118.834 329.5 120.294 329.5H122.434V330.6C122.074 331.58 121.174 332.06 120.134 332.06ZM131.358 324.66V323.24H128.378V334H131.498V328.92C131.498 326.86 132.638 325.92 134.358 325.92C134.598 325.92 134.798 325.94 135.058 325.96V323.08C133.398 323.08 132.118 323.62 131.358 324.66ZM144.655 319.16V324.38C143.875 323.5 142.755 323.08 141.435 323.08C138.395 323.08 136.055 325.24 136.055 328.62C136.055 332 138.395 334.16 141.435 334.16C142.875 334.16 144.015 333.7 144.795 332.76V334H147.775V319.16H144.655ZM141.975 331.6C140.415 331.6 139.215 330.48 139.215 328.62C139.215 326.76 140.415 325.64 141.975 325.64C143.515 325.64 144.715 326.76 144.715 328.62C144.715 330.48 143.515 331.6 141.975 331.6Z" fill="black"/>
<path d="M124.694 127.999C89.357 127.808 60.8466 99.0264 61.0006 63.6937C61.153 28.357 89.9736 -0.15336 125.306 0.000620794C160.643 0.152996 189.153 28.9736 188.999 64.3062C188.808 99.643 160.026 128.153 124.694 127.999ZM116.761 73.7709L107.601 64.4585C105.454 62.2745 101.929 62.2745 99.7825 64.4198C97.5984 66.5664 97.5984 70.091 99.7437 72.2378L112.812 85.46C114.958 87.644 118.483 87.644 120.63 85.4987L152.094 54.3417C154.278 52.195 154.278 48.6704 152.133 46.5236C149.986 44.3769 146.462 44.3395 144.315 46.4848L116.761 73.7709Z" fill="#66FFAC"/>
<defs>
<filter id="filter0_d_0_1" x="36.2917" y="142.432" width="176.323" height="73.396" filterUnits="userSpaceOnUse" color-interpolation-filters="sRGB">
<feFlood flood-opacity="0" result="BackgroundImageFix"/>
<feColorMatrix in="SourceAlpha" type="matrix" values="0 0 0 0 0 0 0 0 0 0 0 0 0 0 0 0 0 0 127 0" result="hardAlpha"/>
<feOffset dy="4"/>
<feGaussianBlur stdDeviation="2"/>
<feComposite in2="hardAlpha" operator="out"/>
<feColorMatrix type="matrix" values="0 0 0 0 0 0 0 0 0 0 0 0 0 0 0 0 0 0 0.25 0"/>
<feBlend mode="normal" in2="BackgroundImageFix" result="effect1_dropShadow_0_1"/>
<feBlend mode="normal" in="SourceGraphic" in2="effect1_dropShadow_0_1" result="shape"/>
</filter>
<filter id="filter1_d_0_1" x="16.6808" y="229.336" width="218.865" height="23.928" filterUnits="userSpaceOnUse" color-interpolation-filters="sRGB">
<feFlood flood-opacity="0" result="BackgroundImageFix"/>
<feColorMatrix in="SourceAlpha" type="matrix" values="0 0 0 0 0 0 0 0 0 0 0 0 0 0 0 0 0 0 127 0" result="hardAlpha"/>
<feOffset dy="4"/>
<feGaussianBlur stdDeviation="2"/>
<feComposite in2="hardAlpha" operator="out"/>
<feColorMatrix type="matrix" values="0 0 0 0 0 0 0 0 0 0 0 0 0 0 0 0 0 0 0.25 0"/>
<feBlend mode="normal" in2="BackgroundImageFix" result="effect1_dropShadow_0_1"/>
<feBlend mode="normal" in="SourceGraphic" in2="effect1_dropShadow_0_1" result="shape"/>
</filter>
<filter id="filter2_d_0_1" x="18.5876" y="415" width="210.413" height="175" filterUnits="userSpaceOnUse" color-interpolation-filters="sRGB">
<feFlood flood-opacity="0" result="BackgroundImageFix"/>
<feColorMatrix in="SourceAlpha" type="matrix" values="0 0 0 0 0 0 0 0 0 0 0 0 0 0 0 0 0 0 127 0" result="hardAlpha"/>
<feOffset dy="4"/>
<feGaussianBlur stdDeviation="2"/>
<feComposite in2="hardAlpha" operator="out"/>
<feColorMatrix type="matrix" values="0 0 0 0 0 0 0 0 0 0 0 0 0 0 0 0 0 0 0.25 0"/>
<feBlend mode="normal" in2="BackgroundImageFix" result="effect1_dropShadow_0_1"/>
<feBlend mode="normal" in="SourceGraphic" in2="effect1_dropShadow_0_1" result="shape"/>
</filter>
</defs>
</svg>
