<svg width="353" height="590" viewBox="0 0 353 590" fill="none" xmlns="http://www.w3.org/2000/svg">
<g filter="url(#filter0_d_0_1)">
<path d="M91.2918 143.2V151.52H100.252V188H110.62V143.2H91.2918ZM124.354 176.096C120.834 176.096 118.146 178.528 118.146 182.24C118.146 184.864 119.49 186.848 121.602 187.68L118.786 197.856H125.122L128.77 188.64C130.242 185.12 130.498 183.904 130.498 182.24C130.498 178.592 127.938 176.096 124.354 176.096ZM153.54 188.768C164.612 188.768 172.74 180.384 172.74 165.6C172.74 150.816 164.612 142.432 153.54 142.432C142.532 142.432 134.34 150.816 134.34 165.6C134.34 180.384 142.532 188.768 153.54 188.768ZM153.54 180C148.42 180 144.836 175.776 144.836 165.6C144.836 155.424 148.42 151.2 153.54 151.2C158.724 151.2 162.308 155.424 162.308 165.6C162.308 175.776 158.724 180 153.54 180ZM196.977 188.768C208.049 188.768 216.177 180.384 216.177 165.6C216.177 150.816 208.049 142.432 196.977 142.432C185.969 142.432 177.777 150.816 177.777 165.6C177.777 180.384 185.969 188.768 196.977 188.768ZM196.977 180C191.857 180 188.273 175.776 188.273 165.6C188.273 155.424 191.857 151.2 196.977 151.2C202.161 151.2 205.745 155.424 205.745 165.6C205.745 175.776 202.161 180 196.977 180ZM240.415 188.768C251.487 188.768 259.615 180.384 259.615 165.6C259.615 150.816 251.487 142.432 240.415 142.432C229.407 142.432 221.215 150.816 221.215 165.6C221.215 180.384 229.407 188.768 240.415 188.768ZM240.415 180C235.295 180 231.711 175.776 231.711 165.6C231.711 155.424 235.295 151.2 240.415 151.2C245.599 151.2 249.183 155.424 249.183 165.6C249.183 175.776 245.599 180 240.415 180ZM149.137 205.112C151.391 205.112 152.693 204.118 152.693 202.718C152.693 199.75 148.143 200.996 148.143 199.708C148.143 199.316 148.563 199.008 149.543 199.008C150.229 199.008 150.971 199.148 151.713 199.568L152.441 198.014C151.727 197.594 150.579 197.356 149.543 197.356C147.345 197.356 146.057 198.364 146.057 199.792C146.057 202.802 150.607 201.542 150.607 202.774C150.607 203.194 150.229 203.46 149.221 203.46C148.297 203.46 147.275 203.166 146.603 202.732L145.875 204.3C146.575 204.762 147.863 205.112 149.137 205.112ZM155.132 196.418C155.944 196.418 156.49 195.886 156.49 195.158C156.49 194.486 155.944 193.982 155.132 193.982C154.32 193.982 153.774 194.514 153.774 195.2C153.774 195.886 154.32 196.418 155.132 196.418ZM154.04 205H156.224V197.468H154.04V205ZM163.949 197.468V198.434C163.375 197.706 162.507 197.356 161.457 197.356C159.371 197.356 157.691 198.798 157.691 200.996C157.691 203.194 159.371 204.636 161.457 204.636C162.437 204.636 163.263 204.328 163.837 203.698V204.02C163.837 205.378 163.165 206.078 161.625 206.078C160.659 206.078 159.609 205.742 158.965 205.224L158.097 206.792C158.979 207.478 160.365 207.828 161.793 207.828C164.509 207.828 166.021 206.54 166.021 203.74V197.468H163.949ZM161.891 202.844C160.743 202.844 159.903 202.102 159.903 200.996C159.903 199.89 160.743 199.148 161.891 199.148C163.039 199.148 163.865 199.89 163.865 200.996C163.865 202.102 163.039 202.844 161.891 202.844ZM172.632 197.356C171.61 197.356 170.728 197.706 170.14 198.35V197.468H168.054V205H170.238V201.276C170.238 199.89 170.994 199.246 172.044 199.246C173.01 199.246 173.57 199.806 173.57 201.024V205H175.754V200.688C175.754 198.392 174.41 197.356 172.632 197.356ZM187.102 197.468V201.192C187.102 202.578 186.374 203.222 185.366 203.222C184.4 203.222 183.84 202.662 183.84 201.402V197.468H181.656V201.724C181.656 204.048 182.986 205.112 184.876 205.112C185.8 205.112 186.64 204.762 187.214 204.104V205H189.286V197.468H187.102ZM195.762 197.356C194.754 197.356 193.942 197.678 193.396 198.336V197.468H191.31V207.716H193.494V204.202C194.054 204.818 194.824 205.112 195.762 205.112C197.876 205.112 199.514 203.6 199.514 201.234C199.514 198.868 197.876 197.356 195.762 197.356ZM195.384 203.32C194.292 203.32 193.466 202.536 193.466 201.234C193.466 199.932 194.292 199.148 195.384 199.148C196.476 199.148 197.302 199.932 197.302 201.234C197.302 202.536 196.476 203.32 195.384 203.32ZM203.51 205.112C205.764 205.112 207.066 204.118 207.066 202.718C207.066 199.75 202.516 200.996 202.516 199.708C202.516 199.316 202.936 199.008 203.916 199.008C204.602 199.008 205.344 199.148 206.086 199.568L206.814 198.014C206.1 197.594 204.952 197.356 203.916 197.356C201.718 197.356 200.43 198.364 200.43 199.792C200.43 202.802 204.98 201.542 204.98 202.774C204.98 203.194 204.602 203.46 203.594 203.46C202.67 203.46 201.648 203.166 200.976 202.732L200.248 204.3C200.948 204.762 202.236 205.112 203.51 205.112Z" fill="#FFE0B2"/>
</g>
<rect y="224" width="353" height="29" rx="14.5" fill="#66FFAC"/>
<g filter="url(#filter1_d_0_1)">
<path d="M76.6088 245H80.1728V232.504H85.1008V229.6H71.6808V232.504H76.6088V245ZM97.7509 245H101.491L94.6049 229.6H91.0849L84.2209 245H87.8729L89.2369 241.7H96.3869L97.7509 245ZM90.3809 238.994L92.8229 233.098L95.2649 238.994H90.3809ZM116.729 245L113.275 240.05C115.277 239.192 116.443 237.498 116.443 235.188C116.443 231.734 113.869 229.6 109.755 229.6H103.089V245H106.653V240.71H109.755H109.931L112.901 245H116.729ZM112.835 235.188C112.835 236.86 111.735 237.872 109.557 237.872H106.653V232.504H109.557C111.735 232.504 112.835 233.494 112.835 235.188ZM129.672 241.568C128.77 242.052 127.868 242.228 126.9 242.228C123.952 242.228 121.906 240.182 121.906 237.3C121.906 234.374 123.952 232.372 126.944 232.372C128.506 232.372 129.804 232.922 130.926 234.11L133.214 231.998C131.718 230.26 129.474 229.336 126.768 229.336C121.862 229.336 118.298 232.658 118.298 237.3C118.298 241.942 121.862 245.264 126.702 245.264C128.902 245.264 131.234 244.582 132.928 243.306V237.058H129.672V241.568ZM139.781 242.14V238.576H146.931V235.804H139.781V232.46H147.877V229.6H136.239V245H148.163V242.14H139.781ZM154.189 245H157.753V232.504H162.681V229.6H149.261V232.504H154.189V245ZM184.469 245L181.015 240.05C183.017 239.192 184.183 237.498 184.183 235.188C184.183 231.734 181.609 229.6 177.495 229.6H170.829V245H174.393V240.71H177.495H177.671L180.641 245H184.469ZM180.575 235.188C180.575 236.86 179.475 237.872 177.297 237.872H174.393V232.504H177.297C179.475 232.504 180.575 233.494 180.575 235.188ZM190.549 242.14V238.576H197.699V235.804H190.549V232.46H198.645V229.6H187.007V245H198.931V242.14H190.549ZM213.272 245H217.012L210.126 229.6H206.606L199.742 245H203.394L204.758 241.7H211.908L213.272 245ZM205.902 238.994L208.344 233.098L210.786 238.994H205.902ZM225.765 245.264C228.449 245.264 230.671 244.296 232.123 242.514L229.835 240.402C228.801 241.612 227.503 242.228 225.963 242.228C223.081 242.228 221.035 240.204 221.035 237.3C221.035 234.396 223.081 232.372 225.963 232.372C227.503 232.372 228.801 232.988 229.835 234.176L232.123 232.064C230.671 230.304 228.449 229.336 225.787 229.336C220.991 229.336 217.427 232.658 217.427 237.3C217.427 241.942 220.991 245.264 225.765 245.264ZM245.09 229.6V235.672H238.094V229.6H234.53V245H238.094V238.686H245.09V245H248.654V229.6H245.09ZM255.84 242.14V238.576H262.99V235.804H255.84V232.46H263.936V229.6H252.298V245H264.222V242.14H255.84ZM267.057 245H274.053C279.091 245 282.545 241.964 282.545 237.3C282.545 232.636 279.091 229.6 274.053 229.6H267.057V245ZM270.621 242.074V232.526H273.877C276.935 232.526 278.937 234.352 278.937 237.3C278.937 240.248 276.935 242.074 273.877 242.074H270.621Z" fill="#FFE0B2"/>
</g>
<g filter="url(#filter2_d_0_1)">
<path d="M136.394 535.351C137.423 537.569 138.708 539.037 140.42 539.928L142.256 539.379L143.159 533.319L136.386 535.339C136.39 535.339 136.39 535.347 136.394 535.351L136.394 535.351Z" fill="#010101"/>
<path d="M135.055 531.573L143.809 528.968L144.712 522.906L135.002 525.799C134.586 527.83 134.607 529.659 135.055 531.573L135.055 531.573Z" fill="#010101"/>
<path d="M136.499 521.282L145.353 518.645L145.986 514.389C145.278 514.506 144.584 514.616 143.859 514.739C140.577 515.295 137.597 519.177 136.498 521.282H136.499Z" fill="#010101"/>
<path d="M170.768 538.554C168.604 538.592 163.666 540.163 158.884 541.691C153.649 543.361 149.464 544.62 146.265 545.195C144.229 545.557 142.589 545.646 141.361 545.377C141.343 545.373 141.319 545.373 141.298 545.366C137.07 544.343 134.038 541.739 132.018 537.384C129.265 531.464 129.158 526.702 131.674 520.226C131.856 519.744 132.171 519.145 132.535 518.506C132.941 517.792 133.438 517.022 134.047 516.218C136.114 513.496 139.259 510.625 143.048 509.981C144.302 509.77 145.521 509.57 146.728 509.38L148.939 494.555C141.766 495.233 134.908 495.948 131.026 496.553C121.247 498.076 114.809 510.675 109.139 518.381C104.747 524.36 100.594 529.999 96.5052 534.202C85.7875 545.217 76.7817 549.366 73.5876 550.592L87.1619 581.527L87.4356 581.552C93.0165 582.042 107.049 582.825 116.903 579.511C121.52 577.955 126.076 575.248 131.351 572.108C135.658 569.542 140.536 566.634 146.357 563.822C146.473 563.769 146.585 563.714 146.698 563.662C149.327 562.392 151.952 561.154 154.525 559.964C166.13 554.586 176.541 550.193 180.802 548.428C178.951 543.376 175.609 538.465 170.768 538.555L170.768 538.554Z" fill="#010101"/>
<path d="M232.711 479.951C232.711 467.995 223.005 458.287 211.049 458.287C202.305 458.287 194.761 463.489 191.347 470.962L203.025 472.707C205 470.517 207.854 469.136 211.053 469.136C217.046 469.136 221.866 473.958 221.866 479.951C221.866 484.199 219.443 487.849 215.899 489.618L214.143 501.391C224.63 499.889 232.711 490.861 232.711 479.951L232.711 479.951Z" fill="#010101"/>
<path d="M254.34 479.951C254.34 456.007 234.989 436.658 211.047 436.658C191.356 436.658 174.788 449.746 169.516 467.707L180.355 469.322C184.756 456.599 196.819 447.475 211.046 447.475C228.998 447.475 243.52 461.999 243.52 479.95C243.52 497.416 229.768 511.631 212.492 512.391L210.875 523.235C210.93 523.235 210.987 523.238 211.045 523.238C234.992 523.238 254.339 503.891 254.339 479.945L254.34 479.951Z" fill="#010101"/>
<path d="M211.047 415.002C175.146 415.002 146.095 444.05 146.095 479.951C146.095 483.384 146.364 486.753 146.874 490.041C147.407 489.992 147.942 489.937 148.496 489.887L149.791 489.764L152.261 473.203C152.765 469.855 155.358 467.224 158.575 466.563C164.533 443.136 185.76 425.814 211.044 425.814C240.948 425.814 265.18 450.046 265.18 479.953C265.18 509.862 240.948 534.083 211.044 534.083C210.447 534.083 209.859 534.056 209.263 534.041L207.655 544.813C208.778 544.87 209.907 544.901 211.045 544.901C246.949 544.901 276 515.851 276 479.949C276 444.048 246.95 415 211.048 415L211.047 415.002Z" fill="#010101"/>
<path d="M209.496 478.415L160.644 471.127C158.845 470.86 157.173 472.101 156.904 473.898L147.023 540.111C150.343 539.348 154.498 538.026 157.42 537.093C163.871 535.03 167.984 533.772 170.692 533.727C171.336 533.715 171.988 533.759 172.624 533.854C178.067 534.663 182.582 539.252 185.331 546.764L186.916 551.107L182.649 552.878C179.852 554.039 172.348 557.192 163.291 561.269L196.397 566.21C198.197 566.477 199.871 565.241 200.142 563.443L212.267 482.156C212.533 480.357 211.29 478.68 209.496 478.414V478.415Z" fill="#010101"/>
</g>
<path d="M62.4138 274.6V272H51.8338V286H55.0738V280.9H61.5538V278.3H55.0738V274.6H62.4138ZM65.752 273.74C66.912 273.74 67.692 272.98 67.692 271.94C67.692 270.98 66.912 270.26 65.752 270.26C64.592 270.26 63.812 271.02 63.812 272C63.812 272.98 64.592 273.74 65.752 273.74ZM64.192 286H67.312V275.24H64.192V286ZM73.1876 276.66V275.24H70.2076V286H73.3276V280.92C73.3276 278.86 74.4676 277.92 76.1876 277.92C76.4276 277.92 76.6276 277.94 76.8876 277.96V275.08C75.2276 275.08 73.9476 275.62 73.1876 276.66ZM82.4018 286.16C85.6218 286.16 87.4818 284.74 87.4818 282.74C87.4818 278.5 80.9818 280.28 80.9818 278.44C80.9818 277.88 81.5818 277.44 82.9818 277.44C83.9618 277.44 85.0218 277.64 86.0818 278.24L87.1218 276.02C86.1018 275.42 84.4618 275.08 82.9818 275.08C79.8418 275.08 78.0018 276.52 78.0018 278.56C78.0018 282.86 84.5018 281.06 84.5018 282.82C84.5018 283.42 83.9618 283.8 82.5218 283.8C81.2018 283.8 79.7418 283.38 78.7818 282.76L77.7418 285C78.7418 285.66 80.5818 286.16 82.4018 286.16ZM95.5068 283.28C95.1668 283.54 94.7068 283.68 94.2468 283.68C93.4068 283.68 92.9068 283.18 92.9068 282.26V277.88H95.5868V275.48H92.9068V272.86H89.7868V275.48H88.1268V277.88H89.7868V282.3C89.7868 284.86 91.2668 286.16 93.8068 286.16C94.7668 286.16 95.7068 285.94 96.3468 285.48L95.5068 283.28ZM102.462 272V274.6H105.262V286H108.502V272H102.462ZM116.934 286.24C120.394 286.24 122.934 283.62 122.934 279C122.934 274.38 120.394 271.76 116.934 271.76C113.494 271.76 110.934 274.38 110.934 279C110.934 283.62 113.494 286.24 116.934 286.24ZM116.934 283.5C115.334 283.5 114.214 282.18 114.214 279C114.214 275.82 115.334 274.5 116.934 274.5C118.554 274.5 119.674 275.82 119.674 279C119.674 282.18 118.554 283.5 116.934 283.5ZM130.509 286.24C133.969 286.24 136.509 283.62 136.509 279C136.509 274.38 133.969 271.76 130.509 271.76C127.069 271.76 124.509 274.38 124.509 279C124.509 283.62 127.069 286.24 130.509 286.24ZM130.509 283.5C128.909 283.5 127.789 282.18 127.789 279C127.789 275.82 128.909 274.5 130.509 274.5C132.129 274.5 133.249 275.82 133.249 279C133.249 282.18 132.129 283.5 130.509 283.5ZM144.083 286.24C147.543 286.24 150.083 283.62 150.083 279C150.083 274.38 147.543 271.76 144.083 271.76C140.643 271.76 138.083 274.38 138.083 279C138.083 283.62 140.643 286.24 144.083 286.24ZM144.083 283.5C142.483 283.5 141.363 282.18 141.363 279C141.363 275.82 142.483 274.5 144.083 274.5C145.703 274.5 146.823 275.82 146.823 279C146.823 282.18 145.703 283.5 144.083 283.5ZM161.601 286.16C164.821 286.16 166.681 284.74 166.681 282.74C166.681 278.5 160.181 280.28 160.181 278.44C160.181 277.88 160.781 277.44 162.181 277.44C163.161 277.44 164.221 277.64 165.281 278.24L166.321 276.02C165.301 275.42 163.661 275.08 162.181 275.08C159.041 275.08 157.201 276.52 157.201 278.56C157.201 282.86 163.701 281.06 163.701 282.82C163.701 283.42 163.161 283.8 161.721 283.8C160.401 283.8 158.941 283.38 157.981 282.76L156.941 285C157.941 285.66 159.781 286.16 161.601 286.16ZM170.166 273.74C171.326 273.74 172.106 272.98 172.106 271.94C172.106 270.98 171.326 270.26 170.166 270.26C169.006 270.26 168.226 271.02 168.226 272C168.226 272.98 169.006 273.74 170.166 273.74ZM168.606 286H171.726V275.24H168.606V286ZM182.762 275.24V276.62C181.942 275.58 180.702 275.08 179.202 275.08C176.222 275.08 173.822 277.14 173.822 280.28C173.822 283.42 176.222 285.48 179.202 285.48C180.602 285.48 181.782 285.04 182.602 284.14V284.6C182.602 286.54 181.642 287.54 179.442 287.54C178.062 287.54 176.562 287.06 175.642 286.32L174.402 288.56C175.662 289.54 177.642 290.04 179.682 290.04C183.562 290.04 185.722 288.2 185.722 284.2V275.24H182.762ZM179.822 282.92C178.182 282.92 176.982 281.86 176.982 280.28C176.982 278.7 178.182 277.64 179.822 277.64C181.462 277.64 182.642 278.7 182.642 280.28C182.642 281.86 181.462 282.92 179.822 282.92ZM195.166 275.08C193.706 275.08 192.446 275.58 191.606 276.5V275.24H188.626V286H191.746V280.68C191.746 278.7 192.826 277.78 194.326 277.78C195.706 277.78 196.506 278.58 196.506 280.32V286H199.626V279.84C199.626 276.56 197.706 275.08 195.166 275.08ZM215.838 275.24V280.56C215.838 282.54 214.798 283.46 213.358 283.46C211.978 283.46 211.178 282.66 211.178 280.86V275.24H208.058V281.32C208.058 284.64 209.958 286.16 212.658 286.16C213.978 286.16 215.178 285.66 215.998 284.72V286H218.958V275.24H215.838ZM228.208 275.08C226.768 275.08 225.608 275.54 224.828 276.48V275.24H221.848V289.88H224.968V284.86C225.768 285.74 226.868 286.16 228.208 286.16C231.228 286.16 233.568 284 233.568 280.62C233.568 277.24 231.228 275.08 228.208 275.08ZM227.668 283.6C226.108 283.6 224.928 282.48 224.928 280.62C224.928 278.76 226.108 277.64 227.668 277.64C229.228 277.64 230.408 278.76 230.408 280.62C230.408 282.48 229.228 283.6 227.668 283.6ZM239.277 286.16C242.497 286.16 244.357 284.74 244.357 282.74C244.357 278.5 237.857 280.28 237.857 278.44C237.857 277.88 238.457 277.44 239.857 277.44C240.837 277.44 241.897 277.64 242.957 278.24L243.997 276.02C242.977 275.42 241.337 275.08 239.857 275.08C236.717 275.08 234.877 276.52 234.877 278.56C234.877 282.86 241.377 281.06 241.377 282.82C241.377 283.42 240.837 283.8 239.397 283.8C238.077 283.8 236.617 283.38 235.657 282.76L234.617 285C235.617 285.66 237.457 286.16 239.277 286.16ZM260.086 275.24V276.62C259.266 275.58 258.026 275.08 256.526 275.08C253.546 275.08 251.146 277.14 251.146 280.28C251.146 283.42 253.546 285.48 256.526 285.48C257.926 285.48 259.106 285.04 259.926 284.14V284.6C259.926 286.54 258.966 287.54 256.766 287.54C255.386 287.54 253.886 287.06 252.966 286.32L251.726 288.56C252.986 289.54 254.966 290.04 257.006 290.04C260.886 290.04 263.046 288.2 263.046 284.2V275.24H260.086ZM257.146 282.92C255.506 282.92 254.306 281.86 254.306 280.28C254.306 278.7 255.506 277.64 257.146 277.64C258.786 277.64 259.966 278.7 259.966 280.28C259.966 281.86 258.786 282.92 257.146 282.92ZM276.49 280.66C276.49 277.2 274.05 275.08 270.89 275.08C267.61 275.08 265.15 277.4 265.15 280.62C265.15 283.82 267.57 286.16 271.29 286.16C273.23 286.16 274.73 285.56 275.73 284.42L274.07 282.62C273.33 283.32 272.51 283.66 271.37 283.66C269.73 283.66 268.59 282.84 268.29 281.5H276.43C276.45 281.24 276.49 280.9 276.49 280.66ZM270.91 277.44C272.31 277.44 273.33 278.32 273.55 279.68H268.25C268.47 278.3 269.49 277.44 270.91 277.44ZM284.667 283.28C284.327 283.54 283.867 283.68 283.407 283.68C282.567 283.68 282.067 283.18 282.067 282.26V277.88H284.747V275.48H282.067V272.86H278.947V275.48H277.287V277.88H278.947V282.3C278.947 284.86 280.427 286.16 282.967 286.16C283.927 286.16 284.867 285.94 285.507 285.48L284.667 283.28ZM297.262 275.08C295.542 275.08 293.802 275.54 292.622 276.38L293.742 278.56C294.522 277.94 295.702 277.56 296.842 277.56C298.522 277.56 299.322 278.34 299.322 279.68H296.842C293.562 279.68 292.222 281 292.222 282.9C292.222 284.76 293.722 286.16 296.242 286.16C297.822 286.16 298.942 285.64 299.522 284.66V286H302.442V279.86C302.442 276.6 300.542 275.08 297.262 275.08ZM297.022 284.06C295.922 284.06 295.262 283.54 295.262 282.76C295.262 282.04 295.722 281.5 297.182 281.5H299.322V282.6C298.962 283.58 298.062 284.06 297.022 284.06ZM64.692 299.02C64.692 297.96 65.192 297.46 66.112 297.46C66.592 297.46 67.032 297.6 67.372 297.84L68.192 295.58C67.612 295.18 66.692 295 65.812 295C63.132 295 61.652 296.58 61.652 299V299.48H59.992V301.88H61.652V310H64.772V301.88H67.452V299.48H64.692V299.02ZM73.588 300.66V299.24H70.608V310H73.728V304.92C73.728 302.86 74.868 301.92 76.588 301.92C76.828 301.92 77.028 301.94 77.288 301.96V299.08C75.628 299.08 74.348 299.62 73.588 300.66ZM89.5855 304.66C89.5855 301.2 87.1455 299.08 83.9855 299.08C80.7055 299.08 78.2455 301.4 78.2455 304.62C78.2455 307.82 80.6655 310.16 84.3855 310.16C86.3255 310.16 87.8255 309.56 88.8255 308.42L87.1655 306.62C86.4255 307.32 85.6055 307.66 84.4655 307.66C82.8255 307.66 81.6855 306.84 81.3855 305.5H89.5255C89.5455 305.24 89.5855 304.9 89.5855 304.66ZM84.0055 301.44C85.4055 301.44 86.4255 302.32 86.6455 303.68H81.3455C81.5655 302.3 82.5855 301.44 84.0055 301.44ZM102.203 304.66C102.203 301.2 99.7627 299.08 96.6027 299.08C93.3227 299.08 90.8627 301.4 90.8627 304.62C90.8627 307.82 93.2827 310.16 97.0027 310.16C98.9427 310.16 100.443 309.56 101.443 308.42L99.7827 306.62C99.0427 307.32 98.2227 307.66 97.0827 307.66C95.4427 307.66 94.3027 306.84 94.0027 305.5H102.143C102.163 305.24 102.203 304.9 102.203 304.66ZM96.6227 301.44C98.0227 301.44 99.0427 302.32 99.2627 303.68H93.9627C94.1827 302.3 95.2027 301.44 96.6227 301.44ZM119.804 296V304.5L112.844 296H110.164V310H113.364V301.5L120.344 310H123.004V296H119.804ZM136.896 298.6V296H126.316V310H129.556V304.9H136.036V302.3H129.556V298.6H136.896ZM145.653 310.24C148.093 310.24 150.113 309.36 151.433 307.74L149.353 305.82C148.413 306.92 147.233 307.48 145.833 307.48C143.213 307.48 141.353 305.64 141.353 303C141.353 300.36 143.213 298.52 145.833 298.52C147.233 298.52 148.413 299.08 149.353 300.16L151.433 298.24C150.113 296.64 148.093 295.76 145.673 295.76C141.313 295.76 138.073 298.78 138.073 303C138.073 307.22 141.313 310.24 145.653 310.24ZM162.685 310.16C165.905 310.16 167.765 308.74 167.765 306.74C167.765 302.5 161.265 304.28 161.265 302.44C161.265 301.88 161.865 301.44 163.265 301.44C164.245 301.44 165.305 301.64 166.365 302.24L167.405 300.02C166.385 299.42 164.745 299.08 163.265 299.08C160.125 299.08 158.285 300.52 158.285 302.56C158.285 306.86 164.785 305.06 164.785 306.82C164.785 307.42 164.245 307.8 162.805 307.8C161.485 307.8 160.025 307.38 159.065 306.76L158.025 309C159.025 309.66 160.865 310.16 162.685 310.16ZM183.47 299.08C181.85 299.08 180.45 299.74 179.59 300.84C178.83 299.66 177.55 299.08 176.05 299.08C174.67 299.08 173.47 299.56 172.67 300.48V299.24H169.69V310H172.81V304.6C172.81 302.68 173.79 301.78 175.17 301.78C176.47 301.78 177.21 302.58 177.21 304.32V310H180.33V304.6C180.33 302.68 181.31 301.78 182.71 301.78C183.97 301.78 184.75 302.58 184.75 304.32V310H187.87V303.84C187.87 300.56 186.03 299.08 183.47 299.08ZM195.007 299.08C193.287 299.08 191.547 299.54 190.367 300.38L191.487 302.56C192.267 301.94 193.447 301.56 194.587 301.56C196.267 301.56 197.067 302.34 197.067 303.68H194.587C191.307 303.68 189.967 305 189.967 306.9C189.967 308.76 191.467 310.16 193.987 310.16C195.567 310.16 196.687 309.64 197.267 308.66V310H200.187V303.86C200.187 300.6 198.287 299.08 195.007 299.08ZM194.767 308.06C193.667 308.06 193.007 307.54 193.007 306.76C193.007 306.04 193.467 305.5 194.927 305.5H197.067V306.6C196.707 307.58 195.807 308.06 194.767 308.06ZM205.99 300.66V299.24H203.01V310H206.13V304.92C206.13 302.86 207.27 301.92 208.99 301.92C209.23 301.92 209.43 301.94 209.69 301.96V299.08C208.03 299.08 206.75 299.62 205.99 300.66ZM218.017 307.28C217.677 307.54 217.217 307.68 216.757 307.68C215.917 307.68 215.417 307.18 215.417 306.26V301.88H218.097V299.48H215.417V296.86H212.297V299.48H210.637V301.88H212.297V306.3C212.297 308.86 213.777 310.16 216.317 310.16C217.277 310.16 218.217 309.94 218.857 309.48L218.017 307.28ZM232.632 299.08C231.192 299.08 230.032 299.54 229.252 300.48V299.24H226.272V313.88H229.392V308.86C230.192 309.74 231.292 310.16 232.632 310.16C235.652 310.16 237.992 308 237.992 304.62C237.992 301.24 235.652 299.08 232.632 299.08ZM232.092 307.6C230.532 307.6 229.352 306.48 229.352 304.62C229.352 302.76 230.532 301.64 232.092 301.64C233.652 301.64 234.832 302.76 234.832 304.62C234.832 306.48 233.652 307.6 232.092 307.6ZM243.061 300.66V299.24H240.081V310H243.201V304.92C243.201 302.86 244.341 301.92 246.061 301.92C246.301 301.92 246.501 301.94 246.761 301.96V299.08C245.101 299.08 243.821 299.62 243.061 300.66ZM253.638 310.16C257.058 310.16 259.538 307.86 259.538 304.62C259.538 301.38 257.058 299.08 253.638 299.08C250.218 299.08 247.718 301.38 247.718 304.62C247.718 307.86 250.218 310.16 253.638 310.16ZM253.638 307.6C252.078 307.6 250.878 306.48 250.878 304.62C250.878 302.76 252.078 301.64 253.638 301.64C255.198 301.64 256.378 302.76 256.378 304.62C256.378 306.48 255.198 307.6 253.638 307.6ZM272.524 297.74C273.684 297.74 274.464 296.98 274.464 295.94C274.464 294.98 273.684 294.26 272.524 294.26C271.364 294.26 270.584 295.02 270.584 296C270.584 296.98 271.364 297.74 272.524 297.74ZM266.464 297.46C266.944 297.46 267.384 297.6 267.724 297.84L268.544 295.58C267.964 295.18 267.044 295 266.164 295C263.484 295 262.004 296.58 262.004 299V299.48H260.344V301.88H262.004V310H265.124V301.88H267.804V299.48H265.044V299.02C265.044 297.96 265.544 297.46 266.464 297.46ZM270.964 310H274.084V299.24H270.964V310ZM276.975 310H280.095V295.16H276.975V310ZM293.531 304.66C293.531 301.2 291.091 299.08 287.931 299.08C284.651 299.08 282.191 301.4 282.191 304.62C282.191 307.82 284.611 310.16 288.331 310.16C290.271 310.16 291.771 309.56 292.771 308.42L291.111 306.62C290.371 307.32 289.551 307.66 288.411 307.66C286.771 307.66 285.631 306.84 285.331 305.5H293.471C293.491 305.24 293.531 304.9 293.531 304.66ZM287.951 301.44C289.351 301.44 290.371 302.32 290.591 303.68H285.291C285.511 302.3 286.531 301.44 287.951 301.44ZM160.417 334.16C162.677 334.16 164.457 333.16 165.237 331.44L162.817 330.12C162.237 331.16 161.377 331.6 160.397 331.6C158.817 331.6 157.577 330.5 157.577 328.62C157.577 326.74 158.817 325.64 160.397 325.64C161.377 325.64 162.237 326.1 162.817 327.12L165.237 325.82C164.457 324.06 162.677 323.08 160.417 323.08C156.917 323.08 154.417 325.38 154.417 328.62C154.417 331.86 156.917 334.16 160.417 334.16ZM171.374 323.08C169.654 323.08 167.914 323.54 166.734 324.38L167.854 326.56C168.634 325.94 169.814 325.56 170.954 325.56C172.634 325.56 173.434 326.34 173.434 327.68H170.954C167.674 327.68 166.334 329 166.334 330.9C166.334 332.76 167.834 334.16 170.354 334.16C171.934 334.16 173.054 333.64 173.634 332.66V334H176.554V327.86C176.554 324.6 174.654 323.08 171.374 323.08ZM171.134 332.06C170.034 332.06 169.374 331.54 169.374 330.76C169.374 330.04 169.834 329.5 171.294 329.5H173.434V330.6C173.074 331.58 172.174 332.06 171.134 332.06ZM182.358 324.66V323.24H179.378V334H182.498V328.92C182.498 326.86 183.638 325.92 185.358 325.92C185.598 325.92 185.798 325.94 186.058 325.96V323.08C184.398 323.08 183.118 323.62 182.358 324.66ZM195.655 319.16V324.38C194.875 323.5 193.755 323.08 192.435 323.08C189.395 323.08 187.055 325.24 187.055 328.62C187.055 332 189.395 334.16 192.435 334.16C193.875 334.16 195.015 333.7 195.795 332.76V334H198.775V319.16H195.655ZM192.975 331.6C191.415 331.6 190.215 330.48 190.215 328.62C190.215 326.76 191.415 325.64 192.975 325.64C194.515 325.64 195.715 326.76 195.715 328.62C195.715 330.48 194.515 331.6 192.975 331.6Z" fill="black"/>
<path d="M175.694 127.999C140.357 127.808 111.847 99.0264 112.001 63.6937C112.153 28.357 140.974 -0.15336 176.306 0.000620794C211.643 0.152996 240.153 28.9736 239.999 64.3062C239.808 99.643 211.026 128.153 175.694 127.999V127.999ZM167.761 73.7709L158.601 64.4585C156.454 62.2745 152.929 62.2745 150.782 64.4198C148.598 66.5664 148.598 70.091 150.744 72.2378L163.812 85.46C165.958 87.644 169.483 87.644 171.63 85.4987L203.094 54.3417C205.278 52.195 205.278 48.6704 203.133 46.5236C200.986 44.3769 197.462 44.3395 195.315 46.4848L167.761 73.7709Z" fill="#66FFAC"/>
<defs>
<filter id="filter0_d_0_1" x="87.2917" y="142.432" width="176.323" height="73.396" filterUnits="userSpaceOnUse" color-interpolation-filters="sRGB">
<feFlood flood-opacity="0" result="BackgroundImageFix"/>
<feColorMatrix in="SourceAlpha" type="matrix" values="0 0 0 0 0 0 0 0 0 0 0 0 0 0 0 0 0 0 127 0" result="hardAlpha"/>
<feOffset dy="4"/>
<feGaussianBlur stdDeviation="2"/>
<feComposite in2="hardAlpha" operator="out"/>
<feColorMatrix type="matrix" values="0 0 0 0 0 0 0 0 0 0 0 0 0 0 0 0 0 0 0.25 0"/>
<feBlend mode="normal" in2="BackgroundImageFix" result="effect1_dropShadow_0_1"/>
<feBlend mode="normal" in="SourceGraphic" in2="effect1_dropShadow_0_1" result="shape"/>
</filter>
<filter id="filter1_d_0_1" x="67.6808" y="229.336" width="218.865" height="23.928" filterUnits="userSpaceOnUse" color-interpolation-filters="sRGB">
<feFlood flood-opacity="0" result="BackgroundImageFix"/>
<feColorMatrix in="SourceAlpha" type="matrix" values="0 0 0 0 0 0 0 0 0 0 0 0 0 0 0 0 0 0 127 0" result="hardAlpha"/>
<feOffset dy="4"/>
<feGaussianBlur stdDeviation="2"/>
<feComposite in2="hardAlpha" operator="out"/>
<feColorMatrix type="matrix" values="0 0 0 0 0 0 0 0 0 0 0 0 0 0 0 0 0 0 0.25 0"/>
<feBlend mode="normal" in2="BackgroundImageFix" result="effect1_dropShadow_0_1"/>
<feBlend mode="normal" in="SourceGraphic" in2="effect1_dropShadow_0_1" result="shape"/>
</filter>
<filter id="filter2_d_0_1" x="69.5876" y="415" width="210.413" height="175" filterUnits="userSpaceOnUse" color-interpolation-filters="sRGB">
<feFlood flood-opacity="0" result="BackgroundImageFix"/>
<feColorMatrix in="SourceAlpha" type="matrix" values="0 0 0 0 0 0 0 0 0 0 0 0 0 0 0 0 0 0 127 0" result="hardAlpha"/>
<feOffset dy="4"/>
<feGaussianBlur stdDeviation="2"/>
<feComposite in2="hardAlpha" operator="out"/>
<feColorMatrix type="matrix" values="0 0 0 0 0 0 0 0 0 0 0 0 0 0 0 0 0 0 0.25 0"/>
<feBlend mode="normal" in2="BackgroundImageFix" result="effect1_dropShadow_0_1"/>
<feBlend mode="normal" in="SourceGraphic" in2="effect1_dropShadow_0_1" result="shape"/>
</filter>
</defs>
</svg>
