<svg width="275" height="602" viewBox="0 0 275 602" fill="none" xmlns="http://www.w3.org/2000/svg">
<g filter="url(#filter0_d_0_1)">
<path d="M56.6373 168.032H52.9893L53.6933 159.52H72.3813V151.2H45.0533L42.7493 176.416H54.2053C62.3333 176.416 64.6373 178.72 64.6373 182.24C64.6373 185.888 61.4373 188.064 56.2533 188.064C51.5813 188.064 46.9093 186.592 43.5173 184.032L39.4213 191.968C43.7733 195.04 50.3013 196.768 56.5093 196.768C69.3093 196.768 75.1333 189.856 75.1333 181.92C75.1333 173.984 69.8853 168.032 56.6373 168.032ZM85.2917 184.096C81.7718 184.096 79.0838 186.528 79.0838 190.24C79.0838 192.864 80.4278 194.848 82.5398 195.68L79.7238 205.856H86.0598L89.7078 196.64C91.1798 193.12 91.4358 191.904 91.4358 190.24C91.4358 186.592 88.8758 184.096 85.2917 184.096ZM114.477 196.768C125.549 196.768 133.677 188.384 133.677 173.6C133.677 158.816 125.549 150.432 114.477 150.432C103.469 150.432 95.2773 158.816 95.2773 173.6C95.2773 188.384 103.469 196.768 114.477 196.768ZM114.477 188C109.357 188 105.773 183.776 105.773 173.6C105.773 163.424 109.357 159.2 114.477 159.2C119.661 159.2 123.245 163.424 123.245 173.6C123.245 183.776 119.661 188 114.477 188ZM157.915 196.768C168.987 196.768 177.115 188.384 177.115 173.6C177.115 158.816 168.987 150.432 157.915 150.432C146.907 150.432 138.715 158.816 138.715 173.6C138.715 188.384 146.907 196.768 157.915 196.768ZM157.915 188C152.795 188 149.211 183.776 149.211 173.6C149.211 163.424 152.795 159.2 157.915 159.2C163.099 159.2 166.683 163.424 166.683 173.6C166.683 183.776 163.099 188 157.915 188ZM201.352 196.768C212.424 196.768 220.552 188.384 220.552 173.6C220.552 158.816 212.424 150.432 201.352 150.432C190.344 150.432 182.152 158.816 182.152 173.6C182.152 188.384 190.344 196.768 201.352 196.768ZM201.352 188C196.232 188 192.648 183.776 192.648 173.6C192.648 163.424 196.232 159.2 201.352 159.2C206.536 159.2 210.12 163.424 210.12 173.6C210.12 183.776 206.536 188 201.352 188ZM116.602 213.112C118.856 213.112 120.158 212.118 120.158 210.718C120.158 207.75 115.608 208.996 115.608 207.708C115.608 207.316 116.028 207.008 117.008 207.008C117.694 207.008 118.436 207.148 119.178 207.568L119.906 206.014C119.192 205.594 118.044 205.356 117.008 205.356C114.81 205.356 113.522 206.364 113.522 207.792C113.522 210.802 118.072 209.542 118.072 210.774C118.072 211.194 117.694 211.46 116.686 211.46C115.762 211.46 114.74 211.166 114.068 210.732L113.34 212.3C114.04 212.762 115.328 213.112 116.602 213.112ZM122.597 204.418C123.409 204.418 123.955 203.886 123.955 203.158C123.955 202.486 123.409 201.982 122.597 201.982C121.785 201.982 121.239 202.514 121.239 203.2C121.239 203.886 121.785 204.418 122.597 204.418ZM121.505 213H123.689V205.468H121.505V213ZM131.414 205.468V206.434C130.84 205.706 129.972 205.356 128.922 205.356C126.836 205.356 125.156 206.798 125.156 208.996C125.156 211.194 126.836 212.636 128.922 212.636C129.902 212.636 130.728 212.328 131.302 211.698V212.02C131.302 213.378 130.63 214.078 129.09 214.078C128.124 214.078 127.074 213.742 126.43 213.224L125.562 214.792C126.444 215.478 127.83 215.828 129.258 215.828C131.974 215.828 133.486 214.54 133.486 211.74V205.468H131.414ZM129.356 210.844C128.208 210.844 127.368 210.102 127.368 208.996C127.368 207.89 128.208 207.148 129.356 207.148C130.504 207.148 131.33 207.89 131.33 208.996C131.33 210.102 130.504 210.844 129.356 210.844ZM140.097 205.356C139.075 205.356 138.193 205.706 137.605 206.35V205.468H135.519V213H137.703V209.276C137.703 207.89 138.459 207.246 139.509 207.246C140.475 207.246 141.035 207.806 141.035 209.024V213H143.219V208.688C143.219 206.392 141.875 205.356 140.097 205.356ZM154.567 205.468V209.192C154.567 210.578 153.839 211.222 152.831 211.222C151.865 211.222 151.305 210.662 151.305 209.402V205.468H149.121V209.724C149.121 212.048 150.451 213.112 152.341 213.112C153.265 213.112 154.105 212.762 154.679 212.104V213H156.751V205.468H154.567ZM163.227 205.356C162.219 205.356 161.407 205.678 160.861 206.336V205.468H158.775V215.716H160.959V212.202C161.519 212.818 162.289 213.112 163.227 213.112C165.341 213.112 166.979 211.6 166.979 209.234C166.979 206.868 165.341 205.356 163.227 205.356ZM162.849 211.32C161.757 211.32 160.931 210.536 160.931 209.234C160.931 207.932 161.757 207.148 162.849 207.148C163.941 207.148 164.767 207.932 164.767 209.234C164.767 210.536 163.941 211.32 162.849 211.32ZM170.975 213.112C173.229 213.112 174.531 212.118 174.531 210.718C174.531 207.75 169.981 208.996 169.981 207.708C169.981 207.316 170.401 207.008 171.381 207.008C172.067 207.008 172.809 207.148 173.551 207.568L174.279 206.014C173.565 205.594 172.417 205.356 171.381 205.356C169.183 205.356 167.895 206.364 167.895 207.792C167.895 210.802 172.445 209.542 172.445 210.774C172.445 211.194 172.067 211.46 171.059 211.46C170.135 211.46 169.113 211.166 168.441 210.732L167.713 212.3C168.413 212.762 169.701 213.112 170.975 213.112Z" fill="#FFE0B2"/>
</g>
<g filter="url(#filter1_d_0_1)">
<path d="M177.127 0C175.962 0.0189451 174.85 0.491578 174.03 1.31818L160.636 14.7453C160.442 14.9378 160.268 15.1481 160.112 15.3735C147.93 9.37489 134.475 7.6787 121.696 9.92931C107.054 12.5079 93.3046 20.2563 83.4715 32.6833C63.8075 57.5361 65.8885 93.2614 88.2877 115.681C110.688 138.1 146.419 140.199 171.29 120.557C194.587 102.16 201.524 70.0698 188.654 43.9032C188.885 43.7437 189.101 43.5632 189.299 43.3628L202.684 29.9786C203.526 29.141 204 28.0003 204 26.8118C204 25.6233 203.526 24.4836 202.684 23.6451L194.674 15.6624L198.233 12.1028C199.093 11.2582 199.574 10.1026 199.57 8.89802C199.565 7.69343 199.073 6.54185 198.207 5.70524C197.342 4.86768 196.174 4.41498 194.971 4.45087C193.81 4.48577 192.708 4.97038 191.899 5.80295L188.365 9.33676L180.355 1.31908C179.503 0.460564 178.337 -0.0150603 177.127 0.000893402L177.127 0ZM177.197 10.8186L182.039 15.6617L168.253 29.4467V19.718L177.197 10.8186ZM132.743 17.8771C141.832 17.9159 150.98 20.313 159.32 25.1361L159.319 38.3807L157.574 40.1256C150.687 34.6177 141.977 31.2962 132.506 31.2962C110.354 31.2962 92.311 49.34 92.311 71.4893C92.311 93.6399 110.356 111.682 132.506 111.682C154.658 111.682 172.737 93.6386 172.737 71.4893C172.737 62.0169 169.416 53.3131 163.899 46.4321L165.654 44.6782H178.889C192.214 67.6854 186.734 96.996 165.749 113.567C144.378 130.444 113.834 128.644 94.5867 109.38C75.3386 90.1155 73.5974 59.5761 90.4944 38.2211C101.055 24.8739 116.78 17.8073 132.742 17.8752L132.743 17.8771ZM188.365 21.9691L193.216 26.8111L184.282 35.7452H174.588L188.365 21.9691ZM132.506 40.2301C139.548 40.2301 146.018 42.5623 151.239 46.4589L141.528 56.1697C138.867 54.5903 135.804 53.6221 132.506 53.6221C122.69 53.6221 114.672 61.6747 114.672 71.4902C114.672 81.3057 122.69 89.3673 132.506 89.3673C142.322 89.3673 150.384 81.3057 150.384 71.4902C150.384 68.1997 149.41 65.1527 147.836 62.4954L157.557 52.7757C161.462 57.9906 163.804 64.4479 163.804 71.4902C163.804 88.8129 149.83 102.749 132.507 102.749C115.184 102.749 101.247 88.8108 101.247 71.4902C101.247 54.1676 115.186 40.2312 132.507 40.2312L132.506 40.2301ZM132.506 62.5563C133.31 62.5563 134.072 62.6949 134.809 62.8873L129.374 68.3236C128.505 69.1522 128.008 70.2959 127.993 71.4965C127.977 72.697 128.446 73.8526 129.292 74.704C130.139 75.5555 131.292 76.0302 132.493 76.0212C133.693 76.0122 134.839 75.5207 135.674 74.6572L141.126 69.2041C141.317 69.937 141.44 70.6927 141.44 71.4904C141.44 76.4779 137.494 80.4334 132.506 80.4334C127.518 80.4334 123.606 76.4779 123.606 71.4904C123.606 66.5029 127.518 62.5564 132.506 62.5564L132.506 62.5563Z" fill="white"/>
</g>
<g filter="url(#filter2_d_0_1)">
<path d="M105.4 552.465C106.439 552.465 107.514 552.428 108.552 552.353L108.182 546.42C107.254 546.494 106.327 546.494 105.4 546.494C98.7626 546.494 92.5696 545.085 87.9715 542.526C83.9667 540.301 81.6674 537.409 81.6674 534.628C81.6674 533.96 81.7786 533.293 82.0382 532.662L76.4759 530.623C75.9938 531.884 75.7713 533.256 75.7713 534.591C75.7342 544.64 88.7502 552.465 105.401 552.465L105.4 552.465Z" fill="black"/>
<path d="M54.9666 436.766C61.5302 436.766 66.8332 442.069 66.8332 448.633C66.8332 450.265 68.1682 451.6 69.7998 451.6C71.4315 451.6 72.7664 450.265 72.7664 448.633C72.7664 442.069 78.0694 436.766 84.633 436.766C86.2646 436.766 87.5996 435.431 87.5996 433.8C87.5996 432.168 86.2646 430.833 84.633 430.833C78.0694 430.833 72.7664 425.53 72.7664 418.967C72.7664 417.335 71.4315 416 69.7998 416C68.1682 416 66.8332 417.335 66.8332 418.967C66.8332 425.53 61.5302 430.833 54.9666 430.833C53.335 430.833 52 432.168 52 433.8C52 435.431 53.335 436.766 54.9666 436.766ZM69.7998 428.793C71.1348 430.759 72.8035 432.465 74.8061 433.8C72.8407 435.135 71.135 436.803 69.7998 438.806C68.4648 436.841 66.7961 435.135 64.7935 433.8C66.7959 432.465 68.4646 430.796 69.7998 428.793Z" fill="black"/>
<path d="M108.736 510.152L112.779 505.813C95.943 490.201 94.9788 463.948 110.591 447.111C123.755 432.909 144.966 429.72 161.766 439.361L164.732 434.207C142.001 421.117 113.001 428.941 99.9108 451.636C88.8231 470.807 92.4942 495.098 108.736 510.151L108.736 510.152Z" fill="black"/>
<path d="M141 516.865C134.251 516.865 127.613 515.234 121.606 512.082L118.825 517.31C142.001 529.548 170.739 520.648 182.978 497.471C192.397 479.634 189.505 457.83 175.821 443.034L171.483 447.076C187.095 463.912 186.093 490.165 169.258 505.778C161.544 512.898 151.458 516.866 141 516.866L141 516.865Z" fill="black"/>
<path d="M139.552 443.071L112.853 457.904C111.925 458.423 111.332 459.424 111.332 460.5V490.166C111.332 491.241 111.925 492.242 112.853 492.762L139.552 507.595C140.442 508.077 141.555 508.077 142.445 507.595L169.144 492.762C170.071 492.242 170.665 491.241 170.665 490.166V460.5C170.665 459.424 170.071 458.423 169.144 457.904L142.445 443.071C141.555 442.589 140.442 442.589 139.552 443.071ZM164.732 488.424L140.999 501.626L117.266 488.424V462.244L140.999 449.042L164.732 462.244V488.424Z" fill="black"/>
<path d="M127.797 463.764L130.467 469.067L140.888 463.876L152.903 471.07V481.268H158.836V469.401C158.836 468.363 158.28 467.399 157.39 466.842L142.557 457.942C141.704 457.423 140.628 457.386 139.701 457.831L127.797 463.764Z" fill="black"/>
<path d="M213.572 488.979C214.648 484.492 215.167 479.931 215.167 475.333C215.167 442.625 188.542 416 155.834 416H141.001C108.294 416 81.6687 442.625 81.6687 475.333C81.6687 482.452 82.9296 489.461 85.4511 496.136C76.5512 498.917 68.838 503.478 62.9417 509.486C55.7848 516.754 52.0021 525.469 52.0021 534.665V555.432C52.0021 565.926 57.6757 575.716 68.0219 583.021C78.0342 590.104 91.3101 593.998 105.401 593.998C119.493 593.998 132.769 590.104 142.781 583.021C148.121 579.239 152.237 574.789 154.944 569.931C161.953 572.119 169.258 573.231 176.6 573.231C190.692 573.231 203.968 569.338 213.98 562.255C224.326 554.95 230 545.16 230 534.665V516.866C230 506.297 224.03 496.248 213.572 488.979L213.572 488.979ZM224.067 516.865C224.067 534.851 202.781 549.498 176.601 549.498C170.593 549.535 164.586 548.72 158.801 547.125V541.043C164.586 542.749 170.593 543.602 176.601 543.565C187.429 543.565 197.664 540.932 205.414 536.185C213.609 531.142 218.134 524.282 218.134 516.865C218.134 510.895 215.093 505.147 209.53 500.512C210.383 498.732 211.125 496.878 211.792 495.023C219.654 501.031 224.067 508.818 224.067 516.865L224.067 516.865ZM179.567 555.357C183.572 555.209 187.54 554.727 191.434 553.911V565.629C187.54 566.519 183.572 567.038 179.567 567.186V555.357ZM197.256 552.465C201.409 551.241 205.451 549.535 209.234 547.421V558.324C205.525 560.697 201.557 562.625 197.367 563.997V552.464L197.256 552.465ZM198.072 442.699C200.89 446.333 203.226 450.338 205.043 454.566H196.588C195.031 450.412 192.991 446.408 190.544 442.699H198.072ZM212.2 516.865C212.2 522.131 208.677 527.211 202.299 531.105C195.476 535.295 186.354 537.631 176.601 537.631C170.556 537.668 164.549 536.704 158.801 534.813V534.665V534.591C178.529 533.589 196.476 522.835 206.674 505.889C210.271 509.189 212.199 513.008 212.199 516.865L212.2 516.865ZM200.26 472.366C200.074 468.361 199.444 464.393 198.443 460.499H207.12C208.232 464.356 208.9 468.361 209.122 472.366H200.26ZM200.26 478.299H209.16C208.937 482.304 208.27 486.309 207.157 490.165H198.48C199.444 486.272 200.074 482.304 200.26 478.299H200.26ZM196.588 496.099H205.044C203.226 500.326 200.89 504.331 198.072 507.965H190.544C192.992 504.257 195.031 500.252 196.589 496.099H196.588ZM186.057 513.898H192.732C186.577 519.795 179.086 524.133 170.89 526.581C176.601 523.206 181.756 518.942 186.057 513.898ZM192.732 436.766H186.057C181.755 431.723 176.638 427.458 170.89 424.084C179.086 426.531 186.577 430.87 192.732 436.766ZM141.001 421.933C170.445 421.933 194.4 445.888 194.4 475.332C194.4 504.776 170.445 528.731 141.001 528.731C111.557 528.731 87.6017 504.776 87.6017 475.332C87.6017 445.888 111.557 421.933 141.001 421.933ZM67.1675 513.603C72.4332 508.263 79.6643 504.036 87.8227 501.588C88.7127 503.405 89.714 505.148 90.7894 506.854C74.6953 511.156 63.8673 522.058 63.8673 534.666C63.8673 539.413 65.4619 544.085 68.4284 548.276L73.2493 544.827C70.9502 541.638 69.8006 538.226 69.8006 534.703C69.8006 529.438 72.3593 524.468 77.2171 520.278C81.6301 516.458 87.6746 513.603 94.4605 512.157C95.9067 513.974 97.4272 515.68 99.0586 517.312C92.8287 518.09 87.1552 520.056 82.9646 522.948L86.3391 527.843C90.9372 524.617 97.872 522.8 105.4 522.8V522.763C112.371 528.029 120.418 531.663 128.984 533.443C129.096 533.851 129.133 534.259 129.133 534.666C129.133 538.82 124.052 543.01 116.487 545.087L118.082 550.797C128.576 547.905 135.103 541.712 135.103 534.629V534.333C137.068 534.518 139.034 534.629 141.036 534.629H152.903C152.903 554.246 131.617 570.229 105.437 570.229C79.256 570.229 57.9333 554.283 57.9333 534.666C57.9333 527.027 61.1224 519.759 67.1668 513.603H67.1675ZM72.7672 567.559C76.5126 569.784 80.4804 571.601 84.6337 572.936V584.765C80.4435 583.393 76.4756 581.465 72.7672 579.092V567.559ZM90.5669 574.567C94.4605 575.42 98.4287 575.94 102.433 576.125V587.991C98.4287 587.843 94.4605 587.287 90.5669 586.434V574.567ZM108.367 576.125C112.371 575.977 116.34 575.457 120.233 574.567V586.397C116.34 587.287 112.371 587.806 108.367 587.954V576.125ZM126.166 572.973C130.32 571.638 134.288 569.821 138.033 567.596V579.129C134.325 581.502 130.357 583.431 126.166 584.802V572.973ZM57.934 555.433V553.764C60.3815 557.398 63.3852 560.662 66.8339 563.406V574.419C61.2343 569.079 57.934 562.516 57.934 555.433V555.433ZM143.966 574.419V563.406C147.415 560.662 150.419 557.398 152.866 553.764V555.433C152.866 562.516 149.566 569.079 143.966 574.419V574.419ZM158.799 555.433V553.245C163.657 554.469 168.626 555.173 173.633 555.359V567.225C168.107 567.003 162.619 566.076 157.353 564.481C158.317 561.551 158.799 558.511 158.799 555.433L158.799 555.433ZM224.065 534.666C224.065 541.749 220.765 548.313 215.165 553.653V543.566C218.577 541.082 221.581 538.041 224.065 534.666Z" fill="black"/>
<path d="M82.5928 552.834L79.7004 558.026C87.08 562.142 95.9426 564.33 105.399 564.33C122.791 564.33 138.476 556.542 144.409 544.899L139.143 542.192C134.211 551.87 120.639 558.36 105.398 558.36C97.0916 558.397 89.0074 556.432 82.5921 552.835L82.5928 552.834Z" fill="black"/>
<path d="M176.599 582.131C171.816 582.131 167.032 581.686 162.323 580.833L161.247 586.655C166.327 587.582 171.482 588.064 176.637 588.064C190.283 588.064 203.596 584.764 214.128 578.794L211.199 573.639C201.52 579.09 189.245 582.131 176.599 582.131L176.599 582.131Z" fill="black"/>
<path d="M216.352 570.227L219.912 574.974C222.174 573.305 224.288 571.414 226.253 569.374L221.915 565.332C220.209 567.112 218.355 568.744 216.352 570.227Z" fill="black"/>
<path d="M69.1702 456.79C68.6511 458.83 68.206 460.906 67.8723 462.983L73.7313 463.947C74.0651 462.056 74.473 460.128 74.9551 458.274L69.1702 456.79Z" fill="black"/>
<path d="M67.0951 469.138C66.9097 471.178 66.8356 473.254 66.8356 475.331C66.8356 481.598 67.6143 487.828 69.1717 493.873L74.9194 492.389C73.4732 486.827 72.7687 481.079 72.7687 475.331C72.7687 473.44 72.8428 471.512 72.9911 469.658L67.0951 469.138Z" fill="black"/>
</g>
<path d="M26.9978 280.6V278H16.4178V292H19.6578V286.9H26.1378V284.3H19.6578V280.6H26.9978ZM30.3359 279.74C31.4959 279.74 32.2759 278.98 32.2759 277.94C32.2759 276.98 31.4959 276.26 30.3359 276.26C29.1759 276.26 28.3959 277.02 28.3959 278C28.3959 278.98 29.1759 279.74 30.3359 279.74ZM28.7759 292H31.8959V281.24H28.7759V292ZM37.7716 282.66V281.24H34.7916V292H37.9116V286.92C37.9116 284.86 39.0516 283.92 40.7716 283.92C41.0116 283.92 41.2116 283.94 41.4716 283.96V281.08C39.8116 281.08 38.5316 281.62 37.7716 282.66ZM46.9858 292.16C50.2058 292.16 52.0658 290.74 52.0658 288.74C52.0658 284.5 45.5658 286.28 45.5658 284.44C45.5658 283.88 46.1658 283.44 47.5658 283.44C48.5458 283.44 49.6058 283.64 50.6658 284.24L51.7058 282.02C50.6858 281.42 49.0458 281.08 47.5658 281.08C44.4258 281.08 42.5858 282.52 42.5858 284.56C42.5858 288.86 49.0858 287.06 49.0858 288.82C49.0858 289.42 48.5458 289.8 47.1058 289.8C45.7858 289.8 44.3258 289.38 43.3658 288.76L42.3258 291C43.3258 291.66 45.1658 292.16 46.9858 292.16ZM60.0908 289.28C59.7508 289.54 59.2908 289.68 58.8308 289.68C57.9908 289.68 57.4908 289.18 57.4908 288.26V283.88H60.1708V281.48H57.4908V278.86H54.3708V281.48H52.7108V283.88H54.3708V288.3C54.3708 290.86 55.8508 292.16 58.3908 292.16C59.3508 292.16 60.2908 291.94 60.9308 291.48L60.0908 289.28ZM72.4863 283.26H71.3463L71.5663 280.6H77.4063V278H68.8663L68.1463 285.88H71.7263C74.2663 285.88 74.9863 286.6 74.9863 287.7C74.9863 288.84 73.9863 289.52 72.3663 289.52C70.9063 289.52 69.4463 289.06 68.3863 288.26L67.1063 290.74C68.4663 291.7 70.5063 292.24 72.4463 292.24C76.4463 292.24 78.2663 290.08 78.2663 287.6C78.2663 285.12 76.6263 283.26 72.4863 283.26ZM85.5808 292.24C89.0408 292.24 91.5808 289.62 91.5808 285C91.5808 280.38 89.0408 277.76 85.5808 277.76C82.1408 277.76 79.5808 280.38 79.5808 285C79.5808 289.62 82.1408 292.24 85.5808 292.24ZM85.5808 289.5C83.9808 289.5 82.8608 288.18 82.8608 285C82.8608 281.82 83.9808 280.5 85.5808 280.5C87.2008 280.5 88.3208 281.82 88.3208 285C88.3208 288.18 87.2008 289.5 85.5808 289.5ZM99.155 292.24C102.615 292.24 105.155 289.62 105.155 285C105.155 280.38 102.615 277.76 99.155 277.76C95.715 277.76 93.155 280.38 93.155 285C93.155 289.62 95.715 292.24 99.155 292.24ZM99.155 289.5C97.555 289.5 96.435 288.18 96.435 285C96.435 281.82 97.555 280.5 99.155 280.5C100.775 280.5 101.895 281.82 101.895 285C101.895 288.18 100.775 289.5 99.155 289.5ZM112.729 292.24C116.189 292.24 118.729 289.62 118.729 285C118.729 280.38 116.189 277.76 112.729 277.76C109.289 277.76 106.729 280.38 106.729 285C106.729 289.62 109.289 292.24 112.729 292.24ZM112.729 289.5C111.129 289.5 110.009 288.18 110.009 285C110.009 281.82 111.129 280.5 112.729 280.5C114.349 280.5 115.469 281.82 115.469 285C115.469 288.18 114.349 289.5 112.729 289.5ZM130.248 292.16C133.468 292.16 135.328 290.74 135.328 288.74C135.328 284.5 128.828 286.28 128.828 284.44C128.828 283.88 129.428 283.44 130.828 283.44C131.808 283.44 132.868 283.64 133.928 284.24L134.968 282.02C133.948 281.42 132.308 281.08 130.828 281.08C127.688 281.08 125.847 282.52 125.847 284.56C125.847 288.86 132.348 287.06 132.348 288.82C132.348 289.42 131.808 289.8 130.368 289.8C129.048 289.8 127.588 289.38 126.628 288.76L125.588 291C126.588 291.66 128.428 292.16 130.248 292.16ZM138.813 279.74C139.973 279.74 140.753 278.98 140.753 277.94C140.753 276.98 139.973 276.26 138.813 276.26C137.653 276.26 136.873 277.02 136.873 278C136.873 278.98 137.653 279.74 138.813 279.74ZM137.253 292H140.373V281.24H137.253V292ZM151.408 281.24V282.62C150.588 281.58 149.348 281.08 147.848 281.08C144.868 281.08 142.468 283.14 142.468 286.28C142.468 289.42 144.868 291.48 147.848 291.48C149.248 291.48 150.428 291.04 151.248 290.14V290.6C151.248 292.54 150.288 293.54 148.088 293.54C146.708 293.54 145.208 293.06 144.288 292.32L143.048 294.56C144.308 295.54 146.288 296.04 148.328 296.04C152.208 296.04 154.368 294.2 154.368 290.2V281.24H151.408ZM148.468 288.92C146.828 288.92 145.628 287.86 145.628 286.28C145.628 284.7 146.828 283.64 148.468 283.64C150.108 283.64 151.288 284.7 151.288 286.28C151.288 287.86 150.108 288.92 148.468 288.92ZM163.812 281.08C162.352 281.08 161.092 281.58 160.252 282.5V281.24H157.272V292H160.392V286.68C160.392 284.7 161.472 283.78 162.972 283.78C164.352 283.78 165.152 284.58 165.152 286.32V292H168.272V285.84C168.272 282.56 166.352 281.08 163.812 281.08ZM184.484 281.24V286.56C184.484 288.54 183.444 289.46 182.004 289.46C180.624 289.46 179.824 288.66 179.824 286.86V281.24H176.704V287.32C176.704 290.64 178.604 292.16 181.304 292.16C182.624 292.16 183.824 291.66 184.644 290.72V292H187.604V281.24H184.484ZM196.855 281.08C195.415 281.08 194.255 281.54 193.475 282.48V281.24H190.495V295.88H193.615V290.86C194.415 291.74 195.515 292.16 196.855 292.16C199.875 292.16 202.215 290 202.215 286.62C202.215 283.24 199.875 281.08 196.855 281.08ZM196.315 289.6C194.755 289.6 193.575 288.48 193.575 286.62C193.575 284.76 194.755 283.64 196.315 283.64C197.875 283.64 199.055 284.76 199.055 286.62C199.055 288.48 197.875 289.6 196.315 289.6ZM207.923 292.16C211.143 292.16 213.003 290.74 213.003 288.74C213.003 284.5 206.503 286.28 206.503 284.44C206.503 283.88 207.103 283.44 208.503 283.44C209.483 283.44 210.543 283.64 211.603 284.24L212.643 282.02C211.623 281.42 209.983 281.08 208.503 281.08C205.363 281.08 203.523 282.52 203.523 284.56C203.523 288.86 210.023 287.06 210.023 288.82C210.023 289.42 209.483 289.8 208.043 289.8C206.723 289.8 205.263 289.38 204.303 288.76L203.263 291C204.263 291.66 206.103 292.16 207.923 292.16ZM224.932 281.08C223.212 281.08 221.472 281.54 220.292 282.38L221.412 284.56C222.192 283.94 223.372 283.56 224.512 283.56C226.192 283.56 226.992 284.34 226.992 285.68H224.512C221.232 285.68 219.892 287 219.892 288.9C219.892 290.76 221.392 292.16 223.912 292.16C225.492 292.16 226.612 291.64 227.192 290.66V292H230.112V285.86C230.112 282.6 228.212 281.08 224.932 281.08ZM224.692 290.06C223.592 290.06 222.932 289.54 222.932 288.76C222.932 288.04 223.392 287.5 224.852 287.5H226.992V288.6C226.632 289.58 225.732 290.06 224.692 290.06ZM232.936 292H236.056V277.16H232.936V292ZM242.572 292.16C245.792 292.16 247.652 290.74 247.652 288.74C247.652 284.5 241.152 286.28 241.152 284.44C241.152 283.88 241.752 283.44 243.152 283.44C244.132 283.44 245.192 283.64 246.252 284.24L247.292 282.02C246.272 281.42 244.632 281.08 243.152 281.08C240.012 281.08 238.172 282.52 238.172 284.56C238.172 288.86 244.672 287.06 244.672 288.82C244.672 289.42 244.132 289.8 242.692 289.8C241.372 289.8 239.912 289.38 238.952 288.76L237.912 291C238.912 291.66 240.752 292.16 242.572 292.16ZM254.697 292.16C258.117 292.16 260.597 289.86 260.597 286.62C260.597 283.38 258.117 281.08 254.697 281.08C251.277 281.08 248.777 283.38 248.777 286.62C248.777 289.86 251.277 292.16 254.697 292.16ZM254.697 289.6C253.137 289.6 251.937 288.48 251.937 286.62C251.937 284.76 253.137 283.64 254.697 283.64C256.257 283.64 257.437 284.76 257.437 286.62C257.437 288.48 256.257 289.6 254.697 289.6ZM40.7343 305.24V306.62C39.9143 305.58 38.6743 305.08 37.1743 305.08C34.1943 305.08 31.7943 307.14 31.7943 310.28C31.7943 313.42 34.1943 315.48 37.1743 315.48C38.5743 315.48 39.7543 315.04 40.5743 314.14V314.6C40.5743 316.54 39.6143 317.54 37.4143 317.54C36.0343 317.54 34.5343 317.06 33.6143 316.32L32.3743 318.56C33.6343 319.54 35.6143 320.04 37.6543 320.04C41.5343 320.04 43.6943 318.2 43.6943 314.2V305.24H40.7343ZM37.7943 312.92C36.1543 312.92 34.9543 311.86 34.9543 310.28C34.9543 308.7 36.1543 307.64 37.7943 307.64C39.4343 307.64 40.6143 308.7 40.6143 310.28C40.6143 311.86 39.4343 312.92 37.7943 312.92ZM57.1382 310.66C57.1382 307.2 54.6982 305.08 51.5382 305.08C48.2582 305.08 45.7982 307.4 45.7982 310.62C45.7982 313.82 48.2182 316.16 51.9382 316.16C53.8782 316.16 55.3782 315.56 56.3782 314.42L54.7182 312.62C53.9782 313.32 53.1582 313.66 52.0182 313.66C50.3782 313.66 49.2382 312.84 48.9382 311.5H57.0782C57.0982 311.24 57.1382 310.9 57.1382 310.66ZM51.5582 307.44C52.9582 307.44 53.9782 308.32 54.1982 309.68H48.8982C49.1182 308.3 50.1382 307.44 51.5582 307.44ZM65.3154 313.28C64.9754 313.54 64.5154 313.68 64.0554 313.68C63.2154 313.68 62.7154 313.18 62.7154 312.26V307.88H65.3954V305.48H62.7154V302.86H59.5954V305.48H57.9354V307.88H59.5954V312.3C59.5954 314.86 61.0754 316.16 63.6154 316.16C64.5754 316.16 65.5154 315.94 66.1554 315.48L65.3154 313.28ZM76.9909 305.02C76.9909 303.96 77.4909 303.46 78.4109 303.46C78.8909 303.46 79.3309 303.6 79.6709 303.84L80.4909 301.58C79.9109 301.18 78.9909 301 78.1109 301C75.4309 301 73.9509 302.58 73.9509 305V305.48H72.2909V307.88H73.9509V316H77.0709V307.88H79.7509V305.48H76.9909V305.02ZM85.8868 306.66V305.24H82.9068V316H86.0268V310.92C86.0268 308.86 87.1668 307.92 88.8868 307.92C89.1268 307.92 89.3268 307.94 89.5868 307.96V305.08C87.9268 305.08 86.6468 305.62 85.8868 306.66ZM101.884 310.66C101.884 307.2 99.4443 305.08 96.2843 305.08C93.0043 305.08 90.5443 307.4 90.5443 310.62C90.5443 313.82 92.9643 316.16 96.6843 316.16C98.6243 316.16 100.124 315.56 101.124 314.42L99.4643 312.62C98.7243 313.32 97.9043 313.66 96.7643 313.66C95.1243 313.66 93.9843 312.84 93.6843 311.5H101.824C101.844 311.24 101.884 310.9 101.884 310.66ZM96.3043 307.44C97.7043 307.44 98.7243 308.32 98.9443 309.68H93.6443C93.8643 308.3 94.8843 307.44 96.3043 307.44ZM114.501 310.66C114.501 307.2 112.061 305.08 108.901 305.08C105.621 305.08 103.161 307.4 103.161 310.62C103.161 313.82 105.581 316.16 109.301 316.16C111.241 316.16 112.741 315.56 113.741 314.42L112.081 312.62C111.341 313.32 110.521 313.66 109.381 313.66C107.741 313.66 106.601 312.84 106.301 311.5H114.441C114.461 311.24 114.501 310.9 114.501 310.66ZM108.921 307.44C110.321 307.44 111.341 308.32 111.561 309.68H106.261C106.481 308.3 107.501 307.44 108.921 307.44ZM130.383 305.24V306.62C129.563 305.58 128.323 305.08 126.823 305.08C123.843 305.08 121.443 307.14 121.443 310.28C121.443 313.42 123.843 315.48 126.823 315.48C128.223 315.48 129.403 315.04 130.223 314.14V314.6C130.223 316.54 129.263 317.54 127.063 317.54C125.683 317.54 124.183 317.06 123.263 316.32L122.023 318.56C123.283 319.54 125.263 320.04 127.303 320.04C131.183 320.04 133.343 318.2 133.343 314.2V305.24H130.383ZM127.443 312.92C125.803 312.92 124.603 311.86 124.603 310.28C124.603 308.7 125.803 307.64 127.443 307.64C129.083 307.64 130.263 308.7 130.263 310.28C130.263 311.86 129.083 312.92 127.443 312.92ZM141.367 316.16C144.787 316.16 147.267 313.86 147.267 310.62C147.267 307.38 144.787 305.08 141.367 305.08C137.947 305.08 135.447 307.38 135.447 310.62C135.447 313.86 137.947 316.16 141.367 316.16ZM141.367 313.6C139.807 313.6 138.607 312.48 138.607 310.62C138.607 308.76 139.807 307.64 141.367 307.64C142.927 307.64 144.107 308.76 144.107 310.62C144.107 312.48 142.927 313.6 141.367 313.6ZM156.739 305.24L153.659 312.56L150.679 305.24H147.459L151.979 316H155.199L159.739 305.24H156.739ZM171.259 310.66C171.259 307.2 168.819 305.08 165.659 305.08C162.379 305.08 159.919 307.4 159.919 310.62C159.919 313.82 162.339 316.16 166.059 316.16C167.999 316.16 169.499 315.56 170.499 314.42L168.839 312.62C168.099 313.32 167.279 313.66 166.139 313.66C164.499 313.66 163.359 312.84 163.059 311.5H171.199C171.219 311.24 171.259 310.9 171.259 310.66ZM165.679 307.44C167.079 307.44 168.099 308.32 168.319 309.68H163.019C163.239 308.3 164.259 307.44 165.679 307.44ZM176.316 306.66V305.24H173.336V316H176.456V310.92C176.456 308.86 177.596 307.92 179.316 307.92C179.556 307.92 179.756 307.94 180.016 307.96V305.08C178.356 305.08 177.076 305.62 176.316 306.66ZM188.412 305.08C186.952 305.08 185.692 305.58 184.852 306.5V305.24H181.872V316H184.992V310.68C184.992 308.7 186.072 307.78 187.572 307.78C188.952 307.78 189.752 308.58 189.752 310.32V316H192.872V309.84C192.872 306.56 190.952 305.08 188.412 305.08ZM200.04 305.08C198.32 305.08 196.58 305.54 195.4 306.38L196.52 308.56C197.3 307.94 198.48 307.56 199.62 307.56C201.3 307.56 202.1 308.34 202.1 309.68H199.62C196.34 309.68 195 311 195 312.9C195 314.76 196.5 316.16 199.02 316.16C200.6 316.16 201.72 315.64 202.3 314.66V316H205.22V309.86C205.22 306.6 203.32 305.08 200.04 305.08ZM199.8 314.06C198.7 314.06 198.04 313.54 198.04 312.76C198.04 312.04 198.5 311.5 199.96 311.5H202.1V312.6C201.74 313.58 200.84 314.06 199.8 314.06ZM214.584 305.08C213.124 305.08 211.864 305.58 211.024 306.5V305.24H208.044V316H211.164V310.68C211.164 308.7 212.244 307.78 213.744 307.78C215.124 307.78 215.924 308.58 215.924 310.32V316H219.044V309.84C219.044 306.56 217.124 305.08 214.584 305.08ZM227.189 316.16C229.449 316.16 231.229 315.16 232.009 313.44L229.589 312.12C229.009 313.16 228.149 313.6 227.169 313.6C225.589 313.6 224.349 312.5 224.349 310.62C224.349 308.74 225.589 307.64 227.169 307.64C228.149 307.64 229.009 308.1 229.589 309.12L232.009 307.82C231.229 306.06 229.449 305.08 227.189 305.08C223.689 305.08 221.189 307.38 221.189 310.62C221.189 313.86 223.689 316.16 227.189 316.16ZM244.209 310.66C244.209 307.2 241.769 305.08 238.609 305.08C235.329 305.08 232.869 307.4 232.869 310.62C232.869 313.82 235.289 316.16 239.009 316.16C240.949 316.16 242.449 315.56 243.449 314.42L241.789 312.62C241.049 313.32 240.229 313.66 239.089 313.66C237.449 313.66 236.309 312.84 236.009 311.5H244.149C244.169 311.24 244.209 310.9 244.209 310.66ZM238.629 307.44C240.029 307.44 241.049 308.32 241.269 309.68H235.969C236.189 308.3 237.209 307.44 238.629 307.44ZM8.27438 337.28C7.93438 337.54 7.47438 337.68 7.01438 337.68C6.17438 337.68 5.67438 337.18 5.67438 336.26V331.88H8.35438V329.48H5.67438V326.86H2.55438V329.48H0.894375V331.88H2.55438V336.3C2.55438 338.86 4.03438 340.16 6.57438 340.16C7.53438 340.16 8.47438 339.94 9.11438 339.48L8.27438 337.28ZM15.6538 340.16C19.0738 340.16 21.5538 337.86 21.5538 334.62C21.5538 331.38 19.0738 329.08 15.6538 329.08C12.2338 329.08 9.73375 331.38 9.73375 334.62C9.73375 337.86 12.2338 340.16 15.6538 340.16ZM15.6538 337.6C14.0938 337.6 12.8938 336.48 12.8938 334.62C12.8938 332.76 14.0938 331.64 15.6538 331.64C17.2138 331.64 18.3938 332.76 18.3938 334.62C18.3938 336.48 17.2138 337.6 15.6538 337.6ZM31.6592 340H35.4392L30.5592 333.8L35.0392 329.24H31.3192L26.7592 333.56V325.16H23.6392V340H26.7592V337.26L28.2592 335.78L31.6592 340ZM46.9136 334.66C46.9136 331.2 44.4736 329.08 41.3136 329.08C38.0336 329.08 35.5736 331.4 35.5736 334.62C35.5736 337.82 37.9936 340.16 41.7136 340.16C43.6536 340.16 45.1536 339.56 46.1536 338.42L44.4936 336.62C43.7536 337.32 42.9336 337.66 41.7936 337.66C40.1536 337.66 39.0136 336.84 38.7136 335.5H46.8536C46.8736 335.24 46.9136 334.9 46.9136 334.66ZM41.3336 331.44C42.7336 331.44 43.7536 332.32 43.9736 333.68H38.6736C38.8936 332.3 39.9136 331.44 41.3336 331.44ZM55.5308 329.08C54.0708 329.08 52.8108 329.58 51.9708 330.5V329.24H48.9908V340H52.1108V334.68C52.1108 332.7 53.1908 331.78 54.6908 331.78C56.0708 331.78 56.8708 332.58 56.8708 334.32V340H59.9908V333.84C59.9908 330.56 58.0708 329.08 55.5308 329.08ZM66.4389 340.16C69.6589 340.16 71.5189 338.74 71.5189 336.74C71.5189 332.5 65.0189 334.28 65.0189 332.44C65.0189 331.88 65.6189 331.44 67.0189 331.44C67.9989 331.44 69.0589 331.64 70.1189 332.24L71.1589 330.02C70.1389 329.42 68.4989 329.08 67.0189 329.08C63.8789 329.08 62.0389 330.52 62.0389 332.56C62.0389 336.86 68.5389 335.06 68.5389 336.82C68.5389 337.42 67.9989 337.8 66.5589 337.8C65.2389 337.8 63.7789 337.38 62.8189 336.76L61.7789 339C62.7789 339.66 64.6189 340.16 66.4389 340.16ZM74.6239 340.16C75.7039 340.16 76.5639 339.34 76.5639 338.2C76.5639 337.04 75.7039 336.28 74.6239 336.28C73.5439 336.28 72.6839 337.04 72.6839 338.2C72.6839 339.34 73.5439 340.16 74.6239 340.16ZM94.1623 326V331.52H87.8023V326H84.5623V340H87.8023V334.26H94.1623V340H97.4023V326H94.1623ZM111.035 334.66C111.035 331.2 108.595 329.08 105.435 329.08C102.155 329.08 99.6947 331.4 99.6947 334.62C99.6947 337.82 102.115 340.16 105.835 340.16C107.775 340.16 109.275 339.56 110.275 338.42L108.615 336.62C107.875 337.32 107.055 337.66 105.915 337.66C104.275 337.66 103.135 336.84 102.835 335.5H110.975C110.995 335.24 111.035 334.9 111.035 334.66ZM105.455 331.44C106.855 331.44 107.875 332.32 108.095 333.68H102.795C103.015 332.3 104.035 331.44 105.455 331.44ZM113.112 340H116.232V325.16H113.112V340ZM125.488 329.08C124.048 329.08 122.888 329.54 122.108 330.48V329.24H119.128V343.88H122.248V338.86C123.048 339.74 124.148 340.16 125.488 340.16C128.508 340.16 130.848 338 130.848 334.62C130.848 331.24 128.508 329.08 125.488 329.08ZM124.948 337.6C123.388 337.6 122.208 336.48 122.208 334.62C122.208 332.76 123.388 331.64 124.948 331.64C126.508 331.64 127.688 332.76 127.688 334.62C127.688 336.48 126.508 337.6 124.948 337.6ZM134.496 327.74C135.656 327.74 136.436 326.98 136.436 325.94C136.436 324.98 135.656 324.26 134.496 324.26C133.336 324.26 132.556 325.02 132.556 326C132.556 326.98 133.336 327.74 134.496 327.74ZM132.936 340H136.056V329.24H132.936V340ZM145.492 329.08C144.032 329.08 142.772 329.58 141.932 330.5V329.24H138.952V340H142.072V334.68C142.072 332.7 143.152 331.78 144.652 331.78C146.032 331.78 146.832 332.58 146.832 334.32V340H149.952V333.84C149.952 330.56 148.032 329.08 145.492 329.08ZM161.037 329.24V330.62C160.217 329.58 158.977 329.08 157.477 329.08C154.497 329.08 152.097 331.14 152.097 334.28C152.097 337.42 154.497 339.48 157.477 339.48C158.877 339.48 160.057 339.04 160.877 338.14V338.6C160.877 340.54 159.917 341.54 157.717 341.54C156.337 341.54 154.837 341.06 153.917 340.32L152.677 342.56C153.937 343.54 155.917 344.04 157.957 344.04C161.837 344.04 163.997 342.2 163.997 338.2V329.24H161.037ZM158.097 336.92C156.457 336.92 155.257 335.86 155.257 334.28C155.257 332.7 156.457 331.64 158.097 331.64C159.737 331.64 160.917 332.7 160.917 334.28C160.917 335.86 159.737 336.92 158.097 336.92ZM176.185 340.16C179.405 340.16 181.265 338.74 181.265 336.74C181.265 332.5 174.765 334.28 174.765 332.44C174.765 331.88 175.365 331.44 176.765 331.44C177.745 331.44 178.805 331.64 179.865 332.24L180.905 330.02C179.885 329.42 178.245 329.08 176.765 329.08C173.625 329.08 171.785 330.52 171.785 332.56C171.785 336.86 178.285 335.06 178.285 336.82C178.285 337.42 177.745 337.8 176.305 337.8C174.985 337.8 173.525 337.38 172.565 336.76L171.525 339C172.525 339.66 174.365 340.16 176.185 340.16ZM189.73 329.08C188.35 329.08 187.15 329.52 186.31 330.36V325.16H183.19V340H186.31V334.68C186.31 332.7 187.39 331.78 188.89 331.78C190.27 331.78 191.07 332.58 191.07 334.32V340H194.19V333.84C194.19 330.56 192.27 329.08 189.73 329.08ZM201.358 329.08C199.638 329.08 197.898 329.54 196.718 330.38L197.838 332.56C198.618 331.94 199.798 331.56 200.938 331.56C202.618 331.56 203.418 332.34 203.418 333.68H200.938C197.658 333.68 196.318 335 196.318 336.9C196.318 338.76 197.818 340.16 200.338 340.16C201.918 340.16 203.038 339.64 203.618 338.66V340H206.538V333.86C206.538 330.6 204.638 329.08 201.358 329.08ZM201.118 338.06C200.018 338.06 199.358 337.54 199.358 336.76C199.358 336.04 199.818 335.5 201.278 335.5H203.418V336.6C203.058 337.58 202.158 338.06 201.118 338.06ZM215.722 329.08C214.282 329.08 213.122 329.54 212.342 330.48V329.24H209.362V343.88H212.482V338.86C213.282 339.74 214.382 340.16 215.722 340.16C218.742 340.16 221.082 338 221.082 334.62C221.082 331.24 218.742 329.08 215.722 329.08ZM215.182 337.6C213.622 337.6 212.442 336.48 212.442 334.62C212.442 332.76 213.622 331.64 215.182 331.64C216.742 331.64 217.922 332.76 217.922 334.62C217.922 336.48 216.742 337.6 215.182 337.6ZM233.71 334.66C233.71 331.2 231.27 329.08 228.11 329.08C224.83 329.08 222.37 331.4 222.37 334.62C222.37 337.82 224.79 340.16 228.51 340.16C230.45 340.16 231.95 339.56 232.95 338.42L231.29 336.62C230.55 337.32 229.73 337.66 228.59 337.66C226.95 337.66 225.81 336.84 225.51 335.5H233.65C233.67 335.24 233.71 334.9 233.71 334.66ZM228.13 331.44C229.53 331.44 230.55 332.32 230.77 333.68H225.47C225.69 332.3 226.71 331.44 228.13 331.44ZM247.552 337.28C247.212 337.54 246.752 337.68 246.292 337.68C245.452 337.68 244.952 337.18 244.952 336.26V331.88H247.632V329.48H244.952V326.86H241.832V329.48H240.172V331.88H241.832V336.3C241.832 338.86 243.312 340.16 245.852 340.16C246.812 340.16 247.752 339.94 248.392 339.48L247.552 337.28ZM256.683 329.08C255.303 329.08 254.103 329.52 253.263 330.36V325.16H250.143V340H253.263V334.68C253.263 332.7 254.343 331.78 255.843 331.78C257.223 331.78 258.023 332.58 258.023 334.32V340H261.143V333.84C261.143 330.56 259.223 329.08 256.683 329.08ZM274.628 334.66C274.628 331.2 272.188 329.08 269.028 329.08C265.748 329.08 263.288 331.4 263.288 334.62C263.288 337.82 265.708 340.16 269.428 340.16C271.368 340.16 272.868 339.56 273.868 338.42L272.208 336.62C271.468 337.32 270.648 337.66 269.508 337.66C267.868 337.66 266.728 336.84 266.428 335.5H274.568C274.588 335.24 274.628 334.9 274.628 334.66ZM269.048 331.44C270.448 331.44 271.468 332.32 271.688 333.68H266.388C266.608 332.3 267.628 331.44 269.048 331.44ZM7.60609 353.02C7.60609 351.96 8.10609 351.46 9.02609 351.46C9.50609 351.46 9.94609 351.6 10.2861 351.84L11.1061 349.58C10.5261 349.18 9.60609 349 8.72609 349C6.04609 349 4.56609 350.58 4.56609 353V353.48H2.90609V355.88H4.56609V364H7.68609V355.88H10.3661V353.48H7.60609V353.02ZM19.6405 353.24V358.56C19.6405 360.54 18.6005 361.46 17.1605 361.46C15.7805 361.46 14.9805 360.66 14.9805 358.86V353.24H11.8605V359.32C11.8605 362.64 13.7605 364.16 16.4605 364.16C17.7805 364.16 18.9805 363.66 19.8005 362.72V364H22.7605V353.24H19.6405ZM31.7509 361.28C31.4109 361.54 30.9509 361.68 30.4909 361.68C29.6509 361.68 29.1509 361.18 29.1509 360.26V355.88H31.8309V353.48H29.1509V350.86H26.0309V353.48H24.3709V355.88H26.0309V360.3C26.0309 362.86 27.5109 364.16 30.0509 364.16C31.0109 364.16 31.9509 363.94 32.5909 363.48L31.7509 361.28ZM42.0623 353.24V358.56C42.0623 360.54 41.0223 361.46 39.5823 361.46C38.2023 361.46 37.4023 360.66 37.4023 358.86V353.24H34.2823V359.32C34.2823 362.64 36.1823 364.16 38.8823 364.16C40.2023 364.16 41.4023 363.66 42.2223 362.72V364H45.1823V353.24H42.0623ZM51.0528 354.66V353.24H48.0728V364H51.1928V358.92C51.1928 356.86 52.3328 355.92 54.0528 355.92C54.2928 355.92 54.4928 355.94 54.7528 355.96V353.08C53.0928 353.08 51.8128 353.62 51.0528 354.66ZM67.0503 358.66C67.0503 355.2 64.6103 353.08 61.4503 353.08C58.1703 353.08 55.7103 355.4 55.7103 358.62C55.7103 361.82 58.1303 364.16 61.8503 364.16C63.7903 364.16 65.2903 363.56 66.2903 362.42L64.6303 360.62C63.8903 361.32 63.0703 361.66 61.9303 361.66C60.2903 361.66 59.1503 360.84 58.8503 359.5H66.9903C67.0103 359.24 67.0503 358.9 67.0503 358.66ZM61.4703 355.44C62.8703 355.44 63.8903 356.32 64.1103 357.68H58.8103C59.0303 356.3 60.0503 355.44 61.4703 355.44ZM79.9116 364.16C83.3316 364.16 85.8116 361.86 85.8116 358.62C85.8116 355.38 83.3316 353.08 79.9116 353.08C76.4916 353.08 73.9916 355.38 73.9916 358.62C73.9916 361.86 76.4916 364.16 79.9116 364.16ZM79.9116 361.6C78.3516 361.6 77.1516 360.48 77.1516 358.62C77.1516 356.76 78.3516 355.64 79.9116 355.64C81.4716 355.64 82.6516 356.76 82.6516 358.62C82.6516 360.48 81.4716 361.6 79.9116 361.6ZM91.317 353.02C91.317 351.96 91.817 351.46 92.737 351.46C93.217 351.46 93.657 351.6 93.997 351.84L94.817 349.58C94.237 349.18 93.317 349 92.437 349C89.757 349 88.277 350.58 88.277 353V353.48H86.617V355.88H88.277V364H91.397V355.88H94.077V353.48H91.317V353.02ZM107.395 361.28C107.055 361.54 106.595 361.68 106.135 361.68C105.295 361.68 104.795 361.18 104.795 360.26V355.88H107.475V353.48H104.795V350.86H101.675V353.48H100.015V355.88H101.675V360.3C101.675 362.86 103.155 364.16 105.695 364.16C106.655 364.16 107.595 363.94 108.235 363.48L107.395 361.28ZM116.527 353.08C115.147 353.08 113.947 353.52 113.107 354.36V349.16H109.987V364H113.107V358.68C113.107 356.7 114.187 355.78 115.687 355.78C117.067 355.78 117.867 356.58 117.867 358.32V364H120.987V357.84C120.987 354.56 119.067 353.08 116.527 353.08ZM134.472 358.66C134.472 355.2 132.032 353.08 128.872 353.08C125.592 353.08 123.132 355.4 123.132 358.62C123.132 361.82 125.552 364.16 129.272 364.16C131.212 364.16 132.712 363.56 133.712 362.42L132.052 360.62C131.312 361.32 130.492 361.66 129.352 361.66C127.712 361.66 126.572 360.84 126.272 359.5H134.412C134.432 359.24 134.472 358.9 134.472 358.66ZM128.892 355.44C130.292 355.44 131.312 356.32 131.532 357.68H126.232C126.452 356.3 127.472 355.44 128.892 355.44ZM155.993 353.08C154.373 353.08 152.973 353.74 152.113 354.84C151.353 353.66 150.073 353.08 148.573 353.08C147.193 353.08 145.993 353.56 145.193 354.48V353.24H142.213V364H145.333V358.6C145.333 356.68 146.313 355.78 147.693 355.78C148.993 355.78 149.733 356.58 149.733 358.32V364H152.853V358.6C152.853 356.68 153.833 355.78 155.233 355.78C156.493 355.78 157.273 356.58 157.273 358.32V364H160.393V357.84C160.393 354.56 158.553 353.08 155.993 353.08ZM167.53 353.08C165.81 353.08 164.07 353.54 162.89 354.38L164.01 356.56C164.79 355.94 165.97 355.56 167.11 355.56C168.79 355.56 169.59 356.34 169.59 357.68H167.11C163.83 357.68 162.49 359 162.49 360.9C162.49 362.76 163.99 364.16 166.51 364.16C168.09 364.16 169.21 363.64 169.79 362.66V364H172.71V357.86C172.71 354.6 170.81 353.08 167.53 353.08ZM167.29 362.06C166.19 362.06 165.53 361.54 165.53 360.76C165.53 360.04 165.99 359.5 167.45 359.5H169.59V360.6C169.23 361.58 168.33 362.06 167.29 362.06ZM178.514 354.66V353.24H175.534V364H178.654V358.92C178.654 356.86 179.794 355.92 181.514 355.92C181.754 355.92 181.954 355.94 182.214 355.96V353.08C180.554 353.08 179.274 353.62 178.514 354.66ZM192.089 364H195.869L190.989 357.8L195.469 353.24H191.749L187.189 357.56V349.16H184.069V364H187.189V361.26L188.689 359.78L192.089 364ZM207.343 358.66C207.343 355.2 204.903 353.08 201.743 353.08C198.463 353.08 196.003 355.4 196.003 358.62C196.003 361.82 198.423 364.16 202.143 364.16C204.083 364.16 205.583 363.56 206.583 362.42L204.923 360.62C204.183 361.32 203.363 361.66 202.223 361.66C200.583 361.66 199.443 360.84 199.143 359.5H207.283C207.303 359.24 207.343 358.9 207.343 358.66ZM201.763 355.44C203.163 355.44 204.183 356.32 204.403 357.68H199.103C199.323 356.3 200.343 355.44 201.763 355.44ZM215.52 361.28C215.18 361.54 214.72 361.68 214.26 361.68C213.42 361.68 212.92 361.18 212.92 360.26V355.88H215.6V353.48H212.92V350.86H209.8V353.48H208.14V355.88H209.8V360.3C209.8 362.86 211.28 364.16 213.82 364.16C214.78 364.16 215.72 363.94 216.36 363.48L215.52 361.28ZM224.472 353.08C223.032 353.08 221.872 353.54 221.092 354.48V353.24H218.112V367.88H221.232V362.86C222.032 363.74 223.132 364.16 224.472 364.16C227.492 364.16 229.832 362 229.832 358.62C229.832 355.24 227.492 353.08 224.472 353.08ZM223.932 361.6C222.372 361.6 221.192 360.48 221.192 358.62C221.192 356.76 222.372 355.64 223.932 355.64C225.492 355.64 226.672 356.76 226.672 358.62C226.672 360.48 225.492 361.6 223.932 361.6ZM231.92 364H235.04V349.16H231.92V364ZM242.276 353.08C240.556 353.08 238.816 353.54 237.636 354.38L238.756 356.56C239.536 355.94 240.716 355.56 241.856 355.56C243.536 355.56 244.336 356.34 244.336 357.68H241.856C238.576 357.68 237.236 359 237.236 360.9C237.236 362.76 238.736 364.16 241.256 364.16C242.836 364.16 243.956 363.64 244.536 362.66V364H247.456V357.86C247.456 354.6 245.556 353.08 242.276 353.08ZM242.036 362.06C240.936 362.06 240.276 361.54 240.276 360.76C240.276 360.04 240.736 359.5 242.196 359.5H244.336V360.6C243.976 361.58 243.076 362.06 242.036 362.06ZM255.597 364.16C257.857 364.16 259.637 363.16 260.417 361.44L257.997 360.12C257.417 361.16 256.557 361.6 255.577 361.6C253.997 361.6 252.757 360.5 252.757 358.62C252.757 356.74 253.997 355.64 255.577 355.64C256.557 355.64 257.417 356.1 257.997 357.12L260.417 355.82C259.637 354.06 257.857 353.08 255.597 353.08C252.097 353.08 249.597 355.38 249.597 358.62C249.597 361.86 252.097 364.16 255.597 364.16ZM272.617 358.66C272.617 355.2 270.177 353.08 267.017 353.08C263.737 353.08 261.277 355.4 261.277 358.62C261.277 361.82 263.697 364.16 267.417 364.16C269.357 364.16 270.857 363.56 271.857 362.42L270.197 360.62C269.457 361.32 268.637 361.66 267.497 361.66C265.857 361.66 264.717 360.84 264.417 359.5H272.557C272.577 359.24 272.617 358.9 272.617 358.66ZM267.037 355.44C268.437 355.44 269.457 356.32 269.677 357.68H264.377C264.597 356.3 265.617 355.44 267.037 355.44Z" fill="black"/>
<defs>
<filter id="filter0_d_0_1" x="35.4213" y="150.432" width="189.131" height="73.396" filterUnits="userSpaceOnUse" color-interpolation-filters="sRGB">
<feFlood flood-opacity="0" result="BackgroundImageFix"/>
<feColorMatrix in="SourceAlpha" type="matrix" values="0 0 0 0 0 0 0 0 0 0 0 0 0 0 0 0 0 0 127 0" result="hardAlpha"/>
<feOffset dy="4"/>
<feGaussianBlur stdDeviation="2"/>
<feComposite in2="hardAlpha" operator="out"/>
<feColorMatrix type="matrix" values="0 0 0 0 0 0 0 0 0 0 0 0 0 0 0 0 0 0 0.25 0"/>
<feBlend mode="normal" in2="BackgroundImageFix" result="effect1_dropShadow_0_1"/>
<feBlend mode="normal" in="SourceGraphic" in2="effect1_dropShadow_0_1" result="shape"/>
</filter>
<filter id="filter1_d_0_1" x="66" y="0" width="142" height="142" filterUnits="userSpaceOnUse" color-interpolation-filters="sRGB">
<feFlood flood-opacity="0" result="BackgroundImageFix"/>
<feColorMatrix in="SourceAlpha" type="matrix" values="0 0 0 0 0 0 0 0 0 0 0 0 0 0 0 0 0 0 127 0" result="hardAlpha"/>
<feOffset dy="4"/>
<feGaussianBlur stdDeviation="2"/>
<feComposite in2="hardAlpha" operator="out"/>
<feColorMatrix type="matrix" values="0 0 0 0 0 0 0 0 0 0 0 0 0 0 0 0 0 0 0.25 0"/>
<feBlend mode="normal" in2="BackgroundImageFix" result="effect1_dropShadow_0_1"/>
<feBlend mode="normal" in="SourceGraphic" in2="effect1_dropShadow_0_1" result="shape"/>
</filter>
<filter id="filter2_d_0_1" x="48" y="416" width="186" height="185.998" filterUnits="userSpaceOnUse" color-interpolation-filters="sRGB">
<feFlood flood-opacity="0" result="BackgroundImageFix"/>
<feColorMatrix in="SourceAlpha" type="matrix" values="0 0 0 0 0 0 0 0 0 0 0 0 0 0 0 0 0 0 127 0" result="hardAlpha"/>
<feOffset dy="4"/>
<feGaussianBlur stdDeviation="2"/>
<feComposite in2="hardAlpha" operator="out"/>
<feColorMatrix type="matrix" values="0 0 0 0 0 0 0 0 0 0 0 0 0 0 0 0 0 0 0.25 0"/>
<feBlend mode="normal" in2="BackgroundImageFix" result="effect1_dropShadow_0_1"/>
<feBlend mode="normal" in="SourceGraphic" in2="effect1_dropShadow_0_1" result="shape"/>
</filter>
</defs>
</svg>
