<svg width="258" height="582" viewBox="0 0 258 582" fill="none" xmlns="http://www.w3.org/2000/svg">
<g filter="url(#filter0_d_0_1)">
<path d="M13.9168 149.2V157.52H22.8767V194H33.2448V149.2H13.9168ZM60.2273 194.768C71.2993 194.768 79.4273 186.384 79.4273 171.6C79.4273 156.816 71.2993 148.432 60.2273 148.432C49.2193 148.432 41.0273 156.816 41.0273 171.6C41.0273 186.384 49.2193 194.768 60.2273 194.768ZM60.2273 186C55.1073 186 51.5233 181.776 51.5233 171.6C51.5233 161.424 55.1073 157.2 60.2273 157.2C65.4113 157.2 68.9953 161.424 68.9953 171.6C68.9953 181.776 65.4113 186 60.2273 186ZM89.6042 182.096C86.0843 182.096 83.3963 184.528 83.3963 188.24C83.3963 190.864 84.7403 192.848 86.8523 193.68L84.0363 203.856H90.3723L94.0203 194.64C95.4923 191.12 95.7483 189.904 95.7483 188.24C95.7483 184.592 93.1883 182.096 89.6042 182.096ZM118.79 194.768C129.862 194.768 137.99 186.384 137.99 171.6C137.99 156.816 129.862 148.432 118.79 148.432C107.782 148.432 99.5898 156.816 99.5898 171.6C99.5898 186.384 107.782 194.768 118.79 194.768ZM118.79 186C113.67 186 110.086 181.776 110.086 171.6C110.086 161.424 113.67 157.2 118.79 157.2C123.974 157.2 127.558 161.424 127.558 171.6C127.558 181.776 123.974 186 118.79 186ZM162.227 194.768C173.299 194.768 181.427 186.384 181.427 171.6C181.427 156.816 173.299 148.432 162.227 148.432C151.219 148.432 143.027 156.816 143.027 171.6C143.027 186.384 151.219 194.768 162.227 194.768ZM162.227 186C157.107 186 153.523 181.776 153.523 171.6C153.523 161.424 157.107 157.2 162.227 157.2C167.411 157.2 170.995 161.424 170.995 171.6C170.995 181.776 167.411 186 162.227 186ZM205.665 194.768C216.737 194.768 224.865 186.384 224.865 171.6C224.865 156.816 216.737 148.432 205.665 148.432C194.657 148.432 186.465 156.816 186.465 171.6C186.465 186.384 194.657 194.768 205.665 194.768ZM205.665 186C200.545 186 196.961 181.776 196.961 171.6C196.961 161.424 200.545 157.2 205.665 157.2C210.849 157.2 214.433 161.424 214.433 171.6C214.433 181.776 210.849 186 205.665 186ZM108.084 211.112C110.338 211.112 111.64 210.118 111.64 208.718C111.64 205.75 107.09 206.996 107.09 205.708C107.09 205.316 107.51 205.008 108.49 205.008C109.176 205.008 109.918 205.148 110.66 205.568L111.388 204.014C110.674 203.594 109.526 203.356 108.49 203.356C106.292 203.356 105.004 204.364 105.004 205.792C105.004 208.802 109.554 207.542 109.554 208.774C109.554 209.194 109.176 209.46 108.168 209.46C107.244 209.46 106.222 209.166 105.55 208.732L104.822 210.3C105.522 210.762 106.81 211.112 108.084 211.112ZM114.079 202.418C114.891 202.418 115.437 201.886 115.437 201.158C115.437 200.486 114.891 199.982 114.079 199.982C113.267 199.982 112.721 200.514 112.721 201.2C112.721 201.886 113.267 202.418 114.079 202.418ZM112.987 211H115.171V203.468H112.987V211ZM122.896 203.468V204.434C122.322 203.706 121.454 203.356 120.404 203.356C118.318 203.356 116.638 204.798 116.638 206.996C116.638 209.194 118.318 210.636 120.404 210.636C121.384 210.636 122.21 210.328 122.784 209.698V210.02C122.784 211.378 122.112 212.078 120.572 212.078C119.606 212.078 118.556 211.742 117.912 211.224L117.044 212.792C117.926 213.478 119.312 213.828 120.74 213.828C123.456 213.828 124.968 212.54 124.968 209.74V203.468H122.896ZM120.838 208.844C119.69 208.844 118.85 208.102 118.85 206.996C118.85 205.89 119.69 205.148 120.838 205.148C121.986 205.148 122.812 205.89 122.812 206.996C122.812 208.102 121.986 208.844 120.838 208.844ZM131.579 203.356C130.557 203.356 129.675 203.706 129.087 204.35V203.468H127.001V211H129.185V207.276C129.185 205.89 129.941 205.246 130.991 205.246C131.957 205.246 132.517 205.806 132.517 207.024V211H134.701V206.688C134.701 204.392 133.357 203.356 131.579 203.356ZM146.05 203.468V207.192C146.05 208.578 145.322 209.222 144.314 209.222C143.348 209.222 142.788 208.662 142.788 207.402V203.468H140.604V207.724C140.604 210.048 141.934 211.112 143.824 211.112C144.748 211.112 145.588 210.762 146.162 210.104V211H148.234V203.468H146.05ZM154.709 203.356C153.701 203.356 152.889 203.678 152.343 204.336V203.468H150.257V213.716H152.441V210.202C153.001 210.818 153.771 211.112 154.709 211.112C156.823 211.112 158.461 209.6 158.461 207.234C158.461 204.868 156.823 203.356 154.709 203.356ZM154.331 209.32C153.239 209.32 152.413 208.536 152.413 207.234C152.413 205.932 153.239 205.148 154.331 205.148C155.423 205.148 156.249 205.932 156.249 207.234C156.249 208.536 155.423 209.32 154.331 209.32ZM162.457 211.112C164.711 211.112 166.013 210.118 166.013 208.718C166.013 205.75 161.463 206.996 161.463 205.708C161.463 205.316 161.883 205.008 162.863 205.008C163.549 205.008 164.291 205.148 165.033 205.568L165.761 204.014C165.047 203.594 163.899 203.356 162.863 203.356C160.665 203.356 159.377 204.364 159.377 205.792C159.377 208.802 163.927 207.542 163.927 208.774C163.927 209.194 163.549 209.46 162.541 209.46C161.617 209.46 160.595 209.166 159.923 208.732L159.195 210.3C159.895 210.762 161.183 211.112 162.457 211.112Z" fill="#FFE0B2"/>
</g>
<g filter="url(#filter1_d_0_1)">
<path d="M169.127 0C167.962 0.0189451 166.85 0.491578 166.03 1.31818L152.636 14.7453C152.442 14.9378 152.268 15.1481 152.112 15.3735C139.93 9.37489 126.475 7.6787 113.696 9.92931C99.0539 12.5079 85.3046 20.2563 75.4715 32.6833C55.8075 57.5361 57.8885 93.2614 80.2877 115.681C102.688 138.1 138.419 140.199 163.29 120.557C186.587 102.16 193.524 70.0698 180.654 43.9032C180.885 43.7437 181.101 43.5632 181.299 43.3628L194.684 29.9786C195.526 29.141 196 28.0003 196 26.8118C196 25.6233 195.526 24.4836 194.684 23.6451L186.674 15.6624L190.233 12.1028C191.093 11.2582 191.574 10.1026 191.57 8.89802C191.565 7.69343 191.073 6.54185 190.207 5.70524C189.342 4.86768 188.174 4.41498 186.971 4.45087C185.81 4.48577 184.708 4.97038 183.899 5.80295L180.365 9.33676L172.355 1.31908C171.503 0.460564 170.337 -0.0150603 169.127 0.000893402L169.127 0ZM169.197 10.8186L174.039 15.6617L160.253 29.4467V19.718L169.197 10.8186ZM124.743 17.8771C133.832 17.9159 142.98 20.313 151.32 25.1361L151.319 38.3807L149.574 40.1256C142.687 34.6177 133.977 31.2962 124.506 31.2962C102.354 31.2962 84.311 49.34 84.311 71.4893C84.311 93.6399 102.356 111.682 124.506 111.682C146.658 111.682 164.737 93.6386 164.737 71.4893C164.737 62.0169 161.416 53.3131 155.899 46.4321L157.654 44.6782H170.889C184.214 67.6854 178.734 96.996 157.749 113.567C136.378 130.444 105.834 128.644 86.5867 109.38C67.3386 90.1155 65.5974 59.5761 82.4944 38.2211C93.0554 24.8739 108.78 17.8073 124.742 17.8752L124.743 17.8771ZM180.365 21.9691L185.216 26.8111L176.282 35.7452H166.588L180.365 21.9691ZM124.506 40.2301C131.548 40.2301 138.018 42.5623 143.239 46.4589L133.528 56.1697C130.867 54.5903 127.804 53.6221 124.506 53.6221C114.69 53.6221 106.672 61.6747 106.672 71.4902C106.672 81.3057 114.69 89.3673 124.506 89.3673C134.322 89.3673 142.384 81.3057 142.384 71.4902C142.384 68.1997 141.41 65.1527 139.836 62.4954L149.557 52.7757C153.462 57.9906 155.804 64.4479 155.804 71.4902C155.804 88.8129 141.83 102.749 124.507 102.749C107.184 102.749 93.2466 88.8108 93.2466 71.4902C93.2466 54.1676 107.186 40.2312 124.507 40.2312L124.506 40.2301ZM124.506 62.5563C125.31 62.5563 126.072 62.6949 126.809 62.8873L121.374 68.3236C120.505 69.1522 120.008 70.2959 119.993 71.4965C119.977 72.697 120.446 73.8526 121.292 74.704C122.139 75.5555 123.292 76.0302 124.493 76.0212C125.693 76.0122 126.839 75.5207 127.674 74.6572L133.126 69.2041C133.317 69.937 133.44 70.6927 133.44 71.4904C133.44 76.4779 129.494 80.4334 124.506 80.4334C119.518 80.4334 115.606 76.4779 115.606 71.4904C115.606 66.5029 119.518 62.5564 124.506 62.5564L124.506 62.5563Z" fill="white"/>
</g>
<g filter="url(#filter2_d_0_1)">
<path d="M128.728 518.647C122.047 518.647 63.415 519.063 63.415 533.491V543.674C63.415 545.314 64.7445 546.643 66.3825 546.643C68.0227 546.643 69.3521 545.314 69.3521 543.674V540.439C82.7424 547.209 114.981 548.157 125.759 548.306V553.115C125.759 554.755 127.088 556.084 128.728 556.084C130.369 556.084 131.698 554.755 131.698 553.115V548.306C142.475 548.306 174.716 547.209 188.105 540.439V543.676V543.674C188.105 545.314 189.434 546.643 191.074 546.643C192.712 546.643 194.042 545.314 194.042 543.674V533.491C194.042 519.063 135.409 518.647 128.729 518.647L128.728 518.647ZM128.728 542.398C92.598 542.398 71.6109 536.786 69.3525 533.491C71.5207 530.165 92.5089 524.584 128.728 524.584C164.947 524.584 185.845 530.165 188.103 533.491C185.846 536.786 164.858 542.398 128.728 542.398Z" fill="black"/>
<path d="M191.072 550.291C189.432 550.291 188.103 551.621 188.103 553.261V558.724C186.618 561.99 165.51 567.837 128.727 567.837C91.9446 567.837 70.8042 561.9 69.3517 558.931V552.994C69.3517 551.353 68.0222 550.024 66.382 550.024C64.744 550.024 63.4145 551.353 63.4145 552.994V558.931C63.4145 573.358 122.048 573.774 128.728 573.774C135.408 573.774 194.041 573.358 194.041 558.931V552.994C193.902 551.459 192.614 550.285 191.073 550.291L191.072 550.291Z" fill="black"/>
<path d="M191.072 494.987C189.432 494.987 188.103 496.316 188.103 497.957V512.801C188.103 514.441 189.432 515.77 191.072 515.77C192.71 515.77 194.04 514.441 194.04 512.801V497.957C194.04 497.17 193.727 496.414 193.17 495.857C192.613 495.3 191.859 494.987 191.072 494.987L191.072 494.987Z" fill="black"/>
<path d="M191.072 474.948C189.432 474.948 188.103 476.275 188.103 477.915V484.892C188.103 486.532 189.432 487.862 191.072 487.862C192.71 487.862 194.04 486.532 194.04 484.892V477.915C194.04 477.128 193.727 476.373 193.17 475.816C192.613 475.261 191.859 474.948 191.072 474.948L191.072 474.948Z" fill="black"/>
<path d="M191.072 455.322C189.432 455.322 188.103 456.649 188.103 458.29V462.297C188.103 463.937 189.432 465.266 191.072 465.266C192.71 465.266 194.04 463.937 194.04 462.297V458.29C194.04 457.503 193.727 456.747 193.17 456.19C192.613 455.635 191.859 455.322 191.072 455.322L191.072 455.322Z" fill="black"/>
<path d="M66.3835 432.107C67.1725 432.107 67.9263 431.795 68.4833 431.238C69.0404 430.68 69.3531 429.925 69.3531 429.138V425.131C69.3531 423.49 68.0236 422.161 66.3834 422.161C64.7454 422.161 63.4158 423.49 63.4158 425.131V429.138C63.4158 429.925 63.7285 430.681 64.2856 431.238C64.8427 431.795 65.5965 432.107 66.3834 432.107H66.3835Z" fill="black"/>
<path d="M66.3835 464.112C67.1725 464.112 67.9263 463.799 68.4833 463.242C69.0404 462.685 69.3531 461.931 69.3531 461.142V442.291C69.3531 440.651 68.0236 439.321 66.3834 439.321C64.7454 439.321 63.4158 440.651 63.4158 442.291V461.142C63.4158 461.931 63.7285 462.685 64.2856 463.242C64.8427 463.799 65.5965 464.112 66.3834 464.112H66.3835Z" fill="black"/>
<path d="M66.3835 489.018C67.1725 489.018 67.9263 488.705 68.4833 488.148C69.0404 487.591 69.3531 486.835 69.3531 486.048V476.104C69.3531 474.464 68.0236 473.134 66.3834 473.134C64.7454 473.134 63.4158 474.464 63.4158 476.104V486.05V486.048C63.4158 486.835 63.7285 487.591 64.2856 488.148C64.8427 488.705 65.5965 489.018 66.3834 489.018L66.3835 489.018Z" fill="black"/>
<path d="M241.541 546.644C238.915 546.652 236.366 547.532 234.291 549.143C232.218 550.754 230.738 553.008 230.081 555.551H220.76V527.554H230.083H230.081C231.052 531.317 233.805 534.368 237.449 535.72C241.094 537.072 245.169 536.554 248.36 534.334C251.552 532.114 253.455 528.471 253.455 524.584C253.455 520.698 251.552 517.057 248.36 514.837C245.169 512.617 241.094 512.099 237.449 513.451C233.804 514.804 231.052 517.852 230.081 521.617H214.821V538.569H202.68V544.506H214.821V561.487H230.081C230.827 564.371 232.628 566.871 235.128 568.488C237.629 570.106 240.647 570.725 243.583 570.224C246.519 569.72 249.16 568.132 250.98 565.775C252.8 563.417 253.668 560.462 253.409 557.494C253.152 554.527 251.79 551.764 249.59 549.753C247.393 547.742 244.519 546.632 241.541 546.643L241.541 546.644ZM241.541 518.648C243.941 518.648 246.108 520.095 247.027 522.313C247.947 524.533 247.437 527.086 245.739 528.785C244.041 530.483 241.488 530.99 239.27 530.071C237.05 529.153 235.604 526.987 235.604 524.585C235.604 521.307 238.261 518.648 241.541 518.648L241.541 518.648ZM241.541 564.455V564.457C239.139 564.457 236.975 563.009 236.055 560.791C235.136 558.572 235.643 556.018 237.341 554.32C239.04 552.622 241.595 552.115 243.813 553.034C246.031 553.951 247.478 556.118 247.478 558.518C247.478 560.094 246.853 561.603 245.739 562.718C244.627 563.832 243.115 564.457 241.541 564.457L241.541 564.455Z" fill="black"/>
<path d="M42.6334 521.616H27.3734C26.4022 517.851 23.6501 514.803 20.0056 513.451C16.3609 512.098 12.2857 512.616 9.0943 514.836C5.90314 517.056 4 520.697 4 524.584C4 528.471 5.90308 532.113 9.0943 534.334C12.2855 536.554 16.3609 537.071 20.0056 535.719C23.6503 534.367 26.4022 531.316 27.3734 527.554H36.6943V555.55H27.3734C26.4022 551.785 23.6501 548.737 20.0056 547.385C16.3611 546.033 12.2857 546.55 9.0943 548.77C5.90314 550.99 4 554.631 4 558.518C4 562.407 5.90308 566.047 9.0943 568.268C12.2855 570.487 16.3609 571.005 20.0056 569.653C23.6503 568.301 26.4022 565.252 27.3734 561.488H42.6334V544.507H54.7746V538.57H42.6334V521.616ZM15.9156 530.523H15.9135C13.5134 530.523 11.3473 529.075 10.4276 526.857C9.50817 524.637 10.0176 522.084 11.7157 520.386C13.4138 518.688 15.9671 518.18 18.185 519.098C20.4049 520.017 21.8504 522.183 21.8504 524.584C21.8504 526.16 21.225 527.669 20.113 528.783C18.9988 529.898 17.4892 530.523 15.9133 530.523L15.9156 530.523ZM15.9156 564.456H15.9135C13.5134 564.456 11.3473 563.008 10.4276 560.79C9.50817 558.57 10.0176 556.017 11.7157 554.319C13.4138 552.621 15.9671 552.114 18.185 553.033C20.4049 553.95 21.8504 556.117 21.8504 558.517C21.8504 560.093 21.225 561.602 20.113 562.716C18.9988 563.831 17.4892 564.456 15.9133 564.456L15.9156 564.456Z" fill="black"/>
<path d="M95.6263 488.869V489.167C95.6263 491.528 96.5644 493.794 98.2356 495.465C99.9067 497.134 102.172 498.072 104.533 498.072C106.726 498.068 108.84 497.254 110.47 495.786C112.102 497.254 114.216 498.068 116.409 498.072C118.77 498.072 121.036 497.134 122.707 495.465C124.376 493.794 125.314 491.528 125.314 489.167H136.685C136.685 491.528 137.623 493.794 139.294 495.465C140.963 497.134 143.229 498.072 145.592 498.072C147.785 498.068 149.899 497.254 151.529 495.786C153.158 497.254 155.273 498.068 157.466 498.072C159.829 498.072 162.094 497.134 163.763 495.465C165.434 493.794 166.373 491.528 166.373 489.167V488.869C169.725 488.186 172.738 486.364 174.902 483.713C177.066 481.062 178.249 477.745 178.247 474.324V445.911C178.247 441.975 176.683 438.199 173.9 435.414C171.117 432.631 167.342 431.067 163.403 431.067H135.2V418.984C135.206 417.775 134.479 416.683 133.359 416.223C132.249 415.766 130.971 416.025 130.124 416.876L115.904 431.068H112.934V418.984C112.93 417.791 112.212 416.717 111.11 416.257C110.01 415.797 108.741 416.041 107.888 416.876L92.7167 431.958C92.5552 432.122 92.4247 432.312 92.3315 432.521C89.7782 433.71 87.6162 435.601 86.0982 437.972C84.5782 440.341 83.7644 443.095 83.7519 445.911V474.324C83.7519 477.745 84.9323 481.062 87.0963 483.713C89.2603 486.364 92.2734 488.186 95.6262 488.869L95.6263 488.869ZM129.263 426.138V431.067H124.305L129.263 426.138ZM106.908 431.067H102.011L106.939 426.138L106.908 431.067ZM89.6893 445.911C89.6893 443.548 90.6273 441.282 92.2985 439.613C93.9676 437.942 96.2332 437.004 98.5961 437.004H142.088V455.202H148.025V437.004H163.434C165.795 437.004 168.06 437.942 169.732 439.613C171.401 441.282 172.341 443.548 172.341 445.911V474.323C172.341 476.684 171.401 478.949 169.732 480.62C168.06 482.289 165.795 483.227 163.434 483.227H160.464V489.167C160.464 490.805 159.135 492.134 157.497 492.134C155.857 492.134 154.527 490.805 154.527 489.167V486.197H148.59V489.167C148.59 490.805 147.261 492.134 145.621 492.134C143.981 492.134 142.653 490.805 142.653 489.167V483.23L119.377 483.228V489.167C119.377 490.805 118.047 492.134 116.409 492.134C114.769 492.134 113.44 490.805 113.44 489.167V486.197H107.503V489.167C107.503 490.805 106.173 492.134 104.533 492.134C102.893 492.134 101.565 490.805 101.565 489.167V486.197C101.565 485.41 101.253 484.654 100.696 484.097C100.139 483.54 99.3828 483.227 98.5959 483.227C96.2331 483.227 93.9675 482.289 92.2984 480.62C90.6272 478.949 89.6891 476.684 89.6891 474.323L89.6893 445.911Z" fill="black"/>
<path d="M97.349 459.33C98.136 459.33 98.8919 459.017 99.4489 458.46C100.004 457.903 100.317 457.147 100.317 456.36V449.295C100.317 447.657 98.9892 446.327 97.349 446.327C95.7088 446.327 94.3793 447.657 94.3793 449.295V456.36C94.3793 457.147 94.692 457.903 95.2491 458.46C95.8062 459.017 96.5621 459.33 97.3489 459.33H97.349Z" fill="black"/>
<path d="M120.532 459.33C121.319 459.33 122.075 459.017 122.632 458.46C123.189 457.903 123.502 457.147 123.502 456.36V449.295C123.502 447.657 122.172 446.327 120.532 446.327C118.894 446.327 117.564 447.657 117.564 449.295V456.36C117.564 457.147 117.877 457.903 118.434 458.46C118.989 459.017 119.745 459.33 120.532 459.33H120.532Z" fill="black"/>
<path d="M100.88 465.686L104.413 467.676V467.674C105.755 468.424 107.268 468.813 108.807 468.803C110.335 468.817 111.841 468.428 113.17 467.674L116.852 465.686C118.275 464.881 118.78 463.075 117.979 461.648C117.594 460.948 116.939 460.432 116.169 460.221C115.399 460.008 114.572 460.116 113.883 460.519L110.35 462.51C109.43 463.04 108.3 463.04 107.38 462.51L103.818 460.519C102.391 459.72 100.586 460.223 99.7801 461.648C98.9745 463.067 99.4653 464.87 100.88 465.686H100.88Z" fill="black"/>
<path d="M155.834 452.831H161.771V471.891H155.834V452.831Z" fill="black"/>
</g>
<path d="M15.7138 292H19.1138L12.8538 278H9.65375L3.41375 292H6.73375L7.97375 289H14.4738L15.7138 292ZM9.01375 286.54L11.2338 281.18L13.4538 286.54H9.01375ZM20.3463 292H23.4663V277.16H20.3463V292ZM26.3619 292H29.4819V277.16H26.3619V292ZM36.7416 278V280.6H39.5416V292H42.7816V278H36.7416ZM51.2136 292.24C54.6736 292.24 57.2136 289.62 57.2136 285C57.2136 280.38 54.6736 277.76 51.2136 277.76C47.7736 277.76 45.2136 280.38 45.2136 285C45.2136 289.62 47.7736 292.24 51.2136 292.24ZM51.2136 289.5C49.6136 289.5 48.4936 288.18 48.4936 285C48.4936 281.82 49.6136 280.5 51.2136 280.5C52.8336 280.5 53.9536 281.82 53.9536 285C53.9536 288.18 52.8336 289.5 51.2136 289.5ZM60.3939 288.28C59.2939 288.28 58.4539 289.04 58.4539 290.2C58.4539 291.02 58.8739 291.64 59.5339 291.9L58.6539 295.08H60.6339L61.7739 292.2C62.2339 291.1 62.3139 290.72 62.3139 290.2C62.3139 289.06 61.5139 288.28 60.3939 288.28ZM69.5144 292.24C72.9744 292.24 75.5144 289.62 75.5144 285C75.5144 280.38 72.9744 277.76 69.5144 277.76C66.0744 277.76 63.5144 280.38 63.5144 285C63.5144 289.62 66.0744 292.24 69.5144 292.24ZM69.5144 289.5C67.9144 289.5 66.7944 288.18 66.7944 285C66.7944 281.82 67.9144 280.5 69.5144 280.5C71.1344 280.5 72.2544 281.82 72.2544 285C72.2544 288.18 71.1344 289.5 69.5144 289.5ZM83.0886 292.24C86.5486 292.24 89.0886 289.62 89.0886 285C89.0886 280.38 86.5486 277.76 83.0886 277.76C79.6486 277.76 77.0886 280.38 77.0886 285C77.0886 289.62 79.6486 292.24 83.0886 292.24ZM83.0886 289.5C81.4886 289.5 80.3686 288.18 80.3686 285C80.3686 281.82 81.4886 280.5 83.0886 280.5C84.7086 280.5 85.8286 281.82 85.8286 285C85.8286 288.18 84.7086 289.5 83.0886 289.5ZM96.6628 292.24C100.123 292.24 102.663 289.62 102.663 285C102.663 280.38 100.123 277.76 96.6628 277.76C93.2228 277.76 90.6628 280.38 90.6628 285C90.6628 289.62 93.2228 292.24 96.6628 292.24ZM96.6628 289.5C95.0628 289.5 93.9428 288.18 93.9428 285C93.9428 281.82 95.0628 280.5 96.6628 280.5C98.2828 280.5 99.4028 281.82 99.4028 285C99.4028 288.18 98.2828 289.5 96.6628 289.5ZM114.181 292.16C117.401 292.16 119.261 290.74 119.261 288.74C119.261 284.5 112.761 286.28 112.761 284.44C112.761 283.88 113.361 283.44 114.761 283.44C115.741 283.44 116.801 283.64 117.861 284.24L118.901 282.02C117.881 281.42 116.241 281.08 114.761 281.08C111.621 281.08 109.781 282.52 109.781 284.56C109.781 288.86 116.281 287.06 116.281 288.82C116.281 289.42 115.741 289.8 114.301 289.8C112.981 289.8 111.521 289.38 110.561 288.76L109.521 291C110.521 291.66 112.361 292.16 114.181 292.16ZM122.746 279.74C123.906 279.74 124.686 278.98 124.686 277.94C124.686 276.98 123.906 276.26 122.746 276.26C121.586 276.26 120.806 277.02 120.806 278C120.806 278.98 121.586 279.74 122.746 279.74ZM121.186 292H124.306V281.24H121.186V292ZM135.342 281.24V282.62C134.522 281.58 133.282 281.08 131.782 281.08C128.802 281.08 126.402 283.14 126.402 286.28C126.402 289.42 128.802 291.48 131.782 291.48C133.182 291.48 134.362 291.04 135.182 290.14V290.6C135.182 292.54 134.222 293.54 132.022 293.54C130.642 293.54 129.142 293.06 128.222 292.32L126.982 294.56C128.242 295.54 130.222 296.04 132.262 296.04C136.142 296.04 138.302 294.2 138.302 290.2V281.24H135.342ZM132.402 288.92C130.762 288.92 129.562 287.86 129.562 286.28C129.562 284.7 130.762 283.64 132.402 283.64C134.042 283.64 135.222 284.7 135.222 286.28C135.222 287.86 134.042 288.92 132.402 288.92ZM147.746 281.08C146.286 281.08 145.026 281.58 144.186 282.5V281.24H141.206V292H144.326V286.68C144.326 284.7 145.406 283.78 146.906 283.78C148.286 283.78 149.086 284.58 149.086 286.32V292H152.206V285.84C152.206 282.56 150.286 281.08 147.746 281.08ZM168.418 281.24V286.56C168.418 288.54 167.378 289.46 165.938 289.46C164.558 289.46 163.758 288.66 163.758 286.86V281.24H160.638V287.32C160.638 290.64 162.538 292.16 165.238 292.16C166.558 292.16 167.758 291.66 168.578 290.72V292H171.538V281.24H168.418ZM180.788 281.08C179.348 281.08 178.188 281.54 177.408 282.48V281.24H174.428V295.88H177.548V290.86C178.348 291.74 179.448 292.16 180.788 292.16C183.808 292.16 186.148 290 186.148 286.62C186.148 283.24 183.808 281.08 180.788 281.08ZM180.248 289.6C178.688 289.6 177.508 288.48 177.508 286.62C177.508 284.76 178.688 283.64 180.248 283.64C181.808 283.64 182.988 284.76 182.988 286.62C182.988 288.48 181.808 289.6 180.248 289.6ZM191.857 292.16C195.077 292.16 196.937 290.74 196.937 288.74C196.937 284.5 190.437 286.28 190.437 284.44C190.437 283.88 191.037 283.44 192.437 283.44C193.417 283.44 194.477 283.64 195.537 284.24L196.577 282.02C195.557 281.42 193.917 281.08 192.437 281.08C189.297 281.08 187.457 282.52 187.457 284.56C187.457 288.86 193.957 287.06 193.957 288.82C193.957 289.42 193.417 289.8 191.977 289.8C190.657 289.8 189.197 289.38 188.237 288.76L187.197 291C188.197 291.66 190.037 292.16 191.857 292.16ZM212.666 281.24V282.62C211.846 281.58 210.606 281.08 209.106 281.08C206.126 281.08 203.726 283.14 203.726 286.28C203.726 289.42 206.126 291.48 209.106 291.48C210.506 291.48 211.686 291.04 212.506 290.14V290.6C212.506 292.54 211.546 293.54 209.346 293.54C207.966 293.54 206.466 293.06 205.546 292.32L204.306 294.56C205.566 295.54 207.546 296.04 209.586 296.04C213.466 296.04 215.626 294.2 215.626 290.2V281.24H212.666ZM209.726 288.92C208.086 288.92 206.886 287.86 206.886 286.28C206.886 284.7 208.086 283.64 209.726 283.64C211.366 283.64 212.546 284.7 212.546 286.28C212.546 287.86 211.366 288.92 209.726 288.92ZM229.07 286.66C229.07 283.2 226.63 281.08 223.47 281.08C220.19 281.08 217.73 283.4 217.73 286.62C217.73 289.82 220.15 292.16 223.87 292.16C225.81 292.16 227.31 291.56 228.31 290.42L226.65 288.62C225.91 289.32 225.09 289.66 223.95 289.66C222.31 289.66 221.17 288.84 220.87 287.5H229.01C229.03 287.24 229.07 286.9 229.07 286.66ZM223.49 283.44C224.89 283.44 225.91 284.32 226.13 285.68H220.83C221.05 284.3 222.07 283.44 223.49 283.44ZM237.247 289.28C236.907 289.54 236.447 289.68 235.987 289.68C235.147 289.68 234.647 289.18 234.647 288.26V283.88H237.327V281.48H234.647V278.86H231.527V281.48H229.867V283.88H231.527V288.3C231.527 290.86 233.007 292.16 235.547 292.16C236.507 292.16 237.447 291.94 238.087 291.48L237.247 289.28ZM249.843 281.08C248.123 281.08 246.383 281.54 245.203 282.38L246.323 284.56C247.103 283.94 248.283 283.56 249.423 283.56C251.103 283.56 251.903 284.34 251.903 285.68H249.423C246.143 285.68 244.803 287 244.803 288.9C244.803 290.76 246.303 292.16 248.823 292.16C250.403 292.16 251.523 291.64 252.103 290.66V292H255.023V285.86C255.023 282.6 253.123 281.08 249.843 281.08ZM249.603 290.06C248.503 290.06 247.843 289.54 247.843 288.76C247.843 288.04 248.303 287.5 249.763 287.5H251.903V288.6C251.543 289.58 250.643 290.06 249.603 290.06ZM19.2838 305.02C19.2838 303.96 19.7838 303.46 20.7038 303.46C21.1838 303.46 21.6238 303.6 21.9638 303.84L22.7838 301.58C22.2038 301.18 21.2838 301 20.4038 301C17.7238 301 16.2438 302.58 16.2438 305V305.48H14.5838V307.88H16.2438V316H19.3638V307.88H22.0438V305.48H19.2838V305.02ZM28.1798 306.66V305.24H25.1998V316H28.3198V310.92C28.3198 308.86 29.4598 307.92 31.1798 307.92C31.4198 307.92 31.6198 307.94 31.8798 307.96V305.08C30.2198 305.08 28.9398 305.62 28.1798 306.66ZM44.1773 310.66C44.1773 307.2 41.7373 305.08 38.5773 305.08C35.2973 305.08 32.8373 307.4 32.8373 310.62C32.8373 313.82 35.2573 316.16 38.9773 316.16C40.9173 316.16 42.4173 315.56 43.4173 314.42L41.7573 312.62C41.0173 313.32 40.1973 313.66 39.0573 313.66C37.4173 313.66 36.2773 312.84 35.9773 311.5H44.1173C44.1373 311.24 44.1773 310.9 44.1773 310.66ZM38.5973 307.44C39.9973 307.44 41.0173 308.32 41.2373 309.68H35.9373C36.1573 308.3 37.1773 307.44 38.5973 307.44ZM56.7945 310.66C56.7945 307.2 54.3545 305.08 51.1945 305.08C47.9145 305.08 45.4545 307.4 45.4545 310.62C45.4545 313.82 47.8745 316.16 51.5945 316.16C53.5345 316.16 55.0345 315.56 56.0345 314.42L54.3745 312.62C53.6345 313.32 52.8145 313.66 51.6745 313.66C50.0345 313.66 48.8945 312.84 48.5945 311.5H56.7345C56.7545 311.24 56.7945 310.9 56.7945 310.66ZM51.2145 307.44C52.6145 307.44 53.6345 308.32 53.8545 309.68H48.5545C48.7745 308.3 49.7945 307.44 51.2145 307.44ZM74.3957 302V310.5L67.4357 302H64.7557V316H67.9557V307.5L74.9357 316H77.5957V302H74.3957ZM91.488 304.6V302H80.908V316H84.148V310.9H90.628V308.3H84.148V304.6H91.488ZM96.6791 316H99.9191V304.64H104.399V302H92.1991V304.64H96.6791V316ZM125.366 305.08C123.746 305.08 122.346 305.74 121.486 306.84C120.726 305.66 119.446 305.08 117.946 305.08C116.566 305.08 115.366 305.56 114.566 306.48V305.24H111.586V316H114.706V310.6C114.706 308.68 115.686 307.78 117.066 307.78C118.366 307.78 119.106 308.58 119.106 310.32V316H122.226V310.6C122.226 308.68 123.206 307.78 124.606 307.78C125.866 307.78 126.646 308.58 126.646 310.32V316H129.766V309.84C129.766 306.56 127.926 305.08 125.366 305.08ZM136.903 305.08C135.183 305.08 133.443 305.54 132.263 306.38L133.383 308.56C134.163 307.94 135.343 307.56 136.483 307.56C138.163 307.56 138.963 308.34 138.963 309.68H136.483C133.203 309.68 131.863 311 131.863 312.9C131.863 314.76 133.363 316.16 135.883 316.16C137.463 316.16 138.583 315.64 139.163 314.66V316H142.083V309.86C142.083 306.6 140.183 305.08 136.903 305.08ZM136.663 314.06C135.563 314.06 134.903 313.54 134.903 312.76C134.903 312.04 135.363 311.5 136.823 311.5H138.963V312.6C138.603 313.58 137.703 314.06 136.663 314.06ZM152.864 301.16V306.38C152.084 305.5 150.964 305.08 149.644 305.08C146.604 305.08 144.264 307.24 144.264 310.62C144.264 314 146.604 316.16 149.644 316.16C151.084 316.16 152.224 315.7 153.004 314.76V316H155.984V301.16H152.864ZM150.184 313.6C148.624 313.6 147.424 312.48 147.424 310.62C147.424 308.76 148.624 307.64 150.184 307.64C151.724 307.64 152.924 308.76 152.924 310.62C152.924 312.48 151.724 313.6 150.184 313.6ZM169.412 310.66C169.412 307.2 166.972 305.08 163.812 305.08C160.532 305.08 158.072 307.4 158.072 310.62C158.072 313.82 160.492 316.16 164.212 316.16C166.152 316.16 167.652 315.56 168.652 314.42L166.992 312.62C166.252 313.32 165.432 313.66 164.292 313.66C162.652 313.66 161.512 312.84 161.212 311.5H169.352C169.372 311.24 169.412 310.9 169.412 310.66ZM163.832 307.44C165.232 307.44 166.252 308.32 166.472 309.68H161.172C161.392 308.3 162.412 307.44 163.832 307.44ZM180.573 305.02C180.573 303.96 181.073 303.46 181.993 303.46C182.473 303.46 182.913 303.6 183.253 303.84L184.073 301.58C183.493 301.18 182.573 301 181.693 301C179.013 301 177.533 302.58 177.533 305V305.48H175.873V307.88H177.533V316H180.653V307.88H183.333V305.48H180.573V305.02ZM189.469 306.66V305.24H186.489V316H189.609V310.92C189.609 308.86 190.749 307.92 192.469 307.92C192.709 307.92 192.909 307.94 193.169 307.96V305.08C191.509 305.08 190.229 305.62 189.469 306.66ZM200.046 316.16C203.466 316.16 205.946 313.86 205.946 310.62C205.946 307.38 203.466 305.08 200.046 305.08C196.626 305.08 194.126 307.38 194.126 310.62C194.126 313.86 196.626 316.16 200.046 316.16ZM200.046 313.6C198.486 313.6 197.286 312.48 197.286 310.62C197.286 308.76 198.486 307.64 200.046 307.64C201.606 307.64 202.786 308.76 202.786 310.62C202.786 312.48 201.606 313.6 200.046 313.6ZM221.812 305.08C220.192 305.08 218.792 305.74 217.932 306.84C217.172 305.66 215.892 305.08 214.392 305.08C213.012 305.08 211.812 305.56 211.012 306.48V305.24H208.032V316H211.152V310.6C211.152 308.68 212.132 307.78 213.512 307.78C214.812 307.78 215.552 308.58 215.552 310.32V316H218.672V310.6C218.672 308.68 219.652 307.78 221.052 307.78C222.312 307.78 223.092 308.58 223.092 310.32V316H226.212V309.84C226.212 306.56 224.372 305.08 221.812 305.08ZM239.012 305.08C237.292 305.08 235.552 305.54 234.372 306.38L235.492 308.56C236.272 307.94 237.452 307.56 238.592 307.56C240.272 307.56 241.072 308.34 241.072 309.68H238.592C235.312 309.68 233.972 311 233.972 312.9C233.972 314.76 235.472 316.16 237.992 316.16C239.572 316.16 240.692 315.64 241.272 314.66V316H244.192V309.86C244.192 306.6 242.292 305.08 239.012 305.08ZM238.772 314.06C237.672 314.06 237.012 313.54 237.012 312.76C237.012 312.04 237.472 311.5 238.932 311.5H241.072V312.6C240.712 313.58 239.812 314.06 238.772 314.06ZM59.8138 340.16C62.0738 340.16 63.8538 339.16 64.6338 337.44L62.2138 336.12C61.6338 337.16 60.7738 337.6 59.7938 337.6C58.2138 337.6 56.9738 336.5 56.9738 334.62C56.9738 332.74 58.2138 331.64 59.7938 331.64C60.7738 331.64 61.6338 332.1 62.2138 333.12L64.6338 331.82C63.8538 330.06 62.0738 329.08 59.8138 329.08C56.3138 329.08 53.8138 331.38 53.8138 334.62C53.8138 337.86 56.3138 340.16 59.8138 340.16ZM71.4135 340.16C74.8335 340.16 77.3135 337.86 77.3135 334.62C77.3135 331.38 74.8335 329.08 71.4135 329.08C67.9935 329.08 65.4935 331.38 65.4935 334.62C65.4935 337.86 67.9935 340.16 71.4135 340.16ZM71.4135 337.6C69.8535 337.6 68.6535 336.48 68.6535 334.62C68.6535 332.76 69.8535 331.64 71.4135 331.64C72.9735 331.64 74.1535 332.76 74.1535 334.62C74.1535 336.48 72.9735 337.6 71.4135 337.6ZM79.399 340H82.519V325.16H79.399V340ZM85.4146 340H88.5346V325.16H85.4146V340ZM95.7702 329.08C94.0502 329.08 92.3102 329.54 91.1302 330.38L92.2502 332.56C93.0302 331.94 94.2102 331.56 95.3502 331.56C97.0302 331.56 97.8302 332.34 97.8302 333.68H95.3502C92.0702 333.68 90.7302 335 90.7302 336.9C90.7302 338.76 92.2302 340.16 94.7502 340.16C96.3302 340.16 97.4502 339.64 98.0302 338.66V340H100.95V333.86C100.95 330.6 99.0502 329.08 95.7702 329.08ZM95.5302 338.06C94.4302 338.06 93.7702 337.54 93.7702 336.76C93.7702 336.04 94.2302 335.5 95.6902 335.5H97.8302V336.6C97.4702 337.58 96.5702 338.06 95.5302 338.06ZM112.031 329.24V330.62C111.211 329.58 109.971 329.08 108.471 329.08C105.491 329.08 103.091 331.14 103.091 334.28C103.091 337.42 105.491 339.48 108.471 339.48C109.871 339.48 111.051 339.04 111.871 338.14V338.6C111.871 340.54 110.911 341.54 108.711 341.54C107.331 341.54 105.831 341.06 104.911 340.32L103.671 342.56C104.931 343.54 106.911 344.04 108.951 344.04C112.831 344.04 114.991 342.2 114.991 338.2V329.24H112.031ZM109.091 336.92C107.451 336.92 106.251 335.86 106.251 334.28C106.251 332.7 107.451 331.64 109.091 331.64C110.731 331.64 111.911 332.7 111.911 334.28C111.911 335.86 110.731 336.92 109.091 336.92ZM128.435 334.66C128.435 331.2 125.995 329.08 122.835 329.08C119.555 329.08 117.095 331.4 117.095 334.62C117.095 337.82 119.515 340.16 123.235 340.16C125.175 340.16 126.675 339.56 127.675 338.42L126.015 336.62C125.275 337.32 124.455 337.66 123.315 337.66C121.675 337.66 120.535 336.84 120.235 335.5H128.375C128.395 335.24 128.435 334.9 128.435 334.66ZM122.855 331.44C124.255 331.44 125.275 332.32 125.495 333.68H120.195C120.415 332.3 121.435 331.44 122.855 331.44ZM141.296 340.16C144.716 340.16 147.196 337.86 147.196 334.62C147.196 331.38 144.716 329.08 141.296 329.08C137.876 329.08 135.376 331.38 135.376 334.62C135.376 337.86 137.876 340.16 141.296 340.16ZM141.296 337.6C139.736 337.6 138.536 336.48 138.536 334.62C138.536 332.76 139.736 331.64 141.296 331.64C142.856 331.64 144.036 332.76 144.036 334.62C144.036 336.48 142.856 337.6 141.296 337.6ZM152.702 329.02C152.702 327.96 153.202 327.46 154.122 327.46C154.602 327.46 155.042 327.6 155.382 327.84L156.202 325.58C155.622 325.18 154.702 325 153.822 325C151.142 325 149.662 326.58 149.662 329V329.48H148.002V331.88H149.662V340H152.782V331.88H155.462V329.48H152.702V329.02ZM170.4 329.24V334.56C170.4 336.54 169.36 337.46 167.92 337.46C166.54 337.46 165.74 336.66 165.74 334.86V329.24H162.62V335.32C162.62 338.64 164.52 340.16 167.22 340.16C168.54 340.16 169.74 339.66 170.56 338.72V340H173.52V329.24H170.4ZM180.031 340.16C183.251 340.16 185.111 338.74 185.111 336.74C185.111 332.5 178.611 334.28 178.611 332.44C178.611 331.88 179.211 331.44 180.611 331.44C181.591 331.44 182.651 331.64 183.711 332.24L184.751 330.02C183.731 329.42 182.091 329.08 180.611 329.08C177.471 329.08 175.631 330.52 175.631 332.56C175.631 336.86 182.131 335.06 182.131 336.82C182.131 337.42 181.591 337.8 180.151 337.8C178.831 337.8 177.371 337.38 176.411 336.76L175.371 339C176.371 339.66 178.211 340.16 180.031 340.16ZM197.576 334.66C197.576 331.2 195.136 329.08 191.976 329.08C188.696 329.08 186.236 331.4 186.236 334.62C186.236 337.82 188.656 340.16 192.376 340.16C194.316 340.16 195.816 339.56 196.816 338.42L195.156 336.62C194.416 337.32 193.596 337.66 192.456 337.66C190.816 337.66 189.676 336.84 189.376 335.5H197.516C197.536 335.24 197.576 334.9 197.576 334.66ZM191.996 331.44C193.396 331.44 194.416 332.32 194.636 333.68H189.336C189.556 332.3 190.576 331.44 191.996 331.44ZM202.633 330.66V329.24H199.653V340H202.773V334.92C202.773 332.86 203.913 331.92 205.633 331.92C205.873 331.92 206.073 331.94 206.333 331.96V329.08C204.673 329.08 203.393 329.62 202.633 330.66ZM70.0698 364.16C73.2898 364.16 75.1498 362.74 75.1498 360.74C75.1498 356.5 68.6498 358.28 68.6498 356.44C68.6498 355.88 69.2498 355.44 70.6498 355.44C71.6298 355.44 72.6898 355.64 73.7498 356.24L74.7898 354.02C73.7698 353.42 72.1298 353.08 70.6498 353.08C67.5098 353.08 65.6698 354.52 65.6698 356.56C65.6698 360.86 72.1698 359.06 72.1698 360.82C72.1698 361.42 71.6298 361.8 70.1898 361.8C68.8698 361.8 67.4098 361.38 66.4498 360.76L65.4098 363C66.4098 363.66 68.2498 364.16 70.0698 364.16ZM84.7948 353.24V358.56C84.7948 360.54 83.7548 361.46 82.3148 361.46C80.9348 361.46 80.1348 360.66 80.1348 358.86V353.24H77.0148V359.32C77.0148 362.64 78.9148 364.16 81.6148 364.16C82.9348 364.16 84.1348 363.66 84.9548 362.72V364H87.9148V353.24H84.7948ZM97.1652 353.08C95.8252 353.08 94.7252 353.5 93.9252 354.38V349.16H90.8052V364H93.7852V362.76C94.5652 363.7 95.7252 364.16 97.1652 364.16C100.185 364.16 102.525 362 102.525 358.62C102.525 355.24 100.185 353.08 97.1652 353.08ZM96.6252 361.6C95.0652 361.6 93.8852 360.48 93.8852 358.62C93.8852 356.76 95.0652 355.64 96.6252 355.64C98.1852 355.64 99.3652 356.76 99.3652 358.62C99.3652 360.48 98.1852 361.6 96.6252 361.6ZM118.394 353.08C116.774 353.08 115.374 353.74 114.514 354.84C113.754 353.66 112.474 353.08 110.974 353.08C109.594 353.08 108.394 353.56 107.594 354.48V353.24H104.614V364H107.734V358.6C107.734 356.68 108.714 355.78 110.094 355.78C111.394 355.78 112.134 356.58 112.134 358.32V364H115.254V358.6C115.254 356.68 116.234 355.78 117.634 355.78C118.894 355.78 119.674 356.58 119.674 358.32V364H122.794V357.84C122.794 354.56 120.954 353.08 118.394 353.08ZM127.15 351.74C128.31 351.74 129.09 350.98 129.09 349.94C129.09 348.98 128.31 348.26 127.15 348.26C125.99 348.26 125.21 349.02 125.21 350C125.21 350.98 125.99 351.74 127.15 351.74ZM125.59 364H128.71V353.24H125.59V364ZM135.226 364.16C138.446 364.16 140.306 362.74 140.306 360.74C140.306 356.5 133.806 358.28 133.806 356.44C133.806 355.88 134.406 355.44 135.806 355.44C136.786 355.44 137.846 355.64 138.906 356.24L139.946 354.02C138.926 353.42 137.286 353.08 135.806 353.08C132.666 353.08 130.826 354.52 130.826 356.56C130.826 360.86 137.326 359.06 137.326 360.82C137.326 361.42 136.786 361.8 135.346 361.8C134.026 361.8 132.566 361.38 131.606 360.76L130.566 363C131.566 363.66 133.406 364.16 135.226 364.16ZM145.851 364.16C149.071 364.16 150.931 362.74 150.931 360.74C150.931 356.5 144.431 358.28 144.431 356.44C144.431 355.88 145.031 355.44 146.431 355.44C147.411 355.44 148.471 355.64 149.531 356.24L150.571 354.02C149.551 353.42 147.911 353.08 146.431 353.08C143.291 353.08 141.451 354.52 141.451 356.56C141.451 360.86 147.951 359.06 147.951 360.82C147.951 361.42 147.411 361.8 145.971 361.8C144.651 361.8 143.191 361.38 142.231 360.76L141.191 363C142.191 363.66 144.031 364.16 145.851 364.16ZM154.416 351.74C155.576 351.74 156.356 350.98 156.356 349.94C156.356 348.98 155.576 348.26 154.416 348.26C153.256 348.26 152.476 349.02 152.476 350C152.476 350.98 153.256 351.74 154.416 351.74ZM152.856 364H155.976V353.24H152.856V364ZM163.992 364.16C167.412 364.16 169.892 361.86 169.892 358.62C169.892 355.38 167.412 353.08 163.992 353.08C160.572 353.08 158.072 355.38 158.072 358.62C158.072 361.86 160.572 364.16 163.992 364.16ZM163.992 361.6C162.432 361.6 161.232 360.48 161.232 358.62C161.232 356.76 162.432 355.64 163.992 355.64C165.552 355.64 166.732 356.76 166.732 358.62C166.732 360.48 165.552 361.6 163.992 361.6ZM178.517 353.08C177.057 353.08 175.797 353.58 174.957 354.5V353.24H171.977V364H175.097V358.68C175.097 356.7 176.177 355.78 177.677 355.78C179.057 355.78 179.857 356.58 179.857 358.32V364H182.977V357.84C182.977 354.56 181.057 353.08 178.517 353.08ZM189.425 364.16C192.645 364.16 194.505 362.74 194.505 360.74C194.505 356.5 188.005 358.28 188.005 356.44C188.005 355.88 188.605 355.44 190.005 355.44C190.985 355.44 192.045 355.64 193.105 356.24L194.145 354.02C193.125 353.42 191.485 353.08 190.005 353.08C186.865 353.08 185.025 354.52 185.025 356.56C185.025 360.86 191.525 359.06 191.525 360.82C191.525 361.42 190.985 361.8 189.545 361.8C188.225 361.8 186.765 361.38 185.805 360.76L184.765 363C185.765 363.66 187.605 364.16 189.425 364.16Z" fill="black"/>
<defs>
<filter id="filter0_d_0_1" x="9.91675" y="148.432" width="218.948" height="73.396" filterUnits="userSpaceOnUse" color-interpolation-filters="sRGB">
<feFlood flood-opacity="0" result="BackgroundImageFix"/>
<feColorMatrix in="SourceAlpha" type="matrix" values="0 0 0 0 0 0 0 0 0 0 0 0 0 0 0 0 0 0 127 0" result="hardAlpha"/>
<feOffset dy="4"/>
<feGaussianBlur stdDeviation="2"/>
<feComposite in2="hardAlpha" operator="out"/>
<feColorMatrix type="matrix" values="0 0 0 0 0 0 0 0 0 0 0 0 0 0 0 0 0 0 0.25 0"/>
<feBlend mode="normal" in2="BackgroundImageFix" result="effect1_dropShadow_0_1"/>
<feBlend mode="normal" in="SourceGraphic" in2="effect1_dropShadow_0_1" result="shape"/>
</filter>
<filter id="filter1_d_0_1" x="58" y="0" width="142" height="142" filterUnits="userSpaceOnUse" color-interpolation-filters="sRGB">
<feFlood flood-opacity="0" result="BackgroundImageFix"/>
<feColorMatrix in="SourceAlpha" type="matrix" values="0 0 0 0 0 0 0 0 0 0 0 0 0 0 0 0 0 0 127 0" result="hardAlpha"/>
<feOffset dy="4"/>
<feGaussianBlur stdDeviation="2"/>
<feComposite in2="hardAlpha" operator="out"/>
<feColorMatrix type="matrix" values="0 0 0 0 0 0 0 0 0 0 0 0 0 0 0 0 0 0 0.25 0"/>
<feBlend mode="normal" in2="BackgroundImageFix" result="effect1_dropShadow_0_1"/>
<feBlend mode="normal" in="SourceGraphic" in2="effect1_dropShadow_0_1" result="shape"/>
</filter>
<filter id="filter2_d_0_1" x="0" y="416" width="257.455" height="165.774" filterUnits="userSpaceOnUse" color-interpolation-filters="sRGB">
<feFlood flood-opacity="0" result="BackgroundImageFix"/>
<feColorMatrix in="SourceAlpha" type="matrix" values="0 0 0 0 0 0 0 0 0 0 0 0 0 0 0 0 0 0 127 0" result="hardAlpha"/>
<feOffset dy="4"/>
<feGaussianBlur stdDeviation="2"/>
<feComposite in2="hardAlpha" operator="out"/>
<feColorMatrix type="matrix" values="0 0 0 0 0 0 0 0 0 0 0 0 0 0 0 0 0 0 0.25 0"/>
<feBlend mode="normal" in2="BackgroundImageFix" result="effect1_dropShadow_0_1"/>
<feBlend mode="normal" in="SourceGraphic" in2="effect1_dropShadow_0_1" result="shape"/>
</filter>
</defs>
</svg>
