<svg width="106" height="113" viewBox="0 0 106 113" fill="none" xmlns="http://www.w3.org/2000/svg">
<g filter="url(#filter0_d_187_253)">
<path d="M71.4419 43.3423C70.7677 44.6547 69.6132 45.5751 68.2836 46.0859C67.4985 46.3861 66.6482 46.5425 65.7955 46.548C64.9429 46.5535 64.0965 46.4089 63.3186 46.1102C61.9983 45.6034 60.8752 44.6721 60.2546 43.3015C59.5803 44.6139 58.4258 45.5343 57.0962 46.0451C56.3111 46.3453 55.4608 46.5016 54.6081 46.5072C53.7555 46.5127 52.9091 46.3681 52.1312 46.0694C50.8109 45.5625 49.6878 44.6313 49.0672 43.2607C48.3929 44.5731 47.2384 45.4934 45.9088 46.0042C45.1261 46.3044 44.2734 46.4608 43.4207 46.4663C42.5681 46.4719 41.7217 46.3272 40.9438 46.0286C39.6235 45.5217 38.5004 44.5905 37.8798 43.2199C37.2055 44.5323 36.051 45.4526 34.7214 45.9634C33.9363 46.2636 33.086 46.42 32.2333 46.4255C31.3807 46.431 30.5343 46.2864 29.7564 45.9878C28.8644 45.6459 28.0605 45.1092 27.4428 44.3728V72.7376L38.9494 72.6441C39.2088 72.6426 39.4186 72.8508 39.421 73.1078V73.1306H39.4226C39.4226 73.4701 39.5954 73.8143 39.8729 74.0752C40.1636 74.3495 40.5636 74.5318 41.0053 74.5373H41.0281C41.0147 74.5373 40.9699 74.5357 41.0281 74.5357C41.4753 74.5357 41.8784 74.3558 42.1715 74.0626C42.4647 73.7695 42.6446 73.3663 42.6446 72.9192C42.6446 72.6598 42.8553 72.45 43.1138 72.45C43.3731 72.45 43.583 72.6606 43.583 72.9192C43.583 73.6249 43.2977 74.2638 42.834 74.7275C42.3719 75.1896 41.7314 75.4764 41.0257 75.4764C40.9864 75.4764 41.0147 75.4764 41.0257 75.4764H40.9919C40.3011 75.467 39.6771 75.1856 39.2284 74.7613C38.8826 74.4367 38.6367 74.0249 38.5337 73.5856L27.4403 73.6775V97.2824C27.4403 98.9838 27.9212 100.561 28.8313 101.667C29.6234 102.632 30.7614 103.238 32.2035 103.238H77.2142C78.6563 103.238 79.7942 102.632 80.5865 101.667C81.4949 100.561 81.9775 98.9838 81.9775 97.2824V73.6836L69.9865 73.781C69.7272 73.7826 69.5174 73.5743 69.515 73.3174V73.2946H69.5134C69.5134 72.9551 69.3405 72.6109 69.0631 72.35C68.7724 72.0757 68.3723 71.8934 67.9307 71.8879H67.9079C67.9213 71.8879 67.9661 71.8894 67.9079 71.8894C67.4607 71.8894 67.0576 72.0694 66.7645 72.3625C66.4713 72.6557 66.2914 73.0588 66.2914 73.506C66.2914 73.7653 66.0807 73.9751 65.8222 73.9751C65.5629 73.9751 65.353 73.7645 65.353 73.506C65.353 72.8003 65.6383 72.1613 66.102 71.6977C66.5641 71.2356 67.2046 70.9487 67.9103 70.9487C67.9496 70.9487 67.9213 70.9487 67.9103 70.9487H67.9441C68.6349 70.9582 69.2588 71.2395 69.7076 71.6639C70.0534 71.9884 70.2993 72.4003 70.4023 72.8396L81.9806 72.7437V44.3587C81.3157 45.1627 80.4371 45.7537 79.4642 46.1278C78.6814 46.428 77.8288 46.5843 76.9761 46.5898C76.1235 46.5954 75.2771 46.4507 74.4992 46.1521C73.1789 45.6452 72.0558 44.714 71.4351 43.3434L71.4419 43.3423ZM6.20829 52.9002C6.81892 52.9002 7.37058 53.1477 7.7706 53.5461C8.17061 53.9461 8.41658 54.4978 8.41658 55.1084C8.41658 55.7191 8.16902 56.2707 7.7706 56.6708C7.37058 57.0708 6.8189 57.3167 6.20829 57.3167C5.59768 57.3167 5.04599 57.0692 4.64598 56.6708C4.24597 56.2707 4 55.7191 4 55.1084C4 54.4978 4.24756 53.9461 4.64598 53.5461C5.04599 53.1461 5.59768 52.9002 6.20829 52.9002ZM7.10575 54.211C6.87706 53.9823 6.55957 53.8393 6.20829 53.8393C5.857 53.8393 5.53951 53.9823 5.31083 54.211C5.08214 54.4397 4.9391 54.7572 4.9391 55.1084C4.9391 55.4597 5.08213 55.7772 5.31083 56.0059C5.53951 56.2346 5.857 56.3776 6.20829 56.3776C6.55957 56.3776 6.87706 56.2346 7.10575 56.0059C7.33443 55.7772 7.47747 55.4597 7.47747 55.1084C7.47747 54.7572 7.33444 54.4397 7.10575 54.211ZM16.7515 52.9056C17.3621 52.9056 17.9138 53.1532 18.3138 53.5516C18.7138 53.9516 18.9598 54.5033 18.9598 55.1139C18.9598 55.7245 18.7122 56.2762 18.3138 56.6762C17.9138 57.0763 17.3621 57.3222 16.7515 57.3222C16.1409 57.3222 15.5892 57.0747 15.1892 56.6762C14.7892 56.2762 14.5432 55.7245 14.5432 55.1139C14.5432 54.5033 14.7907 53.9516 15.1892 53.5516C15.5892 53.1516 16.1409 52.9056 16.7515 52.9056ZM17.6489 54.2165C17.4202 53.9878 17.1028 53.8447 16.7515 53.8447C16.4002 53.8447 16.0827 53.9878 15.854 54.2165C15.6253 54.4452 15.4823 54.7626 15.4823 55.1139C15.4823 55.4652 15.6253 55.7827 15.854 56.0114C16.0827 56.2401 16.4002 56.3831 16.7515 56.3831C17.1028 56.3831 17.4202 56.2401 17.6489 56.0114C17.8776 55.7827 18.0207 55.4652 18.0207 55.1139C18.0207 54.7626 17.8776 54.4452 17.6489 54.2165ZM19.4085 59.8536L19.4313 61.3822C19.5028 61.3994 19.5743 61.4175 19.645 61.4419C20.2981 61.669 20.8671 62.249 21.0533 63.2313L19.5814 63.5071C19.5099 63.126 19.3409 62.9193 19.1586 62.8557C19.0965 62.8352 19.0273 62.8297 18.9558 62.8407C18.8843 62.8517 18.8167 62.8785 18.757 62.9217C18.5841 63.0435 18.4717 63.3012 18.5095 63.684C18.5244 63.838 18.5904 63.9637 18.6784 64.0518C18.7664 64.1398 18.8733 64.1885 18.9731 64.1924C19.0203 64.194 19.058 64.194 19.0855 64.194C19.1908 64.1956 19.2867 64.2034 19.3747 64.2199C19.7668 64.2836 20.148 64.4753 20.4466 64.7716C20.7657 65.0891 20.9967 65.5268 21.0509 66.0542C21.1508 67.0396 20.7563 67.7721 20.1818 68.1839C19.9829 68.3246 19.7653 68.4283 19.5374 68.4864L19.5578 69.9152L18.6226 69.9262L18.6022 68.4951C18.5425 68.4802 18.4835 68.4629 18.4254 68.4424C17.7723 68.2153 17.2033 67.6354 17.0171 66.653L18.489 66.3772C18.5605 66.7583 18.7295 66.965 18.9118 67.0287C18.9739 67.0491 19.0431 67.0546 19.1146 67.0436C19.1861 67.0326 19.2537 67.0059 19.3134 66.9627C19.4863 66.8409 19.5987 66.5831 19.561 66.2003C19.546 66.0463 19.48 65.9206 19.392 65.8326C19.304 65.7446 19.1971 65.6958 19.0973 65.6919C19.0501 65.6903 19.0124 65.6903 18.9849 65.6903C18.6996 65.6864 18.4686 65.7391 18.3334 65.5685C18.0725 65.4711 17.8281 65.317 17.6238 65.1143C17.3047 64.7968 17.0737 64.3591 17.0195 63.8317C16.9197 62.8463 17.3142 62.1138 17.8886 61.702C18.0765 61.5684 18.2831 61.4694 18.4969 61.4089L18.4741 59.867L19.4093 59.856L19.4085 59.8536ZM50.7971 65.3099C50.658 65.3453 50.5268 65.4019 50.4144 65.4899C50.1511 65.6966 49.9617 66.0911 49.9546 66.8078V69.5151H49.2073V66.8016C49.2167 65.8176 49.5263 65.2353 49.9546 64.8997C50.214 64.697 50.5063 64.5917 50.7995 64.5445V64.0471H58.8798V64.5728C59.1729 64.62 59.4653 64.7253 59.7246 64.928C60.1529 65.2644 60.4625 65.8444 60.4719 66.8298V69.5434H59.7246V66.8361C59.7167 66.1186 59.5273 65.7249 59.2648 65.5182C59.1525 65.4302 59.0205 65.372 58.8821 65.3382V65.706H50.8026V65.3099L50.7971 65.3099ZM51.7551 73.7556L53.6388 80.6021H55.7567L57.8675 73.7556H51.7551ZM52.8608 80.6021L50.9771 73.7556H49.1067L51.715 80.6021H52.8608ZM58.648 73.7556L56.5372 80.6021H57.7074L60.3157 73.7556H58.6465H58.648ZM47.5208 70.4526H62.0603V71.3917H47.5208V70.4526ZM58.226 82.1039H51.1994C50.8969 82.1039 50.6116 81.92 50.4992 81.6214L47.3314 73.3085C47.2897 73.2165 47.2677 73.1152 47.2677 73.0059C47.2677 72.591 47.6041 72.2546 48.019 72.2546H61.4072C61.4952 72.2546 61.5856 72.2696 61.6736 72.3033C62.0602 72.4519 62.2559 72.8833 62.1074 73.2723L58.9395 81.5852C58.8421 81.8854 58.5584 82.1031 58.226 82.1031V82.1039ZM49.0423 93.9407H60.7667C61.026 93.9407 61.2359 94.1513 61.2359 94.4099V98.6818C61.2359 98.9411 61.0252 99.1509 60.7667 99.1509H49.0423C48.783 99.1509 48.5732 98.9403 48.5732 98.6818V94.4099C48.5732 94.1505 48.7838 93.9407 49.0423 93.9407ZM60.2975 94.8798H49.5123V98.2126H60.2975V94.8798ZM90.8633 74.4094L90.8861 75.938C90.9576 75.9553 91.0291 75.9733 91.0999 75.9977C91.7529 76.2248 92.3219 76.8048 92.5081 77.7871L91.0362 78.063C90.9647 77.6818 90.7957 77.4751 90.6134 77.4115C90.5513 77.391 90.4822 77.3855 90.4106 77.3965C90.3391 77.4075 90.2715 77.4342 90.2118 77.4775C90.0389 77.5993 89.9265 77.857 89.9643 78.2398C89.9792 78.3938 90.0452 78.5195 90.1332 78.6076C90.2212 78.6956 90.3281 78.7443 90.4279 78.7482C90.4751 78.7498 90.5128 78.7498 90.5403 78.7498C90.6456 78.7514 90.7415 78.7592 90.8295 78.7757C91.2216 78.8394 91.6028 79.0311 91.9014 79.3274C92.2205 79.6449 92.4515 80.0826 92.5058 80.61C92.6056 81.5954 92.2111 82.3279 91.6366 82.7397C91.4378 82.8804 91.2201 82.9841 90.9922 83.0423L91.0126 84.471L90.0774 84.482L90.057 83.0509C89.9973 83.036 89.9383 83.0187 89.8802 82.9983C89.2271 82.7711 88.6581 82.1912 88.4719 81.2088L89.9438 80.933C90.0153 81.3141 90.1843 81.5208 90.3666 81.5845C90.4287 81.6049 90.4979 81.6104 90.5694 81.5994C90.6409 81.5884 90.7085 81.5617 90.7682 81.5185C90.9411 81.3967 91.0535 81.1389 91.0158 80.7562C91.0008 80.6021 90.9348 80.4764 90.8468 80.3884C90.7588 80.3004 90.6519 80.2516 90.5521 80.2477C90.505 80.2461 90.4672 80.2461 90.4397 80.2461C90.1544 80.2422 89.9234 80.2949 89.7882 80.1243C89.5273 80.0269 89.2829 79.8728 89.0786 79.6701C88.7595 79.3526 88.5285 78.9149 88.4743 78.3875C88.3745 77.4021 88.769 76.6696 89.3434 76.2578C89.5313 76.1242 89.7379 76.0252 89.9517 75.9647L89.9289 74.4228L90.8641 74.4118L90.8633 74.4094ZM101.059 93.9037C101.059 93.6443 101.27 93.4345 101.528 93.4345C101.788 93.4345 101.998 93.6451 101.998 93.9037V103.367C101.998 103.733 101.885 104.086 101.669 104.347C101.451 104.612 101.142 104.779 100.753 104.779H94.4249C94.0359 104.779 93.7263 104.612 93.5086 104.347C93.2949 104.086 93.1801 103.733 93.1801 103.367V93.8904C93.1801 93.6311 93.3908 93.4212 93.6493 93.4212C93.9086 93.4212 94.1184 93.6319 94.1184 93.8904V103.367C94.1184 103.525 94.1577 103.664 94.2293 103.754C94.2725 103.808 94.3385 103.842 94.4226 103.842H100.75C100.835 103.842 100.9 103.808 100.944 103.754C101.017 103.666 101.055 103.527 101.055 103.367V93.9037H101.059ZM94.1209 91.5154C94.1209 91.7748 93.9102 91.9846 93.6517 91.9846C93.3924 91.9846 93.1825 91.774 93.1825 91.5154V90.7398C93.1825 90.3736 93.2949 90.0207 93.511 89.7598C93.7287 89.495 94.0384 89.3276 94.4274 89.3276H100.755C101.144 89.3276 101.454 89.495 101.672 89.7598C101.885 90.0207 102 90.3736 102 90.7398V91.5076C102 91.7669 101.789 91.9767 101.531 91.9767C101.271 91.9767 101.062 91.7661 101.062 91.5076V90.7398C101.062 90.5818 101.022 90.4427 100.951 90.3531C100.908 90.2989 100.842 90.2651 100.758 90.2651H94.4297C94.3449 90.2651 94.2796 90.2989 94.2364 90.3531C94.1633 90.4411 94.1256 90.5802 94.1256 90.7398V91.5154H94.1209ZM98.2703 78.3339L97.3311 78.3512L97.3139 77.4121L98.253 77.3948L98.2703 78.3339ZM98.3379 82.0896L97.3987 82.1069L97.3814 81.1678L98.3206 81.1505L98.3379 82.0896ZM97.8624 83.2464C98.473 83.2464 99.0247 83.494 99.4247 83.8924C99.8247 84.2924 100.071 84.8441 100.071 85.4547C100.071 86.0653 99.8231 86.617 99.4247 87.017C99.0247 87.417 98.473 87.663 97.8624 87.663C97.2518 87.663 96.7001 87.4154 96.3001 87.017C95.9001 86.617 95.6541 86.0653 95.6541 85.4547C95.6541 84.8441 95.9017 84.2924 96.3001 83.8924C96.7001 83.4924 97.2518 83.2464 97.8624 83.2464ZM98.7599 84.5572C98.5312 84.3286 98.2137 84.1855 97.8624 84.1855C97.5111 84.1855 97.1936 84.3285 96.9649 84.5572C96.7363 84.7859 96.5932 85.1034 96.5932 85.4547C96.5932 85.806 96.7362 86.1235 96.9649 86.3521C97.1936 86.5808 97.5111 86.7239 97.8624 86.7239C98.2137 86.7239 98.5312 86.5808 98.7599 86.3521C98.9885 86.1235 99.1316 85.806 99.1316 85.4547C99.1316 85.1034 98.9885 84.7859 98.7599 84.5572ZM68.4395 74.1019L68.445 74.021L68.456 73.845L68.4678 73.5809L68.4725 73.3169V73.1385H67.5334V73.3035L67.5287 73.5511L67.513 73.8811L67.5075 73.9636L67.502 74.0446L68.4387 74.1043L68.4395 74.1019ZM53.3806 59.3842L53.2533 59.3975L52.9939 59.4258L52.7346 59.4588L52.4752 59.4989L52.4171 59.5084L52.5711 60.4341L52.6237 60.4247L52.7023 60.4113L53.0261 60.3673L53.3499 60.3296L53.4717 60.3186L53.3837 59.3834L53.3806 59.3842ZM49.6124 60.2801L49.522 60.3154L49.4434 60.3477L49.2894 60.4121L48.9814 60.5473L48.8273 60.618L48.7181 60.6707L49.1252 61.5155L49.225 61.4683L49.5825 61.3072L49.654 61.2773L49.8733 61.1878L49.9582 61.154L49.6148 60.2809L49.6124 60.2801ZM46.2418 62.1937L46.1404 62.2723L46.0744 62.3233L45.7561 62.5866L45.6925 62.6408L45.5683 62.7493L45.4952 62.8129L46.1223 63.5116L46.1884 63.4534L46.3628 63.3002L46.7212 63.0079L46.8186 62.9324L46.2418 62.1905L46.2418 62.1937ZM43.5345 64.9654L43.5022 65.0086L43.3561 65.2113L43.2618 65.3465L43.1675 65.4848L43.0331 65.6923L42.9859 65.7677L43.782 66.2652L43.8653 66.1332L43.9085 66.0672L44.0814 65.8125L44.2158 65.6216L44.2606 65.5595L44.2928 65.5163L43.5345 64.9622V64.9654ZM41.7002 68.3768L41.6664 68.4688L41.6381 68.5474L41.5816 68.7093L41.4778 69.033L41.4291 69.1949L41.3969 69.3042L42.2999 69.5611L42.3281 69.4637L42.3737 69.3128L42.4712 69.011L42.549 68.7847L42.5812 68.6982L41.6987 68.3753L41.7002 68.3768ZM40.8908 72.1695L40.8853 72.2505L40.8743 72.4265L40.8625 72.6906L40.8578 72.9546V73.133H41.7969V72.968L41.8016 72.7204L41.8173 72.3904L41.8228 72.3079L41.8283 72.2269L40.8916 72.1672L40.8908 72.1695ZM55.9498 86.8873L56.0771 86.8739L56.3364 86.8456L56.5958 86.8126L56.8551 86.7726L56.9133 86.7631L56.7592 85.8374L56.7066 85.8468L56.628 85.8602L56.3042 85.9042L55.9804 85.9419L55.8586 85.9529L55.9466 86.8881L55.9498 86.8873ZM59.7179 85.9914L59.8083 85.956L59.8869 85.9238L60.0409 85.8594L60.349 85.7242L60.503 85.6535L60.6122 85.6008L60.2052 84.756L60.1054 84.8032L59.7478 84.9643L59.6763 84.9941L59.457 85.0837L59.3722 85.1175L59.7156 85.9906L59.7179 85.9914ZM63.0885 84.0778L63.1899 83.9992L63.2559 83.9482L63.5742 83.6849L63.6379 83.6307L63.762 83.5222L63.8351 83.4585L63.208 82.7599L63.142 82.8181L62.9675 82.9713L62.6092 83.2636L62.5117 83.3391L63.0885 84.0809V84.0778ZM65.7959 81.3061L65.8281 81.2629L65.9743 81.0601L66.0686 80.925L66.1629 80.7867L66.2973 80.5792L66.3444 80.5038L65.5483 80.0063L65.465 80.1383L65.4218 80.2043L65.2489 80.4589L65.1145 80.6499L65.0697 80.712L65.0375 80.7552L65.7959 81.3092V81.3061ZM67.6301 77.8947L67.6639 77.8027L67.6922 77.7241L67.7488 77.5622L67.8525 77.2384L67.9012 77.0766L67.9334 76.9673L67.0305 76.7103L67.0022 76.8078L66.9566 76.9587L66.8592 77.2605L66.7814 77.4868L66.7491 77.5732L67.6317 77.8962L67.6301 77.8947ZM11.5201 52.9117C12.1307 52.9117 12.6824 53.1593 13.0824 53.5577C13.4824 53.9577 13.7284 54.5094 13.7284 55.12C13.7284 55.7306 13.4808 56.2823 13.0824 56.6823C12.6824 57.0823 12.1307 57.3283 11.5201 57.3283C10.9095 57.3283 10.3578 57.0807 9.95779 56.6823C9.55777 56.2823 9.31181 55.7306 9.31181 55.12C9.31181 54.5094 9.55936 53.9577 9.95779 53.5577C10.3578 53.1577 10.9095 52.9117 11.5201 52.9117ZM12.4176 54.2226C12.1889 53.9939 11.8714 53.8508 11.5201 53.8508C11.1688 53.8508 10.8513 53.9939 10.6226 54.2226C10.394 54.4512 10.2509 54.7687 10.2509 55.12C10.2509 55.4713 10.3939 55.7888 10.6226 56.0175C10.8513 56.2462 11.1688 56.3892 11.5201 56.3892C11.8714 56.3892 12.1889 56.2462 12.4176 56.0175C12.6462 55.7888 12.7893 55.4713 12.7893 55.12C12.7893 54.7687 12.6463 54.4512 12.4176 54.2226ZM11.9971 62.0993L11.058 62.1126L11.0446 61.1735L11.9838 61.1602L11.9971 62.0993ZM12.0482 65.855L11.1091 65.8683L11.0957 64.9292L12.0348 64.9158L12.0482 65.855ZM98.3115 76.1767C98.3265 76.436 98.1276 76.6553 97.8707 76.6702C97.6113 76.6851 97.3921 76.4863 97.3772 76.2293C97.3017 74.924 96.6879 74.2442 95.9461 73.9062C95.1555 73.5455 94.2038 73.5385 93.5616 73.5911C93.5373 73.5927 93.5129 73.5927 93.4886 73.5911L83.4843 73.6736V97.2845C83.4843 99.3199 82.8831 101.239 81.7475 102.619C80.6756 103.922 79.1487 104.743 77.2185 104.743H32.2078C30.2777 104.743 28.7507 103.922 27.6788 102.619C26.5424 101.239 25.942 99.3201 25.942 97.2845V73.6917L15.4585 73.7782H15.4546C14.7057 73.8403 13.5842 73.8269 12.6042 73.3782C11.5771 72.909 10.7244 71.9888 10.627 70.2558C10.6121 69.9965 10.8109 69.7772 11.0679 69.7623C11.3272 69.7474 11.5465 69.9462 11.5614 70.2032C11.6368 71.5085 12.2506 72.1883 12.9925 72.5262C13.783 72.8869 14.7347 72.894 15.3769 72.8414C15.4012 72.8398 15.4256 72.8398 15.45 72.8414L25.9391 72.7549V44.2855C25.2876 45.025 24.4522 45.5735 23.5295 45.9264C22.7468 46.2266 21.8941 46.383 21.0414 46.3885C20.1888 46.394 19.3424 46.2494 18.5645 45.9507C16.544 45.1751 14.9816 43.403 14.9816 40.581V28.8488C14.9816 28.6743 15.0413 28.5124 15.1427 28.3851L25.8438 12.7737C25.8721 12.732 25.902 12.6951 25.9374 12.6629V7.45806C25.9374 5.42269 26.5386 3.50361 27.6741 2.12349C28.7461 0.820505 30.273 0 32.2032 0H77.2139C79.144 0 80.671 0.820445 81.7429 2.12349C82.8793 3.50348 83.4797 5.42249 83.4797 7.45806V12.9238C83.4797 13.0763 83.4349 13.2185 83.3555 13.3372L94.2053 28.4605L94.2038 28.4621C94.2525 28.5312 94.2918 28.6083 94.3146 28.6931C94.39 28.8094 94.4333 28.9501 94.4333 29.0986V40.6989C94.4333 43.5194 92.7617 45.3631 90.6478 46.1741C89.8651 46.4743 89.0124 46.6306 88.1598 46.6362C87.3071 46.6417 86.4607 46.4971 85.6828 46.1984C84.8419 45.8754 84.0796 45.3795 83.4768 44.7076V72.7365L93.4754 72.6539H93.4793C94.2283 72.5919 95.3497 72.6052 96.3297 73.0539C97.3569 73.5231 98.2095 74.4434 98.307 76.1763L98.3115 76.1767ZM67.9107 71.8897C67.9052 71.8897 67.9068 71.8897 67.9107 71.8897V71.8897ZM67.9107 70.9529C67.9052 70.9529 67.9029 70.9529 67.9107 70.9529V70.9529ZM41.0266 74.5412C41.0321 74.5412 41.0306 74.5412 41.0266 74.5412V74.5412ZM41.0266 75.478C41.0321 75.478 41.0345 75.478 41.0266 75.478V75.478ZM41.928 53.4263C42.0821 53.4506 42.185 53.5952 42.1606 53.7493C42.1363 53.9033 41.9917 54.0062 41.8376 53.9819L40.7131 53.7996C40.8333 53.9119 40.9763 54.0102 41.1335 54.0903C41.4337 54.2428 41.7928 54.3308 42.1795 54.3308C42.4742 54.3308 42.7524 54.2797 42.9999 54.1878C43.2538 54.0943 43.477 53.9591 43.653 53.7917C43.7654 53.6848 43.9438 53.6903 44.0514 53.8027C44.1583 53.9151 44.1528 54.0935 44.0404 54.2011C43.8094 54.4188 43.5202 54.5956 43.1956 54.7159C42.886 54.8306 42.5426 54.8943 42.1818 54.8943C41.7048 54.8943 41.2577 54.7835 40.8804 54.5917C40.7115 54.5053 40.5574 54.4039 40.4183 54.2876L40.4844 54.8094C40.5032 54.9634 40.394 55.1041 40.2423 55.123C40.0883 55.1418 39.9476 55.0326 39.9287 54.8809L39.7464 53.4522C39.7409 53.4223 39.7409 53.3901 39.7464 53.3563C39.7708 53.2023 39.9154 53.0994 40.0694 53.1237L41.9304 53.4263L41.928 53.4263ZM43.3623 50.6584C43.2962 50.5177 43.3583 50.3503 43.499 50.2851C43.6397 50.2191 43.807 50.2812 43.8723 50.4218L44.5277 51.8411C44.5937 51.9818 44.5316 52.1492 44.391 52.2144C44.3517 52.2333 44.31 52.2404 44.2707 52.2404L42.4664 52.3119C42.3107 52.3174 42.1811 52.1971 42.1756 52.0415C42.1701 51.8859 42.2903 51.7562 42.4459 51.7507L43.3379 51.7154C43.2499 51.6643 43.1579 51.6179 43.0581 51.5786C42.7972 51.4733 42.5002 51.4152 42.1834 51.4152C41.8267 51.4152 41.4942 51.4906 41.2105 51.6195C40.9229 51.7507 40.6848 51.9409 40.5213 52.168C40.4294 52.2938 40.2549 52.3221 40.1292 52.2301C40.0034 52.1382 39.9752 51.9637 40.0671 51.838C40.2872 51.5354 40.6023 51.284 40.9795 51.1095C41.3363 50.946 41.7497 50.8501 42.185 50.8501C42.5717 50.8501 42.9418 50.9232 43.2687 51.0545C43.3961 51.1055 43.5187 51.1668 43.6334 51.2344L43.367 50.6545L43.3623 50.6584ZM70.4616 54.2726C70.3092 54.132 70.3021 53.8954 70.4428 53.743C70.5834 53.5905 70.82 53.5834 70.9724 53.7241L71.675 54.3756C71.8275 54.5163 71.8345 54.7528 71.6939 54.9053C71.5532 55.0577 71.3167 55.0648 71.1642 54.9241L70.4616 54.2726ZM69.1005 50.7779C69.5327 50.7779 69.9233 50.9524 70.2062 51.2361C70.4899 51.5198 70.6644 51.9103 70.6644 52.3418C70.6644 52.774 70.4899 53.1646 70.2062 53.4475C69.9225 53.7312 69.5319 53.9057 69.1005 53.9057C68.6683 53.9057 68.2777 53.7312 67.9948 53.4475C67.7111 53.1638 67.5366 52.7732 67.5366 52.3418C67.5366 51.9095 67.7111 51.519 67.9948 51.2361C68.2785 50.9523 68.6691 50.7779 69.1005 50.7779ZM69.675 51.7673C69.5288 51.6211 69.3237 51.5292 69.1005 51.5292C68.8749 51.5292 68.6722 51.6196 68.526 51.7673C68.3799 51.9135 68.2879 52.1186 68.2879 52.3418C68.2879 52.5673 68.3783 52.7701 68.526 52.9163C68.6722 53.0624 68.8773 53.1544 69.1005 53.1544C69.326 53.1544 69.5288 53.064 69.675 52.9163C69.8212 52.7701 69.9131 52.565 69.9131 52.3418C69.9131 52.1162 69.8227 51.9135 69.675 51.7673ZM55.0311 56.0746H70.7531C72.5536 55.9002 73.6546 55.1245 74.1465 54.1665C74.3681 53.7327 74.4679 53.2596 74.4522 52.7881C74.4372 52.3127 74.3036 51.838 74.0616 51.4042C73.5076 50.4109 72.3775 49.6376 70.757 49.5605C60.2962 49.5605 49.7353 49.713 39.2879 49.5605C37.6753 49.6391 36.5484 50.4132 35.9959 51.4026C35.7539 51.8364 35.6203 52.3111 35.6054 52.7865C35.5904 53.2596 35.6902 53.7327 35.911 54.165C36.403 55.1245 37.5056 55.8978 39.3044 56.0731H55.0265L55.0311 56.0746ZM70.7588 57.0138H39.3038V57.0122C39.2904 57.0122 39.2755 57.0122 39.2621 57.0106C37.0767 56.8094 35.713 55.8224 35.0821 54.5924C34.7851 54.014 34.6523 53.3853 34.6727 52.7582C34.6931 52.135 34.866 51.5134 35.1796 50.9499C35.8782 49.6996 37.2692 48.725 39.241 48.6268C39.2615 48.6253 39.2803 48.6229 39.3008 48.6229H70.7558V48.6245H70.7762C72.7684 48.7109 74.1752 49.6893 74.8793 50.9491C75.1929 51.5126 75.3658 52.1342 75.3862 52.7574C75.4066 53.3846 75.2738 54.0133 74.9768 54.5917C74.3496 55.8137 73.0011 56.7944 70.8422 57.0067C70.814 57.0122 70.7857 57.0145 70.7558 57.0145L70.7588 57.0138ZM92.9352 29.846H83.6069V40.827C83.6069 42.9205 84.7464 44.229 86.2223 44.7949C86.8306 45.0275 87.4938 45.1423 88.1579 45.1383C88.8228 45.1344 89.4931 45.011 90.1163 44.7705C91.692 44.1662 92.9345 42.7949 92.9345 40.6982V29.8484L92.9352 29.846ZM81.7476 29.8043H72.4193V40.7853C72.4193 42.8788 73.5588 44.1873 75.0347 44.7533C75.643 44.9859 76.3062 45.1006 76.9703 45.0967C77.6352 45.0927 78.3055 44.9694 78.9287 44.7289C80.5044 44.1246 81.7469 42.7532 81.7469 40.6565V29.8067L81.7476 29.8043ZM70.56 29.7627H61.2317V40.7437C61.2317 42.8372 62.3712 44.1457 63.8471 44.7116C64.4554 44.9442 65.1186 45.059 65.7827 45.055C66.4476 45.0511 67.1179 44.9277 67.7411 44.6872C69.3168 44.0829 70.5593 42.7116 70.5593 40.6149V29.7651L70.56 29.7627ZM59.3724 29.721H50.0441V40.702C50.0441 42.7955 51.1836 44.104 52.6595 44.67C53.2678 44.9026 53.931 45.0173 54.5951 45.0134C55.26 45.0094 55.9303 44.8861 56.5535 44.6456C58.1292 44.0413 59.3717 42.6699 59.3717 40.5732V29.7234L59.3724 29.721ZM48.1848 29.6794H38.8565V40.6604C38.8565 42.7539 39.996 44.0624 41.4719 44.6283C42.0802 44.8609 42.7434 44.9757 43.4075 44.9717C44.0724 44.9678 44.7427 44.8444 45.3659 44.6039C46.9416 43.9996 48.1841 42.6283 48.1841 40.5316V29.6818L48.1848 29.6794ZM36.9972 29.6377H27.6689V40.6187C27.6689 42.7122 28.8085 44.0207 30.2843 44.5867C30.8926 44.8193 31.5559 44.934 32.2199 44.9301C32.8848 44.9261 33.5551 44.8028 34.1783 44.5623C35.754 43.958 36.9965 42.5866 36.9965 40.4899V29.6401L36.9972 29.6377ZM17.1555 28.0943H26.5632C26.6049 28.0943 26.6442 28.0982 26.6835 28.1037H27.0851L34.3763 13.9438H26.8563L17.1563 28.0943L17.1555 28.0943ZM20.6589 29.5961H16.4827V40.5771C16.4827 42.6706 17.6223 43.9791 19.0981 44.545C19.7064 44.7776 20.3697 44.8924 21.0337 44.8884C21.6986 44.8845 22.3689 44.7611 22.9921 44.5206C24.5678 43.9163 25.8103 42.5449 25.8103 40.4483V29.6009L20.6582 29.597L20.6589 29.5961ZM75.0609 13.9438L82.3686 28.1375L92.1306 28.143L81.9441 13.9439L75.0609 13.9438ZM80.6829 28.1359L73.3751 13.9438H66.7785L71.4655 28.1297L80.6829 28.1352V28.1359ZM69.8842 28.1304L65.1972 13.9446H58.7075L60.8726 28.1248L69.8834 28.1303L69.8842 28.1304ZM59.3543 28.1249L57.1891 13.9461H52.2453L50.0817 28.1192L59.3559 28.1248L59.3543 28.1249ZM36.0593 13.9461L28.768 28.1076L37.9762 28.1131L42.6553 13.9454H36.0587L36.0593 13.9461ZM44.237 13.9461L39.5579 28.1138L48.5632 28.1193L50.7267 13.9462L44.237 13.9461ZM73.487 5.6654C74.0638 5.6654 74.5896 5.89251 74.9723 6.26267C75.3629 6.63832 75.6049 7.15856 75.6049 7.73304C75.6049 8.30751 75.3629 8.82775 74.9723 9.2034C74.5896 9.57119 74.0638 9.80068 73.487 9.80068C72.9102 9.80068 72.3844 9.57356 72.0017 9.2034C71.6111 8.82775 71.3691 8.30751 71.3691 7.73304C71.3691 7.15856 71.6111 6.63832 72.0017 6.26267C72.3844 5.89489 72.9102 5.6654 73.487 5.6654ZM73.9342 7.34244C73.8218 7.23556 73.6638 7.16797 73.487 7.16797C73.3102 7.16797 73.153 7.23399 73.0398 7.34244C72.9369 7.44224 72.8709 7.58056 72.8709 7.73302C72.8709 7.88547 72.9345 8.02379 73.0398 8.12359C73.1522 8.23047 73.3102 8.29806 73.487 8.29806C73.6638 8.29806 73.821 8.23204 73.9342 8.12359C74.0371 8.02379 74.1031 7.88547 74.1031 7.73302C74.1031 7.58056 74.0395 7.44225 73.9342 7.34244ZM46.2735 8.48037C45.8585 8.48037 45.5222 8.14401 45.5222 7.72907C45.5222 7.31413 45.8585 6.97777 46.2735 6.97777H63.4133C63.8282 6.97777 64.1646 7.31413 64.1646 7.72907C64.1646 8.14401 63.8282 8.48037 63.4133 8.48037H46.2735ZM27.4401 12.4419H81.9789V7.45474C81.9789 5.75333 81.4979 4.17606 80.5879 3.07035C79.7957 2.1053 78.6578 1.49861 77.2156 1.49861H32.2049C30.7628 1.49861 29.625 2.1053 28.8327 3.07035C27.9242 4.17608 27.4417 5.75333 27.4417 7.45474V12.4419H27.4401Z" fill="white"/>
</g>
<defs>
<filter id="filter0_d_187_253" x="0" y="0" width="106" height="112.779" filterUnits="userSpaceOnUse" color-interpolation-filters="sRGB">
<feFlood flood-opacity="0" result="BackgroundImageFix"/>
<feColorMatrix in="SourceAlpha" type="matrix" values="0 0 0 0 0 0 0 0 0 0 0 0 0 0 0 0 0 0 127 0" result="hardAlpha"/>
<feOffset dy="4"/>
<feGaussianBlur stdDeviation="2"/>
<feComposite in2="hardAlpha" operator="out"/>
<feColorMatrix type="matrix" values="0 0 0 0 0 0 0 0 0 0 0 0 0 0 0 0 0 0 0.25 0"/>
<feBlend mode="normal" in2="BackgroundImageFix" result="effect1_dropShadow_187_253"/>
<feBlend mode="normal" in="SourceGraphic" in2="effect1_dropShadow_187_253" result="shape"/>
</filter>
</defs>
</svg>
