<svg width="98" height="111" viewBox="0 0 98 111" fill="none" xmlns="http://www.w3.org/2000/svg">
<g filter="url(#filter0_d_187_297)">
<path fill-rule="evenodd" clip-rule="evenodd" d="M4 9.65625C4 4.32306 8.31706 0 13.6429 0H71.5C76.8258 0 81.1429 4.32306 81.1429 9.65625V12.875H84.3571C89.6829 12.875 94 17.1981 94 22.5312V93.3438C94 98.6769 89.6829 103 84.3571 103H26.5C21.1742 103 16.8571 98.6769 16.8571 93.3438V90.125H13.6429C8.31706 90.125 4 85.8019 4 80.4688V9.65625ZM23.2857 90.125V93.3438C23.2857 95.1213 24.725 96.5625 26.5 96.5625H84.3571C86.1322 96.5625 87.5714 95.1213 87.5714 93.3438V22.5312C87.5714 20.7537 86.1322 19.3125 84.3571 19.3125H81.1429V80.4688C81.1429 85.8019 76.8258 90.125 71.5 90.125H23.2857ZM23.2857 22.5312C21.5107 22.5312 20.0714 23.9725 20.0714 25.75C20.0714 27.5275 21.5107 28.9687 23.2857 28.9687H49C50.775 28.9687 52.2143 27.5275 52.2143 25.75C52.2143 23.9725 50.775 22.5312 49 22.5312H23.2857ZM20.0714 38.625C20.0714 36.8475 21.5107 35.4062 23.2857 35.4062H49C50.775 35.4062 52.2143 36.8475 52.2143 38.625C52.2143 40.4025 50.775 41.8438 49 41.8438H23.2857C21.5107 41.8438 20.0714 40.4025 20.0714 38.625ZM23.2857 48.2812C21.5107 48.2812 20.0714 49.7225 20.0714 51.5C20.0714 53.2775 21.5107 54.7187 23.2857 54.7187H61.8571C63.6322 54.7187 65.0714 53.2775 65.0714 51.5C65.0714 49.7225 63.6322 48.2812 61.8571 48.2812H23.2857ZM20.0714 64.375C20.0714 62.5975 21.5107 61.1562 23.2857 61.1562H61.8571C63.6322 61.1562 65.0714 62.5975 65.0714 64.375C65.0714 66.1525 63.6322 67.5938 61.8571 67.5938H23.2857C21.5107 67.5938 20.0714 66.1525 20.0714 64.375Z" fill="white"/>
</g>
<defs>
<filter id="filter0_d_187_297" x="0" y="0" width="98" height="111" filterUnits="userSpaceOnUse" color-interpolation-filters="sRGB">
<feFlood flood-opacity="0" result="BackgroundImageFix"/>
<feColorMatrix in="SourceAlpha" type="matrix" values="0 0 0 0 0 0 0 0 0 0 0 0 0 0 0 0 0 0 127 0" result="hardAlpha"/>
<feOffset dy="4"/>
<feGaussianBlur stdDeviation="2"/>
<feComposite in2="hardAlpha" operator="out"/>
<feColorMatrix type="matrix" values="0 0 0 0 0 0 0 0 0 0 0 0 0 0 0 0 0 0 0.25 0"/>
<feBlend mode="normal" in2="BackgroundImageFix" result="effect1_dropShadow_187_297"/>
<feBlend mode="normal" in="SourceGraphic" in2="effect1_dropShadow_187_297" result="shape"/>
</filter>
</defs>
</svg>
