<svg width="158" height="24" viewBox="0 0 158 24" fill="none" xmlns="http://www.w3.org/2000/svg">
<g filter="url(#filter0_d_123_61)">
<path d="M11.4261 1.644V5.82C10.8321 5.244 10.0041 4.974 8.9241 4.974C6.3501 4.974 4.1721 6.9 4.1721 10.068C4.1721 13.236 6.3501 15.18 8.9241 15.18C10.1481 15.18 11.0301 14.856 11.6241 14.19V15H15.4941V1.644H11.4261ZM9.8961 12.012C8.9961 12.012 8.2941 11.346 8.2941 10.068C8.2941 8.79 8.9961 8.142 9.8961 8.142C10.7961 8.142 11.4981 8.79 11.4981 10.068C11.4981 11.346 10.7961 12.012 9.8961 12.012ZM22.4975 15.18C25.8455 15.18 28.2215 13.056 28.2215 10.068C28.2215 7.08 25.8455 4.974 22.4975 4.974C19.1675 4.974 16.7735 7.08 16.7735 10.068C16.7735 13.056 19.1675 15.18 22.4975 15.18ZM22.4975 12.012C21.5975 12.012 20.8955 11.346 20.8955 10.068C20.8955 8.79 21.5975 8.142 22.4975 8.142C23.3975 8.142 24.0995 8.79 24.0995 10.068C24.0995 11.346 23.3975 12.012 22.4975 12.012ZM34.7867 15.18C37.1807 15.18 38.9807 14.082 39.6287 12.264L36.4787 10.716C36.0647 11.634 35.4707 12.012 34.7687 12.012C33.8507 12.012 33.0947 11.364 33.0947 10.068C33.0947 8.79 33.8507 8.142 34.7687 8.142C35.4707 8.142 36.0647 8.52 36.4787 9.438L39.6287 7.89C38.9807 6.072 37.1807 4.974 34.7867 4.974C31.3847 4.974 28.9727 7.08 28.9727 10.068C28.9727 13.074 31.3847 15.18 34.7867 15.18ZM47.2649 5.154V9.78C47.2649 11.238 46.5809 11.76 45.8789 11.76C45.0869 11.76 44.6009 11.292 44.6009 9.888V5.154H40.5329V10.59C40.5329 13.794 42.3149 15.18 44.6729 15.18C45.7349 15.18 46.7249 14.82 47.4629 14.064V15H51.3329V5.154H47.2649ZM66.1693 4.974C64.8193 4.974 63.6673 5.514 62.8753 6.468C62.1913 5.442 61.0753 4.974 59.7973 4.974C58.7173 4.974 57.7453 5.334 57.0073 6.072V5.154H53.1373V15H57.2053V10.194C57.2053 8.88 57.7633 8.394 58.4833 8.394C59.1673 8.394 59.5813 8.862 59.5813 10.086V15H63.6493V10.194C63.6493 8.88 64.2073 8.394 64.9273 8.394C65.5753 8.394 66.0253 8.862 66.0253 10.086V15H70.0933V9.384C70.0933 6.288 68.4013 4.974 66.1693 4.974ZM82.5098 10.068C82.5098 6.738 80.0078 4.974 77.0918 4.974C73.9058 4.974 71.5118 7.08 71.5118 10.068C71.5118 13.002 73.8518 15.18 77.4698 15.18C79.4318 15.18 80.8178 14.64 81.7718 13.596L79.6478 11.454C78.9998 11.94 78.4958 12.174 77.5958 12.174C76.5878 12.174 75.9038 11.778 75.6158 11.022H82.4558C82.4738 10.734 82.5098 10.356 82.5098 10.068ZM77.1278 7.746C77.9558 7.746 78.5498 8.232 78.7118 9.06H75.5438C75.7058 8.232 76.2818 7.746 77.1278 7.746ZM90.6336 4.974C89.4816 4.974 88.4376 5.352 87.6636 6.126V5.154H83.7936V15H87.8616V10.374C87.8616 8.916 88.5636 8.394 89.3916 8.394C90.1296 8.394 90.5976 8.862 90.5976 10.086V15H94.6656V9.384C94.6656 6.288 92.9016 4.974 90.6336 4.974ZM102.714 11.832C102.444 12.012 102.12 12.102 101.796 12.102C101.31 12.102 100.95 11.76 100.95 11.148V8.664H102.966V5.694H100.95V2.94H96.8822V5.694H95.5322V8.664H96.8822V11.184C96.8822 13.902 98.4662 15.18 101.184 15.18C102.138 15.18 103.056 15.018 103.686 14.658L102.714 11.832ZM109.122 4.974C107.592 4.974 105.846 5.37 104.694 6.09L105.99 8.772C106.638 8.286 107.628 7.998 108.51 7.998C109.662 7.998 110.238 8.394 110.364 9.15H108.726C105.666 9.15 104.226 10.212 104.226 12.12C104.226 13.812 105.468 15.18 107.88 15.18C109.266 15.18 110.202 14.694 110.67 13.704V15H114.45V9.708C114.45 6.432 112.506 4.974 109.122 4.974ZM109.104 12.732C108.492 12.732 108.132 12.39 108.132 11.94C108.132 11.4 108.51 11.112 109.374 11.112H110.382V11.796C110.166 12.444 109.662 12.732 109.104 12.732ZM122.49 11.832C122.22 12.012 121.896 12.102 121.572 12.102C121.086 12.102 120.726 11.76 120.726 11.148V8.664H122.742V5.694H120.726V2.94H116.658V5.694H115.308V8.664H116.658V11.184C116.658 13.902 118.242 15.18 120.96 15.18C121.914 15.18 122.832 15.018 123.462 14.658L122.49 11.832ZM126.521 4.362C128.015 4.362 128.969 3.462 128.969 2.22C128.969 1.05 128.015 0.221999 126.521 0.221999C125.027 0.221999 124.073 1.122 124.073 2.292C124.073 3.462 125.027 4.362 126.521 4.362ZM124.487 15H128.555V5.154H124.487V15ZM135.56 15.18C138.908 15.18 141.284 13.056 141.284 10.068C141.284 7.08 138.908 4.974 135.56 4.974C132.23 4.974 129.836 7.08 129.836 10.068C129.836 13.056 132.23 15.18 135.56 15.18ZM135.56 12.012C134.66 12.012 133.958 11.346 133.958 10.068C133.958 8.79 134.66 8.142 135.56 8.142C136.46 8.142 137.162 8.79 137.162 10.068C137.162 11.346 136.46 12.012 135.56 12.012ZM149.397 4.974C148.245 4.974 147.201 5.352 146.427 6.126V5.154H142.557V15H146.625V10.374C146.625 8.916 147.327 8.394 148.155 8.394C148.893 8.394 149.361 8.862 149.361 10.086V15H153.429V9.384C153.429 6.288 151.665 4.974 149.397 4.974Z" fill="#F5BA94"/>
</g>
<defs>
<filter id="filter0_d_123_61" x="0.172119" y="0.222046" width="157.257" height="22.958" filterUnits="userSpaceOnUse" color-interpolation-filters="sRGB">
<feFlood flood-opacity="0" result="BackgroundImageFix"/>
<feColorMatrix in="SourceAlpha" type="matrix" values="0 0 0 0 0 0 0 0 0 0 0 0 0 0 0 0 0 0 127 0" result="hardAlpha"/>
<feOffset dy="4"/>
<feGaussianBlur stdDeviation="2"/>
<feComposite in2="hardAlpha" operator="out"/>
<feColorMatrix type="matrix" values="0 0 0 0 0 0 0 0 0 0 0 0 0 0 0 0 0 0 0.25 0"/>
<feBlend mode="normal" in2="BackgroundImageFix" result="effect1_dropShadow_123_61"/>
<feBlend mode="normal" in="SourceGraphic" in2="effect1_dropShadow_123_61" result="shape"/>
</filter>
</defs>
</svg>
