<svg width="670" height="50" viewBox="0 0 670 50" fill="none" xmlns="http://www.w3.org/2000/svg">
<g filter="url(#filter0_d_126_119)">
<path d="M109.146 1.40198L97.349 39.2544H84.055L78.1113 19.0214L71.85 39.2544H58.556L46.7593 1.40198H59.5088L65.9062 22.8968L72.6667 1.40198H84.055L90.4525 23.1671L97.2129 1.40198H109.146Z" fill="black"/>
</g>
<g filter="url(#filter1_d_126_119)">
<path d="M149.802 1.40198V39.2544H139.348L125.034 22.0856V39.2544H112.651V1.40198H123.105L137.463 18.5708V1.40198H149.802Z" fill="black"/>
</g>
<g filter="url(#filter2_d_126_119)">
<path d="M224.105 1.40198L212.038 39.2544H198.446L192.39 19.0214L185.976 39.2544H172.384L160.317 1.40198H173.37L179.92 22.8968L186.873 1.40198H198.536L205.085 23.1671L212.038 1.40198H224.105Z" fill="black"/>
</g>
<g filter="url(#filter3_d_126_119)">
<path d="M264.761 1.40198V39.2544H251.808V25.3301H239.862V39.2544H226.909V1.40198H239.862V14.7855H251.808V1.40198H264.761Z" fill="black"/>
</g>
<g filter="url(#filter4_d_126_119)">
<path d="M296.013 32.6753H281.651L279.13 39.2544H266.163L282.686 1.40198H295.203L311.726 39.2544H298.535L296.013 32.6753ZM292.501 23.4826L288.81 13.9744L285.118 23.4826H292.501Z" fill="black"/>
</g>
<g filter="url(#filter5_d_126_119)">
<path d="M319.124 11.2824H308.221V1.40198H342.569V11.2824H331.666V39.2544H319.124V11.2824Z" fill="black"/>
</g>
<g filter="url(#filter6_d_126_119)">
<path d="M385.653 24.6619V38.1515H370.714V24.485L354 1H369.758L378.821 13.8261L387.93 1H402.367L385.653 24.6619Z" fill="white"/>
</g>
<g filter="url(#filter7_d_126_119)">
<path d="M398.161 20.2767C398.161 9.11869 407.065 1 419.19 1C431.358 1 440.219 9.11869 440.219 20.2767C440.219 31.4347 431.316 39.5534 419.19 39.5534C407.065 39.5534 398.161 31.4347 398.161 20.2767ZM427.543 20.2767C427.543 14.5312 423.812 10.7841 419.19 10.7841C414.569 10.7841 410.838 14.5312 410.838 20.2767C410.838 26.0222 414.569 29.3946 419.19 29.3946C423.812 29.353 427.543 26.0222 427.543 20.2767Z" fill="white"/>
</g>
<g filter="url(#filter8_d_126_119)">
<path d="M4 20.6786C4 8.70915 13.497 0 26.4311 0C39.4103 0 48.8621 8.70915 48.8621 20.6786C48.8621 32.6481 39.3651 41.3573 26.4311 41.3573C13.497 41.3573 4 32.6481 4 20.6786ZM35.3402 20.6786C35.3402 14.5152 31.3605 10.6743 26.4311 10.6743C21.5017 10.6743 17.522 14.5152 17.522 20.6786C17.522 26.842 21.5017 30.5043 26.4311 30.5043C31.3605 30.5043 35.3402 26.842 35.3402 20.6786Z" fill="black"/>
</g>
<g filter="url(#filter9_d_126_119)">
<path d="M445.126 21.7354V1H457.737V21.3314C457.737 27.0763 459.831 28.0637 463.351 28.0637C466.872 28.0637 469.189 27.0763 469.189 21.3314V1H481.577V21.7354C481.577 33.0456 474.848 39.5534 463.351 39.5534C451.855 39.5534 445.126 33.0456 445.126 21.7354Z" fill="white"/>
</g>
<g filter="url(#filter10_d_126_119)">
<path d="M533.448 29.2541V38.8524H501.905V1H532.725V10.5983H514.468V15.0144H530.511V24.2071H514.468V29.164H533.448V29.2541Z" fill="white"/>
</g>
<g filter="url(#filter11_d_126_119)">
<path d="M567.504 32.2733H553.142L550.621 38.8524H537.654L554.178 1H566.694L583.217 38.8524H570.026L567.504 32.2733ZM563.993 23.0806L560.301 13.5724L556.609 23.0806H563.993Z" fill="white"/>
</g>
<g filter="url(#filter12_d_126_119)">
<path d="M603.023 29.3443H599.536V38.8524H586.722V1H605.015C615.611 1 622.358 6.49762 622.358 15.2848C622.358 20.7373 619.731 24.838 615.203 27.1813L623.173 38.8524H609.498L603.023 29.3443ZM604.2 10.8687H599.536V19.746H604.2C607.732 19.746 609.408 18.0787 609.408 15.3299C609.408 12.536 607.732 10.8687 604.2 10.8687Z" fill="white"/>
</g>
<g filter="url(#filter13_d_126_119)">
<path d="M665.231 1.04506V38.8524H654.777L640.463 21.6837V38.8524H628.08V1H638.534L652.847 18.1688V1H665.231V1.04506Z" fill="white"/>
</g>
<defs>
<filter id="filter0_d_126_119" x="42.7593" y="1.40198" width="70.3865" height="45.8524" filterUnits="userSpaceOnUse" color-interpolation-filters="sRGB">
<feFlood flood-opacity="0" result="BackgroundImageFix"/>
<feColorMatrix in="SourceAlpha" type="matrix" values="0 0 0 0 0 0 0 0 0 0 0 0 0 0 0 0 0 0 127 0" result="hardAlpha"/>
<feOffset dy="4"/>
<feGaussianBlur stdDeviation="2"/>
<feComposite in2="hardAlpha" operator="out"/>
<feColorMatrix type="matrix" values="0 0 0 0 0 0 0 0 0 0 0 0 0 0 0 0 0 0 0.25 0"/>
<feBlend mode="normal" in2="BackgroundImageFix" result="effect1_dropShadow_126_119"/>
<feBlend mode="normal" in="SourceGraphic" in2="effect1_dropShadow_126_119" result="shape"/>
</filter>
<filter id="filter1_d_126_119" x="108.651" y="1.40198" width="45.1514" height="45.8524" filterUnits="userSpaceOnUse" color-interpolation-filters="sRGB">
<feFlood flood-opacity="0" result="BackgroundImageFix"/>
<feColorMatrix in="SourceAlpha" type="matrix" values="0 0 0 0 0 0 0 0 0 0 0 0 0 0 0 0 0 0 127 0" result="hardAlpha"/>
<feOffset dy="4"/>
<feGaussianBlur stdDeviation="2"/>
<feComposite in2="hardAlpha" operator="out"/>
<feColorMatrix type="matrix" values="0 0 0 0 0 0 0 0 0 0 0 0 0 0 0 0 0 0 0.25 0"/>
<feBlend mode="normal" in2="BackgroundImageFix" result="effect1_dropShadow_126_119"/>
<feBlend mode="normal" in="SourceGraphic" in2="effect1_dropShadow_126_119" result="shape"/>
</filter>
<filter id="filter2_d_126_119" x="156.317" y="1.40198" width="71.7883" height="45.8524" filterUnits="userSpaceOnUse" color-interpolation-filters="sRGB">
<feFlood flood-opacity="0" result="BackgroundImageFix"/>
<feColorMatrix in="SourceAlpha" type="matrix" values="0 0 0 0 0 0 0 0 0 0 0 0 0 0 0 0 0 0 127 0" result="hardAlpha"/>
<feOffset dy="4"/>
<feGaussianBlur stdDeviation="2"/>
<feComposite in2="hardAlpha" operator="out"/>
<feColorMatrix type="matrix" values="0 0 0 0 0 0 0 0 0 0 0 0 0 0 0 0 0 0 0.25 0"/>
<feBlend mode="normal" in2="BackgroundImageFix" result="effect1_dropShadow_126_119"/>
<feBlend mode="normal" in="SourceGraphic" in2="effect1_dropShadow_126_119" result="shape"/>
</filter>
<filter id="filter3_d_126_119" x="222.909" y="1.40198" width="45.8524" height="45.8524" filterUnits="userSpaceOnUse" color-interpolation-filters="sRGB">
<feFlood flood-opacity="0" result="BackgroundImageFix"/>
<feColorMatrix in="SourceAlpha" type="matrix" values="0 0 0 0 0 0 0 0 0 0 0 0 0 0 0 0 0 0 127 0" result="hardAlpha"/>
<feOffset dy="4"/>
<feGaussianBlur stdDeviation="2"/>
<feComposite in2="hardAlpha" operator="out"/>
<feColorMatrix type="matrix" values="0 0 0 0 0 0 0 0 0 0 0 0 0 0 0 0 0 0 0.25 0"/>
<feBlend mode="normal" in2="BackgroundImageFix" result="effect1_dropShadow_126_119"/>
<feBlend mode="normal" in="SourceGraphic" in2="effect1_dropShadow_126_119" result="shape"/>
</filter>
<filter id="filter4_d_126_119" x="262.163" y="1.40198" width="53.5631" height="45.8524" filterUnits="userSpaceOnUse" color-interpolation-filters="sRGB">
<feFlood flood-opacity="0" result="BackgroundImageFix"/>
<feColorMatrix in="SourceAlpha" type="matrix" values="0 0 0 0 0 0 0 0 0 0 0 0 0 0 0 0 0 0 127 0" result="hardAlpha"/>
<feOffset dy="4"/>
<feGaussianBlur stdDeviation="2"/>
<feComposite in2="hardAlpha" operator="out"/>
<feColorMatrix type="matrix" values="0 0 0 0 0 0 0 0 0 0 0 0 0 0 0 0 0 0 0.25 0"/>
<feBlend mode="normal" in2="BackgroundImageFix" result="effect1_dropShadow_126_119"/>
<feBlend mode="normal" in="SourceGraphic" in2="effect1_dropShadow_126_119" result="shape"/>
</filter>
<filter id="filter5_d_126_119" x="304.221" y="1.40198" width="42.3475" height="45.8524" filterUnits="userSpaceOnUse" color-interpolation-filters="sRGB">
<feFlood flood-opacity="0" result="BackgroundImageFix"/>
<feColorMatrix in="SourceAlpha" type="matrix" values="0 0 0 0 0 0 0 0 0 0 0 0 0 0 0 0 0 0 127 0" result="hardAlpha"/>
<feOffset dy="4"/>
<feGaussianBlur stdDeviation="2"/>
<feComposite in2="hardAlpha" operator="out"/>
<feColorMatrix type="matrix" values="0 0 0 0 0 0 0 0 0 0 0 0 0 0 0 0 0 0 0.25 0"/>
<feBlend mode="normal" in2="BackgroundImageFix" result="effect1_dropShadow_126_119"/>
<feBlend mode="normal" in="SourceGraphic" in2="effect1_dropShadow_126_119" result="shape"/>
</filter>
<filter id="filter6_d_126_119" x="350" y="1" width="56.3669" height="45.1515" filterUnits="userSpaceOnUse" color-interpolation-filters="sRGB">
<feFlood flood-opacity="0" result="BackgroundImageFix"/>
<feColorMatrix in="SourceAlpha" type="matrix" values="0 0 0 0 0 0 0 0 0 0 0 0 0 0 0 0 0 0 127 0" result="hardAlpha"/>
<feOffset dy="4"/>
<feGaussianBlur stdDeviation="2"/>
<feComposite in2="hardAlpha" operator="out"/>
<feColorMatrix type="matrix" values="0 0 0 0 0 0 0 0 0 0 0 0 0 0 0 0 0 0 0.25 0"/>
<feBlend mode="normal" in2="BackgroundImageFix" result="effect1_dropShadow_126_119"/>
<feBlend mode="normal" in="SourceGraphic" in2="effect1_dropShadow_126_119" result="shape"/>
</filter>
<filter id="filter7_d_126_119" x="394.161" y="1" width="50.0582" height="46.5533" filterUnits="userSpaceOnUse" color-interpolation-filters="sRGB">
<feFlood flood-opacity="0" result="BackgroundImageFix"/>
<feColorMatrix in="SourceAlpha" type="matrix" values="0 0 0 0 0 0 0 0 0 0 0 0 0 0 0 0 0 0 127 0" result="hardAlpha"/>
<feOffset dy="4"/>
<feGaussianBlur stdDeviation="2"/>
<feComposite in2="hardAlpha" operator="out"/>
<feColorMatrix type="matrix" values="0 0 0 0 0 0 0 0 0 0 0 0 0 0 0 0 0 0 0.25 0"/>
<feBlend mode="normal" in2="BackgroundImageFix" result="effect1_dropShadow_126_119"/>
<feBlend mode="normal" in="SourceGraphic" in2="effect1_dropShadow_126_119" result="shape"/>
</filter>
<filter id="filter8_d_126_119" x="0" y="0" width="52.8621" height="49.3573" filterUnits="userSpaceOnUse" color-interpolation-filters="sRGB">
<feFlood flood-opacity="0" result="BackgroundImageFix"/>
<feColorMatrix in="SourceAlpha" type="matrix" values="0 0 0 0 0 0 0 0 0 0 0 0 0 0 0 0 0 0 127 0" result="hardAlpha"/>
<feOffset dy="4"/>
<feGaussianBlur stdDeviation="2"/>
<feComposite in2="hardAlpha" operator="out"/>
<feColorMatrix type="matrix" values="0 0 0 0 0 0 0 0 0 0 0 0 0 0 0 0 0 0 0.25 0"/>
<feBlend mode="normal" in2="BackgroundImageFix" result="effect1_dropShadow_126_119"/>
<feBlend mode="normal" in="SourceGraphic" in2="effect1_dropShadow_126_119" result="shape"/>
</filter>
<filter id="filter9_d_126_119" x="441.126" y="1" width="44.4504" height="46.5533" filterUnits="userSpaceOnUse" color-interpolation-filters="sRGB">
<feFlood flood-opacity="0" result="BackgroundImageFix"/>
<feColorMatrix in="SourceAlpha" type="matrix" values="0 0 0 0 0 0 0 0 0 0 0 0 0 0 0 0 0 0 127 0" result="hardAlpha"/>
<feOffset dy="4"/>
<feGaussianBlur stdDeviation="2"/>
<feComposite in2="hardAlpha" operator="out"/>
<feColorMatrix type="matrix" values="0 0 0 0 0 0 0 0 0 0 0 0 0 0 0 0 0 0 0.25 0"/>
<feBlend mode="normal" in2="BackgroundImageFix" result="effect1_dropShadow_126_119"/>
<feBlend mode="normal" in="SourceGraphic" in2="effect1_dropShadow_126_119" result="shape"/>
</filter>
<filter id="filter10_d_126_119" x="497.905" y="1" width="39.5437" height="45.8524" filterUnits="userSpaceOnUse" color-interpolation-filters="sRGB">
<feFlood flood-opacity="0" result="BackgroundImageFix"/>
<feColorMatrix in="SourceAlpha" type="matrix" values="0 0 0 0 0 0 0 0 0 0 0 0 0 0 0 0 0 0 127 0" result="hardAlpha"/>
<feOffset dy="4"/>
<feGaussianBlur stdDeviation="2"/>
<feComposite in2="hardAlpha" operator="out"/>
<feColorMatrix type="matrix" values="0 0 0 0 0 0 0 0 0 0 0 0 0 0 0 0 0 0 0.25 0"/>
<feBlend mode="normal" in2="BackgroundImageFix" result="effect1_dropShadow_126_119"/>
<feBlend mode="normal" in="SourceGraphic" in2="effect1_dropShadow_126_119" result="shape"/>
</filter>
<filter id="filter11_d_126_119" x="533.654" y="1" width="53.5631" height="45.8524" filterUnits="userSpaceOnUse" color-interpolation-filters="sRGB">
<feFlood flood-opacity="0" result="BackgroundImageFix"/>
<feColorMatrix in="SourceAlpha" type="matrix" values="0 0 0 0 0 0 0 0 0 0 0 0 0 0 0 0 0 0 127 0" result="hardAlpha"/>
<feOffset dy="4"/>
<feGaussianBlur stdDeviation="2"/>
<feComposite in2="hardAlpha" operator="out"/>
<feColorMatrix type="matrix" values="0 0 0 0 0 0 0 0 0 0 0 0 0 0 0 0 0 0 0.25 0"/>
<feBlend mode="normal" in2="BackgroundImageFix" result="effect1_dropShadow_126_119"/>
<feBlend mode="normal" in="SourceGraphic" in2="effect1_dropShadow_126_119" result="shape"/>
</filter>
<filter id="filter12_d_126_119" x="582.722" y="1" width="44.4504" height="45.8524" filterUnits="userSpaceOnUse" color-interpolation-filters="sRGB">
<feFlood flood-opacity="0" result="BackgroundImageFix"/>
<feColorMatrix in="SourceAlpha" type="matrix" values="0 0 0 0 0 0 0 0 0 0 0 0 0 0 0 0 0 0 127 0" result="hardAlpha"/>
<feOffset dy="4"/>
<feGaussianBlur stdDeviation="2"/>
<feComposite in2="hardAlpha" operator="out"/>
<feColorMatrix type="matrix" values="0 0 0 0 0 0 0 0 0 0 0 0 0 0 0 0 0 0 0.25 0"/>
<feBlend mode="normal" in2="BackgroundImageFix" result="effect1_dropShadow_126_119"/>
<feBlend mode="normal" in="SourceGraphic" in2="effect1_dropShadow_126_119" result="shape"/>
</filter>
<filter id="filter13_d_126_119" x="624.08" y="1" width="45.1515" height="45.8524" filterUnits="userSpaceOnUse" color-interpolation-filters="sRGB">
<feFlood flood-opacity="0" result="BackgroundImageFix"/>
<feColorMatrix in="SourceAlpha" type="matrix" values="0 0 0 0 0 0 0 0 0 0 0 0 0 0 0 0 0 0 127 0" result="hardAlpha"/>
<feOffset dy="4"/>
<feGaussianBlur stdDeviation="2"/>
<feComposite in2="hardAlpha" operator="out"/>
<feColorMatrix type="matrix" values="0 0 0 0 0 0 0 0 0 0 0 0 0 0 0 0 0 0 0.25 0"/>
<feBlend mode="normal" in2="BackgroundImageFix" result="effect1_dropShadow_126_119"/>
<feBlend mode="normal" in="SourceGraphic" in2="effect1_dropShadow_126_119" result="shape"/>
</filter>
</defs>
</svg>
