<svg width="102" height="102" viewBox="0 0 102 102" fill="none" xmlns="http://www.w3.org/2000/svg">
<g filter="url(#filter0_d_187_299)">
<path d="M77.6756 0.150879C66.9888 0.150879 58.3312 8.17532 58.3312 18.0721C58.3312 21.3881 59.3055 24.5159 61.0114 27.1791L57.3101 35.3895L69.6199 34.361C72.0726 35.4092 74.801 35.9935 77.6756 35.9935C88.379 35.9927 97.0358 27.969 97.0358 18.0722C97.0358 8.1754 88.3783 0.150954 77.6756 0.150954V0.150879ZM71.9671 9.53567H83.3986C84.2012 9.53567 84.8521 10.2235 84.8521 11.0733C84.8521 11.9231 84.2012 12.6109 83.3986 12.6109H71.9671C71.1645 12.6109 70.5136 11.9231 70.5136 11.0733C70.5129 10.2235 71.1638 9.53567 71.9671 9.53567ZM83.3979 26.6013H71.9663C71.1637 26.6013 70.5128 25.9135 70.5128 25.0637C70.5128 24.2139 71.1637 23.5261 71.9663 23.5261H83.3979C84.2005 23.5261 84.8514 24.2139 84.8514 25.0637C84.8521 25.9135 84.2012 26.6013 83.3979 26.6013ZM89.6153 19.6061H65.7503C64.9477 19.6061 64.2968 18.9183 64.2968 18.0685C64.2968 17.2187 64.9477 16.5309 65.7503 16.5309H89.6153C90.4179 16.5309 91.0688 17.2187 91.0688 18.0685C91.0688 18.9183 90.4179 19.6061 89.6153 19.6061Z" fill="white"/>
<path d="M38.5625 38.7742C40.1987 36.2189 41.1336 33.2189 41.1336 30.0372C41.1336 20.5422 32.8284 12.844 22.5748 12.844C12.3058 12.844 4 20.5424 4 30.0372C4 39.5319 12.306 47.2304 22.5748 47.2304C25.3328 47.2304 27.9509 46.6702 30.3035 45.6643L42.1128 46.6512L38.5625 38.7742ZM23.6118 41.6276C23.076 42.1959 22.1935 42.2476 21.5474 41.6276C20.9703 40.9507 21.0034 40.0535 21.5474 39.4438C22.0853 38.8763 23.074 38.8763 23.6118 39.4438C24.1565 40.0536 24.1882 40.9559 23.6118 41.6276ZM26.2555 30.5914C24.8633 31.6651 24.0324 33.3924 24.0324 35.2108C24.0324 36.0606 23.3815 36.7484 22.5789 36.7484C21.7763 36.7484 21.1254 36.0606 21.1254 35.2108C21.1254 32.4113 22.4038 29.7561 24.5447 28.1047C25.5824 27.306 26.0885 25.963 25.8665 24.6012C25.6397 23.2087 24.5206 22.0213 23.2071 21.7732C22.188 21.5857 21.2 21.8556 20.4256 22.542C19.6644 23.216 19.2286 24.2014 19.2286 25.2466C19.2286 26.0964 18.5777 26.7842 17.7751 26.7842C16.9725 26.7842 16.3216 26.0964 16.3216 25.2466C16.3216 23.2896 17.1366 21.4442 18.5584 20.1845C19.9829 18.9218 21.8645 18.3974 23.716 18.7461C26.2342 19.2195 28.2971 21.4113 28.7323 24.0789C29.1418 26.6021 28.1937 29.0981 26.2556 30.5912L26.2555 30.5914Z" fill="white"/>
<path d="M49.3725 41.5527V52.9323H35.7808C35.8242 51.6712 35.8966 50.4413 35.9842 49.2261L42.6566 49.7797C44.5466 49.9336 45.8835 47.873 45.0693 46.0734L42.5546 40.4604C44.7791 41.0294 47.0468 41.3832 49.3725 41.5524L49.3725 41.5527Z" fill="white"/>
<path d="M32.2485 75.4914C29.5595 77.029 27.0152 78.9051 24.6308 81.1044C19.6739 75.0459 16.4904 67.3715 15.8657 58.9299H30.1111C30.3007 64.8813 31.0419 70.4636 32.2485 75.4921V75.4914Z" fill="white"/>
<path d="M66.9321 73.0004C63.0943 71.4934 59.0827 70.6013 55.0415 70.3096V58.9299H68.6188C68.4443 64.0819 67.8486 68.8027 66.9322 73.0006L66.9321 73.0004Z" fill="white"/>
<path d="M68.6183 52.9323H55.041V41.5526C59.1547 41.2601 63.1524 40.3535 66.9461 38.8618C67.8625 43.0749 68.4438 47.7958 68.6182 52.9325L68.6183 52.9323Z" fill="white"/>
<path d="M70.4942 81.3809C72.34 82.5188 74.1135 83.8106 75.7856 85.3175C72.7324 88.055 69.2441 90.2697 65.4497 91.8379C67.3976 88.9319 69.1124 85.4255 70.4942 81.3809Z" fill="white"/>
<path d="M74.2873 58.9301H88.5334C87.9086 67.3724 84.7245 75.0307 79.7965 81.0896C77.4121 78.8904 74.8541 76.999 72.165 75.4766C73.3565 70.4479 74.0984 64.8657 74.2873 58.9297V58.9301Z" fill="white"/>
<path d="M30.3282 48.9343C30.2261 50.2415 30.1538 51.5792 30.1096 52.9323H15.8643C15.9518 51.7484 16.0966 50.5638 16.2855 49.4107C18.2768 49.9949 20.3848 50.3028 22.5794 50.3028C25.2547 50.3028 27.8569 49.841 30.3281 48.9344L30.3282 48.9343Z" fill="white"/>
<path d="M33.9185 81.4106C35.2996 85.44 37.0007 88.9304 38.9478 91.8217C35.1679 90.2688 31.6941 88.0695 28.6416 85.332C30.3137 83.825 32.0872 82.5333 33.9185 81.4106Z" fill="white"/>
<path d="M49.3723 17.9927V35.5543C47.381 35.385 45.4187 35.0619 43.4996 34.5549C43.863 33.0786 44.0374 31.5562 44.0374 30.034C44.0374 27.9734 43.703 25.974 43.0928 24.098C45.011 21.0679 47.1775 18.9766 49.3722 17.9927L49.3723 17.9927Z" fill="white"/>
<path d="M39.0068 78.7967C42.3502 77.4283 45.8392 76.5975 49.371 76.3057V93.8519C45.4179 92.0838 41.609 86.7473 39.0068 78.7967Z" fill="white"/>
<path d="M35.7808 58.9301H49.3725V70.3098C45.3167 70.6023 41.3197 71.5089 37.4674 73.0166C36.551 68.8028 35.9553 64.0819 35.7808 58.9299L35.7808 58.9301Z" fill="white"/>
<path d="M55.041 76.3057C58.559 76.5982 62.0616 77.4129 65.3907 78.7814C62.8036 86.7473 58.9948 92.083 55.041 93.8519V76.3057Z" fill="white"/>
<path d="M88.534 52.9323H74.288C74.128 47.8271 73.5467 42.9831 72.6304 38.5233C74.2735 38.8924 75.9593 39.077 77.6748 39.077C80.044 39.077 82.3264 38.7232 84.4776 38.0776H84.4921C86.7165 42.5833 88.141 47.6113 88.5339 52.9324L88.534 52.9323Z" fill="white"/>
</g>
<defs>
<filter id="filter0_d_187_299" x="0" y="0.150879" width="101.036" height="101.701" filterUnits="userSpaceOnUse" color-interpolation-filters="sRGB">
<feFlood flood-opacity="0" result="BackgroundImageFix"/>
<feColorMatrix in="SourceAlpha" type="matrix" values="0 0 0 0 0 0 0 0 0 0 0 0 0 0 0 0 0 0 127 0" result="hardAlpha"/>
<feOffset dy="4"/>
<feGaussianBlur stdDeviation="2"/>
<feComposite in2="hardAlpha" operator="out"/>
<feColorMatrix type="matrix" values="0 0 0 0 0 0 0 0 0 0 0 0 0 0 0 0 0 0 0.25 0"/>
<feBlend mode="normal" in2="BackgroundImageFix" result="effect1_dropShadow_187_299"/>
<feBlend mode="normal" in="SourceGraphic" in2="effect1_dropShadow_187_299" result="shape"/>
</filter>
</defs>
</svg>
