<svg width="49" height="25" viewBox="0 0 49 25" fill="none" xmlns="http://www.w3.org/2000/svg">
<g filter="url(#filter0_d_62_36)">
<path d="M14.9125 3.604V0.399999H4.67053V13H8.91853V8.968H14.1745V5.764H8.91853V3.604H14.9125ZM25.2295 13H29.6215L24.1135 0.399999H19.9375L14.4295 13H18.7495L19.5955 10.804H24.3835L25.2295 13ZM20.7655 7.744L21.9895 4.576L23.2135 7.744H20.7655ZM42.6877 12.424C42.1657 12.946 41.5537 13.234 40.9417 13.234C40.4917 13.234 40.1497 13.108 39.7717 12.712C42.2377 11.722 43.8397 9.49 43.8397 6.7C43.8397 2.884 40.8337 0.112 36.7297 0.112C32.6257 0.112 29.6197 2.884 29.6197 6.7C29.6197 9.94 31.7977 12.442 34.9657 13.108C37.2337 15.484 38.6197 16.186 40.8517 16.186C42.3637 16.186 43.6417 15.628 44.5237 14.584L42.6877 12.424ZM36.7297 3.55C38.2957 3.55 39.5557 4.738 39.5557 6.7C39.5557 8.662 38.2957 9.85 36.7297 9.85C35.1637 9.85 33.9037 8.662 33.9037 6.7C33.9037 4.738 35.1637 3.55 36.7297 3.55Z" fill="#F5BA94"/>
</g>
<defs>
<filter id="filter0_d_62_36" x="0.670532" y="0.112061" width="47.8531" height="24.074" filterUnits="userSpaceOnUse" color-interpolation-filters="sRGB">
<feFlood flood-opacity="0" result="BackgroundImageFix"/>
<feColorMatrix in="SourceAlpha" type="matrix" values="0 0 0 0 0 0 0 0 0 0 0 0 0 0 0 0 0 0 127 0" result="hardAlpha"/>
<feOffset dy="4"/>
<feGaussianBlur stdDeviation="2"/>
<feComposite in2="hardAlpha" operator="out"/>
<feColorMatrix type="matrix" values="0 0 0 0 0 0 0 0 0 0 0 0 0 0 0 0 0 0 0.25 0"/>
<feBlend mode="normal" in2="BackgroundImageFix" result="effect1_dropShadow_62_36"/>
<feBlend mode="normal" in="SourceGraphic" in2="effect1_dropShadow_62_36" result="shape"/>
</filter>
</defs>
</svg>
