<svg width="132" height="126" viewBox="0 0 132 126" fill="none" xmlns="http://www.w3.org/2000/svg">
<g filter="url(#filter0_d_86_8)">
<path d="M100.096 5.24467C85.8423 5.24467 72.1632 16.0087 59.2361 16.0087C52.5551 16.0087 46.8621 13.0886 41.378 6.83562V2.62233C41.378 1.17449 40.2036 0 38.7556 0H28.2668C26.8189 0 25.6445 1.17437 25.6445 2.62233V97.022H17.7779C16.3301 97.022 15.1556 98.1964 15.1556 99.6443V104.889H7.28908C5.84123 104.889 4.66675 106.063 4.66675 107.511V115.378C4.66675 116.825 5.84111 118 7.28908 118H59.7333C61.1812 118 62.3557 116.826 62.3557 115.378V107.511C62.3557 106.063 61.1813 104.889 59.7333 104.889H51.8668V99.6443C51.8668 98.1965 50.6925 97.022 49.2445 97.022H41.378V69.5616C61.7563 87.2886 82.022 65.8081 100.096 65.8081C107.008 65.8081 112.863 68.9323 118.521 75.6396C119.232 76.4815 120.391 76.7896 121.425 76.4113C122.459 76.0339 123.148 75.0496 123.148 73.9484L123.148 18.6296C123.148 18.0106 122.929 17.4112 122.53 16.9392C115.892 9.0698 108.553 5.24419 100.096 5.24419L100.096 5.24467ZM57.112 112.756H9.91093V110.134H57.112V112.756ZM46.6231 104.889H20.3998V102.267H46.6231V104.889ZM30.8898 97.023V5.2461H36.1343V97.023H30.8898ZM100.097 60.5649C85.8258 60.5649 72.1812 71.3299 59.2421 71.329H59.2384C52.577 71.328 46.897 68.4269 41.4308 62.2148V14.2898C46.827 18.9667 52.6979 21.2546 59.2384 21.2546C73.491 21.2546 87.1711 10.4905 100.098 10.4905C106.758 10.4905 112.438 13.3919 117.906 19.6047V57.0433C104.525 45.4418 90.8864 50.8277 78.7049 55.6413C72.9379 57.9198 67.4904 60.0728 62.0678 60.6779C60.6284 60.838 59.5917 62.1351 59.7518 63.5745C59.912 65.0139 61.2072 66.0496 62.6484 65.8905C68.7667 65.2087 74.7987 62.8253 80.6322 60.5197C94.0805 55.205 105.724 50.6041 117.905 64.4362V67.5294C112.509 62.8524 106.638 60.5646 100.098 60.5646L100.097 60.5649Z" fill="white"/>
<path d="M12.5339 52.4453C16.8719 52.4453 20.4005 48.9165 20.4005 44.5788C20.4005 40.2411 16.8717 36.7123 12.5339 36.7123C8.19623 36.7123 4.66742 40.2411 4.66742 44.5788C4.66742 48.9165 8.19623 52.4453 12.5339 52.4453ZM12.5339 41.9565C13.9799 41.9565 15.1563 43.1327 15.1563 44.5788C15.1563 46.0249 13.98 47.2011 12.5339 47.2011C11.0878 47.2011 9.91161 46.0249 9.91161 44.5788C9.91161 43.1327 11.0878 41.9565 12.5339 41.9565Z" fill="white"/>
<path d="M99.0667 89.1553C93.2829 89.1553 88.5779 93.8603 88.5779 99.6441C88.5779 105.428 93.2829 110.133 99.0667 110.133C104.851 110.133 109.556 105.428 109.556 99.6441C109.556 93.8603 104.851 89.1553 99.0667 89.1553ZM99.0667 104.889C96.1749 104.889 93.8223 102.536 93.8223 99.6441C93.8223 96.7522 96.1748 94.3997 99.0667 94.3997C101.959 94.3997 104.311 96.7522 104.311 99.6441C104.311 102.536 101.959 104.889 99.0667 104.889Z" fill="white"/>
<path d="M122.668 89.155C122.668 90.6029 121.494 91.7774 120.046 91.7774C118.598 91.7774 117.424 90.603 117.424 89.155C117.424 87.7071 118.598 86.5327 120.046 86.5327C121.494 86.5327 122.668 87.7071 122.668 89.155Z" fill="white"/>
<path d="M80.7119 104.89C80.7119 106.338 79.5375 107.512 78.0895 107.512C76.6415 107.512 75.4672 106.338 75.4672 104.89C75.4672 103.442 76.6415 102.267 78.0895 102.267C79.5375 102.267 80.7119 103.442 80.7119 104.89Z" fill="white"/>
<path d="M17.7794 76.0436C17.7794 77.4914 16.605 78.6659 15.157 78.6659C13.709 78.6659 12.5347 77.4916 12.5347 76.0436C12.5347 74.5956 13.709 73.4213 15.157 73.4213C16.605 73.4213 17.7794 74.5956 17.7794 76.0436Z" fill="white"/>
<path d="M17.7794 18.356C17.7794 19.8038 16.605 20.9783 15.157 20.9783C13.709 20.9783 12.5347 19.8039 12.5347 18.356C12.5347 16.908 13.709 15.7336 15.157 15.7336C16.605 15.7336 17.7794 16.908 17.7794 18.356Z" fill="white"/>
<path d="M67.6007 5.24477C67.6007 6.69262 66.4264 7.8671 64.9784 7.8671C63.5304 7.8671 62.3561 6.69273 62.3561 5.24477C62.3561 3.7968 63.5304 2.62244 64.9784 2.62244C66.4264 2.62244 67.6007 3.7968 67.6007 5.24477Z" fill="white"/>
<path d="M127.911 10.4893C127.911 11.9371 126.737 13.1116 125.289 13.1116C123.841 13.1116 122.667 11.9372 122.667 10.4893C122.667 9.04131 123.841 7.86694 125.289 7.86694C126.737 7.86694 127.911 9.04131 127.911 10.4893Z" fill="white"/>
<path d="M57.112 62.9344C57.112 64.3822 55.9377 65.5567 54.4897 65.5567C53.0417 65.5567 51.8674 64.3823 51.8674 62.9344C51.8674 61.4864 53.0417 60.312 54.4897 60.312C55.9377 60.312 57.112 61.4864 57.112 62.9344Z" fill="white"/>
</g>
<defs>
<filter id="filter0_d_86_8" x="0.666748" y="0" width="131.245" height="126" filterUnits="userSpaceOnUse" color-interpolation-filters="sRGB">
<feFlood flood-opacity="0" result="BackgroundImageFix"/>
<feColorMatrix in="SourceAlpha" type="matrix" values="0 0 0 0 0 0 0 0 0 0 0 0 0 0 0 0 0 0 127 0" result="hardAlpha"/>
<feOffset dy="4"/>
<feGaussianBlur stdDeviation="2"/>
<feComposite in2="hardAlpha" operator="out"/>
<feColorMatrix type="matrix" values="0 0 0 0 0 0 0 0 0 0 0 0 0 0 0 0 0 0 0.25 0"/>
<feBlend mode="normal" in2="BackgroundImageFix" result="effect1_dropShadow_86_8"/>
<feBlend mode="normal" in="SourceGraphic" in2="effect1_dropShadow_86_8" result="shape"/>
</filter>
</defs>
</svg>
