<svg width="92" height="92" viewBox="0 0 92 92" fill="none" xmlns="http://www.w3.org/2000/svg">
<g filter="url(#filter0_d_187_214)">
<path d="M29.2001 64.3994C29.6901 64.3994 30.1976 64.3819 30.6876 64.3469L30.5126 61.5469C30.0751 61.5819 29.6376 61.5819 29.2001 61.5819C26.0677 61.5819 23.1451 60.9169 20.9752 59.7094C19.0853 58.6595 18.0002 57.2944 18.0002 55.982C18.0002 55.6669 18.0527 55.352 18.1752 55.0545L15.5503 54.092C15.3228 54.687 15.2178 55.3345 15.2178 55.9644C15.2003 60.707 21.3427 64.3994 29.2002 64.3994L29.2001 64.3994Z" fill="white"/>
<path d="M5.39999 9.79992C8.49741 9.79992 11 12.3025 11 15.3999C11 16.1699 11.63 16.7999 12.3999 16.7999C13.1699 16.7999 13.7999 16.1699 13.7999 15.3999C13.7999 12.3025 16.3025 9.79992 19.3999 9.79992C20.1699 9.79992 20.7999 9.16993 20.7999 8.39993C20.7999 7.62994 20.1699 6.99995 19.3999 6.99995C16.3025 6.99995 13.7999 4.4974 13.7999 1.39999C13.7999 0.629995 13.1699 0 12.3999 0C11.63 0 11 0.629995 11 1.39999C11 4.4974 8.49741 6.99995 5.39999 6.99995C4.63 6.99995 4 7.62994 4 8.39993C4 9.16993 4.63 9.79992 5.39999 9.79992ZM12.3999 6.03739C13.0299 6.96489 13.8174 7.76986 14.7625 8.39993C13.835 9.02993 13.03 9.81743 12.3999 10.7625C11.77 9.83498 10.9825 9.03001 10.0374 8.39993C10.9824 7.76994 11.7699 6.98244 12.3999 6.03739Z" fill="white"/>
<path d="M30.774 44.4316L32.6815 42.3841C24.7366 35.0166 24.2816 22.6274 31.649 14.6819C37.8615 7.97937 47.8713 6.47442 55.7992 11.0245L57.1992 8.592C46.4718 2.41461 32.7866 6.10706 26.6091 16.8169C21.3766 25.8643 23.1091 37.3271 30.774 44.4311L30.774 44.4316Z" fill="white"/>
<path d="M46 47.5995C42.8151 47.5995 39.6827 46.8295 36.8476 45.342L35.5352 47.8095C46.4725 53.5845 60.0342 49.3845 65.8101 38.4471C70.255 30.0297 68.8901 19.74 62.4327 12.7576L60.3852 14.6652C67.7527 22.6101 67.2802 34.9994 59.3352 42.3674C55.6952 45.7273 50.9353 47.5998 46.0003 47.5998L46 47.5995Z" fill="white"/>
<path d="M45.3167 12.775L32.7168 19.7749C32.2793 20.0199 31.9993 20.4924 31.9993 20.9999V34.9998C31.9993 35.5073 32.2793 35.9798 32.7168 36.2248L45.3167 43.2247C45.7367 43.4522 46.2617 43.4522 46.6817 43.2247L59.2816 36.2248C59.7191 35.9798 59.9991 35.5073 59.9991 34.9998V20.9999C59.9991 20.4924 59.7191 20.0199 59.2816 19.7749L46.6817 12.775C46.2617 12.5475 45.7367 12.5475 45.3167 12.775ZM57.1992 34.178L45.9992 40.408L34.7993 34.178V21.8231L45.9992 15.593L57.1992 21.8231V34.178Z" fill="white"/>
<path d="M39.7695 22.5405L41.0295 25.043L45.9469 22.5931L51.617 25.9881V30.8006H54.417V25.2006C54.417 24.7106 54.1545 24.2556 53.7345 23.9931L46.7345 19.7932C46.332 19.5482 45.8245 19.5307 45.387 19.7407L39.7695 22.5405Z" fill="white"/>
<path d="M80.2478 34.4397C80.7553 32.3223 81.0003 30.1697 81.0003 27.9998C81.0003 12.5649 68.4354 0 53.0005 0H46.0005C30.5656 0 18.0008 12.5649 18.0008 27.9998C18.0008 31.3598 18.5958 34.6672 19.7857 37.8171C15.5858 39.1296 11.9458 41.2821 9.16325 44.1171C5.78584 47.5471 4.00073 51.6596 4.00073 55.9996V65.7995C4.00073 70.7519 6.67815 75.3719 11.5607 78.8194C16.2856 82.1619 22.5507 83.9993 29.2005 83.9993C35.8504 83.9993 42.1155 82.1619 46.8404 78.8194C49.3604 77.0344 51.3029 74.9344 52.5803 72.642C55.8878 73.6745 59.3353 74.1995 62.8003 74.1995C69.4501 74.1995 75.7152 72.3621 80.4401 69.0195C85.3226 65.572 88 60.9521 88 55.9996V47.5997C88 42.6122 85.1826 37.8698 80.2476 34.4398L80.2478 34.4397ZM85.2002 47.5996C85.2002 56.0871 75.1553 62.9995 62.8004 62.9995C59.9654 63.017 57.1304 62.632 54.4005 61.8795V59.0095C57.1304 59.8144 59.9654 60.217 62.8004 60.1995C67.9104 60.1995 72.7403 58.957 76.3977 56.7169C80.2652 54.3369 82.4002 51.0995 82.4002 47.5995C82.4002 44.7821 80.9652 42.0697 78.3403 39.8822C78.7428 39.0422 79.0928 38.1671 79.4078 37.2921C83.1178 40.1271 85.2002 43.8021 85.2002 47.5995L85.2002 47.5996ZM64.2004 65.7643C66.0903 65.6943 67.9629 65.4668 69.8003 65.0818V70.6117C67.9629 71.0317 66.0903 71.2767 64.2004 71.3467V65.7643ZM72.5478 64.3993C74.5078 63.8218 76.4153 63.0168 78.2003 62.0193V67.1642C76.4502 68.2842 74.5777 69.1943 72.6003 69.8417V64.3991L72.5478 64.3993ZM72.9328 12.5997C74.2628 14.3147 75.3653 16.2046 76.2227 18.1997H72.2327C71.4977 16.2397 70.5352 14.3498 69.3802 12.5997H72.9328ZM79.6003 47.5994C79.6003 50.0844 77.9377 52.482 74.9278 54.3194C71.7079 56.2968 67.4029 57.3994 62.8004 57.3994C59.948 57.4169 57.113 56.9619 54.4005 56.0694V55.9994V55.9644C63.7105 55.4919 72.1795 50.4169 76.9923 42.4195C78.6897 43.977 79.5998 45.7795 79.5998 47.5995L79.6003 47.5994ZM73.9653 26.5996C73.8778 24.7097 73.5803 22.8371 73.1078 20.9996H77.2028C77.7278 22.8196 78.0428 24.7097 78.1478 26.5996H73.9653ZM73.9653 29.3996H78.1653C78.0603 31.2895 77.7453 33.1795 77.2203 34.9995H73.1253C73.5803 33.1621 73.8778 31.2895 73.9653 29.3996H73.9653ZM72.2328 37.7995H76.2229C75.3654 39.7945 74.2629 41.6844 72.933 43.3995H69.3805C70.5355 41.6494 71.498 39.7595 72.233 37.7995H72.2328ZM67.2629 46.1994H70.413C67.5081 48.982 63.9731 51.0295 60.1056 52.1844C62.8006 50.5919 65.233 48.5794 67.2629 46.1994ZM70.413 9.79973H67.2629C65.2329 7.41975 62.818 5.40729 60.1056 3.81482C63.9731 4.96982 67.5081 7.01735 70.413 9.79973ZM46.0004 2.79979C59.8953 2.79979 71.2002 14.1047 71.2002 27.9996C71.2002 41.8945 59.8953 53.1994 46.0004 53.1994C32.1055 53.1994 20.8006 41.8945 20.8006 27.9996C20.8006 14.1047 32.1055 2.79979 46.0004 2.79979ZM11.1575 46.0602C13.6424 43.5403 17.0549 41.5452 20.9049 40.3902C21.3249 41.2477 21.7974 42.0702 22.3049 42.8752C14.7099 44.9052 9.60006 50.0501 9.60006 56C9.60006 58.24 10.3526 60.4449 11.7525 62.4225L14.0275 60.795C12.9426 59.29 12.4 57.68 12.4 56.0176C12.4 53.5327 13.6075 51.1876 15.9 49.2101C17.9826 47.4076 20.835 46.0601 24.0374 45.3777C24.7199 46.2352 25.4374 47.0402 26.2073 47.8102C23.2673 48.1777 20.5899 49.1051 18.6123 50.4701L20.2048 52.7802C22.3747 51.2577 25.6473 50.4002 29.1998 50.4002V50.3827C32.4897 52.8676 36.2872 54.5827 40.3296 55.4227C40.3821 55.6152 40.3996 55.8077 40.3996 56.0002C40.3996 57.9602 38.0022 59.9376 34.4321 60.9176L35.1846 63.6126C40.137 62.2476 43.217 59.3251 43.217 55.9826V55.8426C44.1445 55.9301 45.072 55.9826 46.017 55.9826H51.6169C51.6169 65.2399 41.5721 72.7824 29.2171 72.7824C16.8622 72.7824 6.79972 65.2575 6.79972 56.0002C6.79972 52.3952 8.3047 48.9652 11.1571 46.0602H11.1575ZM13.8 71.5224C15.5675 72.5724 17.44 73.43 19.4 74.0599V79.6424C17.4226 78.9949 15.5501 78.0849 13.8 76.965V71.5224ZM22.2 74.8299C24.0374 75.2324 25.91 75.4774 27.7999 75.5649V81.1649C25.91 81.0949 24.0374 80.8324 22.2 80.4299V74.8299ZM30.5999 75.5649C32.4898 75.4949 34.3624 75.2499 36.1998 74.8299V80.4125C34.3624 80.8325 32.4898 81.0774 30.5999 81.1475V75.5649ZM38.9998 74.0775C40.9598 73.4475 42.8323 72.59 44.5998 71.54V76.9826C42.8497 78.1025 40.9772 79.0126 38.9998 79.66V74.0775ZM6.80009 65.8001V65.0126C7.95508 66.7276 9.37254 68.2676 11.0001 69.5626V74.76C8.35751 72.24 6.80009 69.1426 6.80009 65.8001V65.8001ZM47.3997 74.76V69.5626C49.0273 68.2676 50.4447 66.7276 51.5997 65.0126V65.8001C51.5997 69.1426 50.0422 72.24 47.3997 74.76V74.76ZM54.3997 65.8001V64.7676C56.6922 65.3451 59.0371 65.6776 61.3996 65.7651V71.365C58.7921 71.26 56.2022 70.8225 53.7171 70.07C54.1721 68.6876 54.3996 67.2526 54.3996 65.8L54.3997 65.8001ZM85.1994 56.0002C85.1994 59.3427 83.642 62.4401 80.9995 64.9601V60.2001C82.6094 59.0276 84.027 57.5926 85.1994 56.0002Z" fill="white"/>
<path d="M18.4368 64.5738L17.0718 67.0237C20.5543 68.9663 24.7367 69.9987 29.1992 69.9987C37.4066 69.9987 44.809 66.3237 47.6086 60.8289L45.1237 59.5514C42.7962 64.1189 36.3913 67.1814 29.1989 67.1814C25.2789 67.1989 21.4639 66.2714 18.4364 64.5739L18.4368 64.5738Z" fill="white"/>
<path d="M62.7996 78.3993C60.5421 78.3993 58.2846 78.1893 56.0622 77.7868L55.5547 80.5343C57.9521 80.9718 60.3847 81.1993 62.8172 81.1993C69.2571 81.1993 75.5396 79.6418 80.5098 76.8243L79.1273 74.3918C74.5599 76.9643 68.7674 78.3993 62.7995 78.3993L62.7996 78.3993Z" fill="white"/>
<path d="M81.5598 72.7818L83.2398 75.0218C84.3073 74.2343 85.3047 73.3418 86.2322 72.3792L84.1847 70.4717C83.3798 71.3117 82.5048 72.0816 81.5598 72.7818Z" fill="white"/>
<path d="M12.1025 19.2493C11.8575 20.2118 11.6475 21.1918 11.49 22.1718L14.2549 22.6268C14.4124 21.7343 14.6049 20.8243 14.8324 19.9494L12.1025 19.2493Z" fill="white"/>
<path d="M11.1232 25.0764C11.0357 26.0389 11.0007 27.019 11.0007 27.999C11.0007 30.9564 11.3682 33.8964 12.1032 36.749L14.8156 36.049C14.1331 33.4241 13.8006 30.7116 13.8006 27.9991C13.8006 27.1067 13.8356 26.1966 13.9056 25.3217L11.1232 25.0764Z" fill="white"/>
</g>
<defs>
<filter id="filter0_d_187_214" x="0" y="0" width="92" height="91.9993" filterUnits="userSpaceOnUse" color-interpolation-filters="sRGB">
<feFlood flood-opacity="0" result="BackgroundImageFix"/>
<feColorMatrix in="SourceAlpha" type="matrix" values="0 0 0 0 0 0 0 0 0 0 0 0 0 0 0 0 0 0 127 0" result="hardAlpha"/>
<feOffset dy="4"/>
<feGaussianBlur stdDeviation="2"/>
<feComposite in2="hardAlpha" operator="out"/>
<feColorMatrix type="matrix" values="0 0 0 0 0 0 0 0 0 0 0 0 0 0 0 0 0 0 0.25 0"/>
<feBlend mode="normal" in2="BackgroundImageFix" result="effect1_dropShadow_187_214"/>
<feBlend mode="normal" in="SourceGraphic" in2="effect1_dropShadow_187_214" result="shape"/>
</filter>
</defs>
</svg>
