<svg width="108" height="108" viewBox="0 0 108 108" fill="none" xmlns="http://www.w3.org/2000/svg">
<g filter="url(#filter0_d_187_272)">
<path d="M93.3123 86.4967C91.4333 84.6185 88.9341 83.5834 86.2751 83.5834H85.5928V79.5055C90.1557 79.0559 94.3892 77.0614 97.6745 73.7743C105.434 66.0148 105.434 53.3902 97.6745 45.6312C92.8103 40.767 85.9028 38.7735 79.1812 40.2962C79.1216 40.3104 79.0799 40.3495 79.0221 40.3682L78.4562 39.8022C76.9059 38.2502 74.3782 38.2502 72.828 39.8022L69.6723 42.9588C68.8381 43.7931 68.4685 44.9054 68.5298 45.9972L61.2305 47.822C60.5339 47.9952 59.9867 48.5301 59.7939 49.2213C59.6029 49.9116 59.7974 50.6525 60.3056 51.1598L62.8784 53.7326L56.3255 60.2855C55.5472 61.0637 55.5472 62.3218 56.3255 63.0991L61.7121 68.4866V83.5837H53.0695C50.4105 83.5837 47.9112 84.6187 46.0323 86.4969L36.424 96.1071C35.6458 96.8853 35.6458 98.1433 36.424 98.9207C36.8123 99.3089 37.3222 99.5044 37.8313 99.5044C38.3404 99.5044 38.8503 99.3089 39.2386 98.9216L48.8469 89.3114C49.9743 88.1849 51.4731 87.5639 53.0695 87.5639H63.7022C64.8029 87.5639 65.6922 86.6719 65.6922 85.5738V67.6632C65.6922 67.1354 65.4835 66.6281 65.1094 66.2559L60.5457 61.693L67.0986 55.1401C67.8769 54.3619 67.8769 53.1039 67.0986 52.3265L65.6043 50.8322L70.1539 49.6941C70.3094 49.6541 70.4586 49.591 70.5999 49.5146L80.7893 59.704C81.5658 60.4805 82.5839 60.8679 83.6029 60.8679C84.622 60.867 85.641 60.4797 86.4166 59.7032L86.588 59.5317L96.1263 69.07C96.192 69.1357 96.2755 69.1615 96.3475 69.2157C95.8962 69.8207 95.412 70.4097 94.863 70.9588C91.854 73.9677 87.8558 75.6239 83.603 75.6239C79.3501 75.6239 75.3523 73.9679 72.3449 70.9615C71.5666 70.1832 70.3086 70.1832 69.5312 70.9615C68.753 71.738 68.753 72.9978 69.5312 73.7751C72.8166 77.0604 77.0501 79.0569 81.6129 79.5063V85.5743C81.6129 86.6724 82.5022 87.5644 83.603 87.5644H86.2754C87.871 87.5644 89.3715 88.1854 90.498 89.3119L100.106 98.9221C100.495 99.3094 101.004 99.5049 101.514 99.5049C102.023 99.5049 102.533 99.3094 102.921 98.9221C103.699 98.1438 103.699 96.8858 102.921 96.1084L93.3123 86.4967ZM83.6028 56.8889L72.4859 45.772L75.6425 42.6154L86.7594 53.7323L83.6028 56.8889ZM89.4015 56.7174L89.573 56.546C91.125 54.9939 91.125 52.4698 89.573 50.9178L82.4922 43.837C87.0596 43.5127 91.5533 45.1385 94.8609 48.4444C99.5117 53.0953 100.676 59.9291 98.3595 65.6746L89.4015 56.7174Z" fill="white"/>
<path d="M101.514 0H97.5338C92.0469 0 87.5834 4.46345 87.5834 9.95038C87.5834 13.2421 84.9049 15.9206 81.6132 15.9206C76.1263 15.9206 71.6628 20.3841 71.6628 25.871V33.8313C71.6628 34.9294 72.5522 35.8214 73.6529 35.8214C74.7537 35.8214 75.643 34.9294 75.643 33.8313V25.871C75.643 22.5793 78.3215 19.9008 81.6132 19.9008C87.1001 19.9008 91.5636 15.4373 91.5636 9.95038C91.5636 6.65868 94.2421 3.98015 97.5338 3.98015H101.514C102.615 3.98015 103.504 3.08816 103.504 1.99008C103.504 0.891986 102.615 0 101.514 0Z" fill="white"/>
<path d="M51.141 39.1942C53.6446 36.6905 57.718 36.6905 60.2216 39.1942L62.2632 41.2375C63.0415 42.0158 64.2995 42.0158 65.0769 41.2375C65.8551 40.4611 65.8551 39.2013 65.0769 38.4239L63.0353 36.3805C58.9814 32.3249 52.3821 32.3249 48.2946 36.4125C46.3063 38.4026 43.1861 38.8584 40.7128 37.5293C39.7497 37.0042 38.5379 37.3702 38.0181 38.3369C37.4966 39.3044 37.8608 40.5117 38.8283 41.0315C40.3591 41.8578 42.04 42.2576 43.7182 42.2576C46.4306 42.2584 49.1315 41.2083 51.1411 39.1942L51.141 39.1942Z" fill="white"/>
<path d="M34.8043 33.7517C33.7515 33.4532 32.6552 34.0307 32.3389 35.0853C32.0209 36.1398 32.6179 37.2548 33.6724 37.573C33.8519 37.6325 34.0482 37.6529 34.2277 37.6529C35.085 37.6529 35.8793 37.0959 36.1378 36.2403C36.4576 35.1849 35.8606 34.0708 34.8043 33.7519L34.8043 33.7517Z" fill="white"/>
<path d="M28.7293 38.0866C29.6924 37.5571 30.0451 36.3453 29.5156 35.3839C28.9861 34.4209 27.7761 34.0682 26.8148 34.5977C25.953 35.0712 25.165 35.6647 24.4622 36.3648C21.9585 38.8684 17.8851 38.8684 15.3815 36.3648L7.39733 28.3806C6.61906 27.6023 5.36106 27.6023 4.5837 28.3806C3.80543 29.1588 3.80543 30.4168 4.5837 31.1942L12.5679 39.1784C14.5962 41.2067 17.2588 42.2194 19.9214 42.2194C22.584 42.2194 25.2484 41.2066 27.2731 39.1784C27.7084 38.7457 28.1979 38.377 28.7292 38.0865L28.7293 38.0866Z" fill="white"/>
<path d="M47.7821 1.99023C43.3923 1.99023 39.8218 5.56077 39.8218 9.95053C39.8218 14.3403 43.3923 17.9108 47.7821 17.9108C52.1718 17.9108 55.7424 14.3403 55.7424 9.95053C55.7424 5.56077 52.1718 1.99023 47.7821 1.99023ZM47.7821 13.9307C45.5868 13.9307 43.8019 12.1458 43.8019 9.95053C43.8019 7.75524 45.5868 5.97038 47.7821 5.97038C49.9774 5.97038 51.7622 7.75524 51.7622 9.95053C51.7622 12.1458 49.9774 13.9307 47.7821 13.9307Z" fill="white"/>
<path d="M35.8416 27.8611C35.8416 31.1528 38.5201 33.8313 41.8118 33.8313C45.1035 33.8313 47.782 31.1528 47.782 27.8611C47.782 24.5694 45.1035 21.8909 41.8118 21.8909C38.5201 21.8909 35.8416 24.5694 35.8416 27.8611ZM41.8118 25.871C42.9099 25.871 43.8019 26.7648 43.8019 27.8611C43.8019 28.9574 42.9099 29.8512 41.8118 29.8512C40.7137 29.8512 39.8217 28.9574 39.8217 27.8611C39.8217 26.7648 40.7137 25.871 41.8118 25.871Z" fill="white"/>
<path d="M28.9454 14.8539C28.1973 14.1076 26.8754 14.1076 26.1318 14.8539L20.5036 20.4839C19.7254 21.2621 19.7254 22.5201 20.5036 23.2975L26.1318 28.9275C26.5058 29.3015 27.0096 29.5103 27.5391 29.5103C28.0685 29.5103 28.5741 29.3015 28.9463 28.9275L34.5763 23.2975C34.9503 22.9235 35.1591 22.4179 35.1591 21.8902C35.1591 21.3625 34.9503 20.8552 34.5763 20.483L28.9454 14.8539ZM27.539 24.7074L24.7245 21.891L27.5381 19.0747L30.3545 21.891L27.539 24.7074Z" fill="white"/>
<path d="M5.99 15.9212H17.9305C18.6208 15.9212 19.2595 15.5632 19.6238 14.9777C19.9881 14.3905 20.02 13.6584 19.7117 13.041L13.7415 1.10052C13.0645 -0.249001 10.8576 -0.249001 10.1817 1.10052L4.21145 13.041C3.90316 13.6575 3.93516 14.3905 4.2994 14.9777C4.66098 15.5632 5.29976 15.9212 5.99008 15.9212H5.99ZM11.9602 6.44074L14.7109 11.9411H9.2096L11.9602 6.44074Z" fill="white"/>
<path d="M77.6329 15.9206C78.7337 15.9206 79.623 15.0286 79.623 13.9305V1.99008C79.623 0.891986 78.7337 0 77.6329 0H65.6925C64.5917 0 63.7024 0.891986 63.7024 1.99008V13.9305C63.7024 15.0286 64.5917 15.9206 65.6925 15.9206H77.6329ZM67.6825 3.98015H75.6428V11.9405H67.6825V3.98015Z" fill="white"/>
<path d="M56.8133 15.9022C56.1408 16.0613 55.6015 16.5552 55.382 17.21L51.8638 27.7635C51.6248 28.4778 51.8123 29.2676 52.3436 29.7998C52.7221 30.1783 53.2311 30.3826 53.7508 30.3826C53.9596 30.3826 54.1746 30.3488 54.3798 30.2813L64.9352 26.7631C65.5882 26.5445 66.0831 26.0026 66.243 25.3318C66.4002 24.6611 66.2012 23.9548 65.7117 23.467L58.6746 16.4299C58.1886 15.9439 57.4841 15.7432 56.8133 15.9022V15.9022ZM56.8986 25.2476L58.1406 21.5242L60.6219 24.0083L56.8986 25.2476Z" fill="white"/>
<path d="M37.8316 57.7121H39.8217C40.9225 57.7121 41.8118 56.8201 41.8118 55.722C41.8118 54.6239 40.9225 53.7319 39.8217 53.7319H37.8316C36.7309 53.7319 35.8416 54.6239 35.8416 55.722C35.8416 56.8201 36.7309 57.7121 37.8316 57.7121Z" fill="white"/>
<path d="M29.8713 53.7319H27.8812C26.7804 53.7319 25.8911 54.6239 25.8911 55.722C25.8911 56.8201 26.7804 57.7121 27.8812 57.7121H29.8713C30.972 57.7121 31.8613 56.8201 31.8613 55.722C31.8613 54.6239 30.972 53.7319 29.8713 53.7319Z" fill="white"/>
<path d="M33.8514 47.7617C32.7507 47.7617 31.8613 48.6537 31.8613 49.7518V51.7419C31.8613 52.84 32.7507 53.7319 33.8514 53.7319C34.9522 53.7319 35.8415 52.84 35.8415 51.7419V49.7518C35.8415 48.6537 34.9522 47.7617 33.8514 47.7617Z" fill="white"/>
<path d="M35.8415 59.7022C35.8415 58.6041 34.9522 57.7122 33.8514 57.7122C32.7507 57.7122 31.8613 58.6041 31.8613 59.7022V61.6923C31.8613 62.7904 32.7507 63.6824 33.8514 63.6824C34.9522 63.6824 35.8415 62.7904 35.8415 61.6923V59.7022Z" fill="white"/>
<path d="M17.9306 61.6924H15.9405C14.8398 61.6924 13.9504 62.5844 13.9504 63.6825C13.9504 64.7805 14.8398 65.6725 15.9405 65.6725H17.9306C19.0313 65.6725 19.9207 64.7805 19.9207 63.6825C19.9207 62.5844 19.0313 61.6924 17.9306 61.6924Z" fill="white"/>
<path d="M7.98015 61.6924H5.99007C4.88932 61.6924 4 62.5844 4 63.6825C4 64.7805 4.88932 65.6725 5.99007 65.6725H7.98015C9.0809 65.6725 9.97022 64.7805 9.97022 63.6825C9.97022 62.5844 9.0809 61.6924 7.98015 61.6924Z" fill="white"/>
<path d="M11.9603 61.6924C13.061 61.6924 13.9504 60.8004 13.9504 59.7023V57.7122C13.9504 56.6142 13.061 55.7222 11.9603 55.7222C10.8595 55.7222 9.97021 56.6142 9.97021 57.7122V59.7023C9.97021 60.8004 10.8595 61.6924 11.9603 61.6924Z" fill="white"/>
<path d="M11.9603 65.6724C10.8595 65.6724 9.97021 66.5643 9.97021 67.6624V69.6525C9.97021 70.7506 10.8595 71.6426 11.9603 71.6426C13.061 71.6426 13.9504 70.7506 13.9504 69.6525V67.6624C13.9504 66.5643 13.061 65.6724 11.9603 65.6724Z" fill="white"/>
<path d="M101.514 27.8611H99.5238C98.423 27.8611 97.5337 28.7531 97.5337 29.8512C97.5337 30.9492 98.423 31.8412 99.5238 31.8412H101.514C102.615 31.8412 103.504 30.9492 103.504 29.8512C103.504 28.7531 102.615 27.8611 101.514 27.8611Z" fill="white"/>
<path d="M91.5634 27.8611H89.5733C88.4726 27.8611 87.5833 28.7531 87.5833 29.8512C87.5833 30.9492 88.4726 31.8412 89.5733 31.8412H91.5634C92.6642 31.8412 93.5535 30.9492 93.5535 29.8512C93.5535 28.7531 92.6642 27.8611 91.5634 27.8611Z" fill="white"/>
<path d="M95.5435 27.8611C96.6443 27.8611 97.5336 26.9691 97.5336 25.871V23.8809C97.5336 22.7829 96.6443 21.8909 95.5435 21.8909C94.4428 21.8909 93.5535 22.7829 93.5535 23.8809V25.871C93.5535 26.9691 94.4428 27.8611 95.5435 27.8611Z" fill="white"/>
<path d="M93.5535 35.8215C93.5535 36.9195 94.4428 37.8115 95.5435 37.8115C96.6443 37.8115 97.5336 36.9195 97.5336 35.8215V33.8314C97.5336 32.7333 96.6443 31.8413 95.5435 31.8413C94.4428 31.8413 93.5535 32.7333 93.5535 33.8314V35.8215Z" fill="white"/>
</g>
<defs>
<filter id="filter0_d_187_272" x="0" y="0" width="107.505" height="107.505" filterUnits="userSpaceOnUse" color-interpolation-filters="sRGB">
<feFlood flood-opacity="0" result="BackgroundImageFix"/>
<feColorMatrix in="SourceAlpha" type="matrix" values="0 0 0 0 0 0 0 0 0 0 0 0 0 0 0 0 0 0 127 0" result="hardAlpha"/>
<feOffset dy="4"/>
<feGaussianBlur stdDeviation="2"/>
<feComposite in2="hardAlpha" operator="out"/>
<feColorMatrix type="matrix" values="0 0 0 0 0 0 0 0 0 0 0 0 0 0 0 0 0 0 0.25 0"/>
<feBlend mode="normal" in2="BackgroundImageFix" result="effect1_dropShadow_187_272"/>
<feBlend mode="normal" in="SourceGraphic" in2="effect1_dropShadow_187_272" result="shape"/>
</filter>
</defs>
</svg>
