<svg width="238" height="27" viewBox="0 0 238 27" fill="none" xmlns="http://www.w3.org/2000/svg">
<g filter="url(#filter0_d_123_60)">
<path d="M17.6371 4.974C18.8251 4.974 19.7731 5.34 20.4811 6.072C21.2011 6.804 21.5611 7.908 21.5611 9.384V15H17.4931V10.086C17.4931 8.958 17.1271 8.394 16.3951 8.394C16.0111 8.394 15.6991 8.538 15.4591 8.826C15.2311 9.114 15.1171 9.57 15.1171 10.194V15H11.0491V10.086C11.0491 8.958 10.6831 8.394 9.95108 8.394C9.56708 8.394 9.25508 8.538 9.01508 8.826C8.78708 9.114 8.67308 9.57 8.67308 10.194V15H4.60508V5.154H8.47508V6.072C9.20708 5.34 10.1371 4.974 11.2651 4.974C11.9251 4.974 12.5191 5.1 13.0471 5.352C13.5751 5.592 14.0071 5.964 14.3431 6.468C14.7391 5.988 15.2191 5.622 15.7831 5.37C16.3471 5.106 16.9651 4.974 17.6371 4.974ZM33.9776 10.068C33.9776 10.128 33.9596 10.446 33.9236 11.022H27.0836C27.2276 11.394 27.4676 11.682 27.8036 11.886C28.1396 12.078 28.5596 12.174 29.0636 12.174C29.4956 12.174 29.8556 12.12 30.1436 12.012C30.4436 11.904 30.7676 11.718 31.1156 11.454L33.2396 13.596C32.2796 14.652 30.8456 15.18 28.9376 15.18C27.7496 15.18 26.7056 14.964 25.8056 14.532C24.9056 14.088 24.2096 13.476 23.7176 12.696C23.2256 11.916 22.9796 11.04 22.9796 10.068C22.9796 9.084 23.2196 8.208 23.6996 7.44C24.1916 6.66 24.8576 6.054 25.6976 5.622C26.5496 5.19 27.5036 4.974 28.5596 4.974C29.5556 4.974 30.4616 5.172 31.2776 5.568C32.1056 5.964 32.7596 6.546 33.2396 7.314C33.7316 8.082 33.9776 9 33.9776 10.068ZM28.5956 7.746C28.1756 7.746 27.8276 7.86 27.5516 8.088C27.2756 8.316 27.0956 8.64 27.0116 9.06H30.1796C30.0956 8.652 29.9156 8.334 29.6396 8.106C29.3636 7.866 29.0156 7.746 28.5956 7.746ZM42.5153 14.658C41.9033 15.006 41.0693 15.18 40.0133 15.18C38.6333 15.18 37.5713 14.85 36.8273 14.19C36.0833 13.518 35.7113 12.516 35.7113 11.184V8.664H34.3613V5.694H35.7113V2.94H39.7793V5.694H41.7953V8.664H39.7793V11.148C39.7793 11.448 39.8573 11.682 40.0133 11.85C40.1693 12.018 40.3733 12.102 40.6253 12.102C40.9733 12.102 41.2793 12.012 41.5433 11.832L42.5153 14.658ZM47.9506 4.974C49.6786 4.974 50.9986 5.364 51.9106 6.144C52.8226 6.912 53.2786 8.1 53.2786 9.708V15H49.4986V13.704C49.0306 14.688 48.1006 15.18 46.7086 15.18C45.9286 15.18 45.2626 15.048 44.7106 14.784C44.1706 14.508 43.7566 14.142 43.4686 13.686C43.1926 13.218 43.0546 12.696 43.0546 12.12C43.0546 11.148 43.4266 10.41 44.1706 9.906C44.9146 9.402 46.0426 9.15 47.5546 9.15H49.1926C49.0606 8.382 48.4426 7.998 47.3386 7.998C46.8946 7.998 46.4446 8.07 45.9886 8.214C45.5326 8.346 45.1426 8.532 44.8186 8.772L43.5226 6.09C44.0866 5.742 44.7646 5.472 45.5566 5.28C46.3606 5.076 47.1586 4.974 47.9506 4.974ZM47.9326 12.732C48.2206 12.732 48.4786 12.654 48.7066 12.498C48.9346 12.342 49.1026 12.108 49.2106 11.796V11.112H48.2026C47.3746 11.112 46.9606 11.388 46.9606 11.94C46.9606 12.168 47.0446 12.36 47.2126 12.516C47.3926 12.66 47.6326 12.732 47.9326 12.732ZM65.8229 5.154L61.8629 15H57.6509L53.6909 5.154H57.8669L59.8469 10.428L61.9709 5.154H65.8229ZM76.6573 10.068C76.6573 10.128 76.6393 10.446 76.6033 11.022H69.7633C69.9073 11.394 70.1473 11.682 70.4833 11.886C70.8193 12.078 71.2393 12.174 71.7433 12.174C72.1753 12.174 72.5353 12.12 72.8233 12.012C73.1233 11.904 73.4473 11.718 73.7953 11.454L75.9193 13.596C74.9593 14.652 73.5253 15.18 71.6173 15.18C70.4293 15.18 69.3853 14.964 68.4853 14.532C67.5853 14.088 66.8893 13.476 66.3973 12.696C65.9053 11.916 65.6593 11.04 65.6593 10.068C65.6593 9.084 65.8993 8.208 66.3793 7.44C66.8713 6.66 67.5373 6.054 68.3773 5.622C69.2293 5.19 70.1833 4.974 71.2393 4.974C72.2353 4.974 73.1413 5.172 73.9573 5.568C74.7853 5.964 75.4393 6.546 75.9193 7.314C76.4113 8.082 76.6573 9 76.6573 10.068ZM71.2753 7.746C70.8553 7.746 70.5073 7.86 70.2313 8.088C69.9553 8.316 69.7753 8.64 69.6913 9.06H72.8593C72.7753 8.652 72.5953 8.334 72.3193 8.106C72.0433 7.866 71.6953 7.746 71.2753 7.746ZM81.811 6.216C82.531 5.388 83.593 4.974 84.997 4.974V8.574C84.673 8.526 84.373 8.502 84.097 8.502C82.705 8.502 82.009 9.21 82.009 10.626V15H77.941V5.154H81.811V6.216ZM90.002 15.18C89.162 15.18 88.334 15.09 87.518 14.91C86.702 14.73 86.042 14.496 85.538 14.208L86.654 11.526C87.11 11.802 87.65 12.018 88.274 12.174C88.898 12.33 89.504 12.408 90.092 12.408C90.56 12.408 90.884 12.372 91.064 12.3C91.256 12.216 91.352 12.096 91.352 11.94C91.352 11.784 91.232 11.676 90.992 11.616C90.764 11.556 90.386 11.496 89.858 11.436C89.054 11.34 88.37 11.22 87.806 11.076C87.242 10.92 86.744 10.626 86.312 10.194C85.892 9.762 85.682 9.144 85.682 8.34C85.682 7.704 85.874 7.134 86.258 6.63C86.642 6.126 87.212 5.724 87.968 5.424C88.736 5.124 89.654 4.974 90.722 4.974C91.466 4.974 92.192 5.046 92.9 5.19C93.62 5.322 94.232 5.52 94.736 5.784L93.62 8.466C92.756 7.986 91.808 7.746 90.776 7.746C89.888 7.746 89.444 7.902 89.444 8.214C89.444 8.37 89.564 8.484 89.804 8.556C90.044 8.616 90.422 8.676 90.938 8.736C91.742 8.832 92.42 8.958 92.972 9.114C93.536 9.27 94.028 9.564 94.448 9.996C94.88 10.428 95.096 11.046 95.096 11.85C95.096 12.462 94.904 13.02 94.52 13.524C94.136 14.028 93.56 14.43 92.792 14.73C92.024 15.03 91.094 15.18 90.002 15.18ZM106.804 10.068C106.804 10.128 106.786 10.446 106.75 11.022H99.9097C100.054 11.394 100.294 11.682 100.63 11.886C100.966 12.078 101.386 12.174 101.89 12.174C102.322 12.174 102.682 12.12 102.97 12.012C103.27 11.904 103.594 11.718 103.942 11.454L106.066 13.596C105.106 14.652 103.672 15.18 101.764 15.18C100.576 15.18 99.5317 14.964 98.6317 14.532C97.7317 14.088 97.0357 13.476 96.5437 12.696C96.0517 11.916 95.8057 11.04 95.8057 10.068C95.8057 9.084 96.0457 8.208 96.5257 7.44C97.0177 6.66 97.6837 6.054 98.5237 5.622C99.3757 5.19 100.33 4.974 101.386 4.974C102.382 4.974 103.288 5.172 104.104 5.568C104.932 5.964 105.586 6.546 106.066 7.314C106.558 8.082 106.804 9 106.804 10.068ZM101.422 7.746C101.002 7.746 100.654 7.86 100.378 8.088C100.102 8.316 99.9217 8.64 99.8377 9.06H103.006C102.922 8.652 102.742 8.334 102.466 8.106C102.19 7.866 101.842 7.746 101.422 7.746ZM126.03 8.916C125.79 9.972 125.394 10.92 124.842 11.76L126.03 12.768L123.852 15.234L122.52 14.082C121.272 14.886 119.868 15.288 118.308 15.288C117.312 15.288 116.412 15.132 115.608 14.82C114.816 14.496 114.192 14.058 113.736 13.506C113.28 12.954 113.052 12.33 113.052 11.634C113.052 10.842 113.25 10.158 113.646 9.582C114.042 8.994 114.66 8.466 115.5 7.998C114.78 7.23 114.42 6.426 114.42 5.586C114.42 4.914 114.606 4.326 114.978 3.822C115.362 3.306 115.896 2.904 116.58 2.616C117.264 2.328 118.056 2.184 118.956 2.184C119.784 2.184 120.51 2.316 121.134 2.58C121.77 2.832 122.262 3.204 122.61 3.696C122.958 4.176 123.132 4.734 123.132 5.37C123.132 6.006 122.952 6.576 122.592 7.08C122.244 7.572 121.698 8.028 120.954 8.448L122.286 9.582C122.502 9.102 122.664 8.556 122.772 7.944L126.03 8.916ZM118.974 4.812C118.698 4.812 118.482 4.878 118.326 5.01C118.182 5.142 118.11 5.316 118.11 5.532C118.11 5.688 118.152 5.838 118.236 5.982C118.332 6.126 118.5 6.312 118.74 6.54C119.4 6.18 119.73 5.82 119.73 5.46C119.73 5.268 119.664 5.112 119.532 4.992C119.4 4.872 119.214 4.812 118.974 4.812ZM118.614 12.264C119.094 12.264 119.568 12.162 120.036 11.958L117.732 9.978C117.264 10.314 117.03 10.716 117.03 11.184C117.03 11.496 117.168 11.754 117.444 11.958C117.732 12.162 118.122 12.264 118.614 12.264ZM145.905 4.974C147.093 4.974 148.041 5.34 148.749 6.072C149.469 6.804 149.829 7.908 149.829 9.384V15H145.761V10.086C145.761 8.958 145.395 8.394 144.663 8.394C144.279 8.394 143.967 8.538 143.727 8.826C143.499 9.114 143.385 9.57 143.385 10.194V15H139.317V10.086C139.317 8.958 138.951 8.394 138.219 8.394C137.835 8.394 137.523 8.538 137.283 8.826C137.055 9.114 136.941 9.57 136.941 10.194V15H132.873V5.154H136.743V6.072C137.475 5.34 138.405 4.974 139.533 4.974C140.193 4.974 140.787 5.1 141.315 5.352C141.843 5.592 142.275 5.964 142.611 6.468C143.007 5.988 143.487 5.622 144.051 5.37C144.615 5.106 145.233 4.974 145.905 4.974ZM156.003 4.974C157.731 4.974 159.051 5.364 159.963 6.144C160.875 6.912 161.331 8.1 161.331 9.708V15H157.551V13.704C157.083 14.688 156.153 15.18 154.761 15.18C153.981 15.18 153.315 15.048 152.763 14.784C152.223 14.508 151.809 14.142 151.521 13.686C151.245 13.218 151.107 12.696 151.107 12.12C151.107 11.148 151.479 10.41 152.223 9.906C152.967 9.402 154.095 9.15 155.607 9.15H157.245C157.113 8.382 156.495 7.998 155.391 7.998C154.947 7.998 154.497 8.07 154.041 8.214C153.585 8.346 153.195 8.532 152.871 8.772L151.575 6.09C152.139 5.742 152.817 5.472 153.609 5.28C154.413 5.076 155.211 4.974 156.003 4.974ZM155.985 12.732C156.273 12.732 156.531 12.654 156.759 12.498C156.987 12.342 157.155 12.108 157.263 11.796V11.112H156.255C155.427 11.112 155.013 11.388 155.013 11.94C155.013 12.168 155.097 12.36 155.265 12.516C155.445 12.66 155.685 12.732 155.985 12.732ZM166.959 6.216C167.679 5.388 168.741 4.974 170.145 4.974V8.574C169.821 8.526 169.521 8.502 169.245 8.502C167.853 8.502 167.157 9.21 167.157 10.626V15H163.089V5.154H166.959V6.216ZM176.014 11.976L175.366 12.678V15H171.298V1.644H175.366V8.016L178.192 5.154H182.998L178.93 9.42L183.322 15H178.408L176.014 11.976ZM194.149 10.068C194.149 10.128 194.131 10.446 194.095 11.022H187.255C187.399 11.394 187.639 11.682 187.975 11.886C188.311 12.078 188.731 12.174 189.235 12.174C189.667 12.174 190.027 12.12 190.315 12.012C190.615 11.904 190.939 11.718 191.287 11.454L193.411 13.596C192.451 14.652 191.017 15.18 189.109 15.18C187.921 15.18 186.877 14.964 185.977 14.532C185.077 14.088 184.381 13.476 183.889 12.696C183.397 11.916 183.151 11.04 183.151 10.068C183.151 9.084 183.391 8.208 183.871 7.44C184.363 6.66 185.029 6.054 185.869 5.622C186.721 5.19 187.675 4.974 188.731 4.974C189.727 4.974 190.633 5.172 191.449 5.568C192.277 5.964 192.931 6.546 193.411 7.314C193.903 8.082 194.149 9 194.149 10.068ZM188.767 7.746C188.347 7.746 187.999 7.86 187.723 8.088C187.447 8.316 187.267 8.64 187.183 9.06H190.351C190.267 8.652 190.087 8.334 189.811 8.106C189.535 7.866 189.187 7.746 188.767 7.746ZM202.687 14.658C202.075 15.006 201.241 15.18 200.185 15.18C198.805 15.18 197.743 14.85 196.999 14.19C196.255 13.518 195.883 12.516 195.883 11.184V8.664H194.533V5.694H195.883V2.94H199.951V5.694H201.967V8.664H199.951V11.148C199.951 11.448 200.029 11.682 200.185 11.85C200.341 12.018 200.545 12.102 200.797 12.102C201.145 12.102 201.451 12.012 201.715 11.832L202.687 14.658ZM203.713 5.154H207.781V15H203.713V5.154ZM205.747 4.362C205.015 4.362 204.421 4.17 203.965 3.786C203.521 3.39 203.299 2.892 203.299 2.292C203.299 1.692 203.521 1.2 203.965 0.815999C204.421 0.419999 205.015 0.221999 205.747 0.221999C206.491 0.221999 207.085 0.407999 207.529 0.78C207.973 1.152 208.195 1.632 208.195 2.22C208.195 2.844 207.973 3.36 207.529 3.768C207.085 4.164 206.491 4.362 205.747 4.362ZM216.424 4.974C217.636 4.974 218.608 5.34 219.34 6.072C220.084 6.804 220.456 7.908 220.456 9.384V15H216.388V10.086C216.388 8.958 215.986 8.394 215.182 8.394C214.726 8.394 214.354 8.556 214.066 8.88C213.79 9.192 213.652 9.69 213.652 10.374V15H209.584V5.154H213.454V6.126C213.838 5.742 214.282 5.454 214.786 5.262C215.29 5.07 215.836 4.974 216.424 4.974ZM233.396 5.154V13.038C233.396 14.91 232.874 16.314 231.83 17.25C230.798 18.198 229.322 18.672 227.402 18.672C226.418 18.672 225.5 18.564 224.648 18.348C223.796 18.144 223.07 17.844 222.47 17.448L223.838 14.676C224.222 14.964 224.708 15.198 225.296 15.378C225.884 15.558 226.448 15.648 226.988 15.648C227.804 15.648 228.398 15.474 228.77 15.126C229.142 14.778 229.328 14.268 229.328 13.596V13.416C228.716 14.112 227.81 14.46 226.61 14.46C225.77 14.46 224.984 14.268 224.252 13.884C223.532 13.488 222.956 12.93 222.524 12.21C222.092 11.478 221.876 10.644 221.876 9.708C221.876 8.772 222.092 7.944 222.524 7.224C222.956 6.504 223.532 5.952 224.252 5.568C224.984 5.172 225.77 4.974 226.61 4.974C227.954 4.974 228.926 5.406 229.526 6.27V5.154H233.396ZM227.69 11.292C228.17 11.292 228.566 11.148 228.878 10.86C229.202 10.56 229.364 10.176 229.364 9.708C229.364 9.24 229.202 8.862 228.878 8.574C228.566 8.286 228.17 8.142 227.69 8.142C227.198 8.142 226.79 8.286 226.466 8.574C226.154 8.862 225.998 9.24 225.998 9.708C225.998 10.176 226.16 10.56 226.484 10.86C226.808 11.148 227.21 11.292 227.69 11.292Z" fill="#F5BA94"/>
</g>
<defs>
<filter id="filter0_d_123_60" x="0.605103" y="0.222046" width="236.791" height="26.45" filterUnits="userSpaceOnUse" color-interpolation-filters="sRGB">
<feFlood flood-opacity="0" result="BackgroundImageFix"/>
<feColorMatrix in="SourceAlpha" type="matrix" values="0 0 0 0 0 0 0 0 0 0 0 0 0 0 0 0 0 0 127 0" result="hardAlpha"/>
<feOffset dy="4"/>
<feGaussianBlur stdDeviation="2"/>
<feComposite in2="hardAlpha" operator="out"/>
<feColorMatrix type="matrix" values="0 0 0 0 0 0 0 0 0 0 0 0 0 0 0 0 0 0 0.25 0"/>
<feBlend mode="normal" in2="BackgroundImageFix" result="effect1_dropShadow_123_60"/>
<feBlend mode="normal" in="SourceGraphic" in2="effect1_dropShadow_123_60" result="shape"/>
</filter>
</defs>
</svg>
