<svg width="180" height="34" viewBox="0 0 180 34" fill="none" xmlns="http://www.w3.org/2000/svg">
<g filter="url(#filter0_d_242_281)">
<path d="M13.375 7.075C11.675 7.075 10.45 7.525 9.625 8.45V7.325H4.25V25.85H9.9V20.075C10.725 20.875 11.875 21.25 13.375 21.25C16.95 21.25 19.975 18.575 19.975 14.175C19.975 9.775 16.95 7.075 13.375 7.075ZM12.025 16.85C10.775 16.85 9.8 15.95 9.8 14.175C9.8 12.4 10.775 11.475 12.025 11.475C13.275 11.475 14.25 12.4 14.25 14.175C14.25 15.95 13.275 16.85 12.025 16.85ZM27.5381 7.075C25.4131 7.075 22.9881 7.625 21.3881 8.625L23.1881 12.35C24.0881 11.675 25.4631 11.275 26.6881 11.275C28.2881 11.275 29.0881 11.825 29.2631 12.875H26.9881C22.7381 12.875 20.7381 14.35 20.7381 17C20.7381 19.35 22.4631 21.25 25.8131 21.25C27.7381 21.25 29.0381 20.575 29.6881 19.2V21H34.9381V13.65C34.9381 9.1 32.2381 7.075 27.5381 7.075ZM27.5131 17.85C26.6631 17.85 26.1631 17.375 26.1631 16.75C26.1631 16 26.6881 15.6 27.8881 15.6H29.2881V16.55C28.9881 17.45 28.2881 17.85 27.5131 17.85ZM42.7549 8.8V7.325H37.3799V21H43.0299V14.925C43.0299 12.75 44.2299 11.975 45.9299 11.975C46.3299 11.975 46.6799 12 47.1799 12.075V7.075C45.2799 7.075 43.7549 7.65 42.7549 8.8ZM57.8725 16.6C57.4975 16.85 57.0475 16.975 56.5975 16.975C55.9225 16.975 55.4225 16.5 55.4225 15.65V12.2H58.2225V8.075H55.4225V4.25H49.7725V8.075H47.8975V12.2H49.7725V15.7C49.7725 19.475 51.9725 21.25 55.7475 21.25C57.0725 21.25 58.3475 21.025 59.2225 20.525L57.8725 16.6ZM70.1465 7.075C68.5465 7.075 67.0965 7.6 66.0215 8.675V7.325H60.6465V21H66.2965V14.575C66.2965 12.55 67.2715 11.825 68.4215 11.825C69.4465 11.825 70.0965 12.475 70.0965 14.175V21H75.7465V13.2C75.7465 8.9 73.2965 7.075 70.1465 7.075ZM92.9943 14.15C92.9943 9.525 89.5193 7.075 85.4693 7.075C81.0443 7.075 77.7193 10 77.7193 14.15C77.7193 18.225 80.9693 21.25 85.9943 21.25C88.7193 21.25 90.6443 20.5 91.9693 19.05L89.0193 16.075C88.1193 16.75 87.4193 17.075 86.1693 17.075C84.7693 17.075 83.8193 16.525 83.4193 15.475H92.9193C92.9443 15.075 92.9943 14.55 92.9943 14.15ZM85.5193 10.925C86.6693 10.925 87.4943 11.6 87.7193 12.75H83.3193C83.5443 11.6 84.3443 10.925 85.5193 10.925ZM100.152 8.8V7.325H94.7773V21H100.427V14.925C100.427 12.75 101.627 11.975 103.327 11.975C103.727 11.975 104.077 12 104.577 12.075V7.075C102.677 7.075 101.152 7.65 100.152 8.8ZM111.529 21.25C116.279 21.25 118.604 19.1 118.604 16.625C118.604 11.15 110.754 13 110.754 11.575C110.754 11.25 111.154 10.925 112.604 10.925C113.754 10.925 115.154 11.15 116.554 11.925L118.104 8.2C116.654 7.45 114.529 7.075 112.529 7.075C107.929 7.075 105.529 9.175 105.529 11.75C105.529 17.225 113.404 15.35 113.404 16.75C113.404 17.15 113.029 17.4 111.654 17.4C110.029 17.4 108.179 16.95 106.879 16.175L105.329 19.9C106.729 20.7 109.179 21.25 111.529 21.25ZM129.814 7.075C128.339 7.075 127.014 7.525 125.964 8.425V2.45H120.314V21H125.964V14.575C125.964 12.55 126.939 11.825 128.089 11.825C129.114 11.825 129.764 12.475 129.764 14.175V21H135.414V13.2C135.414 8.9 132.964 7.075 129.814 7.075ZM140.693 6.225C142.768 6.225 144.093 4.975 144.093 3.25C144.093 1.625 142.768 0.474999 140.693 0.474999C138.618 0.474999 137.293 1.725 137.293 3.35C137.293 4.975 138.618 6.225 140.693 6.225ZM137.868 21H143.518V7.325H137.868V21ZM155.147 7.075C153.447 7.075 152.222 7.525 151.397 8.45V7.325H146.022V25.85H151.672V20.075C152.497 20.875 153.647 21.25 155.147 21.25C158.722 21.25 161.747 18.575 161.747 14.175C161.747 9.775 158.722 7.075 155.147 7.075ZM153.797 16.85C152.547 16.85 151.572 15.95 151.572 14.175C151.572 12.4 152.547 11.475 153.797 11.475C155.047 11.475 156.022 12.4 156.022 14.175C156.022 15.95 155.047 16.85 153.797 16.85ZM168.877 21.25C173.627 21.25 175.952 19.1 175.952 16.625C175.952 11.15 168.102 13 168.102 11.575C168.102 11.25 168.502 10.925 169.952 10.925C171.102 10.925 172.502 11.15 173.902 11.925L175.452 8.2C174.002 7.45 171.877 7.075 169.877 7.075C165.277 7.075 162.877 9.175 162.877 11.75C162.877 17.225 170.752 15.35 170.752 16.75C170.752 17.15 170.377 17.4 169.002 17.4C167.377 17.4 165.527 16.95 164.227 16.175L162.677 19.9C164.077 20.7 166.527 21.25 168.877 21.25Z" fill="white"/>
</g>
<defs>
<filter id="filter0_d_242_281" x="0.25" y="0.475006" width="179.702" height="33.375" filterUnits="userSpaceOnUse" color-interpolation-filters="sRGB">
<feFlood flood-opacity="0" result="BackgroundImageFix"/>
<feColorMatrix in="SourceAlpha" type="matrix" values="0 0 0 0 0 0 0 0 0 0 0 0 0 0 0 0 0 0 127 0" result="hardAlpha"/>
<feOffset dy="4"/>
<feGaussianBlur stdDeviation="2"/>
<feComposite in2="hardAlpha" operator="out"/>
<feColorMatrix type="matrix" values="0 0 0 0 0 0 0 0 0 0 0 0 0 0 0 0 0 0 0.25 0"/>
<feBlend mode="normal" in2="BackgroundImageFix" result="effect1_dropShadow_242_281"/>
<feBlend mode="normal" in="SourceGraphic" in2="effect1_dropShadow_242_281" result="shape"/>
</filter>
</defs>
</svg>
