<svg width="91" height="79" viewBox="0 0 91 79" fill="none" xmlns="http://www.w3.org/2000/svg">
<g filter="url(#filter0_d_187_179)">
<path d="M83.0751 17.0051C83.3367 17.0051 83.5329 16.8089 83.5329 16.5473V7.97943C83.5329 7.71782 83.3367 7.52161 83.0751 7.52161C82.8135 7.52161 82.6172 7.71782 82.6172 7.97943V16.5473C82.6172 16.8089 82.8135 17.0051 83.0751 17.0051Z" fill="white"/>
<path d="M83.0751 22.565C83.3367 22.565 83.5329 22.3688 83.5329 22.1071V19.3602C83.5329 19.0986 83.3367 18.9023 83.0751 18.9023C82.8135 18.9023 82.6172 19.0986 82.6172 19.3602V22.1071C82.6172 22.3688 82.8135 22.565 83.0751 22.565Z" fill="white"/>
<path d="M7.20679 49.0523C7.46841 49.0523 7.66462 48.8561 7.66462 48.5945V40.0267C7.66462 39.7651 7.46841 39.5688 7.20679 39.5688C6.94517 39.5688 6.74896 39.7651 6.74896 40.0267V48.5945C6.74896 48.8561 6.94517 49.0523 7.20679 49.0523Z" fill="white"/>
<path d="M7.72999 54.1546V51.4077C7.72999 51.146 7.53377 50.9498 7.27216 50.9498C7.01054 50.9498 6.81433 51.146 6.81433 51.4077V54.1546C6.81433 54.4162 7.01054 54.6124 7.27216 54.6124C7.53377 54.6779 7.72999 54.4162 7.72999 54.1546Z" fill="white"/>
<path d="M79.6741 50.8852C79.4778 50.689 79.1508 50.689 79.02 50.8852C78.8238 51.0814 78.8238 51.4084 79.02 51.5392L80.1319 52.7165C80.1973 52.7819 80.3281 52.8473 80.4589 52.8473C80.5897 52.8473 80.7205 52.7819 80.7859 52.7165C80.9821 52.5203 80.9821 52.1933 80.7859 52.0625L79.6741 50.8852Z" fill="white"/>
<path d="M83.4024 54.6121C83.2062 54.4159 82.8792 54.4159 82.7484 54.6121C82.5521 54.8083 82.5521 55.1354 82.7484 55.2662L83.9256 56.4434C83.991 56.5088 84.1218 56.5742 84.2526 56.5742C84.3835 56.5742 84.5143 56.5088 84.5797 56.4434C84.7759 56.2472 84.7759 55.9202 84.5797 55.7894L83.4024 54.6121Z" fill="white"/>
<path d="M80.133 54.612L78.9558 55.7893C78.7595 55.9855 78.7595 56.3125 78.9558 56.4433C79.0212 56.5087 79.152 56.5741 79.2828 56.5741C79.4136 56.5741 79.5444 56.5087 79.6098 56.4433L80.7871 55.3315C80.9833 55.1353 80.9833 54.8082 80.7871 54.6774C80.6563 54.4158 80.3292 54.4158 80.133 54.612Z" fill="white"/>
<path d="M83.8599 50.8852L82.6826 52.0625C82.4864 52.2587 82.4864 52.5857 82.6826 52.7165C82.748 52.7819 82.8788 52.8473 83.0096 52.8473C83.1404 52.8473 83.2713 52.7819 83.3367 52.7165L84.5139 51.5392C84.7101 51.343 84.7101 51.016 84.5139 50.8852C84.3177 50.7544 84.0561 50.689 83.8599 50.8852Z" fill="white"/>
<path d="M41.4781 8.89509C41.5435 8.9605 41.6743 9.0259 41.8051 9.0259C41.9359 9.0259 42.0668 8.9605 42.1322 8.89509C42.3284 8.69888 42.3284 8.37186 42.1322 8.24106L40.9549 7.06378C40.7587 6.86757 40.4317 6.86757 40.3008 7.06378C40.1046 7.26 40.1046 7.58702 40.3008 7.71782L41.4781 8.89509Z" fill="white"/>
<path d="M45.2722 12.6235C45.3376 12.6889 45.4685 12.7543 45.5993 12.7543C45.7301 12.7543 45.8609 12.6889 45.9263 12.6235C46.1225 12.4273 46.1225 12.1003 45.9263 11.9694L44.749 10.7922C44.5528 10.596 44.2258 10.596 44.095 10.7922C43.8988 10.9884 43.8988 11.3154 44.095 11.4462L45.2722 12.6235Z" fill="white"/>
<path d="M40.6933 12.7536C40.8241 12.7536 40.9549 12.6882 41.0203 12.6228L42.1976 11.4455C42.3938 11.2493 42.3938 10.9223 42.1976 10.7914C42.0014 10.5952 41.6744 10.5952 41.5435 10.7914L40.3663 11.9687C40.1701 12.1649 40.1701 12.4919 40.3663 12.6228C40.4317 12.7536 40.5625 12.7536 40.6933 12.7536Z" fill="white"/>
<path d="M44.4217 9.02663C44.5525 9.02663 44.6833 8.96123 44.7487 8.89583L45.926 7.71856C46.1222 7.52234 46.1222 7.19533 45.926 7.06452C45.7298 6.86831 45.4027 6.86831 45.2719 7.06452L44.0947 8.24179C43.8985 8.438 43.8985 8.76502 44.0947 8.89583C44.1601 8.96123 44.2909 9.02663 44.4217 9.02663Z" fill="white"/>
<path d="M27.8099 63.1796C27.6137 62.9834 27.2866 62.9834 27.1558 63.1796C26.9596 63.3758 26.9596 63.7029 27.1558 63.8337L28.3331 65.0109C28.3985 65.0763 28.5293 65.1417 28.6601 65.1417C28.7909 65.1417 28.9217 65.0763 28.9871 65.0109C29.1833 64.8147 29.1833 64.4877 28.9871 64.3569L27.8099 63.1796Z" fill="white"/>
<path d="M31.5367 66.9737C31.3405 66.7775 31.0135 66.7775 30.8827 66.9737C30.6865 67.1699 30.6865 67.4969 30.8827 67.6277L32.06 68.805C32.1254 68.8704 32.2562 68.9358 32.387 68.9358C32.5178 68.9358 32.6486 68.8704 32.714 68.805C32.9102 68.6088 32.9102 68.2818 32.714 68.151L31.5367 66.9737Z" fill="white"/>
<path d="M28.2673 66.9737L27.09 68.151C26.8938 68.3472 26.8938 68.6742 27.09 68.805C27.1554 68.8704 27.2862 68.9358 27.417 68.9358C27.5479 68.9358 27.6787 68.8704 27.7441 68.805L28.9213 67.6277C29.1176 67.4315 29.1176 67.1045 28.9213 66.9737C28.7905 66.7775 28.4635 66.7775 28.2673 66.9737Z" fill="white"/>
<path d="M31.9957 63.1796L30.8184 64.3569C30.6222 64.5531 30.6222 64.8801 30.8184 65.0109C30.8838 65.0763 31.0146 65.1417 31.1454 65.1417C31.2763 65.1417 31.4071 65.0763 31.4725 65.0109L32.6497 63.8337C32.8459 63.6374 32.8459 63.3104 32.6497 63.1796C32.4535 63.0488 32.1919 62.9834 31.9957 63.1796Z" fill="white"/>
<path d="M74.5074 5.36327C76.0117 5.36327 77.1891 4.186 77.1891 2.68164C77.1891 1.17727 76.0118 0 74.5074 0C73.0031 0 71.8258 1.17727 71.8258 2.68164C71.8258 4.186 73.0031 5.36327 74.5074 5.36327ZM74.5074 0.981283C75.4231 0.981283 76.2079 1.76613 76.2079 2.68178C76.2079 3.59744 75.4231 4.38229 74.5074 4.38229C73.5918 4.38229 72.8069 3.59744 72.8069 2.68178C72.8069 1.76613 73.5264 0.981283 74.5074 0.981283Z" fill="white"/>
<path d="M9.88842 64.0302C8.44953 63.8994 7.14146 65.0113 7.01065 66.4503C6.87984 67.8892 7.99171 69.1972 9.43067 69.328H9.62688C10.2809 69.328 10.8696 69.1318 11.3274 68.674C11.8506 68.2162 12.1776 67.5621 12.243 66.8427C12.5047 65.4692 11.3928 64.161 9.8885 64.0304L9.88842 64.0302ZM10.8041 68.02C10.4771 68.347 10.0192 68.4778 9.5614 68.4124C8.64575 68.347 7.92623 67.4967 7.99171 66.5811C8.05711 66.1232 8.25332 65.7308 8.58034 65.4038C8.90736 65.1422 9.29978 65.0114 9.69221 65.0114H9.82302C10.2808 65.0768 10.6733 65.273 11.0003 65.6C11.3273 65.927 11.4581 66.3849 11.3927 66.8427C11.3927 67.3005 11.1311 67.6929 10.8041 68.02Z" fill="white"/>
<path d="M13.3552 3.53199H23.4927C23.7543 3.53199 23.9505 3.33578 23.9505 3.07416C23.9505 2.81254 23.7543 2.61633 23.4927 2.61633H13.3552C13.0936 2.61633 12.8973 2.81254 12.8973 3.07416C12.8973 3.33578 13.0936 3.53199 13.3552 3.53199Z" fill="white"/>
<path d="M6.74903 3.53199H10.0192C10.2808 3.53199 10.477 3.33578 10.477 3.07416C10.477 2.81254 10.2808 2.61633 10.0192 2.61633H6.74903C6.48741 2.61633 6.2912 2.81254 6.2912 3.07416C6.2912 3.33578 6.48741 3.53199 6.74903 3.53199Z" fill="white"/>
<path d="M6.74903 6.9983H13.8126C14.0743 6.9983 14.2705 6.80208 14.2705 6.54047C14.2705 6.27885 14.0743 6.08264 13.8126 6.08264H6.74903C6.48741 6.08264 6.2912 6.27885 6.2912 6.54047C6.2912 6.80208 6.48741 6.9983 6.74903 6.9983Z" fill="white"/>
<path d="M19.634 6.54059C19.634 6.27898 19.4378 6.08276 19.1761 6.08276H16.8871C16.6255 6.08276 16.4293 6.27898 16.4293 6.54059C16.4293 6.80221 16.6255 6.99842 16.8871 6.99842H19.1761C19.4378 6.99842 19.634 6.80221 19.634 6.54059Z" fill="white"/>
<path d="M68.7519 69.1324H58.6144C58.3528 69.1324 58.1566 69.3287 58.1566 69.5903C58.1566 69.8519 58.3528 70.0481 58.6144 70.0481H68.7519C69.0135 70.0481 69.2097 69.8519 69.2097 69.5903C69.2751 69.3287 69.0789 69.1324 68.7519 69.1324V69.1324Z" fill="white"/>
<path d="M75.4239 69.1324H72.1538C71.8921 69.1324 71.6959 69.3287 71.6959 69.5903C71.6959 69.8519 71.8921 70.0481 72.1538 70.0481H75.4239C75.6856 70.0481 75.8818 69.8519 75.8818 69.5903C75.8818 69.3287 75.6856 69.1324 75.4239 69.1324V69.1324Z" fill="white"/>
<path d="M75.4239 65.6658H68.2948C68.0332 65.6658 67.837 65.862 67.837 66.1236C67.837 66.3852 68.0332 66.5814 68.2948 66.5814H75.3584C75.62 66.5814 75.8163 66.3852 75.8163 66.1236C75.8817 65.862 75.6855 65.6658 75.4238 65.6658H75.4239Z" fill="white"/>
<path d="M65.2851 66.582C65.5467 66.582 65.7429 66.3858 65.7429 66.1242C65.7429 65.8626 65.5467 65.6664 65.2851 65.6664H62.996C62.7344 65.6664 62.5382 65.8626 62.5382 66.1242C62.5382 66.3858 62.7344 66.582 62.996 66.582H65.2851Z" fill="white"/>
<path d="M86.935 30.216C86.8042 30.0198 86.4771 29.9544 86.2809 30.0852C83.0761 32.2436 79.9367 34.5982 76.7973 36.9527C76.2087 37.4105 75.4892 37.6067 74.966 37.5413C74.7044 37.4759 74.3119 37.3451 74.0503 37.0181L63.1933 21.1896C62.9317 20.7972 62.9317 20.4048 62.9971 20.1431C63.1279 19.5545 63.5857 18.9659 64.1743 18.6389C66.4634 17.2 68.7526 15.7611 70.9763 14.3223C71.1726 14.1915 71.238 13.8644 71.1072 13.6682C70.9763 13.472 70.6493 13.4066 70.4531 13.5374C68.2294 14.9763 65.9402 16.4152 63.6511 17.8541C62.8663 18.3119 62.2776 19.0313 62.0814 19.8162H28.8562C28.66 19.0313 28.0714 18.312 27.2865 17.8541C24.9975 16.4806 22.7082 14.9763 20.4845 13.5374C20.2883 13.4066 19.9613 13.472 19.8305 13.6682C19.6997 13.8644 19.7651 14.1915 19.9613 14.3223C22.185 15.7611 24.4742 17.2655 26.7633 18.6389C27.3519 19.0313 27.8098 19.5546 27.9406 20.1431V20.2739C27.9406 20.3393 27.9406 20.4702 28.006 20.5356C28.006 20.7318 27.9406 20.9934 27.8098 21.1896L16.9527 37.0181C16.6911 37.4105 16.2987 37.5413 16.037 37.5413C15.4484 37.6067 14.729 37.4105 14.2057 36.9527C11.0663 34.5327 7.92696 32.2436 4.72209 30.0852C4.52588 29.9544 4.19886 30.0198 4.06805 30.216C3.93725 30.4122 4.00265 30.7392 4.19886 30.87C7.33825 33.0285 10.5431 35.3175 13.617 37.7375C14.2711 38.2608 15.0559 38.5224 15.7754 38.5224C15.9062 38.5224 16.037 38.5224 16.2333 38.457C16.8873 38.3262 17.4105 37.9992 17.7375 37.5413L18.8493 35.9716C19.5034 36.4949 20.8768 37.6721 21.4655 38.9149C21.6617 39.2419 21.7271 39.5035 21.8579 39.7651C21.9233 39.9613 22.0541 40.1576 22.1195 40.3538C21.7925 40.55 21.4655 40.877 21.2039 41.204L20.6152 41.9235C20.092 42.6429 19.8958 43.4932 20.0266 44.3435C20.1574 45.1938 20.6152 45.9787 21.3347 46.5019L22.3157 47.2213C22.9044 47.6138 23.5584 47.8754 24.2779 47.8754C24.4087 47.8754 24.6049 47.8754 24.7357 47.81C24.9319 47.81 25.0627 47.7446 25.1935 47.6792C25.1281 48.0062 25.1281 48.3332 25.1935 48.6602C25.3243 49.5105 25.7822 50.2954 26.5016 50.8186L27.3519 51.4727C27.9405 51.9305 28.6599 52.1267 29.314 52.1267C29.7718 52.1267 30.1642 52.0613 30.622 51.8651V52.6499C30.7529 53.5002 31.2107 54.2851 31.9301 54.8083L32.7804 55.4624C33.369 55.9202 34.0885 56.1164 34.7425 56.1164C35.2657 56.1164 35.7236 55.9856 36.1814 55.7894C36.116 56.7704 36.5738 57.7515 37.4241 58.3401L38.0781 58.7979C38.6013 59.1903 39.2554 59.3865 39.9094 59.3865C40.8251 59.3865 41.7407 58.9941 42.3294 58.1439L42.7872 57.5552C42.8527 57.6206 42.8527 57.7514 42.9835 57.8168C43.6375 58.2747 44.4223 58.5363 45.2725 58.5363C45.5341 58.5363 45.7958 58.5363 45.992 58.4709C47.0384 58.2747 47.9541 57.686 48.5426 56.7704C49.1312 55.8547 49.3929 54.8083 49.1967 53.7618C49.1967 53.631 49.1313 53.5002 49.1313 53.3694L51.1587 54.8083C51.8782 55.2661 52.6629 55.5277 53.4478 55.5277C54.7559 55.5277 55.9985 54.9391 56.7833 53.7619C57.372 52.8462 57.6336 51.7997 57.4374 50.7533C57.4374 50.6225 57.372 50.5571 57.372 50.4263L58.5492 51.2111C59.2687 51.6689 60.0534 51.9306 60.8383 51.9306C62.1464 51.9306 63.389 51.3419 64.1738 50.1647C64.7624 49.2491 65.0241 48.2026 64.8279 47.1561C64.8279 47.0253 64.7624 46.9599 64.7624 46.8291L66.2667 47.8102C66.9207 48.268 67.7055 48.5296 68.5557 48.5296C68.8173 48.5296 69.079 48.5296 69.2752 48.4642C70.3216 48.268 71.2373 47.6794 71.8258 46.7637C72.4144 45.8481 72.6761 44.8016 72.4799 43.7551C72.2837 42.7087 71.695 41.793 70.7794 41.2045L56.456 31.3939C56.3252 31.3285 56.1944 31.3285 56.0636 31.3285H53.5782C48.3459 31.3285 47.6919 27.0771 47.6265 26.881C47.6265 26.6194 47.3649 26.4886 47.1687 26.4886H38.5354C38.2738 26.4886 38.0776 26.6848 38.0776 26.881C37.6197 29.3664 36.7695 31.0669 35.3959 31.9172C34.3495 32.5712 33.303 32.5058 32.7798 32.4404V25.246L40.7591 20.7985H62.0157C62.0811 21.1255 62.1465 21.518 62.3427 21.7796L73.1998 37.6081C73.5268 38.1313 74.1154 38.4583 74.704 38.5237C74.8348 38.5237 74.9656 38.5891 75.1618 38.5891C75.8813 38.5891 76.666 38.3275 77.3202 37.8043C80.3941 35.4497 83.599 33.0952 86.7384 30.9368C87 30.7406 87.0654 30.4136 86.9346 30.2174L86.935 30.216ZM24.5389 46.8936C23.9502 46.959 23.2962 46.8282 22.8384 46.4358L21.8573 45.7164C21.3341 45.3239 21.0725 44.8007 20.9417 44.2122C20.8763 43.6235 21.0071 42.9695 21.3341 42.5117L21.9227 41.7268C22.3151 41.2036 22.8384 40.942 23.4269 40.8111H23.754C24.2118 40.8111 24.735 40.942 25.1274 41.269L26.1085 41.9884C26.9588 42.6425 27.2858 43.7542 26.8279 44.7354L25.7161 46.2396L25.6507 46.305C25.3891 46.632 24.9966 46.8282 24.5388 46.8936H24.5389ZM27.8744 50.7524L27.0242 50.0984C26.5009 49.7059 26.1739 49.1827 26.1085 48.5287C26.0431 47.94 26.1739 47.4168 26.4355 46.8935C26.5663 46.7627 26.6971 46.6319 26.7625 46.5011L27.3512 45.7162C27.482 45.52 27.6128 45.3238 27.6782 45.1276L28.5939 43.8849C29.3787 42.8384 30.8829 42.6422 31.9294 43.3617L32.7796 44.0157C33.3029 44.4081 33.6299 44.9314 33.6953 45.5854C33.7607 46.2394 33.6299 46.8281 33.2375 47.3512L31.1445 50.229C30.4251 51.2755 28.9208 51.5371 27.8743 50.7522L27.8744 50.7524ZM33.3029 54.7421L32.4526 54.0881C31.9294 53.6956 31.6024 53.1724 31.537 52.5184C31.4715 51.8643 31.6024 51.2757 31.9948 50.7525L35.3958 46.1089C36.1806 45.0625 37.6848 44.8663 38.7313 45.5857L39.5816 46.2397C40.1048 46.6322 40.4318 47.1554 40.4972 47.8094C40.5626 48.4635 40.4318 49.0521 40.0394 49.5753L36.6384 54.2189C35.8535 55.3307 34.3493 55.527 33.3029 54.7421ZM41.4784 57.6854C41.1514 58.1432 40.6936 58.4048 40.1049 58.4702C39.5817 58.5356 38.9931 58.4048 38.5353 58.0778L37.8812 57.62C36.9656 56.9659 36.7693 55.6578 37.4234 54.7422L38.2736 53.5649C38.9277 52.6493 40.2358 52.453 41.1514 53.1071L41.8054 53.5649C42.2633 53.8919 42.5249 54.3498 42.5903 54.9384C42.6557 55.4616 42.5249 56.0503 42.1979 56.5081L41.4784 57.6854ZM32.0603 24.5259C31.9295 24.5913 31.7986 24.7876 31.7986 24.9184V32.963C31.7986 33.1592 31.9295 33.3554 32.1257 33.4208C32.1911 33.4208 32.6489 33.617 33.3683 33.617C34.0224 33.617 34.938 33.4862 35.8537 32.963C37.3579 32.0473 38.4044 30.2813 38.9276 27.6652H46.449C46.776 28.9079 48.1495 32.5051 53.251 32.5051H55.8017L69.9289 42.1849C70.5829 42.6427 71.0408 43.3621 71.1716 44.147C71.3024 44.9318 71.1716 45.7821 70.7138 46.436C70.2559 47.0899 69.5365 47.5479 68.7516 47.6787C67.9668 47.8095 67.1165 47.6787 66.4626 47.2209L62.8654 44.8009L52.7279 37.8027C52.5317 37.6719 52.2047 37.7373 52.0739 37.9335C51.9431 38.1297 52.0085 38.4568 52.2047 38.5876L62.3422 45.5204C62.9962 45.9782 63.4541 46.6976 63.5849 47.4825C63.7157 48.2673 63.5849 49.1177 63.127 49.7716C62.146 51.145 60.2493 51.5374 58.8757 50.5564L48.7382 43.6236C48.542 43.4928 48.2804 43.5582 48.0841 43.689C48.0187 43.7544 47.9533 43.7544 47.9533 43.8198C47.8225 44.016 47.8879 44.343 48.0841 44.4738L55.017 49.0521C55.671 49.5099 56.1288 50.2294 56.2596 51.0142C56.3904 51.7991 56.2596 52.6494 55.8018 53.3033C54.8207 54.6768 52.924 55.0691 51.5505 54.0881L45.0101 49.4445C44.8139 49.3137 44.4869 49.3137 44.356 49.5753C44.2252 49.7716 44.2252 50.0986 44.4869 50.2294L46.6453 51.7991C46.7107 51.8645 46.7107 51.9953 46.8415 51.9953C47.4955 52.4531 47.9533 53.1726 48.0841 53.9574C48.215 54.7423 48.0841 55.5926 47.6263 56.2465C47.1685 56.9004 46.449 57.3583 45.6642 57.4891C44.8794 57.62 44.029 57.4891 43.3751 57.0313C43.3097 56.9659 43.1789 56.9659 43.1135 56.9659C43.5714 56.3119 43.7676 55.5924 43.6368 54.8075C43.5059 54.0226 43.1135 53.3033 42.4595 52.8454L41.8054 52.3876C41.1514 51.8643 40.3012 51.7335 39.5817 51.7989L40.759 50.1638C41.2822 49.4443 41.4784 48.5941 41.3476 47.6784C41.2168 46.8282 40.759 46.0432 40.0395 45.52L39.1893 44.866C37.7504 43.8195 35.7228 44.0811 34.611 45.4546V45.3892C34.4802 44.5389 34.0224 43.754 33.3029 43.2308L32.4527 42.5768C31.0792 41.5957 29.1172 41.9227 28.0052 43.2308C27.8744 42.4459 27.4166 41.6611 26.7625 41.1379L25.7815 40.4184C25.062 39.8952 24.2118 39.699 23.3615 39.8298C23.2307 39.8298 23.0998 39.8952 23.0344 39.8952C22.9036 39.699 22.8382 39.5028 22.7728 39.3066C22.642 39.0449 22.5112 38.7833 22.3804 38.3909C21.661 36.952 20.0913 35.6439 19.4372 35.0554L28.6592 21.6475C28.8554 21.3205 28.9862 20.9935 28.9862 20.6664H38.8621L32.0603 24.5259Z" fill="white"/>
<path d="M73.9842 30.216C73.9842 31.3278 74.8998 32.3089 76.0771 32.3089C77.189 32.3089 78.17 31.3932 78.17 30.216C78.17 29.1041 77.2544 28.123 76.0771 28.123C74.9653 28.1885 73.9842 29.1041 73.9842 30.216ZM77.1891 30.216C77.1891 30.8046 76.6658 31.3278 76.0772 31.3278C75.4886 31.3278 74.9653 30.8046 74.9653 30.216C74.9653 29.6273 75.4886 29.1041 76.0772 29.1041C76.6658 29.1695 77.1891 29.6273 77.1891 30.216Z" fill="white"/>
<path d="M14.8591 28.1888C13.7472 28.1888 12.7662 29.1045 12.7662 30.2818C12.7662 31.3936 13.6818 32.3747 14.8591 32.3747C15.971 32.3747 16.952 31.459 16.952 30.2818C16.952 29.1045 15.971 28.1888 14.8591 28.1888ZM14.8591 31.3282C14.2705 31.3282 13.7472 30.805 13.7472 30.2164C13.7472 29.6277 14.2705 29.1045 14.8591 29.1045C15.4477 29.1045 15.971 29.6277 15.971 30.2164C15.971 30.8704 15.4477 31.3282 14.8591 31.3282Z" fill="white"/>
<path d="M66.8549 19.8829C66.6587 20.0137 66.5933 20.3407 66.7241 20.5369L69.2747 24.3303C69.3401 24.4611 69.5364 24.5266 69.6672 24.5266C69.7326 24.5266 69.8634 24.5266 69.9288 24.4611C70.125 24.3303 70.1904 24.0033 70.0596 23.8071L67.5089 20.0137C67.3781 19.8175 67.0511 19.7521 66.8549 19.8829V19.8829Z" fill="white"/>
<path d="M21.9227 24.3303L24.4734 20.5369C24.6042 20.3407 24.5388 20.0137 24.3426 19.8829C24.1464 19.7521 23.8194 19.8175 23.6886 20.0137L21.1379 23.8071C21.0071 24.0033 21.0725 24.3303 21.2687 24.4611C21.3341 24.5266 21.4649 24.5266 21.5303 24.5266C21.6611 24.5266 21.8573 24.4611 21.9227 24.3303Z" fill="white"/>
</g>
<defs>
<filter id="filter0_d_187_179" x="0" y="0" width="91" height="78.0481" filterUnits="userSpaceOnUse" color-interpolation-filters="sRGB">
<feFlood flood-opacity="0" result="BackgroundImageFix"/>
<feColorMatrix in="SourceAlpha" type="matrix" values="0 0 0 0 0 0 0 0 0 0 0 0 0 0 0 0 0 0 127 0" result="hardAlpha"/>
<feOffset dy="4"/>
<feGaussianBlur stdDeviation="2"/>
<feComposite in2="hardAlpha" operator="out"/>
<feColorMatrix type="matrix" values="0 0 0 0 0 0 0 0 0 0 0 0 0 0 0 0 0 0 0.25 0"/>
<feBlend mode="normal" in2="BackgroundImageFix" result="effect1_dropShadow_187_179"/>
<feBlend mode="normal" in="SourceGraphic" in2="effect1_dropShadow_187_179" result="shape"/>
</filter>
</defs>
</svg>
