<svg width="118" height="78" viewBox="0 0 118 78" fill="none" xmlns="http://www.w3.org/2000/svg">
<g filter="url(#filter0_d_187_236)">
<path d="M59.0006 45.2637C56.0546 45.2637 30.2 45.4472 30.2 51.8093V56.2994C30.2 57.0226 30.7862 57.6089 31.5085 57.6089C32.2318 57.6089 32.818 57.0226 32.818 56.2994V54.873C38.7226 57.8582 52.9387 58.2765 57.6913 58.3422V60.4625C57.6913 61.1858 58.2776 61.772 59.0008 61.772C59.7241 61.772 60.3103 61.1858 60.3103 60.4625V58.3422C65.0624 58.3422 79.2797 57.8582 85.1836 54.873V56.3003V56.2994C85.1836 57.0226 85.7699 57.6089 86.4931 57.6089C87.2154 57.6089 87.8017 57.0226 87.8017 56.2994V51.8093C87.8017 45.4472 61.9466 45.2637 59.001 45.2637L59.0006 45.2637ZM59.0006 55.7369C43.0686 55.7369 33.8141 53.2622 32.8182 51.8093C33.7743 50.3428 43.0293 47.8817 59.0006 47.8817C74.9719 47.8817 84.1872 50.3426 85.183 51.8093C84.1877 53.2621 74.9326 55.7369 59.0006 55.7369Z" fill="white"/>
<path d="M86.4919 59.2174C85.7687 59.2174 85.1824 59.8037 85.1824 60.5269V62.9359C84.5277 64.376 75.2198 66.9547 59 66.9547C42.7802 66.9547 33.4581 64.3367 32.8175 63.0271V60.4091C32.8175 59.6859 32.2313 59.0996 31.508 59.0996C30.7857 59.0996 30.1995 59.6859 30.1995 60.4091V63.0271C30.1995 69.3892 56.0546 69.5727 59.0001 69.5727C61.9461 69.5727 87.8008 69.3891 87.8008 63.0271V60.4091C87.7396 59.7325 87.1717 59.2147 86.4922 59.2174L86.4919 59.2174Z" fill="white"/>
<path d="M86.4921 34.8303C85.7689 34.8303 85.1826 35.4166 85.1826 36.1398V42.6855C85.1826 43.4087 85.7689 43.995 86.4921 43.995C87.2144 43.995 87.8007 43.4087 87.8007 42.6855V36.1398C87.8007 35.7928 87.6628 35.4595 87.4172 35.2139C87.1716 34.9682 86.8391 34.8303 86.4922 34.8303L86.4921 34.8303Z" fill="white"/>
<path d="M86.4921 25.9939C85.7689 25.9939 85.1826 26.5792 85.1826 27.3025V30.3789C85.1826 31.1022 85.7689 31.6884 86.4921 31.6884C87.2144 31.6884 87.8007 31.1022 87.8007 30.3789V27.3025C87.8007 26.9555 87.6628 26.6222 87.4172 26.3765C87.1716 26.1318 86.8391 25.9939 86.4922 25.9939L86.4921 25.9939Z" fill="white"/>
<path d="M86.4921 17.3396C85.7689 17.3396 85.1826 17.9249 85.1826 18.6482V20.4152C85.1826 21.1384 85.7689 21.7247 86.4921 21.7247C87.2144 21.7247 87.8007 21.1384 87.8007 20.4152V18.6482C87.8007 18.3012 87.6628 17.9679 87.4172 17.7222C87.1716 17.4775 86.8391 17.3396 86.4922 17.3396L86.4921 17.3396Z" fill="white"/>
<path d="M31.5088 7.10275C31.8567 7.10275 32.1892 6.96486 32.4348 6.71922C32.6804 6.47357 32.8183 6.14026 32.8183 5.79328V4.02629C32.8183 3.30305 32.2321 2.7168 31.5088 2.7168C30.7865 2.7168 30.2002 3.30305 30.2002 4.02629V5.79328C30.2002 6.14029 30.3381 6.4736 30.5837 6.71922C30.8294 6.96487 31.1618 7.10275 31.5088 7.10275H31.5088Z" fill="white"/>
<path d="M31.5088 21.2156C31.8567 21.2156 32.1892 21.0777 32.4348 20.8321C32.6804 20.5864 32.8183 20.254 32.8183 19.9061V11.5934C32.8183 10.8702 32.2321 10.2839 31.5088 10.2839C30.7865 10.2839 30.2002 10.8702 30.2002 11.5934V19.9061C30.2002 20.2541 30.3381 20.5865 30.5837 20.8321C30.8294 21.0777 31.1618 21.2156 31.5088 21.2156H31.5088Z" fill="white"/>
<path d="M31.5088 32.1981C31.8567 32.1981 32.1892 32.0602 32.4348 31.8146C32.6804 31.569 32.8183 31.2357 32.8183 30.8887V26.5036C32.8183 25.7803 32.2321 25.1941 31.5088 25.1941C30.7865 25.1941 30.2002 25.7803 30.2002 26.5036V30.8896V30.8887C30.2002 31.2357 30.3381 31.569 30.5837 31.8146C30.8294 32.0603 31.1618 32.1982 31.5088 32.1982L31.5088 32.1981Z" fill="white"/>
<path d="M108.747 57.6091C107.589 57.6128 106.465 58.0009 105.55 58.7113C104.635 59.4218 103.983 60.4153 103.693 61.5367H99.5829V49.1914H103.694H103.693C104.121 50.8507 105.335 52.1959 106.942 52.792C108.549 53.3883 110.346 53.16 111.754 52.1811C113.161 51.2021 114 49.5958 114 47.8818C114 46.1678 113.161 44.5625 111.754 43.5834C110.346 42.6045 108.549 42.3762 106.942 42.9725C105.335 43.5688 104.121 44.913 103.693 46.5731H96.964V54.0484H91.6101V56.6664H96.964V64.1543H103.693C104.022 65.4264 104.816 66.5285 105.918 67.2417C107.022 67.9549 108.352 68.228 109.647 68.007C110.942 67.7851 112.106 67.0847 112.909 66.0455C113.711 65.0054 114.094 63.7024 113.98 62.3937C113.867 61.0851 113.266 59.8669 112.296 58.9802C111.327 58.0935 110.06 57.6041 108.746 57.6086L108.747 57.6091ZM108.747 45.2639C109.805 45.2639 110.76 45.9022 111.166 46.8802C111.571 47.8591 111.346 48.9851 110.598 49.7339C109.849 50.4826 108.723 50.7064 107.745 50.3009C106.766 49.8964 106.129 48.9412 106.129 47.8819C106.129 46.4363 107.3 45.2639 108.747 45.2639L108.747 45.2639ZM108.747 65.4631V65.4641C107.687 65.4641 106.733 64.8257 106.328 63.8477C105.922 62.8688 106.146 61.7429 106.895 60.9941C107.643 60.2453 108.77 60.0216 109.748 60.427C110.726 60.8315 111.365 61.7867 111.365 62.8451C111.365 63.5401 111.089 64.2058 110.598 64.6971C110.107 65.1883 109.441 65.4641 108.747 65.4641L108.747 65.4631Z" fill="white"/>
<path d="M21.0359 46.5728H14.3068C13.8786 44.9127 12.665 43.5684 11.0579 42.9723C9.4507 42.376 7.6537 42.6043 6.2464 43.5832C4.83921 44.5621 4 46.1675 4 47.8815C4 49.5955 4.83919 51.2018 6.2464 52.1808C7.65358 53.1598 9.4507 53.3881 11.0579 52.7917C12.6651 52.1954 13.8786 50.8503 14.3068 49.1912H18.417V61.5365H14.3068C13.8786 59.8763 12.665 58.532 11.0579 57.9359C9.45079 57.3398 7.6537 57.5679 6.2464 58.5468C4.83921 59.5257 4 61.1312 4 62.8452C4 64.5601 4.83919 66.1654 6.2464 67.1445C7.65358 68.1234 9.4507 68.3517 11.0579 67.7554C12.6651 67.1591 13.8786 65.8149 14.3068 64.1548H21.0359V56.6669H26.3898V54.0489H21.0359V46.5728ZM9.25433 50.5004H9.25342C8.19507 50.5004 7.23988 49.8621 6.83436 48.8841C6.4289 47.9052 6.65355 46.7792 7.40235 46.0304C8.15115 45.2816 9.27707 45.0579 10.2551 45.4624C11.234 45.8679 11.8714 46.8231 11.8714 47.8815C11.8714 48.5764 11.5956 49.2421 11.1052 49.7334C10.6139 50.2247 9.94826 50.5005 9.25332 50.5005L9.25433 50.5004ZM9.25433 65.4637H9.25342C8.19507 65.4637 7.23988 64.8254 6.83436 63.8474C6.4289 62.8684 6.65355 61.7425 7.40235 60.9937C8.15115 60.2449 9.27707 60.0212 10.2551 60.4266C11.234 60.8312 11.8714 61.7863 11.8714 62.8448C11.8714 63.5397 11.5956 64.2054 11.1052 64.6967C10.6139 65.188 9.94826 65.4637 9.25332 65.4637L9.25433 65.4637Z" fill="white"/>
<path d="M44.4039 32.1327V32.2642C44.4039 33.3052 44.8176 34.3042 45.5545 35.0412C46.2914 35.7772 47.2904 36.1909 48.3315 36.1909C49.2985 36.189 50.2309 35.8301 50.9495 35.1827C51.6691 35.8301 52.6014 36.189 53.5684 36.1909C54.6094 36.1909 55.6085 35.7772 56.3454 35.0412C57.0814 34.3042 57.4951 33.3052 57.4951 32.2642H62.5093C62.5093 33.3052 62.9229 34.3042 63.6599 35.0412C64.3959 35.7772 65.3949 36.1909 66.4368 36.1909C67.4039 36.189 68.3362 35.8301 69.0548 35.1827C69.7735 35.8301 70.7059 36.189 71.6729 36.1909C72.7148 36.1909 73.7138 35.7772 74.4498 35.0412C75.1867 34.3042 75.6004 33.3052 75.6004 32.2642V32.1327C77.0788 31.8313 78.4076 31.0278 79.3618 29.8589C80.3161 28.69 80.8375 27.2271 80.8366 25.7186V13.1898C80.8366 11.4539 80.1471 9.78913 78.9198 8.56089C77.6925 7.33359 76.0279 6.64415 74.2909 6.64415H61.8545V1.31579C61.8573 0.782509 61.5367 0.301266 61.0427 0.0985395C60.5532 -0.103271 59.9898 0.010875 59.6163 0.386195L53.3456 6.64427H52.0361V1.31591C52.0343 0.78992 51.7174 0.315995 51.2316 0.113268C50.7467 -0.0894565 50.1869 0.0182981 49.8107 0.386313L43.1209 7.03689C43.0497 7.10903 42.9921 7.19304 42.951 7.28527C41.8251 7.80943 40.8718 8.64315 40.2023 9.68867C39.5321 10.7334 39.1732 11.9479 39.1677 13.1899V25.7186C39.1677 27.2272 39.6882 28.6901 40.6425 29.859C41.5968 31.0278 42.9254 31.8314 44.4039 32.1328L44.4039 32.1327ZM59.2365 4.47049V6.64384H57.0503L59.2365 4.47049ZM49.3788 6.64384H47.2191L49.3925 4.47049L49.3788 6.64384ZM41.7859 13.1895C41.7859 12.1475 42.1995 11.1485 42.9365 10.4125C43.6725 9.67556 44.6715 9.26188 45.7135 9.26188H64.8919V17.2868H67.5099V9.26188H74.3047C75.3457 9.26188 76.3447 9.67554 77.0817 10.4125C77.8177 11.1485 78.2323 12.1475 78.2323 13.1895V25.7182C78.2323 26.7592 77.8177 27.7582 77.0817 28.4952C76.3447 29.2312 75.3457 29.6449 74.3047 29.6449H72.9952V32.2638C72.9952 32.9861 72.4089 33.5724 71.6866 33.5724C70.9634 33.5724 70.3771 32.9862 70.3771 32.2638V30.9543H67.7591V32.2638C67.7591 32.9861 67.1728 33.5724 66.4496 33.5724C65.7264 33.5724 65.141 32.9862 65.141 32.2638V29.6458L54.877 29.6449V32.2638C54.877 32.9862 54.2908 33.5724 53.5684 33.5724C52.8452 33.5724 52.259 32.9862 52.259 32.2638V30.9543H49.6409V32.2638C49.6409 32.9862 49.0547 33.5724 48.3315 33.5724C47.6082 33.5724 47.0229 32.9862 47.0229 32.2638V30.9543C47.0229 30.6073 46.885 30.274 46.6393 30.0284C46.3937 29.7828 46.0604 29.6449 45.7134 29.6449C44.6715 29.6449 43.6724 29.2312 42.9364 28.4952C42.1995 27.7583 41.7858 26.7592 41.7858 25.7182L41.7859 13.1895Z" fill="white"/>
<path d="M45.164 19.1071C45.511 19.1071 45.8444 18.9692 46.09 18.7235C46.3347 18.4779 46.4726 18.1446 46.4726 17.7976V14.6819C46.4726 13.9596 45.8873 13.3733 45.164 13.3733C44.4408 13.3733 43.8545 13.9595 43.8545 14.6819V17.7976C43.8545 18.1446 43.9924 18.4779 44.238 18.7235C44.4837 18.9692 44.817 19.1071 45.164 19.1071H45.164Z" fill="white"/>
<path d="M55.3863 19.1071C55.7333 19.1071 56.0666 18.9692 56.3122 18.7235C56.5579 18.4779 56.6958 18.1446 56.6958 17.7976V14.6819C56.6958 13.9596 56.1095 13.3733 55.3862 13.3733C54.6639 13.3733 54.0776 13.9595 54.0776 14.6819V17.7976C54.0776 18.1446 54.2155 18.4779 54.4612 18.7235C54.7059 18.9692 55.0392 19.1071 55.3862 19.1071H55.3863Z" fill="white"/>
<path d="M46.7202 21.9098L48.2781 22.7873V22.7864C48.8698 23.117 49.5373 23.2887 50.2158 23.2841C50.8898 23.2905 51.5537 23.1188 52.1399 22.7864L53.7635 21.9098C54.3909 21.5546 54.6137 20.7583 54.2603 20.1291C54.0904 19.8205 53.8019 19.5931 53.4622 19.4999C53.1225 19.4059 52.7581 19.4534 52.454 19.6314L50.8962 20.509C50.4907 20.7428 49.9921 20.7428 49.5867 20.509L48.016 19.6314C47.3868 19.2789 46.5905 19.5008 46.2353 20.1291C45.8801 20.7546 46.0965 21.55 46.7202 21.9098H46.7202Z" fill="white"/>
<path d="M70.9531 16.241H73.5711V24.6458H70.9531V16.241Z" fill="white"/>
</g>
<defs>
<filter id="filter0_d_187_236" x="0" y="0" width="118" height="77.5728" filterUnits="userSpaceOnUse" color-interpolation-filters="sRGB">
<feFlood flood-opacity="0" result="BackgroundImageFix"/>
<feColorMatrix in="SourceAlpha" type="matrix" values="0 0 0 0 0 0 0 0 0 0 0 0 0 0 0 0 0 0 127 0" result="hardAlpha"/>
<feOffset dy="4"/>
<feGaussianBlur stdDeviation="2"/>
<feComposite in2="hardAlpha" operator="out"/>
<feColorMatrix type="matrix" values="0 0 0 0 0 0 0 0 0 0 0 0 0 0 0 0 0 0 0.25 0"/>
<feBlend mode="normal" in2="BackgroundImageFix" result="effect1_dropShadow_187_236"/>
<feBlend mode="normal" in="SourceGraphic" in2="effect1_dropShadow_187_236" result="shape"/>
</filter>
</defs>
</svg>
