<svg width="142" height="27" viewBox="0 0 142 27" fill="none" xmlns="http://www.w3.org/2000/svg">
<g filter="url(#filter0_d_66_37)">
<path d="M11.5589 4.974C12.4229 4.974 13.2149 5.184 13.9349 5.604C14.6669 6.012 15.2429 6.606 15.6629 7.386C16.0949 8.166 16.3109 9.066 16.3109 10.086C16.3109 11.106 16.0949 12.006 15.6629 12.786C15.2429 13.554 14.6669 14.148 13.9349 14.568C13.2149 14.976 12.4229 15.18 11.5589 15.18C10.4669 15.18 9.63287 14.898 9.05687 14.334V18.492H4.98887V5.154H8.85887V5.964C9.44687 5.304 10.3469 4.974 11.5589 4.974ZM10.5869 12.012C11.0549 12.012 11.4389 11.844 11.7389 11.508C12.0389 11.172 12.1889 10.698 12.1889 10.086C12.1889 9.474 12.0389 9 11.7389 8.664C11.4389 8.316 11.0549 8.142 10.5869 8.142C10.1189 8.142 9.73487 8.316 9.43487 8.664C9.13487 9 8.98487 9.474 8.98487 10.086C8.98487 10.698 9.13487 11.172 9.43487 11.508C9.73487 11.844 10.1189 12.012 10.5869 12.012ZM24.4324 4.974C25.6444 4.974 26.6164 5.34 27.3484 6.072C28.0924 6.804 28.4644 7.908 28.4644 9.384V15H24.3964V10.086C24.3964 8.958 23.9944 8.394 23.1904 8.394C22.7344 8.394 22.3624 8.556 22.0744 8.88C21.7984 9.192 21.6604 9.69 21.6604 10.374V15H17.5924V1.644H21.6604V5.946C22.4164 5.298 23.3404 4.974 24.4324 4.974ZM41.0173 5.154L36.9673 15.198C36.4513 16.482 35.8093 17.382 35.0413 17.898C34.2733 18.414 33.3313 18.672 32.2153 18.672C31.6633 18.672 31.1053 18.588 30.5413 18.42C29.9893 18.264 29.5513 18.054 29.2273 17.79L30.5773 15C30.7813 15.156 31.0093 15.282 31.2613 15.378C31.5253 15.474 31.7773 15.522 32.0173 15.522C32.4613 15.522 32.7973 15.39 33.0253 15.126L28.8853 5.154H33.0613L35.0953 10.428L37.1653 5.154H41.0173ZM45.3155 15.18C44.4755 15.18 43.6475 15.09 42.8315 14.91C42.0155 14.73 41.3555 14.496 40.8515 14.208L41.9675 11.526C42.4235 11.802 42.9635 12.018 43.5875 12.174C44.2115 12.33 44.8175 12.408 45.4055 12.408C45.8735 12.408 46.1975 12.372 46.3775 12.3C46.5695 12.216 46.6655 12.096 46.6655 11.94C46.6655 11.784 46.5455 11.676 46.3055 11.616C46.0775 11.556 45.6995 11.496 45.1715 11.436C44.3675 11.34 43.6835 11.22 43.1195 11.076C42.5555 10.92 42.0575 10.626 41.6255 10.194C41.2055 9.762 40.9955 9.144 40.9955 8.34C40.9955 7.704 41.1875 7.134 41.5715 6.63C41.9555 6.126 42.5255 5.724 43.2815 5.424C44.0495 5.124 44.9675 4.974 46.0355 4.974C46.7795 4.974 47.5055 5.046 48.2135 5.19C48.9335 5.322 49.5455 5.52 50.0495 5.784L48.9335 8.466C48.0695 7.986 47.1215 7.746 46.0895 7.746C45.2015 7.746 44.7575 7.902 44.7575 8.214C44.7575 8.37 44.8775 8.484 45.1175 8.556C45.3575 8.616 45.7355 8.676 46.2515 8.736C47.0555 8.832 47.7335 8.958 48.2855 9.114C48.8495 9.27 49.3415 9.564 49.7615 9.996C50.1935 10.428 50.4095 11.046 50.4095 11.85C50.4095 12.462 50.2175 13.02 49.8335 13.524C49.4495 14.028 48.8735 14.43 48.1055 14.73C47.3375 15.03 46.4075 15.18 45.3155 15.18ZM51.6412 5.154H55.7092V15H51.6412V5.154ZM53.6752 4.362C52.9432 4.362 52.3492 4.17 51.8932 3.786C51.4492 3.39 51.2272 2.892 51.2272 2.292C51.2272 1.692 51.4492 1.2 51.8932 0.815999C52.3492 0.419999 52.9432 0.221999 53.6752 0.221999C54.4192 0.221999 55.0132 0.407999 55.4572 0.78C55.9012 1.152 56.1232 1.632 56.1232 2.22C56.1232 2.844 55.9012 3.36 55.4572 3.768C55.0132 4.164 54.4192 4.362 53.6752 4.362ZM62.8043 15.18C61.6883 15.18 60.6863 14.964 59.7983 14.532C58.9223 14.1 58.2323 13.494 57.7283 12.714C57.2363 11.934 56.9903 11.052 56.9903 10.068C56.9903 9.084 57.2363 8.208 57.7283 7.44C58.2323 6.66 58.9223 6.054 59.7983 5.622C60.6863 5.19 61.6883 4.974 62.8043 4.974C64.0043 4.974 65.0303 5.232 65.8823 5.748C66.7343 6.264 67.3223 6.978 67.6463 7.89L64.4963 9.438C64.1123 8.574 63.5423 8.142 62.7863 8.142C62.3063 8.142 61.9043 8.31 61.5803 8.646C61.2683 8.982 61.1123 9.456 61.1123 10.068C61.1123 10.692 61.2683 11.172 61.5803 11.508C61.9043 11.844 62.3063 12.012 62.7863 12.012C63.5423 12.012 64.1123 11.58 64.4963 10.716L67.6463 12.264C67.3223 13.176 66.7343 13.89 65.8823 14.406C65.0303 14.922 64.0043 15.18 62.8043 15.18ZM72.9965 4.974C74.7245 4.974 76.0445 5.364 76.9565 6.144C77.8685 6.912 78.3245 8.1 78.3245 9.708V15H74.5445V13.704C74.0765 14.688 73.1465 15.18 71.7545 15.18C70.9745 15.18 70.3085 15.048 69.7565 14.784C69.2165 14.508 68.8025 14.142 68.5145 13.686C68.2385 13.218 68.1005 12.696 68.1005 12.12C68.1005 11.148 68.4725 10.41 69.2165 9.906C69.9605 9.402 71.0885 9.15 72.6005 9.15H74.2385C74.1065 8.382 73.4885 7.998 72.3845 7.998C71.9405 7.998 71.4905 8.07 71.0345 8.214C70.5785 8.346 70.1885 8.532 69.8645 8.772L68.5685 6.09C69.1325 5.742 69.8105 5.472 70.6025 5.28C71.4065 5.076 72.2045 4.974 72.9965 4.974ZM72.9785 12.732C73.2665 12.732 73.5245 12.654 73.7525 12.498C73.9805 12.342 74.1485 12.108 74.2565 11.796V11.112H73.2485C72.4205 11.112 72.0065 11.388 72.0065 11.94C72.0065 12.168 72.0905 12.36 72.2585 12.516C72.4385 12.66 72.6785 12.732 72.9785 12.732ZM80.0826 1.644H84.1506V15H80.0826V1.644ZM103.896 2.4V15H100.404L95.6162 9.276V15H91.4762V2.4H94.9682L99.7562 8.124V2.4H103.896ZM110.191 5.604V7.764H115.447V10.968H110.191V15H105.943V2.4H116.185V5.604H110.191ZM120.351 5.694H116.661V2.4H128.289V5.694H124.599V15H120.351V5.694ZM132.485 15.18C131.645 15.18 130.817 15.09 130.001 14.91C129.185 14.73 128.525 14.496 128.021 14.208L129.137 11.526C129.593 11.802 130.133 12.018 130.757 12.174C131.381 12.33 131.987 12.408 132.575 12.408C133.043 12.408 133.367 12.372 133.547 12.3C133.739 12.216 133.835 12.096 133.835 11.94C133.835 11.784 133.715 11.676 133.475 11.616C133.247 11.556 132.869 11.496 132.341 11.436C131.537 11.34 130.853 11.22 130.289 11.076C129.725 10.92 129.227 10.626 128.795 10.194C128.375 9.762 128.165 9.144 128.165 8.34C128.165 7.704 128.357 7.134 128.741 6.63C129.125 6.126 129.695 5.724 130.451 5.424C131.219 5.124 132.137 4.974 133.205 4.974C133.949 4.974 134.675 5.046 135.383 5.19C136.103 5.322 136.715 5.52 137.219 5.784L136.103 8.466C135.239 7.986 134.291 7.746 133.259 7.746C132.371 7.746 131.927 7.902 131.927 8.214C131.927 8.37 132.047 8.484 132.287 8.556C132.527 8.616 132.905 8.676 133.421 8.736C134.225 8.832 134.903 8.958 135.455 9.114C136.019 9.27 136.511 9.564 136.931 9.996C137.363 10.428 137.579 11.046 137.579 11.85C137.579 12.462 137.387 13.02 137.003 13.524C136.619 14.028 136.043 14.43 135.275 14.73C134.507 15.03 133.577 15.18 132.485 15.18Z" fill="#F5BA94"/>
</g>
<defs>
<filter id="filter0_d_66_37" x="0.988892" y="0.222046" width="140.591" height="26.45" filterUnits="userSpaceOnUse" color-interpolation-filters="sRGB">
<feFlood flood-opacity="0" result="BackgroundImageFix"/>
<feColorMatrix in="SourceAlpha" type="matrix" values="0 0 0 0 0 0 0 0 0 0 0 0 0 0 0 0 0 0 127 0" result="hardAlpha"/>
<feOffset dy="4"/>
<feGaussianBlur stdDeviation="2"/>
<feComposite in2="hardAlpha" operator="out"/>
<feColorMatrix type="matrix" values="0 0 0 0 0 0 0 0 0 0 0 0 0 0 0 0 0 0 0.25 0"/>
<feBlend mode="normal" in2="BackgroundImageFix" result="effect1_dropShadow_66_37"/>
<feBlend mode="normal" in="SourceGraphic" in2="effect1_dropShadow_66_37" result="shape"/>
</filter>
</defs>
</svg>
