<svg width="379" height="189" viewBox="0 0 379 189" fill="none" xmlns="http://www.w3.org/2000/svg">
<g filter="url(#filter0_d_0_1)">
<rect x="4" width="371" height="181" rx="9" fill="#C0ACB2"/>
</g>
<g filter="url(#filter1_d_0_1)">
<path d="M202.212 41.024H199.476L200.004 34.64H214.02V28.4H193.524L191.796 47.312H200.388C206.484 47.312 208.212 49.04 208.212 51.68C208.212 54.416 205.812 56.048 201.924 56.048C198.42 56.048 194.916 54.944 192.372 53.024L189.3 58.976C192.564 61.28 197.46 62.576 202.116 62.576C211.716 62.576 216.084 57.392 216.084 51.44C216.084 45.488 212.148 41.024 202.212 41.024ZM223.703 53.072C221.063 53.072 219.047 54.896 219.047 57.68C219.047 59.648 220.055 61.136 221.639 61.76L219.527 69.392H224.279L227.015 62.48C228.119 59.84 228.311 58.928 228.311 57.68C228.311 54.944 226.391 53.072 223.703 53.072ZM245.592 62.576C253.896 62.576 259.992 56.288 259.992 45.2C259.992 34.112 253.896 27.824 245.592 27.824C237.336 27.824 231.192 34.112 231.192 45.2C231.192 56.288 237.336 62.576 245.592 62.576ZM245.592 56C241.752 56 239.064 52.832 239.064 45.2C239.064 37.568 241.752 34.4 245.592 34.4C249.48 34.4 252.168 37.568 252.168 45.2C252.168 52.832 249.48 56 245.592 56ZM278.17 62.576C286.474 62.576 292.57 56.288 292.57 45.2C292.57 34.112 286.474 27.824 278.17 27.824C269.914 27.824 263.77 34.112 263.77 45.2C263.77 56.288 269.914 62.576 278.17 62.576ZM278.17 56C274.33 56 271.642 52.832 271.642 45.2C271.642 37.568 274.33 34.4 278.17 34.4C282.058 34.4 284.746 37.568 284.746 45.2C284.746 52.832 282.058 56 278.17 56ZM310.749 62.576C319.053 62.576 325.149 56.288 325.149 45.2C325.149 34.112 319.053 27.824 310.749 27.824C302.493 27.824 296.349 34.112 296.349 45.2C296.349 56.288 302.493 62.576 310.749 62.576ZM310.749 56C306.909 56 304.221 52.832 304.221 45.2C304.221 37.568 306.909 34.4 310.749 34.4C314.637 34.4 317.325 37.568 317.325 45.2C317.325 52.832 314.637 56 310.749 56ZM253.514 79.112C255.768 79.112 257.07 78.118 257.07 76.718C257.07 73.75 252.52 74.996 252.52 73.708C252.52 73.316 252.94 73.008 253.92 73.008C254.606 73.008 255.348 73.148 256.09 73.568L256.818 72.014C256.104 71.594 254.956 71.356 253.92 71.356C251.722 71.356 250.434 72.364 250.434 73.792C250.434 76.802 254.984 75.542 254.984 76.774C254.984 77.194 254.606 77.46 253.598 77.46C252.674 77.46 251.652 77.166 250.98 76.732L250.252 78.3C250.952 78.762 252.24 79.112 253.514 79.112ZM259.509 70.418C260.321 70.418 260.867 69.886 260.867 69.158C260.867 68.486 260.321 67.982 259.509 67.982C258.697 67.982 258.151 68.514 258.151 69.2C258.151 69.886 258.697 70.418 259.509 70.418ZM258.417 79H260.601V71.468H258.417V79ZM268.326 71.468V72.434C267.752 71.706 266.884 71.356 265.834 71.356C263.748 71.356 262.068 72.798 262.068 74.996C262.068 77.194 263.748 78.636 265.834 78.636C266.814 78.636 267.64 78.328 268.214 77.698V78.02C268.214 79.378 267.542 80.078 266.002 80.078C265.036 80.078 263.986 79.742 263.342 79.224L262.474 80.792C263.356 81.478 264.742 81.828 266.17 81.828C268.886 81.828 270.398 80.54 270.398 77.74V71.468H268.326ZM266.268 76.844C265.12 76.844 264.28 76.102 264.28 74.996C264.28 73.89 265.12 73.148 266.268 73.148C267.416 73.148 268.242 73.89 268.242 74.996C268.242 76.102 267.416 76.844 266.268 76.844ZM277.009 71.356C275.987 71.356 275.105 71.706 274.517 72.35V71.468H272.431V79H274.615V75.276C274.615 73.89 275.371 73.246 276.421 73.246C277.387 73.246 277.947 73.806 277.947 75.024V79H280.131V74.688C280.131 72.392 278.787 71.356 277.009 71.356ZM291.479 71.468V75.192C291.479 76.578 290.751 77.222 289.743 77.222C288.777 77.222 288.217 76.662 288.217 75.402V71.468H286.033V75.724C286.033 78.048 287.363 79.112 289.253 79.112C290.177 79.112 291.017 78.762 291.591 78.104V79H293.663V71.468H291.479ZM300.139 71.356C299.131 71.356 298.319 71.678 297.773 72.336V71.468H295.687V81.716H297.871V78.202C298.431 78.818 299.201 79.112 300.139 79.112C302.253 79.112 303.891 77.6 303.891 75.234C303.891 72.868 302.253 71.356 300.139 71.356ZM299.761 77.32C298.669 77.32 297.843 76.536 297.843 75.234C297.843 73.932 298.669 73.148 299.761 73.148C300.853 73.148 301.679 73.932 301.679 75.234C301.679 76.536 300.853 77.32 299.761 77.32ZM307.887 79.112C310.141 79.112 311.443 78.118 311.443 76.718C311.443 73.75 306.893 74.996 306.893 73.708C306.893 73.316 307.313 73.008 308.293 73.008C308.979 73.008 309.721 73.148 310.463 73.568L311.191 72.014C310.477 71.594 309.329 71.356 308.293 71.356C306.095 71.356 304.807 72.364 304.807 73.792C304.807 76.802 309.357 75.542 309.357 76.774C309.357 77.194 308.979 77.46 307.971 77.46C307.047 77.46 306.025 77.166 305.353 76.732L304.625 78.3C305.325 78.762 306.613 79.112 307.887 79.112Z" fill="white"/>
</g>
<path d="M71.6006 127.533C72.3123 127.533 73.0494 127.508 73.761 127.457L73.5069 123.39C72.8714 123.441 72.236 123.441 71.6006 123.441C67.0511 123.441 62.8064 122.475 59.6548 120.721C56.91 119.196 55.334 117.214 55.334 115.308C55.334 114.85 55.4102 114.393 55.5881 113.961L51.7757 112.563C51.4453 113.427 51.2928 114.367 51.2928 115.282C51.2674 122.17 60.1886 127.533 71.6008 127.533L71.6006 127.533Z" fill="black"/>
<path d="M37.0333 48.2333C41.532 48.2333 45.1667 51.868 45.1667 56.3667C45.1667 57.485 46.0817 58.4 47.2 58.4C48.3183 58.4 49.2333 57.485 49.2333 56.3667C49.2333 51.868 52.868 48.2333 57.3667 48.2333C58.485 48.2333 59.4 47.3183 59.4 46.2C59.4 45.0817 58.485 44.1667 57.3667 44.1667C52.868 44.1667 49.2333 40.532 49.2333 36.0333C49.2333 34.915 48.3183 34 47.2 34C46.0817 34 45.1667 34.915 45.1667 36.0333C45.1667 40.532 41.532 44.1667 37.0333 44.1667C35.915 44.1667 35 45.0817 35 46.2C35 47.3183 35.915 48.2333 37.0333 48.2333ZM47.2 42.7687C48.115 44.1158 49.2588 45.2849 50.6313 46.2C49.2842 47.115 48.1151 48.2588 47.2 49.6313C46.285 48.2842 45.1412 47.1151 43.7687 46.2C45.1412 45.285 46.2849 44.1412 47.2 42.7687Z" fill="black"/>
<path d="M73.8871 98.5319L76.6576 95.5582C65.1185 84.8577 64.4576 66.8638 75.158 55.3237C84.1809 45.589 98.7191 43.4033 110.234 50.0117L112.267 46.4788C96.6865 37.5068 76.8102 42.8697 67.838 58.4246C60.2384 71.5651 62.7547 88.2135 73.8871 98.5312L73.8871 98.5319Z" fill="black"/>
<path d="M96.0008 103.133C91.3751 103.133 86.8255 102.015 82.7079 99.8547L80.8017 103.438C96.687 111.826 116.384 105.726 124.773 89.8404C131.229 77.6151 129.246 62.6705 119.867 52.5294L116.894 55.2998C127.594 66.8389 126.908 84.8331 115.369 95.5342C110.082 100.414 103.169 103.134 96.0012 103.134L96.0008 103.133Z" fill="black"/>
<path d="M95.0085 52.5542L76.7085 62.7209C76.073 63.0767 75.6664 63.763 75.6664 64.5V84.8334C75.6664 85.5705 76.073 86.2567 76.7085 86.6125L95.0085 96.7792C95.6185 97.1096 96.381 97.1096 96.991 96.7792L115.291 86.6125C115.926 86.2567 116.333 85.5704 116.333 84.8334V64.5C116.333 63.7629 115.926 63.0767 115.291 62.7209L96.991 52.5542C96.381 52.2238 95.6185 52.2238 95.0085 52.5542ZM112.266 83.6398L95.9998 92.6883L79.7331 83.6398V65.6956L95.9998 56.6471L112.266 65.6956V83.6398Z" fill="black"/>
<path d="M86.9517 66.7376L88.7817 70.3723L95.9237 66.8141L104.159 71.745V78.7345H108.225V70.6012C108.225 69.8895 107.844 69.2287 107.234 68.8474L97.0676 62.7474C96.483 62.3916 95.7459 62.3662 95.1105 62.6712L86.9517 66.7376Z" fill="black"/>
<path d="M145.743 84.02C146.48 80.9447 146.836 77.8182 146.836 74.6667C146.836 52.2491 128.587 34 106.169 34H96.0023C73.5848 34 55.3356 52.2491 55.3356 74.6667C55.3356 79.5467 56.1998 84.3504 57.9281 88.9253C51.8281 90.8316 46.5414 93.9578 42.5001 98.0753C37.5947 103.057 35.0021 109.03 35.0021 115.333V129.567C35.0021 136.76 38.8907 143.47 45.9821 148.477C52.8445 153.331 61.9439 156 71.6021 156C81.2603 156 90.3596 153.331 97.2221 148.477C100.882 145.884 103.703 142.834 105.559 139.505C110.363 141.004 115.37 141.767 120.402 141.767C130.06 141.767 139.16 139.098 146.022 134.243C153.113 129.236 157.002 122.526 157.002 115.333V103.133C157.002 95.8896 152.91 89.0019 145.743 84.0201L145.743 84.02ZM152.936 103.133C152.936 115.46 138.347 125.5 120.402 125.5C116.285 125.525 112.167 124.966 108.202 123.873V119.705C112.167 120.874 116.285 121.459 120.402 121.433C127.824 121.433 134.839 119.629 140.151 116.375C145.768 112.919 148.869 108.217 148.869 103.133C148.869 99.0412 146.785 95.1017 142.972 91.9246C143.557 90.7046 144.065 89.4337 144.523 88.1628C149.911 92.2803 152.936 97.6179 152.936 103.133L152.936 103.133ZM122.436 129.516C125.18 129.414 127.9 129.083 130.569 128.524V136.556C127.9 137.166 125.18 137.522 122.436 137.623V129.516ZM134.559 127.533C137.406 126.694 140.177 125.525 142.769 124.076V131.549C140.227 133.175 137.508 134.497 134.636 135.437V127.533L134.559 127.533ZM135.119 52.2997C137.05 54.7906 138.651 57.5355 139.897 60.4331H134.102C133.034 57.5864 131.636 54.8415 129.959 52.2997H135.119ZM144.802 103.133C144.802 106.742 142.388 110.224 138.016 112.893C133.339 115.765 127.087 117.366 120.402 117.366C116.259 117.392 112.142 116.731 108.202 115.435V115.333V115.282C121.724 114.596 134.024 107.225 141.015 95.6098C143.48 97.8719 144.802 100.49 144.802 103.133L144.802 103.133ZM136.618 72.6331C136.491 69.8882 136.059 67.1684 135.373 64.4997H141.32C142.083 67.1431 142.54 69.8882 142.693 72.6331H136.618ZM136.618 76.6997H142.718C142.566 79.4446 142.108 82.1897 141.346 84.8331H135.398C136.059 82.1644 136.491 79.4446 136.618 76.6997H136.618ZM134.102 88.8997H139.897C138.652 91.7973 137.05 94.5422 135.119 97.0331H129.959C131.637 94.4913 133.035 91.7464 134.102 88.8997H134.102ZM126.884 101.1H131.459C127.24 105.141 122.105 108.115 116.488 109.792C120.403 107.479 123.935 104.556 126.884 101.1V101.1ZM131.459 48.2331H126.884C123.935 44.7764 120.428 41.8535 116.488 39.5406C122.105 41.2181 127.24 44.192 131.459 48.2331ZM96.0021 38.0664C116.183 38.0664 132.602 54.4855 132.602 74.6664C132.602 94.8473 116.183 111.266 96.0021 111.266C75.8212 111.266 59.4021 94.8473 59.4021 74.6664C59.4021 54.4855 75.8212 38.0664 96.0021 38.0664ZM45.3965 100.898C49.0056 97.2376 53.9618 94.34 59.5536 92.6624C60.1636 93.9079 60.8499 95.1024 61.5869 96.2715C50.5561 99.22 43.1345 106.692 43.1345 115.334C43.1345 118.587 44.2274 121.79 46.2607 124.662L49.5649 122.298C47.9891 120.112 47.2012 117.774 47.2012 115.36C47.2012 111.75 48.9549 108.344 52.2845 105.472C55.3092 102.854 59.4521 100.897 64.1032 99.9062C65.0944 101.152 66.1365 102.321 67.2547 103.439C62.9847 103.973 59.0961 105.32 56.2238 107.302L58.5367 110.658C61.6883 108.446 66.4414 107.201 71.601 107.201V107.175C76.3792 110.785 81.8947 113.275 87.7658 114.495C87.8421 114.775 87.8675 115.055 87.8675 115.334C87.8675 118.181 84.3855 121.053 79.2004 122.476L80.2933 126.39C87.4862 124.408 91.9595 120.163 91.9595 115.309V115.105C93.3066 115.232 94.6538 115.309 96.0262 115.309H104.16C104.16 128.754 89.5704 139.709 71.6262 139.709C53.682 139.709 39.0673 128.78 39.0673 115.334C39.0673 110.098 41.2531 105.117 45.396 100.898H45.3965ZM49.2345 137.879C51.8016 139.404 54.5212 140.649 57.3678 141.564V149.672C54.4958 148.732 51.7763 147.41 49.2345 145.783V137.879ZM61.4345 142.682C64.1032 143.267 66.823 143.623 69.5678 143.75V151.883C66.823 151.782 64.1032 151.4 61.4345 150.816V142.682ZM73.6345 143.75C76.3794 143.648 79.0992 143.292 81.7678 142.682V150.79C79.0992 151.4 76.3794 151.756 73.6345 151.858V143.75ZM85.8345 141.59C88.6812 140.675 91.4007 139.429 93.9678 137.904V145.809C91.4261 147.436 88.7065 148.757 85.8345 149.698V141.59ZM39.0678 129.568V128.424C40.7453 130.915 42.8041 133.151 45.1678 135.032V142.581C41.3298 138.921 39.0678 134.422 39.0678 129.568V129.568ZM98.0345 142.581V135.032C100.398 133.151 102.457 130.915 104.135 128.424V129.568C104.135 134.422 101.872 138.921 98.0345 142.581V142.581ZM108.201 129.568V128.068C111.531 128.907 114.936 129.39 118.368 129.517V137.65C114.581 137.498 110.819 136.862 107.21 135.769C107.871 133.761 108.201 131.677 108.201 129.567L108.201 129.568ZM152.935 115.334C152.935 120.189 150.672 124.688 146.835 128.348V121.434C149.173 119.731 151.232 117.647 152.935 115.334Z" fill="black"/>
<path d="M55.9683 127.786L53.9858 131.345C59.0438 134.166 65.1183 135.666 71.5996 135.666C83.5201 135.666 94.2712 130.328 98.3374 122.347L94.7283 120.492C91.3478 127.126 82.0454 131.574 71.5992 131.574C65.9058 131.599 60.3649 130.252 55.9678 127.787L55.9683 127.786Z" fill="black"/>
<path d="M120.401 147.867C117.122 147.867 113.843 147.562 110.615 146.977L109.878 150.967C113.36 151.603 116.893 151.933 120.426 151.933C129.78 151.933 138.904 149.671 146.123 145.579L144.115 142.046C137.481 145.782 129.068 147.867 120.4 147.867L120.401 147.867Z" fill="black"/>
<path d="M147.647 139.708L150.087 142.961C151.638 141.817 153.086 140.521 154.434 139.123L151.46 136.353C150.291 137.573 149.02 138.691 147.647 139.708V139.708Z" fill="black"/>
<path d="M46.7685 61.9576C46.4127 63.3556 46.1077 64.779 45.879 66.2023L49.8947 66.8632C50.1235 65.5669 50.4031 64.2452 50.7335 62.9745L46.7685 61.9576Z" fill="black"/>
<path d="M45.3461 70.421C45.219 71.8189 45.1682 73.2424 45.1682 74.6657C45.1682 78.961 45.7019 83.231 46.7694 87.3741L50.709 86.3575C49.7177 82.545 49.2348 78.6055 49.2348 74.6659C49.2348 73.3697 49.2856 72.0479 49.3873 70.7773L45.3461 70.421Z" fill="black"/>
<path d="M179.16 91.02V93.61H183.696V95.43H179.16V99H176.892V89.2H184.298V91.02H179.16ZM185.543 91.468H187.727V99H185.543V91.468ZM186.635 90.418C186.234 90.418 185.907 90.3013 185.655 90.068C185.403 89.8347 185.277 89.5453 185.277 89.2C185.277 88.8547 185.403 88.5653 185.655 88.332C185.907 88.0987 186.234 87.982 186.635 87.982C187.036 87.982 187.363 88.094 187.615 88.318C187.867 88.542 187.993 88.822 187.993 89.158C187.993 89.522 187.867 89.8253 187.615 90.068C187.363 90.3013 187.036 90.418 186.635 90.418ZM191.84 92.462C192.101 92.098 192.451 91.8227 192.89 91.636C193.338 91.4493 193.851 91.356 194.43 91.356V93.372C194.187 93.3533 194.024 93.344 193.94 93.344C193.315 93.344 192.825 93.5213 192.47 93.876C192.115 94.2213 191.938 94.744 191.938 95.444V99H189.754V91.468H191.84V92.462ZM198.29 99.112C197.665 99.112 197.053 99.0373 196.456 98.888C195.859 98.7293 195.383 98.5333 195.028 98.3L195.756 96.732C196.092 96.9467 196.498 97.124 196.974 97.264C197.45 97.3947 197.917 97.46 198.374 97.46C199.298 97.46 199.76 97.2313 199.76 96.774C199.76 96.5593 199.634 96.4053 199.382 96.312C199.13 96.2187 198.743 96.1393 198.22 96.074C197.604 95.9807 197.095 95.8733 196.694 95.752C196.293 95.6307 195.943 95.416 195.644 95.108C195.355 94.8 195.21 94.3613 195.21 93.792C195.21 93.316 195.345 92.896 195.616 92.532C195.896 92.1587 196.297 91.8693 196.82 91.664C197.352 91.4587 197.977 91.356 198.696 91.356C199.228 91.356 199.755 91.4167 200.278 91.538C200.81 91.65 201.249 91.8087 201.594 92.014L200.866 93.568C200.203 93.1947 199.48 93.008 198.696 93.008C198.229 93.008 197.879 93.0733 197.646 93.204C197.413 93.3347 197.296 93.5027 197.296 93.708C197.296 93.9413 197.422 94.1047 197.674 94.198C197.926 94.2913 198.327 94.38 198.878 94.464C199.494 94.5667 199.998 94.6787 200.39 94.8C200.782 94.912 201.123 95.122 201.412 95.43C201.701 95.738 201.846 96.1673 201.846 96.718C201.846 97.1847 201.706 97.6 201.426 97.964C201.146 98.328 200.735 98.6127 200.194 98.818C199.662 99.014 199.027 99.112 198.29 99.112ZM208.052 98.636C207.837 98.7947 207.571 98.916 207.254 99C206.946 99.0747 206.619 99.112 206.274 99.112C205.378 99.112 204.682 98.8833 204.188 98.426C203.702 97.9687 203.46 97.2967 203.46 96.41V93.316H202.298V91.636H203.46V89.802H205.644V91.636H207.52V93.316H205.644V96.382C205.644 96.6993 205.723 96.9467 205.882 97.124C206.05 97.292 206.283 97.376 206.582 97.376C206.927 97.376 207.221 97.2827 207.464 97.096L208.052 98.636ZM216.14 92.882C217.522 92.882 218.539 93.1573 219.192 93.708C219.855 94.2587 220.186 94.996 220.186 95.92C220.186 96.5173 220.037 97.0633 219.738 97.558C219.44 98.0433 218.982 98.4353 218.366 98.734C217.76 99.0233 217.008 99.168 216.112 99.168C215.422 99.168 214.74 99.0793 214.068 98.902C213.406 98.7153 212.841 98.454 212.374 98.118L213.27 96.382C213.644 96.662 214.073 96.8813 214.558 97.04C215.044 97.1893 215.543 97.264 216.056 97.264C216.626 97.264 217.074 97.152 217.4 96.928C217.727 96.704 217.89 96.3913 217.89 95.99C217.89 95.57 217.718 95.2527 217.372 95.038C217.036 94.8233 216.448 94.716 215.608 94.716H213.102L213.606 89.2H219.584V91.02H215.496L215.342 92.882H216.14ZM225.307 99.168C224.495 99.168 223.771 98.9673 223.137 98.566C222.502 98.1647 222.003 97.586 221.639 96.83C221.284 96.0647 221.107 95.1547 221.107 94.1C221.107 93.0453 221.284 92.14 221.639 91.384C222.003 90.6187 222.502 90.0353 223.137 89.634C223.771 89.2327 224.495 89.032 225.307 89.032C226.119 89.032 226.842 89.2327 227.477 89.634C228.111 90.0353 228.606 90.6187 228.961 91.384C229.325 92.14 229.507 93.0453 229.507 94.1C229.507 95.1547 229.325 96.0647 228.961 96.83C228.606 97.586 228.111 98.1647 227.477 98.566C226.842 98.9673 226.119 99.168 225.307 99.168ZM225.307 97.25C225.904 97.25 226.371 96.9933 226.707 96.48C227.052 95.9667 227.225 95.1733 227.225 94.1C227.225 93.0267 227.052 92.2333 226.707 91.72C226.371 91.2067 225.904 90.95 225.307 90.95C224.719 90.95 224.252 91.2067 223.907 91.72C223.571 92.2333 223.403 93.0267 223.403 94.1C223.403 95.1733 223.571 95.9667 223.907 96.48C224.252 96.9933 224.719 97.25 225.307 97.25ZM234.809 99.168C233.997 99.168 233.273 98.9673 232.639 98.566C232.004 98.1647 231.505 97.586 231.141 96.83C230.786 96.0647 230.609 95.1547 230.609 94.1C230.609 93.0453 230.786 92.14 231.141 91.384C231.505 90.6187 232.004 90.0353 232.639 89.634C233.273 89.2327 233.997 89.032 234.809 89.032C235.621 89.032 236.344 89.2327 236.979 89.634C237.613 90.0353 238.108 90.6187 238.463 91.384C238.827 92.14 239.009 93.0453 239.009 94.1C239.009 95.1547 238.827 96.0647 238.463 96.83C238.108 97.586 237.613 98.1647 236.979 98.566C236.344 98.9673 235.621 99.168 234.809 99.168ZM234.809 97.25C235.406 97.25 235.873 96.9933 236.209 96.48C236.554 95.9667 236.727 95.1733 236.727 94.1C236.727 93.0267 236.554 92.2333 236.209 91.72C235.873 91.2067 235.406 90.95 234.809 90.95C234.221 90.95 233.754 91.2067 233.409 91.72C233.073 92.2333 232.905 93.0267 232.905 94.1C232.905 95.1733 233.073 95.9667 233.409 96.48C233.754 96.9933 234.221 97.25 234.809 97.25ZM244.31 99.168C243.498 99.168 242.775 98.9673 242.14 98.566C241.506 98.1647 241.006 97.586 240.642 96.83C240.288 96.0647 240.11 95.1547 240.11 94.1C240.11 93.0453 240.288 92.14 240.642 91.384C241.006 90.6187 241.506 90.0353 242.14 89.634C242.775 89.2327 243.498 89.032 244.31 89.032C245.122 89.032 245.846 89.2327 246.48 89.634C247.115 90.0353 247.61 90.6187 247.964 91.384C248.328 92.14 248.51 93.0453 248.51 94.1C248.51 95.1547 248.328 96.0647 247.964 96.83C247.61 97.586 247.115 98.1647 246.48 98.566C245.846 98.9673 245.122 99.168 244.31 99.168ZM244.31 97.25C244.908 97.25 245.374 96.9933 245.71 96.48C246.056 95.9667 246.228 95.1733 246.228 94.1C246.228 93.0267 246.056 92.2333 245.71 91.72C245.374 91.2067 244.908 90.95 244.31 90.95C243.722 90.95 243.256 91.2067 242.91 91.72C242.574 92.2333 242.406 93.0267 242.406 94.1C242.406 95.1733 242.574 95.9667 242.91 96.48C243.256 96.9933 243.722 97.25 244.31 97.25ZM256.573 99.112C255.948 99.112 255.337 99.0373 254.739 98.888C254.142 98.7293 253.666 98.5333 253.311 98.3L254.039 96.732C254.375 96.9467 254.781 97.124 255.257 97.264C255.733 97.3947 256.2 97.46 256.657 97.46C257.581 97.46 258.043 97.2313 258.043 96.774C258.043 96.5593 257.917 96.4053 257.665 96.312C257.413 96.2187 257.026 96.1393 256.503 96.074C255.887 95.9807 255.379 95.8733 254.977 95.752C254.576 95.6307 254.226 95.416 253.927 95.108C253.638 94.8 253.493 94.3613 253.493 93.792C253.493 93.316 253.629 92.896 253.899 92.532C254.179 92.1587 254.581 91.8693 255.103 91.664C255.635 91.4587 256.261 91.356 256.979 91.356C257.511 91.356 258.039 91.4167 258.561 91.538C259.093 91.65 259.532 91.8087 259.877 92.014L259.149 93.568C258.487 93.1947 257.763 93.008 256.979 93.008C256.513 93.008 256.163 93.0733 255.929 93.204C255.696 93.3347 255.579 93.5027 255.579 93.708C255.579 93.9413 255.705 94.1047 255.957 94.198C256.209 94.2913 256.611 94.38 257.161 94.464C257.777 94.5667 258.281 94.6787 258.673 94.8C259.065 94.912 259.406 95.122 259.695 95.43C259.985 95.738 260.129 96.1673 260.129 96.718C260.129 97.1847 259.989 97.6 259.709 97.964C259.429 98.328 259.019 98.6127 258.477 98.818C257.945 99.014 257.311 99.112 256.573 99.112ZM261.477 91.468H263.661V99H261.477V91.468ZM262.569 90.418C262.167 90.418 261.841 90.3013 261.589 90.068C261.337 89.8347 261.211 89.5453 261.211 89.2C261.211 88.8547 261.337 88.5653 261.589 88.332C261.841 88.0987 262.167 87.982 262.569 87.982C262.97 87.982 263.297 88.094 263.549 88.318C263.801 88.542 263.927 88.822 263.927 89.158C263.927 89.522 263.801 89.8253 263.549 90.068C263.297 90.3013 262.97 90.418 262.569 90.418ZM273.458 91.468V97.74C273.458 99.1213 273.098 100.148 272.38 100.82C271.661 101.492 270.611 101.828 269.23 101.828C268.502 101.828 267.811 101.739 267.158 101.562C266.504 101.385 265.963 101.128 265.534 100.792L266.402 99.224C266.719 99.4853 267.12 99.6907 267.606 99.84C268.091 99.9987 268.576 100.078 269.062 100.078C269.818 100.078 270.373 99.9053 270.728 99.56C271.092 99.224 271.274 98.7107 271.274 98.02V97.698C270.704 98.3233 269.911 98.636 268.894 98.636C268.203 98.636 267.568 98.4867 266.99 98.188C266.42 97.88 265.968 97.4507 265.632 96.9C265.296 96.3493 265.128 95.7147 265.128 94.996C265.128 94.2773 265.296 93.6427 265.632 93.092C265.968 92.5413 266.42 92.1167 266.99 91.818C267.568 91.51 268.203 91.356 268.894 91.356C269.986 91.356 270.816 91.7153 271.386 92.434V91.468H273.458ZM269.328 96.844C269.906 96.844 270.378 96.676 270.742 96.34C271.115 95.9947 271.302 95.5467 271.302 94.996C271.302 94.4453 271.115 94.002 270.742 93.666C270.378 93.3207 269.906 93.148 269.328 93.148C268.749 93.148 268.273 93.3207 267.9 93.666C267.526 94.002 267.34 94.4453 267.34 94.996C267.34 95.5467 267.526 95.9947 267.9 96.34C268.273 96.676 268.749 96.844 269.328 96.844ZM280.068 91.356C281.002 91.356 281.753 91.636 282.322 92.196C282.901 92.756 283.19 93.5867 283.19 94.688V99H281.006V95.024C281.006 94.4267 280.876 93.9833 280.614 93.694C280.353 93.3953 279.975 93.246 279.48 93.246C278.93 93.246 278.491 93.4187 278.164 93.764C277.838 94.1 277.674 94.604 277.674 95.276V99H275.49V91.468H277.576V92.35C277.866 92.0327 278.225 91.79 278.654 91.622C279.084 91.4447 279.555 91.356 280.068 91.356ZM296.723 91.468V99H294.651V98.104C294.362 98.4307 294.016 98.6827 293.615 98.86C293.214 99.028 292.78 99.112 292.313 99.112C291.324 99.112 290.54 98.8273 289.961 98.258C289.382 97.6887 289.093 96.844 289.093 95.724V91.468H291.277V95.402C291.277 96.6153 291.786 97.222 292.803 97.222C293.326 97.222 293.746 97.054 294.063 96.718C294.38 96.3727 294.539 95.864 294.539 95.192V91.468H296.723ZM303.198 91.356C303.898 91.356 304.533 91.5193 305.102 91.846C305.681 92.1633 306.134 92.616 306.46 93.204C306.787 93.7827 306.95 94.4593 306.95 95.234C306.95 96.0087 306.787 96.69 306.46 97.278C306.134 97.8567 305.681 98.3093 305.102 98.636C304.533 98.9533 303.898 99.112 303.198 99.112C302.237 99.112 301.481 98.8087 300.93 98.202V101.716H298.746V91.468H300.832V92.336C301.374 91.6827 302.162 91.356 303.198 91.356ZM302.82 97.32C303.38 97.32 303.838 97.1333 304.192 96.76C304.556 96.3773 304.738 95.8687 304.738 95.234C304.738 94.5993 304.556 94.0953 304.192 93.722C303.838 93.3393 303.38 93.148 302.82 93.148C302.26 93.148 301.798 93.3393 301.434 93.722C301.08 94.0953 300.902 94.5993 300.902 95.234C300.902 95.8687 301.08 96.3773 301.434 96.76C301.798 97.1333 302.26 97.32 302.82 97.32ZM310.946 99.112C310.321 99.112 309.71 99.0373 309.112 98.888C308.515 98.7293 308.039 98.5333 307.684 98.3L308.412 96.732C308.748 96.9467 309.154 97.124 309.63 97.264C310.106 97.3947 310.573 97.46 311.03 97.46C311.954 97.46 312.416 97.2313 312.416 96.774C312.416 96.5593 312.29 96.4053 312.038 96.312C311.786 96.2187 311.399 96.1393 310.876 96.074C310.26 95.9807 309.752 95.8733 309.35 95.752C308.949 95.6307 308.599 95.416 308.3 95.108C308.011 94.8 307.866 94.3613 307.866 93.792C307.866 93.316 308.002 92.896 308.272 92.532C308.552 92.1587 308.954 91.8693 309.476 91.664C310.008 91.4587 310.634 91.356 311.352 91.356C311.884 91.356 312.412 91.4167 312.934 91.538C313.466 91.65 313.905 91.8087 314.25 92.014L313.522 93.568C312.86 93.1947 312.136 93.008 311.352 93.008C310.886 93.008 310.536 93.0733 310.302 93.204C310.069 93.3347 309.952 93.5027 309.952 93.708C309.952 93.9413 310.078 94.1047 310.33 94.198C310.582 94.2913 310.984 94.38 311.534 94.464C312.15 94.5667 312.654 94.6787 313.046 94.8C313.438 94.912 313.779 95.122 314.068 95.43C314.358 95.738 314.502 96.1673 314.502 96.718C314.502 97.1847 314.362 97.6 314.082 97.964C313.802 98.328 313.392 98.6127 312.85 98.818C312.318 99.014 311.684 99.112 310.946 99.112ZM322.853 91.356C324.019 91.356 324.915 91.636 325.541 92.196C326.166 92.7467 326.479 93.582 326.479 94.702V99H324.435V98.062C324.024 98.762 323.259 99.112 322.139 99.112C321.56 99.112 321.056 99.014 320.627 98.818C320.207 98.622 319.885 98.3513 319.661 98.006C319.437 97.6607 319.325 97.2687 319.325 96.83C319.325 96.13 319.586 95.5793 320.109 95.178C320.641 94.7767 321.457 94.576 322.559 94.576H324.295C324.295 94.1 324.15 93.736 323.861 93.484C323.571 93.2227 323.137 93.092 322.559 93.092C322.157 93.092 321.761 93.1573 321.369 93.288C320.986 93.4093 320.659 93.5773 320.389 93.792L319.605 92.266C320.015 91.9767 320.505 91.7527 321.075 91.594C321.653 91.4353 322.246 91.356 322.853 91.356ZM322.685 97.642C323.058 97.642 323.389 97.558 323.679 97.39C323.968 97.2127 324.173 96.956 324.295 96.62V95.85H322.797C321.901 95.85 321.453 96.144 321.453 96.732C321.453 97.012 321.56 97.236 321.775 97.404C321.999 97.5627 322.302 97.642 322.685 97.642ZM328.455 88.612H330.639V99H328.455V88.612ZM335.2 99.112C334.575 99.112 333.964 99.0373 333.366 98.888C332.769 98.7293 332.293 98.5333 331.938 98.3L332.666 96.732C333.002 96.9467 333.408 97.124 333.884 97.264C334.36 97.3947 334.827 97.46 335.284 97.46C336.208 97.46 336.67 97.2313 336.67 96.774C336.67 96.5593 336.544 96.4053 336.292 96.312C336.04 96.2187 335.653 96.1393 335.13 96.074C334.514 95.9807 334.006 95.8733 333.604 95.752C333.203 95.6307 332.853 95.416 332.554 95.108C332.265 94.8 332.12 94.3613 332.12 93.792C332.12 93.316 332.256 92.896 332.526 92.532C332.806 92.1587 333.208 91.8693 333.73 91.664C334.262 91.4587 334.888 91.356 335.606 91.356C336.138 91.356 336.666 91.4167 337.188 91.538C337.72 91.65 338.159 91.8087 338.504 92.014L337.776 93.568C337.114 93.1947 336.39 93.008 335.606 93.008C335.14 93.008 334.79 93.0733 334.556 93.204C334.323 93.3347 334.206 93.5027 334.206 93.708C334.206 93.9413 334.332 94.1047 334.584 94.198C334.836 94.2913 335.238 94.38 335.788 94.464C336.404 94.5667 336.908 94.6787 337.3 94.8C337.692 94.912 338.033 95.122 338.322 95.43C338.612 95.738 338.756 96.1673 338.756 96.718C338.756 97.1847 338.616 97.6 338.336 97.964C338.056 98.328 337.646 98.6127 337.104 98.818C336.572 99.014 335.938 99.112 335.2 99.112ZM343.688 99.112C342.894 99.112 342.18 98.9487 341.546 98.622C340.92 98.286 340.43 97.824 340.076 97.236C339.721 96.648 339.544 95.9807 339.544 95.234C339.544 94.4873 339.721 93.82 340.076 93.232C340.43 92.644 340.92 92.1867 341.546 91.86C342.18 91.524 342.894 91.356 343.688 91.356C344.481 91.356 345.19 91.524 345.816 91.86C346.441 92.1867 346.931 92.644 347.286 93.232C347.64 93.82 347.818 94.4873 347.818 95.234C347.818 95.9807 347.64 96.648 347.286 97.236C346.931 97.824 346.441 98.286 345.816 98.622C345.19 98.9487 344.481 99.112 343.688 99.112ZM343.688 97.32C344.248 97.32 344.705 97.1333 345.06 96.76C345.424 96.3773 345.606 95.8687 345.606 95.234C345.606 94.5993 345.424 94.0953 345.06 93.722C344.705 93.3393 344.248 93.148 343.688 93.148C343.128 93.148 342.666 93.3393 342.302 93.722C341.938 94.0953 341.756 94.5993 341.756 95.234C341.756 95.8687 341.938 96.3773 342.302 96.76C342.666 97.1333 343.128 97.32 343.688 97.32ZM195.986 108.468V114.74C195.986 116.121 195.627 117.148 194.908 117.82C194.189 118.492 193.139 118.828 191.758 118.828C191.03 118.828 190.339 118.739 189.686 118.562C189.033 118.385 188.491 118.128 188.062 117.792L188.93 116.224C189.247 116.485 189.649 116.691 190.134 116.84C190.619 116.999 191.105 117.078 191.59 117.078C192.346 117.078 192.901 116.905 193.256 116.56C193.62 116.224 193.802 115.711 193.802 115.02V114.698C193.233 115.323 192.439 115.636 191.422 115.636C190.731 115.636 190.097 115.487 189.518 115.188C188.949 114.88 188.496 114.451 188.16 113.9C187.824 113.349 187.656 112.715 187.656 111.996C187.656 111.277 187.824 110.643 188.16 110.092C188.496 109.541 188.949 109.117 189.518 108.818C190.097 108.51 190.731 108.356 191.422 108.356C192.514 108.356 193.345 108.715 193.914 109.434V108.468H195.986ZM191.856 113.844C192.435 113.844 192.906 113.676 193.27 113.34C193.643 112.995 193.83 112.547 193.83 111.996C193.83 111.445 193.643 111.002 193.27 110.666C192.906 110.321 192.435 110.148 191.856 110.148C191.277 110.148 190.801 110.321 190.428 110.666C190.055 111.002 189.868 111.445 189.868 111.996C189.868 112.547 190.055 112.995 190.428 113.34C190.801 113.676 191.277 113.844 191.856 113.844ZM205.397 112.262C205.397 112.29 205.383 112.486 205.355 112.85H199.657C199.759 113.317 200.002 113.685 200.385 113.956C200.767 114.227 201.243 114.362 201.813 114.362C202.205 114.362 202.55 114.306 202.849 114.194C203.157 114.073 203.441 113.886 203.703 113.634L204.865 114.894C204.155 115.706 203.119 116.112 201.757 116.112C200.907 116.112 200.156 115.949 199.503 115.622C198.849 115.286 198.345 114.824 197.991 114.236C197.636 113.648 197.459 112.981 197.459 112.234C197.459 111.497 197.631 110.834 197.977 110.246C198.331 109.649 198.812 109.187 199.419 108.86C200.035 108.524 200.721 108.356 201.477 108.356C202.214 108.356 202.881 108.515 203.479 108.832C204.076 109.149 204.543 109.607 204.879 110.204C205.224 110.792 205.397 111.478 205.397 112.262ZM201.491 110.008C200.996 110.008 200.581 110.148 200.245 110.428C199.909 110.708 199.703 111.091 199.629 111.576H203.339C203.264 111.1 203.059 110.722 202.723 110.442C202.387 110.153 201.976 110.008 201.491 110.008ZM211.709 115.636C211.494 115.795 211.228 115.916 210.911 116C210.603 116.075 210.276 116.112 209.931 116.112C209.035 116.112 208.339 115.883 207.845 115.426C207.359 114.969 207.117 114.297 207.117 113.41V110.316H205.955V108.636H207.117V106.802H209.301V108.636H211.177V110.316H209.301V113.382C209.301 113.699 209.38 113.947 209.539 114.124C209.707 114.292 209.94 114.376 210.239 114.376C210.584 114.376 210.878 114.283 211.121 114.096L211.709 115.636ZM219.294 108.636H221.226V110.316H219.35V116H217.166V110.316H216.004V108.636H217.166V108.3C217.166 107.441 217.418 106.76 217.922 106.256C218.435 105.752 219.154 105.5 220.078 105.5C220.404 105.5 220.712 105.537 221.002 105.612C221.3 105.677 221.548 105.775 221.744 105.906L221.17 107.488C220.918 107.311 220.624 107.222 220.288 107.222C219.625 107.222 219.294 107.586 219.294 108.314V108.636ZM225.521 109.462C225.782 109.098 226.132 108.823 226.571 108.636C227.019 108.449 227.532 108.356 228.111 108.356V110.372C227.868 110.353 227.705 110.344 227.621 110.344C226.995 110.344 226.505 110.521 226.151 110.876C225.796 111.221 225.619 111.744 225.619 112.444V116H223.435V108.468H225.521V109.462ZM236.719 112.262C236.719 112.29 236.705 112.486 236.677 112.85H230.979C231.082 113.317 231.324 113.685 231.707 113.956C232.09 114.227 232.566 114.362 233.135 114.362C233.527 114.362 233.872 114.306 234.171 114.194C234.479 114.073 234.764 113.886 235.025 113.634L236.187 114.894C235.478 115.706 234.442 116.112 233.079 116.112C232.23 116.112 231.478 115.949 230.825 115.622C230.172 115.286 229.668 114.824 229.313 114.236C228.958 113.648 228.781 112.981 228.781 112.234C228.781 111.497 228.954 110.834 229.299 110.246C229.654 109.649 230.134 109.187 230.741 108.86C231.357 108.524 232.043 108.356 232.799 108.356C233.536 108.356 234.204 108.515 234.801 108.832C235.398 109.149 235.865 109.607 236.201 110.204C236.546 110.792 236.719 111.478 236.719 112.262ZM232.813 110.008C232.318 110.008 231.903 110.148 231.567 110.428C231.231 110.708 231.026 111.091 230.951 111.576H234.661C234.586 111.1 234.381 110.722 234.045 110.442C233.709 110.153 233.298 110.008 232.813 110.008ZM245.551 112.262C245.551 112.29 245.537 112.486 245.509 112.85H239.811C239.914 113.317 240.156 113.685 240.539 113.956C240.922 114.227 241.398 114.362 241.967 114.362C242.359 114.362 242.704 114.306 243.003 114.194C243.311 114.073 243.596 113.886 243.857 113.634L245.019 114.894C244.31 115.706 243.274 116.112 241.911 116.112C241.062 116.112 240.31 115.949 239.657 115.622C239.004 115.286 238.5 114.824 238.145 114.236C237.79 113.648 237.613 112.981 237.613 112.234C237.613 111.497 237.786 110.834 238.131 110.246C238.486 109.649 238.966 109.187 239.573 108.86C240.189 108.524 240.875 108.356 241.631 108.356C242.368 108.356 243.036 108.515 243.633 108.832C244.23 109.149 244.697 109.607 245.033 110.204C245.378 110.792 245.551 111.478 245.551 112.262ZM241.645 110.008C241.15 110.008 240.735 110.148 240.399 110.428C240.063 110.708 239.858 111.091 239.783 111.576H243.493C243.418 111.1 243.213 110.722 242.877 110.442C242.541 110.153 242.13 110.008 241.645 110.008ZM258.74 108.468V114.74C258.74 116.121 258.381 117.148 257.662 117.82C256.943 118.492 255.893 118.828 254.512 118.828C253.784 118.828 253.093 118.739 252.44 118.562C251.787 118.385 251.245 118.128 250.816 117.792L251.684 116.224C252.001 116.485 252.403 116.691 252.888 116.84C253.373 116.999 253.859 117.078 254.344 117.078C255.1 117.078 255.655 116.905 256.01 116.56C256.374 116.224 256.556 115.711 256.556 115.02V114.698C255.987 115.323 255.193 115.636 254.176 115.636C253.485 115.636 252.851 115.487 252.272 115.188C251.703 114.88 251.25 114.451 250.914 113.9C250.578 113.349 250.41 112.715 250.41 111.996C250.41 111.277 250.578 110.643 250.914 110.092C251.25 109.541 251.703 109.117 252.272 108.818C252.851 108.51 253.485 108.356 254.176 108.356C255.268 108.356 256.099 108.715 256.668 109.434V108.468H258.74ZM254.61 113.844C255.189 113.844 255.66 113.676 256.024 113.34C256.397 112.995 256.584 112.547 256.584 111.996C256.584 111.445 256.397 111.002 256.024 110.666C255.66 110.321 255.189 110.148 254.61 110.148C254.031 110.148 253.555 110.321 253.182 110.666C252.809 111.002 252.622 111.445 252.622 111.996C252.622 112.547 252.809 112.995 253.182 113.34C253.555 113.676 254.031 113.844 254.61 113.844ZM264.357 116.112C263.563 116.112 262.849 115.949 262.215 115.622C261.589 115.286 261.099 114.824 260.745 114.236C260.39 113.648 260.213 112.981 260.213 112.234C260.213 111.487 260.39 110.82 260.745 110.232C261.099 109.644 261.589 109.187 262.215 108.86C262.849 108.524 263.563 108.356 264.357 108.356C265.15 108.356 265.859 108.524 266.485 108.86C267.11 109.187 267.6 109.644 267.955 110.232C268.309 110.82 268.487 111.487 268.487 112.234C268.487 112.981 268.309 113.648 267.955 114.236C267.6 114.824 267.11 115.286 266.485 115.622C265.859 115.949 265.15 116.112 264.357 116.112ZM264.357 114.32C264.917 114.32 265.374 114.133 265.729 113.76C266.093 113.377 266.275 112.869 266.275 112.234C266.275 111.599 266.093 111.095 265.729 110.722C265.374 110.339 264.917 110.148 264.357 110.148C263.797 110.148 263.335 110.339 262.971 110.722C262.607 111.095 262.425 111.599 262.425 112.234C262.425 112.869 262.607 113.377 262.971 113.76C263.335 114.133 263.797 114.32 264.357 114.32ZM277.217 108.468L274.039 116H271.785L268.621 108.468H270.875L272.961 113.592L275.117 108.468H277.217ZM285.282 112.262C285.282 112.29 285.268 112.486 285.24 112.85H279.542C279.644 113.317 279.887 113.685 280.27 113.956C280.652 114.227 281.128 114.362 281.698 114.362C282.09 114.362 282.435 114.306 282.734 114.194C283.042 114.073 283.326 113.886 283.588 113.634L284.75 114.894C284.04 115.706 283.004 116.112 281.642 116.112C280.792 116.112 280.041 115.949 279.388 115.622C278.734 115.286 278.23 114.824 277.876 114.236C277.521 113.648 277.344 112.981 277.344 112.234C277.344 111.497 277.516 110.834 277.862 110.246C278.216 109.649 278.697 109.187 279.304 108.86C279.92 108.524 280.606 108.356 281.362 108.356C282.099 108.356 282.766 108.515 283.364 108.832C283.961 109.149 284.428 109.607 284.764 110.204C285.109 110.792 285.282 111.478 285.282 112.262ZM281.376 110.008C280.881 110.008 280.466 110.148 280.13 110.428C279.794 110.708 279.588 111.091 279.514 111.576H283.224C283.149 111.1 282.944 110.722 282.608 110.442C282.272 110.153 281.861 110.008 281.376 110.008ZM288.822 109.462C289.083 109.098 289.433 108.823 289.872 108.636C290.32 108.449 290.833 108.356 291.412 108.356V110.372C291.169 110.353 291.006 110.344 290.922 110.344C290.296 110.344 289.806 110.521 289.452 110.876C289.097 111.221 288.92 111.744 288.92 112.444V116H286.736V108.468H288.822V109.462ZM297.288 108.356C298.221 108.356 298.973 108.636 299.542 109.196C300.121 109.756 300.41 110.587 300.41 111.688V116H298.226V112.024C298.226 111.427 298.095 110.983 297.834 110.694C297.573 110.395 297.195 110.246 296.7 110.246C296.149 110.246 295.711 110.419 295.384 110.764C295.057 111.1 294.894 111.604 294.894 112.276V116H292.71V108.468H294.796V109.35C295.085 109.033 295.445 108.79 295.874 108.622C296.303 108.445 296.775 108.356 297.288 108.356ZM305.428 108.356C306.595 108.356 307.491 108.636 308.116 109.196C308.741 109.747 309.054 110.582 309.054 111.702V116H307.01V115.062C306.599 115.762 305.834 116.112 304.714 116.112C304.135 116.112 303.631 116.014 303.202 115.818C302.782 115.622 302.46 115.351 302.236 115.006C302.012 114.661 301.9 114.269 301.9 113.83C301.9 113.13 302.161 112.579 302.684 112.178C303.216 111.777 304.033 111.576 305.134 111.576H306.87C306.87 111.1 306.725 110.736 306.436 110.484C306.147 110.223 305.713 110.092 305.134 110.092C304.733 110.092 304.336 110.157 303.944 110.288C303.561 110.409 303.235 110.577 302.964 110.792L302.18 109.266C302.591 108.977 303.081 108.753 303.65 108.594C304.229 108.435 304.821 108.356 305.428 108.356ZM305.26 114.642C305.633 114.642 305.965 114.558 306.254 114.39C306.543 114.213 306.749 113.956 306.87 113.62V112.85H305.372C304.476 112.85 304.028 113.144 304.028 113.732C304.028 114.012 304.135 114.236 304.35 114.404C304.574 114.563 304.877 114.642 305.26 114.642ZM315.608 108.356C316.542 108.356 317.293 108.636 317.862 109.196C318.441 109.756 318.73 110.587 318.73 111.688V116H316.546V112.024C316.546 111.427 316.416 110.983 316.154 110.694C315.893 110.395 315.515 110.246 315.02 110.246C314.47 110.246 314.031 110.419 313.704 110.764C313.378 111.1 313.214 111.604 313.214 112.276V116H311.03V108.468H313.116V109.35C313.406 109.033 313.765 108.79 314.194 108.622C314.624 108.445 315.095 108.356 315.608 108.356ZM324.432 116.112C323.63 116.112 322.906 115.949 322.262 115.622C321.628 115.286 321.128 114.824 320.764 114.236C320.41 113.648 320.232 112.981 320.232 112.234C320.232 111.487 320.41 110.82 320.764 110.232C321.128 109.644 321.628 109.187 322.262 108.86C322.906 108.524 323.63 108.356 324.432 108.356C325.226 108.356 325.916 108.524 326.504 108.86C327.102 109.187 327.536 109.658 327.806 110.274L326.112 111.184C325.72 110.493 325.156 110.148 324.418 110.148C323.849 110.148 323.378 110.335 323.004 110.708C322.631 111.081 322.444 111.59 322.444 112.234C322.444 112.878 322.631 113.387 323.004 113.76C323.378 114.133 323.849 114.32 324.418 114.32C325.165 114.32 325.73 113.975 326.112 113.284L327.806 114.208C327.536 114.805 327.102 115.272 326.504 115.608C325.916 115.944 325.226 116.112 324.432 116.112ZM336.346 112.262C336.346 112.29 336.332 112.486 336.304 112.85H330.606C330.709 113.317 330.951 113.685 331.334 113.956C331.717 114.227 332.193 114.362 332.762 114.362C333.154 114.362 333.499 114.306 333.798 114.194C334.106 114.073 334.391 113.886 334.652 113.634L335.814 114.894C335.105 115.706 334.069 116.112 332.706 116.112C331.857 116.112 331.105 115.949 330.452 115.622C329.799 115.286 329.295 114.824 328.94 114.236C328.585 113.648 328.408 112.981 328.408 112.234C328.408 111.497 328.581 110.834 328.926 110.246C329.281 109.649 329.761 109.187 330.368 108.86C330.984 108.524 331.67 108.356 332.426 108.356C333.163 108.356 333.831 108.515 334.428 108.832C335.025 109.149 335.492 109.607 335.828 110.204C336.173 110.792 336.346 111.478 336.346 112.262ZM332.44 110.008C331.945 110.008 331.53 110.148 331.194 110.428C330.858 110.708 330.653 111.091 330.578 111.576H334.288C334.213 111.1 334.008 110.722 333.672 110.442C333.336 110.153 332.925 110.008 332.44 110.008ZM186.101 132.636C185.887 132.795 185.621 132.916 185.303 133C184.995 133.075 184.669 133.112 184.323 133.112C183.427 133.112 182.732 132.883 182.237 132.426C181.752 131.969 181.509 131.297 181.509 130.41V127.316H180.347V125.636H181.509V123.802H183.693V125.636H185.569V127.316H183.693V130.382C183.693 130.699 183.773 130.947 183.931 131.124C184.099 131.292 184.333 131.376 184.631 131.376C184.977 131.376 185.271 131.283 185.513 131.096L186.101 132.636ZM190.679 133.112C189.886 133.112 189.172 132.949 188.537 132.622C187.912 132.286 187.422 131.824 187.067 131.236C186.712 130.648 186.535 129.981 186.535 129.234C186.535 128.487 186.712 127.82 187.067 127.232C187.422 126.644 187.912 126.187 188.537 125.86C189.172 125.524 189.886 125.356 190.679 125.356C191.472 125.356 192.182 125.524 192.807 125.86C193.432 126.187 193.922 126.644 194.277 127.232C194.632 127.82 194.809 128.487 194.809 129.234C194.809 129.981 194.632 130.648 194.277 131.236C193.922 131.824 193.432 132.286 192.807 132.622C192.182 132.949 191.472 133.112 190.679 133.112ZM190.679 131.32C191.239 131.32 191.696 131.133 192.051 130.76C192.415 130.377 192.597 129.869 192.597 129.234C192.597 128.599 192.415 128.095 192.051 127.722C191.696 127.339 191.239 127.148 190.679 127.148C190.119 127.148 189.657 127.339 189.293 127.722C188.929 128.095 188.747 128.599 188.747 129.234C188.747 129.869 188.929 130.377 189.293 130.76C189.657 131.133 190.119 131.32 190.679 131.32ZM199.503 130.046L198.453 131.082V133H196.269V122.612H198.453V128.492L201.645 125.468H204.249L201.113 128.66L204.529 133H201.883L199.503 130.046ZM212.561 129.262C212.561 129.29 212.547 129.486 212.519 129.85H206.821C206.923 130.317 207.166 130.685 207.549 130.956C207.931 131.227 208.407 131.362 208.977 131.362C209.369 131.362 209.714 131.306 210.013 131.194C210.321 131.073 210.605 130.886 210.867 130.634L212.029 131.894C211.319 132.706 210.283 133.112 208.921 133.112C208.071 133.112 207.32 132.949 206.667 132.622C206.013 132.286 205.509 131.824 205.155 131.236C204.8 130.648 204.623 129.981 204.623 129.234C204.623 128.497 204.795 127.834 205.141 127.246C205.495 126.649 205.976 126.187 206.583 125.86C207.199 125.524 207.885 125.356 208.641 125.356C209.378 125.356 210.045 125.515 210.643 125.832C211.24 126.149 211.707 126.607 212.043 127.204C212.388 127.792 212.561 128.478 212.561 129.262ZM208.655 127.008C208.16 127.008 207.745 127.148 207.409 127.428C207.073 127.708 206.867 128.091 206.793 128.576H210.503C210.428 128.1 210.223 127.722 209.887 127.442C209.551 127.153 209.14 127.008 208.655 127.008ZM218.593 125.356C219.526 125.356 220.278 125.636 220.847 126.196C221.426 126.756 221.715 127.587 221.715 128.688V133H219.531V129.024C219.531 128.427 219.4 127.983 219.139 127.694C218.878 127.395 218.5 127.246 218.005 127.246C217.454 127.246 217.016 127.419 216.689 127.764C216.362 128.1 216.199 128.604 216.199 129.276V133H214.015V125.468H216.101V126.35C216.39 126.033 216.75 125.79 217.179 125.622C217.608 125.445 218.08 125.356 218.593 125.356ZM226.229 133.112C225.603 133.112 224.992 133.037 224.395 132.888C223.797 132.729 223.321 132.533 222.967 132.3L223.695 130.732C224.031 130.947 224.437 131.124 224.913 131.264C225.389 131.395 225.855 131.46 226.313 131.46C227.237 131.46 227.699 131.231 227.699 130.774C227.699 130.559 227.573 130.405 227.321 130.312C227.069 130.219 226.681 130.139 226.159 130.074C225.543 129.981 225.034 129.873 224.633 129.752C224.231 129.631 223.881 129.416 223.583 129.108C223.293 128.8 223.149 128.361 223.149 127.792C223.149 127.316 223.284 126.896 223.555 126.532C223.835 126.159 224.236 125.869 224.759 125.664C225.291 125.459 225.916 125.356 226.635 125.356C227.167 125.356 227.694 125.417 228.217 125.538C228.749 125.65 229.187 125.809 229.533 126.014L228.805 127.568C228.142 127.195 227.419 127.008 226.635 127.008C226.168 127.008 225.818 127.073 225.585 127.204C225.351 127.335 225.235 127.503 225.235 127.708C225.235 127.941 225.361 128.105 225.613 128.198C225.865 128.291 226.266 128.38 226.817 128.464C227.433 128.567 227.937 128.679 228.329 128.8C228.721 128.912 229.061 129.122 229.351 129.43C229.64 129.738 229.785 130.167 229.785 130.718C229.785 131.185 229.645 131.6 229.365 131.964C229.085 132.328 228.674 132.613 228.133 132.818C227.601 133.014 226.966 133.112 226.229 133.112ZM231.958 133.112C231.575 133.112 231.253 132.981 230.992 132.72C230.731 132.459 230.6 132.132 230.6 131.74C230.6 131.339 230.731 131.017 230.992 130.774C231.253 130.522 231.575 130.396 231.958 130.396C232.341 130.396 232.663 130.522 232.924 130.774C233.185 131.017 233.316 131.339 233.316 131.74C233.316 132.132 233.185 132.459 232.924 132.72C232.663 132.981 232.341 133.112 231.958 133.112ZM247.903 123.2V133H245.635V128.982H241.183V133H238.915V123.2H241.183V127.064H245.635V123.2H247.903ZM257.446 129.262C257.446 129.29 257.432 129.486 257.404 129.85H251.706C251.808 130.317 252.051 130.685 252.434 130.956C252.816 131.227 253.292 131.362 253.862 131.362C254.254 131.362 254.599 131.306 254.898 131.194C255.206 131.073 255.49 130.886 255.752 130.634L256.914 131.894C256.204 132.706 255.168 133.112 253.806 133.112C252.956 133.112 252.205 132.949 251.552 132.622C250.898 132.286 250.394 131.824 250.04 131.236C249.685 130.648 249.508 129.981 249.508 129.234C249.508 128.497 249.68 127.834 250.026 127.246C250.38 126.649 250.861 126.187 251.468 125.86C252.084 125.524 252.77 125.356 253.526 125.356C254.263 125.356 254.93 125.515 255.528 125.832C256.125 126.149 256.592 126.607 256.928 127.204C257.273 127.792 257.446 128.478 257.446 129.262ZM253.54 127.008C253.045 127.008 252.63 127.148 252.294 127.428C251.958 127.708 251.752 128.091 251.678 128.576H255.388C255.313 128.1 255.108 127.722 254.772 127.442C254.436 127.153 254.025 127.008 253.54 127.008ZM258.9 122.612H261.084V133H258.9V122.612ZM267.563 125.356C268.263 125.356 268.897 125.519 269.467 125.846C270.045 126.163 270.498 126.616 270.825 127.204C271.151 127.783 271.315 128.459 271.315 129.234C271.315 130.009 271.151 130.69 270.825 131.278C270.498 131.857 270.045 132.309 269.467 132.636C268.897 132.953 268.263 133.112 267.563 133.112C266.601 133.112 265.845 132.809 265.295 132.202V135.716H263.111V125.468H265.197V126.336C265.738 125.683 266.527 125.356 267.563 125.356ZM267.185 131.32C267.745 131.32 268.202 131.133 268.557 130.76C268.921 130.377 269.103 129.869 269.103 129.234C269.103 128.599 268.921 128.095 268.557 127.722C268.202 127.339 267.745 127.148 267.185 127.148C266.625 127.148 266.163 127.339 265.799 127.722C265.444 128.095 265.267 128.599 265.267 129.234C265.267 129.869 265.444 130.377 265.799 130.76C266.163 131.133 266.625 131.32 267.185 131.32ZM272.777 125.468H274.961V133H272.777V125.468ZM273.869 124.418C273.467 124.418 273.141 124.301 272.889 124.068C272.637 123.835 272.511 123.545 272.511 123.2C272.511 122.855 272.637 122.565 272.889 122.332C273.141 122.099 273.467 121.982 273.869 121.982C274.27 121.982 274.597 122.094 274.849 122.318C275.101 122.542 275.227 122.822 275.227 123.158C275.227 123.522 275.101 123.825 274.849 124.068C274.597 124.301 274.27 124.418 273.869 124.418ZM281.565 125.356C282.499 125.356 283.25 125.636 283.819 126.196C284.398 126.756 284.687 127.587 284.687 128.688V133H282.503V129.024C282.503 128.427 282.373 127.983 282.111 127.694C281.85 127.395 281.472 127.246 280.977 127.246C280.427 127.246 279.988 127.419 279.661 127.764C279.335 128.1 279.171 128.604 279.171 129.276V133H276.987V125.468H279.073V126.35C279.363 126.033 279.722 125.79 280.151 125.622C280.581 125.445 281.052 125.356 281.565 125.356ZM294.519 125.468V131.74C294.519 133.121 294.16 134.148 293.441 134.82C292.723 135.492 291.673 135.828 290.291 135.828C289.563 135.828 288.873 135.739 288.219 135.562C287.566 135.385 287.025 135.128 286.595 134.792L287.463 133.224C287.781 133.485 288.182 133.691 288.667 133.84C289.153 133.999 289.638 134.078 290.123 134.078C290.879 134.078 291.435 133.905 291.789 133.56C292.153 133.224 292.335 132.711 292.335 132.02V131.698C291.766 132.323 290.973 132.636 289.955 132.636C289.265 132.636 288.63 132.487 288.051 132.188C287.482 131.88 287.029 131.451 286.693 130.9C286.357 130.349 286.189 129.715 286.189 128.996C286.189 128.277 286.357 127.643 286.693 127.092C287.029 126.541 287.482 126.117 288.051 125.818C288.63 125.51 289.265 125.356 289.955 125.356C291.047 125.356 291.878 125.715 292.447 126.434V125.468H294.519ZM290.389 130.844C290.968 130.844 291.439 130.676 291.803 130.34C292.177 129.995 292.363 129.547 292.363 128.996C292.363 128.445 292.177 128.002 291.803 127.666C291.439 127.321 290.968 127.148 290.389 127.148C289.811 127.148 289.335 127.321 288.961 127.666C288.588 128.002 288.401 128.445 288.401 128.996C288.401 129.547 288.588 129.995 288.961 130.34C289.335 130.676 289.811 130.844 290.389 130.844ZM303.051 133.112C302.425 133.112 301.814 133.037 301.217 132.888C300.619 132.729 300.143 132.533 299.789 132.3L300.517 130.732C300.853 130.947 301.259 131.124 301.735 131.264C302.211 131.395 302.677 131.46 303.135 131.46C304.059 131.46 304.521 131.231 304.521 130.774C304.521 130.559 304.395 130.405 304.143 130.312C303.891 130.219 303.503 130.139 302.981 130.074C302.365 129.981 301.856 129.873 301.455 129.752C301.053 129.631 300.703 129.416 300.405 129.108C300.115 128.8 299.971 128.361 299.971 127.792C299.971 127.316 300.106 126.896 300.377 126.532C300.657 126.159 301.058 125.869 301.581 125.664C302.113 125.459 302.738 125.356 303.457 125.356C303.989 125.356 304.516 125.417 305.039 125.538C305.571 125.65 306.009 125.809 306.355 126.014L305.627 127.568C304.964 127.195 304.241 127.008 303.457 127.008C302.99 127.008 302.64 127.073 302.407 127.204C302.173 127.335 302.057 127.503 302.057 127.708C302.057 127.941 302.183 128.105 302.435 128.198C302.687 128.291 303.088 128.38 303.639 128.464C304.255 128.567 304.759 128.679 305.151 128.8C305.543 128.912 305.883 129.122 306.173 129.43C306.462 129.738 306.607 130.167 306.607 130.718C306.607 131.185 306.467 131.6 306.187 131.964C305.907 132.328 305.496 132.613 304.955 132.818C304.423 133.014 303.788 133.112 303.051 133.112ZM312.532 125.356C313.466 125.356 314.217 125.636 314.786 126.196C315.365 126.756 315.654 127.587 315.654 128.688V133H313.47V129.024C313.47 128.427 313.34 127.983 313.078 127.694C312.817 127.395 312.439 127.246 311.944 127.246C311.394 127.246 310.955 127.419 310.628 127.764C310.302 128.1 310.138 128.604 310.138 129.276V133H307.954V122.612H310.138V126.252C310.428 125.963 310.778 125.743 311.188 125.594C311.599 125.435 312.047 125.356 312.532 125.356ZM320.672 125.356C321.839 125.356 322.735 125.636 323.36 126.196C323.985 126.747 324.298 127.582 324.298 128.702V133H322.254V132.062C321.843 132.762 321.078 133.112 319.958 133.112C319.379 133.112 318.875 133.014 318.446 132.818C318.026 132.622 317.704 132.351 317.48 132.006C317.256 131.661 317.144 131.269 317.144 130.83C317.144 130.13 317.405 129.579 317.928 129.178C318.46 128.777 319.277 128.576 320.378 128.576H322.114C322.114 128.1 321.969 127.736 321.68 127.484C321.391 127.223 320.957 127.092 320.378 127.092C319.977 127.092 319.58 127.157 319.188 127.288C318.805 127.409 318.479 127.577 318.208 127.792L317.424 126.266C317.835 125.977 318.325 125.753 318.894 125.594C319.473 125.435 320.065 125.356 320.672 125.356ZM320.504 131.642C320.877 131.642 321.209 131.558 321.498 131.39C321.787 131.213 321.993 130.956 322.114 130.62V129.85H320.616C319.72 129.85 319.272 130.144 319.272 130.732C319.272 131.012 319.379 131.236 319.594 131.404C319.818 131.563 320.121 131.642 320.504 131.642ZM330.727 125.356C331.427 125.356 332.061 125.519 332.631 125.846C333.209 126.163 333.662 126.616 333.989 127.204C334.315 127.783 334.479 128.459 334.479 129.234C334.479 130.009 334.315 130.69 333.989 131.278C333.662 131.857 333.209 132.309 332.631 132.636C332.061 132.953 331.427 133.112 330.727 133.112C329.765 133.112 329.009 132.809 328.459 132.202V135.716H326.275V125.468H328.361V126.336C328.902 125.683 329.691 125.356 330.727 125.356ZM330.349 131.32C330.909 131.32 331.366 131.133 331.721 130.76C332.085 130.377 332.267 129.869 332.267 129.234C332.267 128.599 332.085 128.095 331.721 127.722C331.366 127.339 330.909 127.148 330.349 127.148C329.789 127.148 329.327 127.339 328.963 127.722C328.608 128.095 328.431 128.599 328.431 129.234C328.431 129.869 328.608 130.377 328.963 130.76C329.327 131.133 329.789 131.32 330.349 131.32ZM343.319 129.262C343.319 129.29 343.305 129.486 343.277 129.85H337.579C337.681 130.317 337.924 130.685 338.307 130.956C338.689 131.227 339.165 131.362 339.735 131.362C340.127 131.362 340.472 131.306 340.771 131.194C341.079 131.073 341.363 130.886 341.625 130.634L342.787 131.894C342.077 132.706 341.041 133.112 339.679 133.112C338.829 133.112 338.078 132.949 337.425 132.622C336.771 132.286 336.267 131.824 335.913 131.236C335.558 130.648 335.381 129.981 335.381 129.234C335.381 128.497 335.553 127.834 335.899 127.246C336.253 126.649 336.734 126.187 337.341 125.86C337.957 125.524 338.643 125.356 339.399 125.356C340.136 125.356 340.803 125.515 341.401 125.832C341.998 126.149 342.465 126.607 342.801 127.204C343.146 127.792 343.319 128.478 343.319 129.262ZM339.413 127.008C338.918 127.008 338.503 127.148 338.167 127.428C337.831 127.708 337.625 128.091 337.551 128.576H341.261C341.186 128.1 340.981 127.722 340.645 127.442C340.309 127.153 339.898 127.008 339.413 127.008ZM207.218 149.636C207.003 149.795 206.737 149.916 206.42 150C206.112 150.075 205.785 150.112 205.44 150.112C204.544 150.112 203.848 149.883 203.354 149.426C202.868 148.969 202.626 148.297 202.626 147.41V144.316H201.464V142.636H202.626V140.802H204.81V142.636H206.686V144.316H204.81V147.382C204.81 147.699 204.889 147.947 205.048 148.124C205.216 148.292 205.449 148.376 205.748 148.376C206.093 148.376 206.387 148.283 206.63 148.096L207.218 149.636ZM213.022 142.356C213.955 142.356 214.706 142.636 215.276 143.196C215.854 143.756 216.144 144.587 216.144 145.688V150H213.96V146.024C213.96 145.427 213.829 144.983 213.568 144.694C213.306 144.395 212.928 144.246 212.434 144.246C211.883 144.246 211.444 144.419 211.118 144.764C210.791 145.1 210.628 145.604 210.628 146.276V150H208.444V139.612H210.628V143.252C210.917 142.963 211.267 142.743 211.678 142.594C212.088 142.435 212.536 142.356 213.022 142.356ZM225.583 146.262C225.583 146.29 225.569 146.486 225.541 146.85H219.843C219.946 147.317 220.189 147.685 220.571 147.956C220.954 148.227 221.43 148.362 221.999 148.362C222.391 148.362 222.737 148.306 223.035 148.194C223.343 148.073 223.628 147.886 223.889 147.634L225.051 148.894C224.342 149.706 223.306 150.112 221.943 150.112C221.094 150.112 220.343 149.949 219.689 149.622C219.036 149.286 218.532 148.824 218.177 148.236C217.823 147.648 217.645 146.981 217.645 146.234C217.645 145.497 217.818 144.834 218.163 144.246C218.518 143.649 218.999 143.187 219.605 142.86C220.221 142.524 220.907 142.356 221.663 142.356C222.401 142.356 223.068 142.515 223.665 142.832C224.263 143.149 224.729 143.607 225.065 144.204C225.411 144.792 225.583 145.478 225.583 146.262ZM221.677 144.008C221.183 144.008 220.767 144.148 220.431 144.428C220.095 144.708 219.89 145.091 219.815 145.576H223.525C223.451 145.1 223.245 144.722 222.909 144.442C222.573 144.153 222.163 144.008 221.677 144.008ZM233.396 142.636H235.328V144.316H233.452V150H231.268V144.316H230.106V142.636H231.268V142.3C231.268 141.441 231.52 140.76 232.024 140.256C232.537 139.752 233.256 139.5 234.18 139.5C234.507 139.5 234.815 139.537 235.104 139.612C235.403 139.677 235.65 139.775 235.846 139.906L235.272 141.488C235.02 141.311 234.726 141.222 234.39 141.222C233.727 141.222 233.396 141.586 233.396 142.314V142.636ZM244.004 142.468V150H241.932V149.104C241.643 149.431 241.298 149.683 240.896 149.86C240.495 150.028 240.061 150.112 239.594 150.112C238.605 150.112 237.821 149.827 237.242 149.258C236.664 148.689 236.374 147.844 236.374 146.724V142.468H238.558V146.402C238.558 147.615 239.067 148.222 240.084 148.222C240.607 148.222 241.027 148.054 241.344 147.718C241.662 147.373 241.82 146.864 241.82 146.192V142.468H244.004ZM250.886 149.636C250.671 149.795 250.405 149.916 250.088 150C249.78 150.075 249.453 150.112 249.108 150.112C248.212 150.112 247.516 149.883 247.022 149.426C246.536 148.969 246.294 148.297 246.294 147.41V144.316H245.132V142.636H246.294V140.802H248.478V142.636H250.354V144.316H248.478V147.382C248.478 147.699 248.557 147.947 248.716 148.124C248.884 148.292 249.117 148.376 249.416 148.376C249.761 148.376 250.055 148.283 250.298 148.096L250.886 149.636ZM259.7 142.468V150H257.628V149.104C257.338 149.431 256.993 149.683 256.592 149.86C256.19 150.028 255.756 150.112 255.29 150.112C254.3 150.112 253.516 149.827 252.938 149.258C252.359 148.689 252.07 147.844 252.07 146.724V142.468H254.254V146.402C254.254 147.615 254.762 148.222 255.78 148.222C256.302 148.222 256.722 148.054 257.04 147.718C257.357 147.373 257.516 146.864 257.516 146.192V142.468H259.7ZM263.809 143.462C264.07 143.098 264.42 142.823 264.859 142.636C265.307 142.449 265.82 142.356 266.399 142.356V144.372C266.156 144.353 265.993 144.344 265.909 144.344C265.284 144.344 264.794 144.521 264.439 144.876C264.084 145.221 263.907 145.744 263.907 146.444V150H261.723V142.468H263.809V143.462ZM275.007 146.262C275.007 146.29 274.993 146.486 274.965 146.85H269.267C269.37 147.317 269.612 147.685 269.995 147.956C270.378 148.227 270.854 148.362 271.423 148.362C271.815 148.362 272.16 148.306 272.459 148.194C272.767 148.073 273.052 147.886 273.313 147.634L274.475 148.894C273.766 149.706 272.73 150.112 271.367 150.112C270.518 150.112 269.766 149.949 269.113 149.622C268.46 149.286 267.956 148.824 267.601 148.236C267.246 147.648 267.069 146.981 267.069 146.234C267.069 145.497 267.242 144.834 267.587 144.246C267.942 143.649 268.422 143.187 269.029 142.86C269.645 142.524 270.331 142.356 271.087 142.356C271.824 142.356 272.492 142.515 273.089 142.832C273.686 143.149 274.153 143.607 274.489 144.204C274.834 144.792 275.007 145.478 275.007 146.262ZM271.101 144.008C270.606 144.008 270.191 144.148 269.855 144.428C269.519 144.708 269.314 145.091 269.239 145.576H272.949C272.874 145.1 272.669 144.722 272.333 144.442C271.997 144.153 271.586 144.008 271.101 144.008ZM284.01 150.112C283.217 150.112 282.503 149.949 281.868 149.622C281.243 149.286 280.753 148.824 280.398 148.236C280.043 147.648 279.866 146.981 279.866 146.234C279.866 145.487 280.043 144.82 280.398 144.232C280.753 143.644 281.243 143.187 281.868 142.86C282.503 142.524 283.217 142.356 284.01 142.356C284.803 142.356 285.513 142.524 286.138 142.86C286.763 143.187 287.253 143.644 287.608 144.232C287.963 144.82 288.14 145.487 288.14 146.234C288.14 146.981 287.963 147.648 287.608 148.236C287.253 148.824 286.763 149.286 286.138 149.622C285.513 149.949 284.803 150.112 284.01 150.112ZM284.01 148.32C284.57 148.32 285.027 148.133 285.382 147.76C285.746 147.377 285.928 146.869 285.928 146.234C285.928 145.599 285.746 145.095 285.382 144.722C285.027 144.339 284.57 144.148 284.01 144.148C283.45 144.148 282.988 144.339 282.624 144.722C282.26 145.095 282.078 145.599 282.078 146.234C282.078 146.869 282.26 147.377 282.624 147.76C282.988 148.133 283.45 148.32 284.01 148.32ZM291.994 142.636H293.926V144.316H292.05V150H289.866V144.316H288.704V142.636H289.866V142.3C289.866 141.441 290.118 140.76 290.622 140.256C291.135 139.752 291.854 139.5 292.778 139.5C293.104 139.5 293.412 139.537 293.702 139.612C294 139.677 294.248 139.775 294.444 139.906L293.87 141.488C293.618 141.311 293.324 141.222 292.988 141.222C292.325 141.222 291.994 141.586 291.994 142.314V142.636ZM303.837 149.636C303.622 149.795 303.356 149.916 303.039 150C302.731 150.075 302.404 150.112 302.059 150.112C301.163 150.112 300.467 149.883 299.973 149.426C299.487 148.969 299.245 148.297 299.245 147.41V144.316H298.083V142.636H299.245V140.802H301.429V142.636H303.305V144.316H301.429V147.382C301.429 147.699 301.508 147.947 301.667 148.124C301.835 148.292 302.068 148.376 302.367 148.376C302.712 148.376 303.006 148.283 303.249 148.096L303.837 149.636ZM309.641 142.356C310.574 142.356 311.325 142.636 311.895 143.196C312.473 143.756 312.763 144.587 312.763 145.688V150H310.579V146.024C310.579 145.427 310.448 144.983 310.187 144.694C309.925 144.395 309.547 144.246 309.053 144.246C308.502 144.246 308.063 144.419 307.737 144.764C307.41 145.1 307.247 145.604 307.247 146.276V150H305.063V139.612H307.247V143.252C307.536 142.963 307.886 142.743 308.297 142.594C308.707 142.435 309.155 142.356 309.641 142.356ZM322.202 146.262C322.202 146.29 322.188 146.486 322.16 146.85H316.462C316.565 147.317 316.808 147.685 317.19 147.956C317.573 148.227 318.049 148.362 318.618 148.362C319.01 148.362 319.356 148.306 319.654 148.194C319.962 148.073 320.247 147.886 320.508 147.634L321.67 148.894C320.961 149.706 319.925 150.112 318.562 150.112C317.713 150.112 316.962 149.949 316.308 149.622C315.655 149.286 315.151 148.824 314.796 148.236C314.442 147.648 314.264 146.981 314.264 146.234C314.264 145.497 314.437 144.834 314.782 144.246C315.137 143.649 315.618 143.187 316.224 142.86C316.84 142.524 317.526 142.356 318.282 142.356C319.02 142.356 319.687 142.515 320.284 142.832C320.882 143.149 321.348 143.607 321.684 144.204C322.03 144.792 322.202 145.478 322.202 146.262ZM318.296 144.008C317.802 144.008 317.386 144.148 317.05 144.428C316.714 144.708 316.509 145.091 316.434 145.576H320.144C320.07 145.1 319.864 144.722 319.528 144.442C319.192 144.153 318.782 144.008 318.296 144.008ZM226.286 159.356C227.229 159.356 227.975 159.636 228.526 160.196C229.086 160.747 229.366 161.577 229.366 162.688V167H227.182V163.024C227.182 162.427 227.056 161.983 226.804 161.694C226.561 161.395 226.211 161.246 225.754 161.246C225.241 161.246 224.835 161.414 224.536 161.75C224.237 162.077 224.088 162.567 224.088 163.22V167H221.904V163.024C221.904 161.839 221.428 161.246 220.476 161.246C219.972 161.246 219.571 161.414 219.272 161.75C218.973 162.077 218.824 162.567 218.824 163.22V167H216.64V159.468H218.726V160.336C219.006 160.019 219.347 159.776 219.748 159.608C220.159 159.44 220.607 159.356 221.092 159.356C221.624 159.356 222.105 159.463 222.534 159.678C222.963 159.883 223.309 160.187 223.57 160.588C223.878 160.196 224.265 159.893 224.732 159.678C225.208 159.463 225.726 159.356 226.286 159.356ZM234.361 159.356C235.528 159.356 236.424 159.636 237.049 160.196C237.675 160.747 237.987 161.582 237.987 162.702V167H235.943V166.062C235.533 166.762 234.767 167.112 233.647 167.112C233.069 167.112 232.565 167.014 232.135 166.818C231.715 166.622 231.393 166.351 231.169 166.006C230.945 165.661 230.833 165.269 230.833 164.83C230.833 164.13 231.095 163.579 231.617 163.178C232.149 162.777 232.966 162.576 234.067 162.576H235.803C235.803 162.1 235.659 161.736 235.369 161.484C235.08 161.223 234.646 161.092 234.067 161.092C233.666 161.092 233.269 161.157 232.877 161.288C232.495 161.409 232.168 161.577 231.897 161.792L231.113 160.266C231.524 159.977 232.014 159.753 232.583 159.594C233.162 159.435 233.755 159.356 234.361 159.356ZM234.193 165.642C234.567 165.642 234.898 165.558 235.187 165.39C235.477 165.213 235.682 164.956 235.803 164.62V163.85H234.305C233.409 163.85 232.961 164.144 232.961 164.732C232.961 165.012 233.069 165.236 233.283 165.404C233.507 165.563 233.811 165.642 234.193 165.642ZM242.05 160.462C242.311 160.098 242.661 159.823 243.1 159.636C243.548 159.449 244.061 159.356 244.64 159.356V161.372C244.397 161.353 244.234 161.344 244.15 161.344C243.525 161.344 243.035 161.521 242.68 161.876C242.325 162.221 242.148 162.744 242.148 163.444V167H239.964V159.468H242.05V160.462ZM249.173 164.046L248.123 165.082V167H245.939V156.612H248.123V162.492L251.315 159.468H253.919L250.783 162.66L254.199 167H251.553L249.173 164.046ZM262.231 163.262C262.231 163.29 262.217 163.486 262.189 163.85H256.491C256.593 164.317 256.836 164.685 257.219 164.956C257.601 165.227 258.077 165.362 258.647 165.362C259.039 165.362 259.384 165.306 259.683 165.194C259.991 165.073 260.275 164.886 260.537 164.634L261.699 165.894C260.989 166.706 259.953 167.112 258.591 167.112C257.741 167.112 256.99 166.949 256.337 166.622C255.683 166.286 255.179 165.824 254.825 165.236C254.47 164.648 254.293 163.981 254.293 163.234C254.293 162.497 254.465 161.834 254.811 161.246C255.165 160.649 255.646 160.187 256.253 159.86C256.869 159.524 257.555 159.356 258.311 159.356C259.048 159.356 259.715 159.515 260.313 159.832C260.91 160.149 261.377 160.607 261.713 161.204C262.058 161.792 262.231 162.478 262.231 163.262ZM258.325 161.008C257.83 161.008 257.415 161.148 257.079 161.428C256.743 161.708 256.537 162.091 256.463 162.576H260.173C260.098 162.1 259.893 161.722 259.557 161.442C259.221 161.153 258.81 161.008 258.325 161.008ZM268.543 166.636C268.328 166.795 268.062 166.916 267.745 167C267.437 167.075 267.11 167.112 266.765 167.112C265.869 167.112 265.173 166.883 264.679 166.426C264.193 165.969 263.951 165.297 263.951 164.41V161.316H262.789V159.636H263.951V157.802H266.135V159.636H268.011V161.316H266.135V164.382C266.135 164.699 266.214 164.947 266.373 165.124C266.541 165.292 266.774 165.376 267.073 165.376C267.418 165.376 267.712 165.283 267.955 165.096L268.543 166.636ZM274.221 159.356C274.921 159.356 275.555 159.519 276.125 159.846C276.703 160.163 277.156 160.616 277.483 161.204C277.809 161.783 277.973 162.459 277.973 163.234C277.973 164.009 277.809 164.69 277.483 165.278C277.156 165.857 276.703 166.309 276.125 166.636C275.555 166.953 274.921 167.112 274.221 167.112C273.259 167.112 272.503 166.809 271.953 166.202V169.716H269.769V159.468H271.855V160.336C272.396 159.683 273.185 159.356 274.221 159.356ZM273.843 165.32C274.403 165.32 274.86 165.133 275.215 164.76C275.579 164.377 275.761 163.869 275.761 163.234C275.761 162.599 275.579 162.095 275.215 161.722C274.86 161.339 274.403 161.148 273.843 161.148C273.283 161.148 272.821 161.339 272.457 161.722C272.102 162.095 271.925 162.599 271.925 163.234C271.925 163.869 272.102 164.377 272.457 164.76C272.821 165.133 273.283 165.32 273.843 165.32ZM279.435 156.612H281.619V167H279.435V156.612ZM286.684 159.356C287.85 159.356 288.746 159.636 289.372 160.196C289.997 160.747 290.31 161.582 290.31 162.702V167H288.266V166.062C287.855 166.762 287.09 167.112 285.97 167.112C285.391 167.112 284.887 167.014 284.458 166.818C284.038 166.622 283.716 166.351 283.492 166.006C283.268 165.661 283.156 165.269 283.156 164.83C283.156 164.13 283.417 163.579 283.94 163.178C284.472 162.777 285.288 162.576 286.39 162.576H288.126C288.126 162.1 287.981 161.736 287.692 161.484C287.402 161.223 286.968 161.092 286.39 161.092C285.988 161.092 285.592 161.157 285.2 161.288C284.817 161.409 284.49 161.577 284.22 161.792L283.436 160.266C283.846 159.977 284.336 159.753 284.906 159.594C285.484 159.435 286.077 159.356 286.684 159.356ZM286.516 165.642C286.889 165.642 287.22 165.558 287.51 165.39C287.799 165.213 288.004 164.956 288.126 164.62V163.85H286.628C285.732 163.85 285.284 164.144 285.284 164.732C285.284 165.012 285.391 165.236 285.606 165.404C285.83 165.563 286.133 165.642 286.516 165.642ZM296.008 167.112C295.206 167.112 294.482 166.949 293.838 166.622C293.204 166.286 292.704 165.824 292.34 165.236C291.986 164.648 291.808 163.981 291.808 163.234C291.808 162.487 291.986 161.82 292.34 161.232C292.704 160.644 293.204 160.187 293.838 159.86C294.482 159.524 295.206 159.356 296.008 159.356C296.802 159.356 297.492 159.524 298.08 159.86C298.678 160.187 299.112 160.658 299.382 161.274L297.688 162.184C297.296 161.493 296.732 161.148 295.994 161.148C295.425 161.148 294.954 161.335 294.58 161.708C294.207 162.081 294.02 162.59 294.02 163.234C294.02 163.878 294.207 164.387 294.58 164.76C294.954 165.133 295.425 165.32 295.994 165.32C296.741 165.32 297.306 164.975 297.688 164.284L299.382 165.208C299.112 165.805 298.678 166.272 298.08 166.608C297.492 166.944 296.802 167.112 296.008 167.112ZM307.922 163.262C307.922 163.29 307.908 163.486 307.88 163.85H302.182C302.285 164.317 302.527 164.685 302.91 164.956C303.293 165.227 303.769 165.362 304.338 165.362C304.73 165.362 305.075 165.306 305.374 165.194C305.682 165.073 305.967 164.886 306.228 164.634L307.39 165.894C306.681 166.706 305.645 167.112 304.282 167.112C303.433 167.112 302.681 166.949 302.028 166.622C301.375 166.286 300.871 165.824 300.516 165.236C300.161 164.648 299.984 163.981 299.984 163.234C299.984 162.497 300.157 161.834 300.502 161.246C300.857 160.649 301.337 160.187 301.944 159.86C302.56 159.524 303.246 159.356 304.002 159.356C304.739 159.356 305.407 159.515 306.004 159.832C306.601 160.149 307.068 160.607 307.404 161.204C307.749 161.792 307.922 162.478 307.922 163.262ZM304.016 161.008C303.521 161.008 303.106 161.148 302.77 161.428C302.434 161.708 302.229 162.091 302.154 162.576H305.864C305.789 162.1 305.584 161.722 305.248 161.442C304.912 161.153 304.501 161.008 304.016 161.008Z" fill="white"/>
<defs>
<filter id="filter0_d_0_1" x="0" y="0" width="379" height="189" filterUnits="userSpaceOnUse" color-interpolation-filters="sRGB">
<feFlood flood-opacity="0" result="BackgroundImageFix"/>
<feColorMatrix in="SourceAlpha" type="matrix" values="0 0 0 0 0 0 0 0 0 0 0 0 0 0 0 0 0 0 127 0" result="hardAlpha"/>
<feOffset dy="4"/>
<feGaussianBlur stdDeviation="2"/>
<feComposite in2="hardAlpha" operator="out"/>
<feColorMatrix type="matrix" values="0 0 0 0 0 0 0 0 0 0 0 0 0 0 0 0 0 0 0.25 0"/>
<feBlend mode="normal" in2="BackgroundImageFix" result="effect1_dropShadow_0_1"/>
<feBlend mode="normal" in="SourceGraphic" in2="effect1_dropShadow_0_1" result="shape"/>
</filter>
<filter id="filter1_d_0_1" x="185.3" y="27.824" width="143.848" height="62.004" filterUnits="userSpaceOnUse" color-interpolation-filters="sRGB">
<feFlood flood-opacity="0" result="BackgroundImageFix"/>
<feColorMatrix in="SourceAlpha" type="matrix" values="0 0 0 0 0 0 0 0 0 0 0 0 0 0 0 0 0 0 127 0" result="hardAlpha"/>
<feOffset dy="4"/>
<feGaussianBlur stdDeviation="2"/>
<feComposite in2="hardAlpha" operator="out"/>
<feColorMatrix type="matrix" values="0 0 0 0 0 0 0 0 0 0 0 0 0 0 0 0 0 0 0.25 0"/>
<feBlend mode="normal" in2="BackgroundImageFix" result="effect1_dropShadow_0_1"/>
<feBlend mode="normal" in="SourceGraphic" in2="effect1_dropShadow_0_1" result="shape"/>
</filter>
</defs>
</svg>
