<svg width="379" height="189" viewBox="0 0 379 189" fill="none" xmlns="http://www.w3.org/2000/svg">
<g filter="url(#filter0_d_0_1)">
<rect x="4" width="371" height="181" rx="9" fill="#DBCDD1"/>
</g>
<g filter="url(#filter1_d_0_1)">
<path d="M174.047 29.4V35.64H180.767V63H188.543V29.4H174.047ZM208.78 63.576C217.084 63.576 223.18 57.288 223.18 46.2C223.18 35.112 217.084 28.824 208.78 28.824C200.524 28.824 194.38 35.112 194.38 46.2C194.38 57.288 200.524 63.576 208.78 63.576ZM208.78 57C204.94 57 202.252 53.832 202.252 46.2C202.252 38.568 204.94 35.4 208.78 35.4C212.668 35.4 215.356 38.568 215.356 46.2C215.356 53.832 212.668 57 208.78 57ZM230.813 54.072C228.173 54.072 226.157 55.896 226.157 58.68C226.157 60.648 227.165 62.136 228.749 62.76L226.637 70.392H231.389L234.125 63.48C235.229 60.84 235.421 59.928 235.421 58.68C235.421 55.944 233.501 54.072 230.813 54.072ZM252.702 63.576C261.006 63.576 267.102 57.288 267.102 46.2C267.102 35.112 261.006 28.824 252.702 28.824C244.446 28.824 238.302 35.112 238.302 46.2C238.302 57.288 244.446 63.576 252.702 63.576ZM252.702 57C248.862 57 246.174 53.832 246.174 46.2C246.174 38.568 248.862 35.4 252.702 35.4C256.59 35.4 259.278 38.568 259.278 46.2C259.278 53.832 256.59 57 252.702 57ZM285.28 63.576C293.584 63.576 299.68 57.288 299.68 46.2C299.68 35.112 293.584 28.824 285.28 28.824C277.024 28.824 270.88 35.112 270.88 46.2C270.88 57.288 277.024 63.576 285.28 63.576ZM285.28 57C281.44 57 278.752 53.832 278.752 46.2C278.752 38.568 281.44 35.4 285.28 35.4C289.168 35.4 291.856 38.568 291.856 46.2C291.856 53.832 289.168 57 285.28 57ZM317.858 63.576C326.162 63.576 332.258 57.288 332.258 46.2C332.258 35.112 326.162 28.824 317.858 28.824C309.602 28.824 303.458 35.112 303.458 46.2C303.458 57.288 309.602 63.576 317.858 63.576ZM317.858 57C314.018 57 311.33 53.832 311.33 46.2C311.33 38.568 314.018 35.4 317.858 35.4C321.746 35.4 324.434 38.568 324.434 46.2C324.434 53.832 321.746 57 317.858 57ZM261.408 80.112C263.662 80.112 264.964 79.118 264.964 77.718C264.964 74.75 260.414 75.996 260.414 74.708C260.414 74.316 260.834 74.008 261.814 74.008C262.5 74.008 263.242 74.148 263.984 74.568L264.712 73.014C263.998 72.594 262.85 72.356 261.814 72.356C259.616 72.356 258.328 73.364 258.328 74.792C258.328 77.802 262.878 76.542 262.878 77.774C262.878 78.194 262.5 78.46 261.492 78.46C260.568 78.46 259.546 78.166 258.874 77.732L258.146 79.3C258.846 79.762 260.134 80.112 261.408 80.112ZM267.404 71.418C268.216 71.418 268.762 70.886 268.762 70.158C268.762 69.486 268.216 68.982 267.404 68.982C266.592 68.982 266.046 69.514 266.046 70.2C266.046 70.886 266.592 71.418 267.404 71.418ZM266.312 80H268.496V72.468H266.312V80ZM276.221 72.468V73.434C275.647 72.706 274.779 72.356 273.729 72.356C271.643 72.356 269.963 73.798 269.963 75.996C269.963 78.194 271.643 79.636 273.729 79.636C274.709 79.636 275.535 79.328 276.109 78.698V79.02C276.109 80.378 275.437 81.078 273.897 81.078C272.931 81.078 271.881 80.742 271.237 80.224L270.369 81.792C271.251 82.478 272.637 82.828 274.065 82.828C276.781 82.828 278.293 81.54 278.293 78.74V72.468H276.221ZM274.163 77.844C273.015 77.844 272.175 77.102 272.175 75.996C272.175 74.89 273.015 74.148 274.163 74.148C275.311 74.148 276.137 74.89 276.137 75.996C276.137 77.102 275.311 77.844 274.163 77.844ZM284.903 72.356C283.881 72.356 282.999 72.706 282.411 73.35V72.468H280.325V80H282.509V76.276C282.509 74.89 283.265 74.246 284.315 74.246C285.281 74.246 285.841 74.806 285.841 76.024V80H288.025V75.688C288.025 73.392 286.681 72.356 284.903 72.356ZM299.374 72.468V76.192C299.374 77.578 298.646 78.222 297.638 78.222C296.672 78.222 296.112 77.662 296.112 76.402V72.468H293.928V76.724C293.928 79.048 295.258 80.112 297.148 80.112C298.072 80.112 298.912 79.762 299.486 79.104V80H301.558V72.468H299.374ZM308.033 72.356C307.025 72.356 306.213 72.678 305.667 73.336V72.468H303.581V82.716H305.765V79.202C306.325 79.818 307.095 80.112 308.033 80.112C310.147 80.112 311.785 78.6 311.785 76.234C311.785 73.868 310.147 72.356 308.033 72.356ZM307.655 78.32C306.563 78.32 305.737 77.536 305.737 76.234C305.737 74.932 306.563 74.148 307.655 74.148C308.747 74.148 309.573 74.932 309.573 76.234C309.573 77.536 308.747 78.32 307.655 78.32ZM315.781 80.112C318.035 80.112 319.337 79.118 319.337 77.718C319.337 74.75 314.787 75.996 314.787 74.708C314.787 74.316 315.207 74.008 316.187 74.008C316.873 74.008 317.615 74.148 318.357 74.568L319.085 73.014C318.371 72.594 317.223 72.356 316.187 72.356C313.989 72.356 312.701 73.364 312.701 74.792C312.701 77.802 317.251 76.542 317.251 77.774C317.251 78.194 316.873 78.46 315.865 78.46C314.941 78.46 313.919 78.166 313.247 77.732L312.519 79.3C313.219 79.762 314.507 80.112 315.781 80.112Z" fill="white"/>
</g>
<path d="M96.2437 95.0476C92.8562 95.0476 63.1265 95.2586 63.1265 102.574V107.737C63.1265 108.569 63.8006 109.243 64.6312 109.243C65.4629 109.243 66.137 108.569 66.137 107.737V106.097C72.9265 109.53 89.2733 110.011 94.7382 110.086V112.524C94.7382 113.356 95.4123 114.03 96.2439 114.03C97.0756 114.03 97.7497 113.356 97.7497 112.524V110.086C103.214 110.086 119.562 109.53 126.351 106.097V107.738V107.737C126.351 108.569 127.025 109.243 127.857 109.243C128.687 109.243 129.361 108.569 129.361 107.737V102.574C129.361 95.2586 99.6312 95.0475 96.2442 95.0475L96.2437 95.0476ZM96.2437 107.09C77.9239 107.09 67.2823 104.245 66.1372 102.574C67.2365 100.888 77.8787 98.0579 96.2437 98.0579C114.609 98.0579 125.205 100.888 126.35 102.574C125.206 104.245 114.564 107.09 96.2437 107.09Z" fill="black"/>
<path d="M127.856 111.093C127.024 111.093 126.35 111.767 126.35 112.598V115.369C125.597 117.024 114.894 119.99 96.2433 119.99C77.5926 119.99 66.8733 116.979 66.1368 115.473V112.463C66.1368 111.631 65.4627 110.957 64.6311 110.957C63.8005 110.957 63.1263 111.631 63.1263 112.463V115.473C63.1263 122.789 92.8565 123 96.2435 123C99.631 123 129.361 122.789 129.361 115.473V112.463C129.29 111.685 128.637 111.09 127.856 111.093L127.856 111.093Z" fill="black"/>
<path d="M127.856 83.0506C127.024 83.0506 126.35 83.7247 126.35 84.5564V92.083C126.35 92.9146 127.024 93.5887 127.856 93.5887C128.686 93.5887 129.36 92.9146 129.36 92.083V84.5564C129.36 84.1573 129.202 83.7741 128.919 83.4916C128.637 83.2092 128.255 83.0506 127.856 83.0506L127.856 83.0506Z" fill="black"/>
<path d="M127.856 72.8896C127.024 72.8896 126.35 73.5627 126.35 74.3944V77.9319C126.35 78.7635 127.024 79.4376 127.856 79.4376C128.686 79.4376 129.36 78.7635 129.36 77.9319V74.3944C129.36 73.9953 129.202 73.6121 128.919 73.3296C128.637 73.0482 128.255 72.8897 127.856 72.8897L127.856 72.8896Z" fill="black"/>
<path d="M127.856 62.9384C127.024 62.9384 126.35 63.6114 126.35 64.4431V66.4749C126.35 67.3065 127.024 67.9806 127.856 67.9806C128.686 67.9806 129.36 67.3065 129.36 66.4749V64.4431C129.36 64.044 129.202 63.6608 128.919 63.3783C128.637 63.0969 128.255 62.9384 127.856 62.9384L127.856 62.9384Z" fill="black"/>
<path d="M64.6318 51.1673C65.0319 51.1673 65.4141 51.0087 65.6965 50.7263C65.979 50.4438 66.1375 50.0605 66.1375 49.6615V47.6297C66.1375 46.7981 65.4634 46.124 64.6318 46.124C63.8012 46.124 63.1271 46.7981 63.1271 47.6297V49.6615C63.1271 50.0606 63.2856 50.4438 63.5681 50.7263C63.8505 51.0087 64.2328 51.1673 64.6318 51.1673H64.6318Z" fill="black"/>
<path d="M64.6318 67.3953C65.0319 67.3953 65.4141 67.2367 65.6965 66.9543C65.979 66.6718 66.1375 66.2896 66.1375 65.8896V56.331C66.1375 55.4994 65.4634 54.8253 64.6318 54.8253C63.8012 54.8253 63.1271 55.4994 63.1271 56.331V65.8896C63.1271 66.2896 63.2856 66.6718 63.5681 66.9543C63.8505 67.2367 64.2328 67.3953 64.6318 67.3953H64.6318Z" fill="black"/>
<path d="M64.6318 80.0238C65.0319 80.0238 65.4141 79.8653 65.6965 79.5828C65.979 79.3004 66.1375 78.9171 66.1375 78.5181V73.4758C66.1375 72.6441 65.4634 71.97 64.6318 71.97C63.8012 71.97 63.1271 72.6441 63.1271 73.4758V78.5192V78.5181C63.1271 78.9171 63.2856 79.3004 63.5681 79.5828C63.8505 79.8653 64.2328 80.0238 64.6318 80.0238L64.6318 80.0238Z" fill="black"/>
<path d="M153.446 109.243C152.115 109.248 150.822 109.694 149.77 110.511C148.719 111.328 147.968 112.47 147.635 113.76H142.909V99.564H147.636H147.635C148.128 101.472 149.523 103.019 151.371 103.704C153.219 104.39 155.286 104.127 156.904 103.002C158.522 101.876 159.487 100.029 159.487 98.0581C159.487 96.0872 158.522 94.2413 156.904 93.1155C155.286 91.9899 153.219 91.7274 151.371 92.413C149.523 93.0987 148.128 94.6444 147.635 96.5532H139.898V105.149H133.741V108.159H139.898V116.769H147.635C148.013 118.232 148.927 119.5 150.194 120.32C151.463 121.14 152.992 121.454 154.481 121.2C155.97 120.944 157.309 120.139 158.232 118.944C159.155 117.748 159.595 116.25 159.464 114.745C159.334 113.24 158.643 111.839 157.527 110.82C156.413 109.8 154.956 109.238 153.446 109.243L153.446 109.243ZM153.446 95.0479C154.663 95.0479 155.761 95.7818 156.228 96.9064C156.694 98.0321 156.436 99.3267 155.575 100.188C154.714 101.049 153.419 101.306 152.294 100.84C151.169 100.375 150.436 99.2763 150.436 98.0582C150.436 96.396 151.783 95.0478 153.446 95.0478L153.446 95.0479ZM153.446 118.274V118.276C152.228 118.276 151.131 117.542 150.665 116.417C150.198 115.291 150.456 113.997 151.317 113.136C152.178 112.275 153.473 112.017 154.598 112.484C155.723 112.949 156.456 114.047 156.456 115.264C156.456 116.063 156.139 116.829 155.574 117.394C155.011 117.959 154.244 118.276 153.446 118.276L153.446 118.274Z" fill="black"/>
<path d="M52.5892 96.5528H44.8516C44.3591 94.6438 42.9636 93.0981 41.1157 92.4126C39.2676 91.7269 37.2013 91.9895 35.5831 93.1151C33.965 94.2407 33 96.0868 33 98.0577C33 100.029 33.965 101.876 35.5831 103.001C37.2012 104.127 39.2676 104.389 41.1157 103.704C42.9638 103.018 44.3591 101.471 44.8516 99.5636H49.5778V113.759H44.8516C44.3591 111.85 42.9636 110.304 41.1157 109.619C39.2677 108.933 37.2013 109.196 35.5831 110.321C33.965 111.447 33 113.293 33 115.264C33 117.236 33.965 119.082 35.5831 120.208C37.2012 121.333 39.2676 121.596 41.1157 120.91C42.9638 120.224 44.3591 118.679 44.8516 116.77H52.5892V108.16H58.7455V105.149H52.5892V96.5528ZM39.0418 101.069H39.0408C37.8238 101.069 36.7255 100.335 36.2592 99.2105C35.7929 98.0848 36.0513 96.7902 36.9123 95.9291C37.7733 95.0681 39.068 94.8108 40.1926 95.276C41.3182 95.7422 42.0511 96.8406 42.0511 98.0576C42.0511 98.8567 41.734 99.6222 41.1702 100.187C40.6052 100.752 39.8398 101.069 39.0407 101.069L39.0418 101.069ZM39.0418 118.275H39.0408C37.8238 118.275 36.7255 117.541 36.2592 116.416C35.7929 115.291 36.0513 113.996 36.9123 113.135C37.7733 112.274 39.068 112.017 40.1926 112.483C41.3182 112.948 42.0511 114.046 42.0511 115.263C42.0511 116.063 41.734 116.828 41.1702 117.393C40.6052 117.958 39.8398 118.275 39.0407 118.275L39.0418 118.275Z" fill="black"/>
<path d="M79.4594 79.9486V80.0998C79.4594 81.2968 79.9351 82.4456 80.7825 83.293C81.6298 84.1393 82.7786 84.615 83.9756 84.615C85.0876 84.6129 86.1597 84.2002 86.986 83.4557C87.8134 84.2002 88.8855 84.6129 89.9975 84.615C91.1945 84.615 92.3433 84.1393 93.1907 83.293C94.037 82.4456 94.5127 81.2968 94.5127 80.0998H100.278C100.278 81.2968 100.754 82.4456 101.601 83.293C102.448 84.1393 103.596 84.615 104.795 84.615C105.907 84.6129 106.979 84.2002 107.805 83.4557C108.631 84.2002 109.703 84.6129 110.815 84.615C112.013 84.615 113.162 84.1393 114.008 83.293C114.856 82.4456 115.332 81.2968 115.332 80.0998V79.9486C117.032 79.6021 118.559 78.678 119.657 77.334C120.754 75.99 121.353 74.3078 121.352 72.5731V58.1666C121.352 56.1705 120.56 54.2563 119.148 52.844C117.737 51.4327 115.823 50.6399 113.826 50.6399H99.5254V44.513C99.5286 43.8998 99.16 43.3464 98.592 43.1133C98.0291 42.8813 97.3813 43.0125 96.9518 43.4441L89.7413 50.6401H88.2355V44.5131C88.2334 43.9083 87.8691 43.3634 87.3105 43.1302C86.7529 42.8971 86.1092 43.021 85.6766 43.4442L77.9841 51.0915C77.9022 51.1745 77.8361 51.2711 77.7888 51.3771C76.4941 51.9799 75.3979 52.9385 74.6282 54.1408C73.8574 55.342 73.4448 56.7386 73.4385 58.1667V72.5732C73.4385 74.3079 74.037 75.99 75.1343 77.3341C76.2316 78.6781 77.7594 79.6021 79.4594 79.9487L79.4594 79.9486ZM96.515 48.1405V50.6396H94.0012L96.515 48.1405ZM85.1799 50.6396H82.6966L85.1957 48.1405L85.1799 50.6396ZM76.449 58.1662C76.449 56.9681 76.9247 55.8194 77.7721 54.973C78.6184 54.1257 79.7671 53.65 80.9653 53.65H103.018V62.8776H106.028V53.65H113.842C115.039 53.65 116.187 54.1257 117.035 54.973C117.881 55.8194 118.358 56.9681 118.358 58.1662V72.5727C118.358 73.7698 117.881 74.9185 117.035 75.7659C116.187 76.6122 115.039 77.0879 113.842 77.0879H112.336V80.0994C112.336 80.9299 111.662 81.6041 110.831 81.6041C109.999 81.6041 109.325 80.93 109.325 80.0994V78.5936H106.315V80.0994C106.315 80.9299 105.641 81.6041 104.809 81.6041C103.978 81.6041 103.305 80.93 103.305 80.0994V77.089L91.5022 77.0879V80.0994C91.5022 80.9299 90.8281 81.6041 89.9975 81.6041C89.1659 81.6041 88.4918 80.93 88.4918 80.0994V78.5936H85.4814V80.0994C85.4814 80.9299 84.8073 81.6041 83.9756 81.6041C83.144 81.6041 82.4709 80.93 82.4709 80.0994V78.5936C82.4709 78.1946 82.3123 77.8113 82.0299 77.5289C81.7474 77.2464 81.3642 77.0879 80.9652 77.0879C79.7671 77.0879 78.6183 76.6122 77.772 75.7659C76.9246 74.9185 76.449 73.7698 76.449 72.5727L76.449 58.1662Z" fill="black"/>
<path d="M80.3329 64.9706C80.7319 64.9706 81.1152 64.812 81.3977 64.5295C81.6791 64.2471 81.8376 63.8638 81.8376 63.4648V59.8821C81.8376 59.0516 81.1645 58.3774 80.3329 58.3774C79.5013 58.3774 78.8271 59.0516 78.8271 59.8821V63.4648C78.8271 63.8638 78.9857 64.2471 79.2682 64.5295C79.5506 64.812 79.9339 64.9706 80.3329 64.9706H80.3329Z" fill="black"/>
<path d="M92.0879 64.9706C92.4869 64.9706 92.8702 64.812 93.1526 64.5295C93.4351 64.2471 93.5937 63.8638 93.5937 63.4648V59.8821C93.5937 59.0516 92.9195 58.3774 92.0879 58.3774C91.2573 58.3774 90.5832 59.0516 90.5832 59.8821V63.4648C90.5832 63.8638 90.7417 64.2471 91.0242 64.5295C91.3056 64.812 91.6889 64.9706 92.0879 64.9706H92.0879Z" fill="black"/>
<path d="M82.1232 68.1936L83.9145 69.2027V69.2016C84.595 69.5817 85.3625 69.7791 86.1427 69.7739C86.9176 69.7812 87.681 69.5838 88.3551 69.2016L90.2221 68.1936C90.9435 67.7851 91.1997 66.8695 90.7933 66.146C90.598 65.7911 90.2662 65.5296 89.8756 65.4225C89.485 65.3144 89.066 65.369 88.7163 65.5737L86.925 66.5828C86.4588 66.8516 85.8854 66.8516 85.4192 66.5828L83.6132 65.5737C82.8897 65.1684 81.974 65.4236 81.5656 66.146C81.1571 66.8653 81.406 67.7798 82.1232 68.1936H82.1232Z" fill="black"/>
<path d="M109.988 61.675H112.998V71.3394H109.988V61.675Z" fill="black"/>
<path d="M179.132 94.9H174.582L173.714 97H171.39L175.758 87.2H177.998L182.38 97H180L179.132 94.9ZM178.418 93.178L176.864 89.426L175.31 93.178H178.418ZM183.242 86.612H185.426V97H183.242V86.612ZM187.453 86.612H189.637V97H187.453V86.612ZM198.947 87.2V97H196.679V89.02H194.719V87.2H198.947ZM204.85 97.168C204.038 97.168 203.314 96.9673 202.68 96.566C202.045 96.1647 201.546 95.586 201.182 94.83C200.827 94.0647 200.65 93.1547 200.65 92.1C200.65 91.0453 200.827 90.14 201.182 89.384C201.546 88.6187 202.045 88.0353 202.68 87.634C203.314 87.2327 204.038 87.032 204.85 87.032C205.662 87.032 206.385 87.2327 207.02 87.634C207.654 88.0353 208.149 88.6187 208.504 89.384C208.868 90.14 209.05 91.0453 209.05 92.1C209.05 93.1547 208.868 94.0647 208.504 94.83C208.149 95.586 207.654 96.1647 207.02 96.566C206.385 96.9673 205.662 97.168 204.85 97.168ZM204.85 95.25C205.447 95.25 205.914 94.9933 206.25 94.48C206.595 93.9667 206.768 93.1733 206.768 92.1C206.768 91.0267 206.595 90.2333 206.25 89.72C205.914 89.2067 205.447 88.95 204.85 88.95C204.262 88.95 203.795 89.2067 203.45 89.72C203.114 90.2333 202.946 91.0267 202.946 92.1C202.946 93.1733 203.114 93.9667 203.45 94.48C203.795 94.9933 204.262 95.25 204.85 95.25ZM211.276 94.396C211.668 94.396 211.99 94.522 212.242 94.774C212.494 95.0167 212.62 95.3387 212.62 95.74C212.62 95.9267 212.596 96.1133 212.55 96.3C212.503 96.4867 212.4 96.7667 212.242 97.14L211.444 99.156H210.058L210.674 96.93C210.44 96.8367 210.254 96.6873 210.114 96.482C209.983 96.2673 209.918 96.02 209.918 95.74C209.918 95.3387 210.044 95.0167 210.296 94.774C210.557 94.522 210.884 94.396 211.276 94.396ZM217.66 97.168C216.848 97.168 216.125 96.9673 215.49 96.566C214.855 96.1647 214.356 95.586 213.992 94.83C213.637 94.0647 213.46 93.1547 213.46 92.1C213.46 91.0453 213.637 90.14 213.992 89.384C214.356 88.6187 214.855 88.0353 215.49 87.634C216.125 87.2327 216.848 87.032 217.66 87.032C218.472 87.032 219.195 87.2327 219.83 87.634C220.465 88.0353 220.959 88.6187 221.314 89.384C221.678 90.14 221.86 91.0453 221.86 92.1C221.86 93.1547 221.678 94.0647 221.314 94.83C220.959 95.586 220.465 96.1647 219.83 96.566C219.195 96.9673 218.472 97.168 217.66 97.168ZM217.66 95.25C218.257 95.25 218.724 94.9933 219.06 94.48C219.405 93.9667 219.578 93.1733 219.578 92.1C219.578 91.0267 219.405 90.2333 219.06 89.72C218.724 89.2067 218.257 88.95 217.66 88.95C217.072 88.95 216.605 89.2067 216.26 89.72C215.924 90.2333 215.756 91.0267 215.756 92.1C215.756 93.1733 215.924 93.9667 216.26 94.48C216.605 94.9933 217.072 95.25 217.66 95.25ZM227.162 97.168C226.35 97.168 225.627 96.9673 224.992 96.566C224.357 96.1647 223.858 95.586 223.494 94.83C223.139 94.0647 222.962 93.1547 222.962 92.1C222.962 91.0453 223.139 90.14 223.494 89.384C223.858 88.6187 224.357 88.0353 224.992 87.634C225.627 87.2327 226.35 87.032 227.162 87.032C227.974 87.032 228.697 87.2327 229.332 87.634C229.967 88.0353 230.461 88.6187 230.816 89.384C231.18 90.14 231.362 91.0453 231.362 92.1C231.362 93.1547 231.18 94.0647 230.816 94.83C230.461 95.586 229.967 96.1647 229.332 96.566C228.697 96.9673 227.974 97.168 227.162 97.168ZM227.162 95.25C227.759 95.25 228.226 94.9933 228.562 94.48C228.907 93.9667 229.08 93.1733 229.08 92.1C229.08 91.0267 228.907 90.2333 228.562 89.72C228.226 89.2067 227.759 88.95 227.162 88.95C226.574 88.95 226.107 89.2067 225.762 89.72C225.426 90.2333 225.258 91.0267 225.258 92.1C225.258 93.1733 225.426 93.9667 225.762 94.48C226.107 94.9933 226.574 95.25 227.162 95.25ZM236.664 97.168C235.852 97.168 235.129 96.9673 234.494 96.566C233.859 96.1647 233.36 95.586 232.996 94.83C232.641 94.0647 232.464 93.1547 232.464 92.1C232.464 91.0453 232.641 90.14 232.996 89.384C233.36 88.6187 233.859 88.0353 234.494 87.634C235.129 87.2327 235.852 87.032 236.664 87.032C237.476 87.032 238.199 87.2327 238.834 87.634C239.469 88.0353 239.963 88.6187 240.318 89.384C240.682 90.14 240.864 91.0453 240.864 92.1C240.864 93.1547 240.682 94.0647 240.318 94.83C239.963 95.586 239.469 96.1647 238.834 96.566C238.199 96.9673 237.476 97.168 236.664 97.168ZM236.664 95.25C237.261 95.25 237.728 94.9933 238.064 94.48C238.409 93.9667 238.582 93.1733 238.582 92.1C238.582 91.0267 238.409 90.2333 238.064 89.72C237.728 89.2067 237.261 88.95 236.664 88.95C236.076 88.95 235.609 89.2067 235.264 89.72C234.928 90.2333 234.76 91.0267 234.76 92.1C234.76 93.1733 234.928 93.9667 235.264 94.48C235.609 94.9933 236.076 95.25 236.664 95.25ZM248.927 97.112C248.301 97.112 247.69 97.0373 247.093 96.888C246.495 96.7293 246.019 96.5333 245.665 96.3L246.393 94.732C246.729 94.9467 247.135 95.124 247.611 95.264C248.087 95.3947 248.553 95.46 249.011 95.46C249.935 95.46 250.397 95.2313 250.397 94.774C250.397 94.5593 250.271 94.4053 250.019 94.312C249.767 94.2187 249.379 94.1393 248.857 94.074C248.241 93.9807 247.732 93.8733 247.331 93.752C246.929 93.6307 246.579 93.416 246.281 93.108C245.991 92.8 245.847 92.3613 245.847 91.792C245.847 91.316 245.982 90.896 246.253 90.532C246.533 90.1587 246.934 89.8693 247.457 89.664C247.989 89.4587 248.614 89.356 249.333 89.356C249.865 89.356 250.392 89.4167 250.915 89.538C251.447 89.65 251.885 89.8087 252.231 90.014L251.503 91.568C250.84 91.1947 250.117 91.008 249.333 91.008C248.866 91.008 248.516 91.0733 248.283 91.204C248.049 91.3347 247.933 91.5027 247.933 91.708C247.933 91.9413 248.059 92.1047 248.311 92.198C248.563 92.2913 248.964 92.38 249.515 92.464C250.131 92.5667 250.635 92.6787 251.027 92.8C251.419 92.912 251.759 93.122 252.049 93.43C252.338 93.738 252.483 94.1673 252.483 94.718C252.483 95.1847 252.343 95.6 252.063 95.964C251.783 96.328 251.372 96.6127 250.831 96.818C250.299 97.014 249.664 97.112 248.927 97.112ZM253.83 89.468H256.014V97H253.83V89.468ZM254.922 88.418C254.521 88.418 254.194 88.3013 253.942 88.068C253.69 87.8347 253.564 87.5453 253.564 87.2C253.564 86.8547 253.69 86.5653 253.942 86.332C254.194 86.0987 254.521 85.982 254.922 85.982C255.324 85.982 255.65 86.094 255.902 86.318C256.154 86.542 256.28 86.822 256.28 87.158C256.28 87.522 256.154 87.8253 255.902 88.068C255.65 88.3013 255.324 88.418 254.922 88.418ZM265.811 89.468V95.74C265.811 97.1213 265.452 98.148 264.733 98.82C264.015 99.492 262.965 99.828 261.583 99.828C260.855 99.828 260.165 99.7393 259.511 99.562C258.858 99.3847 258.317 99.128 257.887 98.792L258.755 97.224C259.073 97.4853 259.474 97.6907 259.959 97.84C260.445 97.9987 260.93 98.078 261.415 98.078C262.171 98.078 262.727 97.9053 263.081 97.56C263.445 97.224 263.627 96.7107 263.627 96.02V95.698C263.058 96.3233 262.265 96.636 261.247 96.636C260.557 96.636 259.922 96.4867 259.343 96.188C258.774 95.88 258.321 95.4507 257.985 94.9C257.649 94.3493 257.481 93.7147 257.481 92.996C257.481 92.2773 257.649 91.6427 257.985 91.092C258.321 90.5413 258.774 90.1167 259.343 89.818C259.922 89.51 260.557 89.356 261.247 89.356C262.339 89.356 263.17 89.7153 263.739 90.434V89.468H265.811ZM261.681 94.844C262.26 94.844 262.731 94.676 263.095 94.34C263.469 93.9947 263.655 93.5467 263.655 92.996C263.655 92.4453 263.469 92.002 263.095 91.666C262.731 91.3207 262.26 91.148 261.681 91.148C261.103 91.148 260.627 91.3207 260.253 91.666C259.88 92.002 259.693 92.4453 259.693 92.996C259.693 93.5467 259.88 93.9947 260.253 94.34C260.627 94.676 261.103 94.844 261.681 94.844ZM272.422 89.356C273.355 89.356 274.107 89.636 274.676 90.196C275.255 90.756 275.544 91.5867 275.544 92.688V97H273.36V93.024C273.36 92.4267 273.229 91.9833 272.968 91.694C272.707 91.3953 272.329 91.246 271.834 91.246C271.283 91.246 270.845 91.4187 270.518 91.764C270.191 92.1 270.028 92.604 270.028 93.276V97H267.844V89.468H269.93V90.35C270.219 90.0327 270.579 89.79 271.008 89.622C271.437 89.4447 271.909 89.356 272.422 89.356ZM289.076 89.468V97H287.004V96.104C286.715 96.4307 286.37 96.6827 285.968 96.86C285.567 97.028 285.133 97.112 284.666 97.112C283.677 97.112 282.893 96.8273 282.314 96.258C281.736 95.6887 281.446 94.844 281.446 93.724V89.468H283.63V93.402C283.63 94.6153 284.139 95.222 285.156 95.222C285.679 95.222 286.099 95.054 286.416 94.718C286.734 94.3727 286.892 93.864 286.892 93.192V89.468H289.076ZM295.552 89.356C296.252 89.356 296.886 89.5193 297.456 89.846C298.034 90.1633 298.487 90.616 298.814 91.204C299.14 91.7827 299.304 92.4593 299.304 93.234C299.304 94.0087 299.14 94.69 298.814 95.278C298.487 95.8567 298.034 96.3093 297.456 96.636C296.886 96.9533 296.252 97.112 295.552 97.112C294.59 97.112 293.834 96.8087 293.284 96.202V99.716H291.1V89.468H293.186V90.336C293.727 89.6827 294.516 89.356 295.552 89.356ZM295.174 95.32C295.734 95.32 296.191 95.1333 296.546 94.76C296.91 94.3773 297.092 93.8687 297.092 93.234C297.092 92.5993 296.91 92.0953 296.546 91.722C296.191 91.3393 295.734 91.148 295.174 91.148C294.614 91.148 294.152 91.3393 293.788 91.722C293.433 92.0953 293.256 92.5993 293.256 93.234C293.256 93.8687 293.433 94.3773 293.788 94.76C294.152 95.1333 294.614 95.32 295.174 95.32ZM303.3 97.112C302.674 97.112 302.063 97.0373 301.466 96.888C300.868 96.7293 300.392 96.5333 300.038 96.3L300.766 94.732C301.102 94.9467 301.508 95.124 301.984 95.264C302.46 95.3947 302.926 95.46 303.384 95.46C304.308 95.46 304.77 95.2313 304.77 94.774C304.77 94.5593 304.644 94.4053 304.392 94.312C304.14 94.2187 303.752 94.1393 303.23 94.074C302.614 93.9807 302.105 93.8733 301.704 93.752C301.302 93.6307 300.952 93.416 300.654 93.108C300.364 92.8 300.22 92.3613 300.22 91.792C300.22 91.316 300.355 90.896 300.626 90.532C300.906 90.1587 301.307 89.8693 301.83 89.664C302.362 89.4587 302.987 89.356 303.706 89.356C304.238 89.356 304.765 89.4167 305.288 89.538C305.82 89.65 306.258 89.8087 306.604 90.014L305.876 91.568C305.213 91.1947 304.49 91.008 303.706 91.008C303.239 91.008 302.889 91.0733 302.656 91.204C302.422 91.3347 302.306 91.5027 302.306 91.708C302.306 91.9413 302.432 92.1047 302.684 92.198C302.936 92.2913 303.337 92.38 303.888 92.464C304.504 92.5667 305.008 92.6787 305.4 92.8C305.792 92.912 306.132 93.122 306.422 93.43C306.711 93.738 306.856 94.1673 306.856 94.718C306.856 95.1847 306.716 95.6 306.436 95.964C306.156 96.328 305.745 96.6127 305.204 96.818C304.672 97.014 304.037 97.112 303.3 97.112ZM319.938 89.468V95.74C319.938 97.1213 319.579 98.148 318.86 98.82C318.141 99.492 317.091 99.828 315.71 99.828C314.982 99.828 314.291 99.7393 313.638 99.562C312.985 99.3847 312.443 99.128 312.014 98.792L312.882 97.224C313.199 97.4853 313.601 97.6907 314.086 97.84C314.571 97.9987 315.057 98.078 315.542 98.078C316.298 98.078 316.853 97.9053 317.208 97.56C317.572 97.224 317.754 96.7107 317.754 96.02V95.698C317.185 96.3233 316.391 96.636 315.374 96.636C314.683 96.636 314.049 96.4867 313.47 96.188C312.901 95.88 312.448 95.4507 312.112 94.9C311.776 94.3493 311.608 93.7147 311.608 92.996C311.608 92.2773 311.776 91.6427 312.112 91.092C312.448 90.5413 312.901 90.1167 313.47 89.818C314.049 89.51 314.683 89.356 315.374 89.356C316.466 89.356 317.297 89.7153 317.866 90.434V89.468H319.938ZM315.808 94.844C316.387 94.844 316.858 94.676 317.222 94.34C317.595 93.9947 317.782 93.5467 317.782 92.996C317.782 92.4453 317.595 92.002 317.222 91.666C316.858 91.3207 316.387 91.148 315.808 91.148C315.229 91.148 314.753 91.3207 314.38 91.666C314.007 92.002 313.82 92.4453 313.82 92.996C313.82 93.5467 314.007 93.9947 314.38 94.34C314.753 94.676 315.229 94.844 315.808 94.844ZM329.349 93.262C329.349 93.29 329.335 93.486 329.307 93.85H323.609C323.712 94.3167 323.954 94.6853 324.337 94.956C324.72 95.2267 325.196 95.362 325.765 95.362C326.157 95.362 326.502 95.306 326.801 95.194C327.109 95.0727 327.394 94.886 327.655 94.634L328.817 95.894C328.108 96.706 327.072 97.112 325.709 97.112C324.86 97.112 324.108 96.9487 323.455 96.622C322.802 96.286 322.298 95.824 321.943 95.236C321.588 94.648 321.411 93.9807 321.411 93.234C321.411 92.4967 321.584 91.834 321.929 91.246C322.284 90.6487 322.764 90.1867 323.371 89.86C323.987 89.524 324.673 89.356 325.429 89.356C326.166 89.356 326.834 89.5147 327.431 89.832C328.028 90.1493 328.495 90.6067 328.831 91.204C329.176 91.792 329.349 92.478 329.349 93.262ZM325.443 91.008C324.948 91.008 324.533 91.148 324.197 91.428C323.861 91.708 323.656 92.0907 323.581 92.576H327.291C327.216 92.1 327.011 91.722 326.675 91.442C326.339 91.1527 325.928 91.008 325.443 91.008ZM335.661 96.636C335.446 96.7947 335.18 96.916 334.863 97C334.555 97.0747 334.228 97.112 333.883 97.112C332.987 97.112 332.292 96.8833 331.797 96.426C331.312 95.9687 331.069 95.2967 331.069 94.41V91.316H329.907V89.636H331.069V87.802H333.253V89.636H335.129V91.316H333.253V94.382C333.253 94.6993 333.332 94.9467 333.491 95.124C333.659 95.292 333.892 95.376 334.191 95.376C334.536 95.376 334.83 95.2827 335.073 95.096L335.661 96.636ZM343.89 89.356C345.056 89.356 345.952 89.636 346.578 90.196C347.203 90.7467 347.516 91.582 347.516 92.702V97H345.472V96.062C345.061 96.762 344.296 97.112 343.176 97.112C342.597 97.112 342.093 97.014 341.664 96.818C341.244 96.622 340.922 96.3513 340.698 96.006C340.474 95.6607 340.362 95.2687 340.362 94.83C340.362 94.13 340.623 93.5793 341.146 93.178C341.678 92.7767 342.494 92.576 343.596 92.576H345.332C345.332 92.1 345.187 91.736 344.898 91.484C344.608 91.2227 344.174 91.092 343.596 91.092C343.194 91.092 342.798 91.1573 342.406 91.288C342.023 91.4093 341.696 91.5773 341.426 91.792L340.642 90.266C341.052 89.9767 341.542 89.7527 342.112 89.594C342.69 89.4353 343.283 89.356 343.89 89.356ZM343.722 95.642C344.095 95.642 344.426 95.558 344.716 95.39C345.005 95.2127 345.21 94.956 345.332 94.62V93.85H343.834C342.938 93.85 342.49 94.144 342.49 94.732C342.49 95.012 342.597 95.236 342.812 95.404C343.036 95.5627 343.339 95.642 343.722 95.642ZM182.499 106.636H184.431V108.316H182.555V114H180.371V108.316H179.209V106.636H180.371V106.3C180.371 105.441 180.623 104.76 181.127 104.256C181.64 103.752 182.359 103.5 183.283 103.5C183.609 103.5 183.917 103.537 184.207 103.612C184.505 103.677 184.753 103.775 184.949 103.906L184.375 105.488C184.123 105.311 183.829 105.222 183.493 105.222C182.83 105.222 182.499 105.586 182.499 106.314V106.636ZM188.726 107.462C188.987 107.098 189.337 106.823 189.776 106.636C190.224 106.449 190.737 106.356 191.316 106.356V108.372C191.073 108.353 190.91 108.344 190.826 108.344C190.201 108.344 189.711 108.521 189.356 108.876C189.001 109.221 188.824 109.744 188.824 110.444V114H186.64V106.468H188.726V107.462ZM199.924 110.262C199.924 110.29 199.91 110.486 199.882 110.85H194.184C194.287 111.317 194.529 111.685 194.912 111.956C195.295 112.227 195.771 112.362 196.34 112.362C196.732 112.362 197.077 112.306 197.376 112.194C197.684 112.073 197.969 111.886 198.23 111.634L199.392 112.894C198.683 113.706 197.647 114.112 196.284 114.112C195.435 114.112 194.683 113.949 194.03 113.622C193.377 113.286 192.873 112.824 192.518 112.236C192.163 111.648 191.986 110.981 191.986 110.234C191.986 109.497 192.159 108.834 192.504 108.246C192.859 107.649 193.339 107.187 193.946 106.86C194.562 106.524 195.248 106.356 196.004 106.356C196.741 106.356 197.409 106.515 198.006 106.832C198.603 107.149 199.07 107.607 199.406 108.204C199.751 108.792 199.924 109.478 199.924 110.262ZM196.018 108.008C195.523 108.008 195.108 108.148 194.772 108.428C194.436 108.708 194.231 109.091 194.156 109.576H197.866C197.791 109.1 197.586 108.722 197.25 108.442C196.914 108.153 196.503 108.008 196.018 108.008ZM208.756 110.262C208.756 110.29 208.742 110.486 208.714 110.85H203.016C203.119 111.317 203.361 111.685 203.744 111.956C204.127 112.227 204.603 112.362 205.172 112.362C205.564 112.362 205.909 112.306 206.208 112.194C206.516 112.073 206.801 111.886 207.062 111.634L208.224 112.894C207.515 113.706 206.479 114.112 205.116 114.112C204.267 114.112 203.515 113.949 202.862 113.622C202.209 113.286 201.705 112.824 201.35 112.236C200.995 111.648 200.818 110.981 200.818 110.234C200.818 109.497 200.991 108.834 201.336 108.246C201.691 107.649 202.171 107.187 202.778 106.86C203.394 106.524 204.08 106.356 204.836 106.356C205.573 106.356 206.241 106.515 206.838 106.832C207.435 107.149 207.902 107.607 208.238 108.204C208.583 108.792 208.756 109.478 208.756 110.262ZM204.85 108.008C204.355 108.008 203.94 108.148 203.604 108.428C203.268 108.708 203.063 109.091 202.988 109.576H206.698C206.623 109.1 206.418 108.722 206.082 108.442C205.746 108.153 205.335 108.008 204.85 108.008ZM223.317 104.2V114H221.455L216.569 108.05V114H214.329V104.2H216.205L221.077 110.15V104.2H223.317ZM227.904 106.02V108.61H232.44V110.43H227.904V114H225.636V104.2H233.042V106.02H227.904ZM236.675 106.048H233.539V104.2H242.079V106.048H238.943V114H236.675V106.048ZM256.757 106.356C257.699 106.356 258.446 106.636 258.997 107.196C259.557 107.747 259.837 108.577 259.837 109.688V114H257.653V110.024C257.653 109.427 257.527 108.983 257.275 108.694C257.032 108.395 256.682 108.246 256.225 108.246C255.711 108.246 255.305 108.414 255.007 108.75C254.708 109.077 254.559 109.567 254.559 110.22V114H252.375V110.024C252.375 108.839 251.899 108.246 250.947 108.246C250.443 108.246 250.041 108.414 249.743 108.75C249.444 109.077 249.295 109.567 249.295 110.22V114H247.111V106.468H249.197V107.336C249.477 107.019 249.817 106.776 250.219 106.608C250.629 106.44 251.077 106.356 251.563 106.356C252.095 106.356 252.575 106.463 253.005 106.678C253.434 106.883 253.779 107.187 254.041 107.588C254.349 107.196 254.736 106.893 255.203 106.678C255.679 106.463 256.197 106.356 256.757 106.356ZM264.832 106.356C265.999 106.356 266.895 106.636 267.52 107.196C268.145 107.747 268.458 108.582 268.458 109.702V114H266.414V113.062C266.003 113.762 265.238 114.112 264.118 114.112C263.539 114.112 263.035 114.014 262.606 113.818C262.186 113.622 261.864 113.351 261.64 113.006C261.416 112.661 261.304 112.269 261.304 111.83C261.304 111.13 261.565 110.579 262.088 110.178C262.62 109.777 263.437 109.576 264.538 109.576H266.274C266.274 109.1 266.129 108.736 265.84 108.484C265.551 108.223 265.117 108.092 264.538 108.092C264.137 108.092 263.74 108.157 263.348 108.288C262.965 108.409 262.639 108.577 262.368 108.792L261.584 107.266C261.995 106.977 262.485 106.753 263.054 106.594C263.633 106.435 264.225 106.356 264.832 106.356ZM264.664 112.642C265.037 112.642 265.369 112.558 265.658 112.39C265.947 112.213 266.153 111.956 266.274 111.62V110.85H264.776C263.88 110.85 263.432 111.144 263.432 111.732C263.432 112.012 263.539 112.236 263.754 112.404C263.978 112.563 264.281 112.642 264.664 112.642ZM278.189 103.612V114H276.103V113.132C275.561 113.785 274.777 114.112 273.751 114.112C273.041 114.112 272.397 113.953 271.819 113.636C271.249 113.319 270.801 112.866 270.475 112.278C270.148 111.69 269.985 111.009 269.985 110.234C269.985 109.459 270.148 108.778 270.475 108.19C270.801 107.602 271.249 107.149 271.819 106.832C272.397 106.515 273.041 106.356 273.751 106.356C274.712 106.356 275.463 106.659 276.005 107.266V103.612H278.189ZM274.129 112.32C274.679 112.32 275.137 112.133 275.501 111.76C275.865 111.377 276.047 110.869 276.047 110.234C276.047 109.599 275.865 109.095 275.501 108.722C275.137 108.339 274.679 108.148 274.129 108.148C273.569 108.148 273.107 108.339 272.743 108.722C272.379 109.095 272.197 109.599 272.197 110.234C272.197 110.869 272.379 111.377 272.743 111.76C273.107 112.133 273.569 112.32 274.129 112.32ZM287.588 110.262C287.588 110.29 287.574 110.486 287.546 110.85H281.848C281.951 111.317 282.193 111.685 282.576 111.956C282.959 112.227 283.435 112.362 284.004 112.362C284.396 112.362 284.741 112.306 285.04 112.194C285.348 112.073 285.633 111.886 285.894 111.634L287.056 112.894C286.347 113.706 285.311 114.112 283.948 114.112C283.099 114.112 282.347 113.949 281.694 113.622C281.041 113.286 280.537 112.824 280.182 112.236C279.827 111.648 279.65 110.981 279.65 110.234C279.65 109.497 279.823 108.834 280.168 108.246C280.523 107.649 281.003 107.187 281.61 106.86C282.226 106.524 282.912 106.356 283.668 106.356C284.405 106.356 285.073 106.515 285.67 106.832C286.267 107.149 286.734 107.607 287.07 108.204C287.415 108.792 287.588 109.478 287.588 110.262ZM283.682 108.008C283.187 108.008 282.772 108.148 282.436 108.428C282.1 108.708 281.895 109.091 281.82 109.576H285.53C285.455 109.1 285.25 108.722 284.914 108.442C284.578 108.153 284.167 108.008 283.682 108.008ZM295.401 106.636H297.333V108.316H295.457V114H293.273V108.316H292.111V106.636H293.273V106.3C293.273 105.441 293.525 104.76 294.029 104.256C294.542 103.752 295.261 103.5 296.185 103.5C296.512 103.5 296.82 103.537 297.109 103.612C297.408 103.677 297.655 103.775 297.851 103.906L297.277 105.488C297.025 105.311 296.731 105.222 296.395 105.222C295.732 105.222 295.401 105.586 295.401 106.314V106.636ZM301.628 107.462C301.89 107.098 302.24 106.823 302.678 106.636C303.126 106.449 303.64 106.356 304.218 106.356V108.372C303.976 108.353 303.812 108.344 303.728 108.344C303.103 108.344 302.613 108.521 302.258 108.876C301.904 109.221 301.726 109.744 301.726 110.444V114H299.542V106.468H301.628V107.462ZM309.032 114.112C308.239 114.112 307.525 113.949 306.89 113.622C306.265 113.286 305.775 112.824 305.42 112.236C305.066 111.648 304.888 110.981 304.888 110.234C304.888 109.487 305.066 108.82 305.42 108.232C305.775 107.644 306.265 107.187 306.89 106.86C307.525 106.524 308.239 106.356 309.032 106.356C309.826 106.356 310.535 106.524 311.16 106.86C311.786 107.187 312.276 107.644 312.63 108.232C312.985 108.82 313.162 109.487 313.162 110.234C313.162 110.981 312.985 111.648 312.63 112.236C312.276 112.824 311.786 113.286 311.16 113.622C310.535 113.949 309.826 114.112 309.032 114.112ZM309.032 112.32C309.592 112.32 310.05 112.133 310.404 111.76C310.768 111.377 310.95 110.869 310.95 110.234C310.95 109.599 310.768 109.095 310.404 108.722C310.05 108.339 309.592 108.148 309.032 108.148C308.472 108.148 308.01 108.339 307.646 108.722C307.282 109.095 307.1 109.599 307.1 110.234C307.1 110.869 307.282 111.377 307.646 111.76C308.01 112.133 308.472 112.32 309.032 112.32ZM324.268 106.356C325.211 106.356 325.958 106.636 326.508 107.196C327.068 107.747 327.348 108.577 327.348 109.688V114H325.164V110.024C325.164 109.427 325.038 108.983 324.786 108.694C324.544 108.395 324.194 108.246 323.736 108.246C323.223 108.246 322.817 108.414 322.518 108.75C322.22 109.077 322.07 109.567 322.07 110.22V114H319.886V110.024C319.886 108.839 319.41 108.246 318.458 108.246C317.954 108.246 317.553 108.414 317.254 108.75C316.956 109.077 316.806 109.567 316.806 110.22V114H314.622V106.468H316.708V107.336C316.988 107.019 317.329 106.776 317.73 106.608C318.141 106.44 318.589 106.356 319.074 106.356C319.606 106.356 320.087 106.463 320.516 106.678C320.946 106.883 321.291 107.187 321.552 107.588C321.86 107.196 322.248 106.893 322.714 106.678C323.19 106.463 323.708 106.356 324.268 106.356ZM336.309 106.356C337.475 106.356 338.371 106.636 338.997 107.196C339.622 107.747 339.935 108.582 339.935 109.702V114H337.891V113.062C337.48 113.762 336.715 114.112 335.595 114.112C335.016 114.112 334.512 114.014 334.083 113.818C333.663 113.622 333.341 113.351 333.117 113.006C332.893 112.661 332.781 112.269 332.781 111.83C332.781 111.13 333.042 110.579 333.565 110.178C334.097 109.777 334.913 109.576 336.015 109.576H337.751C337.751 109.1 337.606 108.736 337.317 108.484C337.027 108.223 336.593 108.092 336.015 108.092C335.613 108.092 335.217 108.157 334.825 108.288C334.442 108.409 334.115 108.577 333.845 108.792L333.061 107.266C333.471 106.977 333.961 106.753 334.531 106.594C335.109 106.435 335.702 106.356 336.309 106.356ZM336.141 112.642C336.514 112.642 336.845 112.558 337.135 112.39C337.424 112.213 337.629 111.956 337.751 111.62V110.85H336.253C335.357 110.85 334.909 111.144 334.909 111.732C334.909 112.012 335.016 112.236 335.231 112.404C335.455 112.563 335.758 112.642 336.141 112.642ZM210.87 131.112C210.067 131.112 209.344 130.949 208.7 130.622C208.065 130.286 207.566 129.824 207.202 129.236C206.847 128.648 206.67 127.981 206.67 127.234C206.67 126.487 206.847 125.82 207.202 125.232C207.566 124.644 208.065 124.187 208.7 123.86C209.344 123.524 210.067 123.356 210.87 123.356C211.663 123.356 212.354 123.524 212.942 123.86C213.539 124.187 213.973 124.658 214.244 125.274L212.55 126.184C212.158 125.493 211.593 125.148 210.856 125.148C210.286 125.148 209.815 125.335 209.442 125.708C209.068 126.081 208.882 126.59 208.882 127.234C208.882 127.878 209.068 128.387 209.442 128.76C209.815 129.133 210.286 129.32 210.856 129.32C211.602 129.32 212.167 128.975 212.55 128.284L214.244 129.208C213.973 129.805 213.539 130.272 212.942 130.608C212.354 130.944 211.663 131.112 210.87 131.112ZM218.989 131.112C218.196 131.112 217.482 130.949 216.847 130.622C216.222 130.286 215.732 129.824 215.377 129.236C215.023 128.648 214.845 127.981 214.845 127.234C214.845 126.487 215.023 125.82 215.377 125.232C215.732 124.644 216.222 124.187 216.847 123.86C217.482 123.524 218.196 123.356 218.989 123.356C219.783 123.356 220.492 123.524 221.117 123.86C221.743 124.187 222.233 124.644 222.587 125.232C222.942 125.82 223.119 126.487 223.119 127.234C223.119 127.981 222.942 128.648 222.587 129.236C222.233 129.824 221.743 130.286 221.117 130.622C220.492 130.949 219.783 131.112 218.989 131.112ZM218.989 129.32C219.549 129.32 220.007 129.133 220.361 128.76C220.725 128.377 220.907 127.869 220.907 127.234C220.907 126.599 220.725 126.095 220.361 125.722C220.007 125.339 219.549 125.148 218.989 125.148C218.429 125.148 217.967 125.339 217.603 125.722C217.239 126.095 217.057 126.599 217.057 127.234C217.057 127.869 217.239 128.377 217.603 128.76C217.967 129.133 218.429 129.32 218.989 129.32ZM224.579 120.612H226.763V131H224.579V120.612ZM228.79 120.612H230.974V131H228.79V120.612ZM236.039 123.356C237.206 123.356 238.102 123.636 238.727 124.196C239.352 124.747 239.665 125.582 239.665 126.702V131H237.621V130.062C237.21 130.762 236.445 131.112 235.325 131.112C234.746 131.112 234.242 131.014 233.813 130.818C233.393 130.622 233.071 130.351 232.847 130.006C232.623 129.661 232.511 129.269 232.511 128.83C232.511 128.13 232.772 127.579 233.295 127.178C233.827 126.777 234.644 126.576 235.745 126.576H237.481C237.481 126.1 237.336 125.736 237.047 125.484C236.758 125.223 236.324 125.092 235.745 125.092C235.344 125.092 234.947 125.157 234.555 125.288C234.172 125.409 233.846 125.577 233.575 125.792L232.791 124.266C233.202 123.977 233.692 123.753 234.261 123.594C234.84 123.435 235.432 123.356 236.039 123.356ZM235.871 129.642C236.244 129.642 236.576 129.558 236.865 129.39C237.154 129.213 237.36 128.956 237.481 128.62V127.85H235.983C235.087 127.85 234.639 128.144 234.639 128.732C234.639 129.012 234.746 129.236 234.961 129.404C235.185 129.563 235.488 129.642 235.871 129.642ZM249.494 123.468V129.74C249.494 131.121 249.134 132.148 248.416 132.82C247.697 133.492 246.647 133.828 245.266 133.828C244.538 133.828 243.847 133.739 243.194 133.562C242.54 133.385 241.999 133.128 241.57 132.792L242.438 131.224C242.755 131.485 243.156 131.691 243.642 131.84C244.127 131.999 244.612 132.078 245.098 132.078C245.854 132.078 246.409 131.905 246.764 131.56C247.128 131.224 247.31 130.711 247.31 130.02V129.698C246.74 130.323 245.947 130.636 244.93 130.636C244.239 130.636 243.604 130.487 243.026 130.188C242.456 129.88 242.004 129.451 241.668 128.9C241.332 128.349 241.164 127.715 241.164 126.996C241.164 126.277 241.332 125.643 241.668 125.092C242.004 124.541 242.456 124.117 243.026 123.818C243.604 123.51 244.239 123.356 244.93 123.356C246.022 123.356 246.852 123.715 247.422 124.434V123.468H249.494ZM245.364 128.844C245.942 128.844 246.414 128.676 246.778 128.34C247.151 127.995 247.338 127.547 247.338 126.996C247.338 126.445 247.151 126.002 246.778 125.666C246.414 125.321 245.942 125.148 245.364 125.148C244.785 125.148 244.309 125.321 243.936 125.666C243.562 126.002 243.376 126.445 243.376 126.996C243.376 127.547 243.562 127.995 243.936 128.34C244.309 128.676 244.785 128.844 245.364 128.844ZM258.905 127.262C258.905 127.29 258.891 127.486 258.863 127.85H253.165C253.267 128.317 253.51 128.685 253.893 128.956C254.275 129.227 254.751 129.362 255.321 129.362C255.713 129.362 256.058 129.306 256.357 129.194C256.665 129.073 256.949 128.886 257.211 128.634L258.373 129.894C257.663 130.706 256.627 131.112 255.265 131.112C254.415 131.112 253.664 130.949 253.011 130.622C252.357 130.286 251.853 129.824 251.499 129.236C251.144 128.648 250.967 127.981 250.967 127.234C250.967 126.497 251.139 125.834 251.485 125.246C251.839 124.649 252.32 124.187 252.927 123.86C253.543 123.524 254.229 123.356 254.985 123.356C255.722 123.356 256.389 123.515 256.987 123.832C257.584 124.149 258.051 124.607 258.387 125.204C258.732 125.792 258.905 126.478 258.905 127.262ZM254.999 125.008C254.504 125.008 254.089 125.148 253.753 125.428C253.417 125.708 253.211 126.091 253.137 126.576H256.847C256.772 126.1 256.567 125.722 256.231 125.442C255.895 125.153 255.484 125.008 254.999 125.008ZM267.907 131.112C267.114 131.112 266.4 130.949 265.765 130.622C265.14 130.286 264.65 129.824 264.295 129.236C263.941 128.648 263.763 127.981 263.763 127.234C263.763 126.487 263.941 125.82 264.295 125.232C264.65 124.644 265.14 124.187 265.765 123.86C266.4 123.524 267.114 123.356 267.907 123.356C268.701 123.356 269.41 123.524 270.035 123.86C270.661 124.187 271.151 124.644 271.505 125.232C271.86 125.82 272.037 126.487 272.037 127.234C272.037 127.981 271.86 128.648 271.505 129.236C271.151 129.824 270.661 130.286 270.035 130.622C269.41 130.949 268.701 131.112 267.907 131.112ZM267.907 129.32C268.467 129.32 268.925 129.133 269.279 128.76C269.643 128.377 269.825 127.869 269.825 127.234C269.825 126.599 269.643 126.095 269.279 125.722C268.925 125.339 268.467 125.148 267.907 125.148C267.347 125.148 266.885 125.339 266.521 125.722C266.157 126.095 265.975 126.599 265.975 127.234C265.975 127.869 266.157 128.377 266.521 128.76C266.885 129.133 267.347 129.32 267.907 129.32ZM275.891 123.636H277.823V125.316H275.947V131H273.763V125.316H272.601V123.636H273.763V123.3C273.763 122.441 274.015 121.76 274.519 121.256C275.033 120.752 275.751 120.5 276.675 120.5C277.002 120.5 277.31 120.537 277.599 120.612C277.898 120.677 278.145 120.775 278.341 120.906L277.767 122.488C277.515 122.311 277.221 122.222 276.885 122.222C276.223 122.222 275.891 122.586 275.891 123.314V123.636ZM290.464 123.468V131H288.392V130.104C288.103 130.431 287.757 130.683 287.356 130.86C286.955 131.028 286.521 131.112 286.054 131.112C285.065 131.112 284.281 130.827 283.702 130.258C283.123 129.689 282.834 128.844 282.834 127.724V123.468H285.018V127.402C285.018 128.615 285.527 129.222 286.544 129.222C287.067 129.222 287.487 129.054 287.804 128.718C288.121 128.373 288.28 127.864 288.28 127.192V123.468H290.464ZM295.021 131.112C294.396 131.112 293.785 131.037 293.187 130.888C292.59 130.729 292.114 130.533 291.759 130.3L292.487 128.732C292.823 128.947 293.229 129.124 293.705 129.264C294.181 129.395 294.648 129.46 295.105 129.46C296.029 129.46 296.491 129.231 296.491 128.774C296.491 128.559 296.365 128.405 296.113 128.312C295.861 128.219 295.474 128.139 294.951 128.074C294.335 127.981 293.827 127.873 293.425 127.752C293.024 127.631 292.674 127.416 292.375 127.108C292.086 126.8 291.941 126.361 291.941 125.792C291.941 125.316 292.077 124.896 292.347 124.532C292.627 124.159 293.029 123.869 293.551 123.664C294.083 123.459 294.709 123.356 295.427 123.356C295.959 123.356 296.487 123.417 297.009 123.538C297.541 123.65 297.98 123.809 298.325 124.014L297.597 125.568C296.935 125.195 296.211 125.008 295.427 125.008C294.961 125.008 294.611 125.073 294.377 125.204C294.144 125.335 294.027 125.503 294.027 125.708C294.027 125.941 294.153 126.105 294.405 126.198C294.657 126.291 295.059 126.38 295.609 126.464C296.225 126.567 296.729 126.679 297.121 126.8C297.513 126.912 297.854 127.122 298.143 127.43C298.433 127.738 298.577 128.167 298.577 128.718C298.577 129.185 298.437 129.6 298.157 129.964C297.877 130.328 297.467 130.613 296.925 130.818C296.393 131.014 295.759 131.112 295.021 131.112ZM307.303 127.262C307.303 127.29 307.289 127.486 307.261 127.85H301.563C301.666 128.317 301.908 128.685 302.291 128.956C302.674 129.227 303.15 129.362 303.719 129.362C304.111 129.362 304.456 129.306 304.755 129.194C305.063 129.073 305.348 128.886 305.609 128.634L306.771 129.894C306.062 130.706 305.026 131.112 303.663 131.112C302.814 131.112 302.062 130.949 301.409 130.622C300.756 130.286 300.252 129.824 299.897 129.236C299.542 128.648 299.365 127.981 299.365 127.234C299.365 126.497 299.538 125.834 299.883 125.246C300.238 124.649 300.718 124.187 301.325 123.86C301.941 123.524 302.627 123.356 303.383 123.356C304.12 123.356 304.788 123.515 305.385 123.832C305.982 124.149 306.449 124.607 306.785 125.204C307.13 125.792 307.303 126.478 307.303 127.262ZM303.397 125.008C302.902 125.008 302.487 125.148 302.151 125.428C301.815 125.708 301.61 126.091 301.535 126.576H305.245C305.17 126.1 304.965 125.722 304.629 125.442C304.293 125.153 303.882 125.008 303.397 125.008ZM310.843 124.462C311.104 124.098 311.454 123.823 311.893 123.636C312.341 123.449 312.854 123.356 313.433 123.356V125.372C313.19 125.353 313.027 125.344 312.943 125.344C312.318 125.344 311.828 125.521 311.473 125.876C311.118 126.221 310.941 126.744 310.941 127.444V131H308.757V123.468H310.843V124.462ZM218.049 148.112C217.424 148.112 216.812 148.037 216.215 147.888C215.618 147.729 215.142 147.533 214.787 147.3L215.515 145.732C215.851 145.947 216.257 146.124 216.733 146.264C217.209 146.395 217.676 146.46 218.133 146.46C219.057 146.46 219.519 146.231 219.519 145.774C219.519 145.559 219.393 145.405 219.141 145.312C218.889 145.219 218.502 145.139 217.979 145.074C217.363 144.981 216.854 144.873 216.453 144.752C216.052 144.631 215.702 144.416 215.403 144.108C215.114 143.8 214.969 143.361 214.969 142.792C214.969 142.316 215.104 141.896 215.375 141.532C215.655 141.159 216.056 140.869 216.579 140.664C217.111 140.459 217.736 140.356 218.455 140.356C218.987 140.356 219.514 140.417 220.037 140.538C220.569 140.65 221.008 140.809 221.353 141.014L220.625 142.568C219.962 142.195 219.239 142.008 218.455 142.008C217.988 142.008 217.638 142.073 217.405 142.204C217.172 142.335 217.055 142.503 217.055 142.708C217.055 142.941 217.181 143.105 217.433 143.198C217.685 143.291 218.086 143.38 218.637 143.464C219.253 143.567 219.757 143.679 220.149 143.8C220.541 143.912 220.882 144.122 221.171 144.43C221.46 144.738 221.605 145.167 221.605 145.718C221.605 146.185 221.465 146.6 221.185 146.964C220.905 147.328 220.494 147.613 219.953 147.818C219.421 148.014 218.786 148.112 218.049 148.112ZM230.54 140.468V148H228.468V147.104C228.179 147.431 227.834 147.683 227.432 147.86C227.031 148.028 226.597 148.112 226.13 148.112C225.141 148.112 224.357 147.827 223.778 147.258C223.2 146.689 222.91 145.844 222.91 144.724V140.468H225.094V144.402C225.094 145.615 225.603 146.222 226.62 146.222C227.143 146.222 227.563 146.054 227.88 145.718C228.198 145.373 228.356 144.864 228.356 144.192V140.468H230.54ZM237.016 140.356C237.716 140.356 238.35 140.519 238.92 140.846C239.498 141.163 239.951 141.616 240.278 142.204C240.604 142.783 240.768 143.459 240.768 144.234C240.768 145.009 240.604 145.69 240.278 146.278C239.951 146.857 239.498 147.309 238.92 147.636C238.35 147.953 237.716 148.112 237.016 148.112C235.98 148.112 235.191 147.785 234.65 147.132V148H232.564V137.612H234.748V141.266C235.298 140.659 236.054 140.356 237.016 140.356ZM236.638 146.32C237.198 146.32 237.655 146.133 238.01 145.76C238.374 145.377 238.556 144.869 238.556 144.234C238.556 143.599 238.374 143.095 238.01 142.722C237.655 142.339 237.198 142.148 236.638 142.148C236.078 142.148 235.616 142.339 235.252 142.722C234.897 143.095 234.72 143.599 234.72 144.234C234.72 144.869 234.897 145.377 235.252 145.76C235.616 146.133 236.078 146.32 236.638 146.32ZM251.876 140.356C252.818 140.356 253.565 140.636 254.116 141.196C254.676 141.747 254.956 142.577 254.956 143.688V148H252.772V144.024C252.772 143.427 252.646 142.983 252.394 142.694C252.151 142.395 251.801 142.246 251.344 142.246C250.83 142.246 250.424 142.414 250.126 142.75C249.827 143.077 249.678 143.567 249.678 144.22V148H247.494V144.024C247.494 142.839 247.018 142.246 246.066 142.246C245.562 142.246 245.16 142.414 244.862 142.75C244.563 143.077 244.414 143.567 244.414 144.22V148H242.23V140.468H244.316V141.336C244.596 141.019 244.936 140.776 245.338 140.608C245.748 140.44 246.196 140.356 246.682 140.356C247.214 140.356 247.694 140.463 248.124 140.678C248.553 140.883 248.898 141.187 249.16 141.588C249.468 141.196 249.855 140.893 250.322 140.678C250.798 140.463 251.316 140.356 251.876 140.356ZM256.913 140.468H259.097V148H256.913V140.468ZM258.005 139.418C257.604 139.418 257.277 139.301 257.025 139.068C256.773 138.835 256.647 138.545 256.647 138.2C256.647 137.855 256.773 137.565 257.025 137.332C257.277 137.099 257.604 136.982 258.005 136.982C258.407 136.982 258.733 137.094 258.985 137.318C259.237 137.542 259.363 137.822 259.363 138.158C259.363 138.522 259.237 138.825 258.985 139.068C258.733 139.301 258.407 139.418 258.005 139.418ZM263.658 148.112C263.033 148.112 262.422 148.037 261.824 147.888C261.227 147.729 260.751 147.533 260.396 147.3L261.124 145.732C261.46 145.947 261.866 146.124 262.342 146.264C262.818 146.395 263.285 146.46 263.742 146.46C264.666 146.46 265.128 146.231 265.128 145.774C265.128 145.559 265.002 145.405 264.75 145.312C264.498 145.219 264.111 145.139 263.588 145.074C262.972 144.981 262.464 144.873 262.062 144.752C261.661 144.631 261.311 144.416 261.012 144.108C260.723 143.8 260.578 143.361 260.578 142.792C260.578 142.316 260.714 141.896 260.984 141.532C261.264 141.159 261.666 140.869 262.188 140.664C262.72 140.459 263.346 140.356 264.064 140.356C264.596 140.356 265.124 140.417 265.646 140.538C266.178 140.65 266.617 140.809 266.962 141.014L266.234 142.568C265.572 142.195 264.848 142.008 264.064 142.008C263.598 142.008 263.248 142.073 263.014 142.204C262.781 142.335 262.664 142.503 262.664 142.708C262.664 142.941 262.79 143.105 263.042 143.198C263.294 143.291 263.696 143.38 264.246 143.464C264.862 143.567 265.366 143.679 265.758 143.8C266.15 143.912 266.491 144.122 266.78 144.43C267.07 144.738 267.214 145.167 267.214 145.718C267.214 146.185 267.074 146.6 266.794 146.964C266.514 147.328 266.104 147.613 265.562 147.818C265.03 148.014 264.396 148.112 263.658 148.112ZM271.096 148.112C270.47 148.112 269.859 148.037 269.262 147.888C268.664 147.729 268.188 147.533 267.834 147.3L268.562 145.732C268.898 145.947 269.304 146.124 269.78 146.264C270.256 146.395 270.722 146.46 271.18 146.46C272.104 146.46 272.566 146.231 272.566 145.774C272.566 145.559 272.44 145.405 272.188 145.312C271.936 145.219 271.548 145.139 271.026 145.074C270.41 144.981 269.901 144.873 269.5 144.752C269.098 144.631 268.748 144.416 268.45 144.108C268.16 143.8 268.016 143.361 268.016 142.792C268.016 142.316 268.151 141.896 268.422 141.532C268.702 141.159 269.103 140.869 269.626 140.664C270.158 140.459 270.783 140.356 271.502 140.356C272.034 140.356 272.561 140.417 273.084 140.538C273.616 140.65 274.054 140.809 274.4 141.014L273.672 142.568C273.009 142.195 272.286 142.008 271.502 142.008C271.035 142.008 270.685 142.073 270.452 142.204C270.218 142.335 270.102 142.503 270.102 142.708C270.102 142.941 270.228 143.105 270.48 143.198C270.732 143.291 271.133 143.38 271.684 143.464C272.3 143.567 272.804 143.679 273.196 143.8C273.588 143.912 273.928 144.122 274.218 144.43C274.507 144.738 274.652 145.167 274.652 145.718C274.652 146.185 274.512 146.6 274.232 146.964C273.952 147.328 273.541 147.613 273 147.818C272.468 148.014 271.833 148.112 271.096 148.112ZM275.999 140.468H278.183V148H275.999V140.468ZM277.091 139.418C276.69 139.418 276.363 139.301 276.111 139.068C275.859 138.835 275.733 138.545 275.733 138.2C275.733 137.855 275.859 137.565 276.111 137.332C276.363 137.099 276.69 136.982 277.091 136.982C277.493 136.982 277.819 137.094 278.071 137.318C278.323 137.542 278.449 137.822 278.449 138.158C278.449 138.522 278.323 138.825 278.071 139.068C277.819 139.301 277.493 139.418 277.091 139.418ZM283.794 148.112C283.001 148.112 282.287 147.949 281.652 147.622C281.027 147.286 280.537 146.824 280.182 146.236C279.827 145.648 279.65 144.981 279.65 144.234C279.65 143.487 279.827 142.82 280.182 142.232C280.537 141.644 281.027 141.187 281.652 140.86C282.287 140.524 283.001 140.356 283.794 140.356C284.587 140.356 285.297 140.524 285.922 140.86C286.547 141.187 287.037 141.644 287.392 142.232C287.747 142.82 287.924 143.487 287.924 144.234C287.924 144.981 287.747 145.648 287.392 146.236C287.037 146.824 286.547 147.286 285.922 147.622C285.297 147.949 284.587 148.112 283.794 148.112ZM283.794 146.32C284.354 146.32 284.811 146.133 285.166 145.76C285.53 145.377 285.712 144.869 285.712 144.234C285.712 143.599 285.53 143.095 285.166 142.722C284.811 142.339 284.354 142.148 283.794 142.148C283.234 142.148 282.772 142.339 282.408 142.722C282.044 143.095 281.862 143.599 281.862 144.234C281.862 144.869 282.044 145.377 282.408 145.76C282.772 146.133 283.234 146.32 283.794 146.32ZM293.962 140.356C294.895 140.356 295.647 140.636 296.216 141.196C296.795 141.756 297.084 142.587 297.084 143.688V148H294.9V144.024C294.9 143.427 294.769 142.983 294.508 142.694C294.247 142.395 293.869 142.246 293.374 142.246C292.823 142.246 292.385 142.419 292.058 142.764C291.731 143.1 291.568 143.604 291.568 144.276V148H289.384V140.468H291.47V141.35C291.759 141.033 292.119 140.79 292.548 140.622C292.977 140.445 293.449 140.356 293.962 140.356ZM301.598 148.112C300.972 148.112 300.361 148.037 299.764 147.888C299.166 147.729 298.69 147.533 298.336 147.3L299.064 145.732C299.4 145.947 299.806 146.124 300.282 146.264C300.758 146.395 301.224 146.46 301.682 146.46C302.606 146.46 303.068 146.231 303.068 145.774C303.068 145.559 302.942 145.405 302.69 145.312C302.438 145.219 302.05 145.139 301.528 145.074C300.912 144.981 300.403 144.873 300.002 144.752C299.6 144.631 299.25 144.416 298.952 144.108C298.662 143.8 298.518 143.361 298.518 142.792C298.518 142.316 298.653 141.896 298.924 141.532C299.204 141.159 299.605 140.869 300.128 140.664C300.66 140.459 301.285 140.356 302.004 140.356C302.536 140.356 303.063 140.417 303.586 140.538C304.118 140.65 304.556 140.809 304.902 141.014L304.174 142.568C303.511 142.195 302.788 142.008 302.004 142.008C301.537 142.008 301.187 142.073 300.954 142.204C300.72 142.335 300.604 142.503 300.604 142.708C300.604 142.941 300.73 143.105 300.982 143.198C301.234 143.291 301.635 143.38 302.186 143.464C302.802 143.567 303.306 143.679 303.698 143.8C304.09 143.912 304.43 144.122 304.72 144.43C305.009 144.738 305.154 145.167 305.154 145.718C305.154 146.185 305.014 146.6 304.734 146.964C304.454 147.328 304.043 147.613 303.502 147.818C302.97 148.014 302.335 148.112 301.598 148.112Z" fill="white"/>
<defs>
<filter id="filter0_d_0_1" x="0" y="0" width="379" height="189" filterUnits="userSpaceOnUse" color-interpolation-filters="sRGB">
<feFlood flood-opacity="0" result="BackgroundImageFix"/>
<feColorMatrix in="SourceAlpha" type="matrix" values="0 0 0 0 0 0 0 0 0 0 0 0 0 0 0 0 0 0 127 0" result="hardAlpha"/>
<feOffset dy="4"/>
<feGaussianBlur stdDeviation="2"/>
<feComposite in2="hardAlpha" operator="out"/>
<feColorMatrix type="matrix" values="0 0 0 0 0 0 0 0 0 0 0 0 0 0 0 0 0 0 0.25 0"/>
<feBlend mode="normal" in2="BackgroundImageFix" result="effect1_dropShadow_0_1"/>
<feBlend mode="normal" in="SourceGraphic" in2="effect1_dropShadow_0_1" result="shape"/>
</filter>
<filter id="filter1_d_0_1" x="170.047" y="28.824" width="166.211" height="62.004" filterUnits="userSpaceOnUse" color-interpolation-filters="sRGB">
<feFlood flood-opacity="0" result="BackgroundImageFix"/>
<feColorMatrix in="SourceAlpha" type="matrix" values="0 0 0 0 0 0 0 0 0 0 0 0 0 0 0 0 0 0 127 0" result="hardAlpha"/>
<feOffset dy="4"/>
<feGaussianBlur stdDeviation="2"/>
<feComposite in2="hardAlpha" operator="out"/>
<feColorMatrix type="matrix" values="0 0 0 0 0 0 0 0 0 0 0 0 0 0 0 0 0 0 0.25 0"/>
<feBlend mode="normal" in2="BackgroundImageFix" result="effect1_dropShadow_0_1"/>
<feBlend mode="normal" in="SourceGraphic" in2="effect1_dropShadow_0_1" result="shape"/>
</filter>
</defs>
</svg>
