<svg width="379" height="189" viewBox="0 0 379 189" fill="none" xmlns="http://www.w3.org/2000/svg">
<g filter="url(#filter0_d_0_1)">
<rect x="4" width="371" height="181" rx="9" fill="#A78A93"/>
</g>
<rect x="185" y="84" width="153" height="19" rx="9.5" fill="#66FFAC"/>
<g filter="url(#filter1_d_0_1)">
<path d="M194.031 26.4V32.64H200.751V60H208.527V26.4H194.031ZM218.828 51.072C216.188 51.072 214.172 52.896 214.172 55.68C214.172 57.648 215.18 59.136 216.764 59.76L214.652 67.392H219.404L222.14 60.48C223.244 57.84 223.436 56.928 223.436 55.68C223.436 52.944 221.516 51.072 218.828 51.072ZM240.717 60.576C249.021 60.576 255.117 54.288 255.117 43.2C255.117 32.112 249.021 25.824 240.717 25.824C232.461 25.824 226.317 32.112 226.317 43.2C226.317 54.288 232.461 60.576 240.717 60.576ZM240.717 54C236.877 54 234.189 50.832 234.189 43.2C234.189 35.568 236.877 32.4 240.717 32.4C244.605 32.4 247.293 35.568 247.293 43.2C247.293 50.832 244.605 54 240.717 54ZM273.295 60.576C281.599 60.576 287.695 54.288 287.695 43.2C287.695 32.112 281.599 25.824 273.295 25.824C265.039 25.824 258.895 32.112 258.895 43.2C258.895 54.288 265.039 60.576 273.295 60.576ZM273.295 54C269.455 54 266.767 50.832 266.767 43.2C266.767 35.568 269.455 32.4 273.295 32.4C277.183 32.4 279.871 35.568 279.871 43.2C279.871 50.832 277.183 54 273.295 54ZM305.874 60.576C314.178 60.576 320.274 54.288 320.274 43.2C320.274 32.112 314.178 25.824 305.874 25.824C297.618 25.824 291.474 32.112 291.474 43.2C291.474 54.288 297.618 60.576 305.874 60.576ZM305.874 54C302.034 54 299.346 50.832 299.346 43.2C299.346 35.568 302.034 32.4 305.874 32.4C309.762 32.4 312.45 35.568 312.45 43.2C312.45 50.832 309.762 54 305.874 54ZM249.549 77.112C251.803 77.112 253.105 76.118 253.105 74.718C253.105 71.75 248.555 72.996 248.555 71.708C248.555 71.316 248.975 71.008 249.955 71.008C250.641 71.008 251.383 71.148 252.125 71.568L252.853 70.014C252.139 69.594 250.991 69.356 249.955 69.356C247.757 69.356 246.469 70.364 246.469 71.792C246.469 74.802 251.019 73.542 251.019 74.774C251.019 75.194 250.641 75.46 249.633 75.46C248.709 75.46 247.687 75.166 247.015 74.732L246.287 76.3C246.987 76.762 248.275 77.112 249.549 77.112ZM255.544 68.418C256.356 68.418 256.902 67.886 256.902 67.158C256.902 66.486 256.356 65.982 255.544 65.982C254.732 65.982 254.186 66.514 254.186 67.2C254.186 67.886 254.732 68.418 255.544 68.418ZM254.452 77H256.636V69.468H254.452V77ZM264.361 69.468V70.434C263.787 69.706 262.919 69.356 261.869 69.356C259.783 69.356 258.103 70.798 258.103 72.996C258.103 75.194 259.783 76.636 261.869 76.636C262.849 76.636 263.675 76.328 264.249 75.698V76.02C264.249 77.378 263.577 78.078 262.037 78.078C261.071 78.078 260.021 77.742 259.377 77.224L258.509 78.792C259.391 79.478 260.777 79.828 262.205 79.828C264.921 79.828 266.433 78.54 266.433 75.74V69.468H264.361ZM262.303 74.844C261.155 74.844 260.315 74.102 260.315 72.996C260.315 71.89 261.155 71.148 262.303 71.148C263.451 71.148 264.277 71.89 264.277 72.996C264.277 74.102 263.451 74.844 262.303 74.844ZM273.044 69.356C272.022 69.356 271.14 69.706 270.552 70.35V69.468H268.466V77H270.65V73.276C270.65 71.89 271.406 71.246 272.456 71.246C273.422 71.246 273.982 71.806 273.982 73.024V77H276.166V72.688C276.166 70.392 274.822 69.356 273.044 69.356ZM287.515 69.468V73.192C287.515 74.578 286.787 75.222 285.779 75.222C284.813 75.222 284.253 74.662 284.253 73.402V69.468H282.069V73.724C282.069 76.048 283.399 77.112 285.289 77.112C286.213 77.112 287.053 76.762 287.627 76.104V77H289.699V69.468H287.515ZM296.174 69.356C295.166 69.356 294.354 69.678 293.808 70.336V69.468H291.722V79.716H293.906V76.202C294.466 76.818 295.236 77.112 296.174 77.112C298.288 77.112 299.926 75.6 299.926 73.234C299.926 70.868 298.288 69.356 296.174 69.356ZM295.796 75.32C294.704 75.32 293.878 74.536 293.878 73.234C293.878 71.932 294.704 71.148 295.796 71.148C296.888 71.148 297.714 71.932 297.714 73.234C297.714 74.536 296.888 75.32 295.796 75.32ZM303.922 77.112C306.176 77.112 307.478 76.118 307.478 74.718C307.478 71.75 302.928 72.996 302.928 71.708C302.928 71.316 303.348 71.008 304.328 71.008C305.014 71.008 305.756 71.148 306.498 71.568L307.226 70.014C306.512 69.594 305.364 69.356 304.328 69.356C302.13 69.356 300.842 70.364 300.842 71.792C300.842 74.802 305.392 73.542 305.392 74.774C305.392 75.194 305.014 75.46 304.006 75.46C303.082 75.46 302.06 75.166 301.388 74.732L300.66 76.3C301.36 76.762 302.648 77.112 303.922 77.112Z" fill="#FFE0B2"/>
</g>
<path d="M174.652 116.02V118.61H179.188V120.43H174.652V124H172.384V114.2H179.79V116.02H174.652ZM181.034 116.468H183.218V124H181.034V116.468ZM182.126 115.418C181.725 115.418 181.398 115.301 181.146 115.068C180.894 114.835 180.768 114.545 180.768 114.2C180.768 113.855 180.894 113.565 181.146 113.332C181.398 113.099 181.725 112.982 182.126 112.982C182.528 112.982 182.854 113.094 183.106 113.318C183.358 113.542 183.484 113.822 183.484 114.158C183.484 114.522 183.358 114.825 183.106 115.068C182.854 115.301 182.528 115.418 182.126 115.418ZM187.331 117.462C187.593 117.098 187.943 116.823 188.381 116.636C188.829 116.449 189.343 116.356 189.921 116.356V118.372C189.679 118.353 189.515 118.344 189.431 118.344C188.806 118.344 188.316 118.521 187.961 118.876C187.607 119.221 187.429 119.744 187.429 120.444V124H185.245V116.468H187.331V117.462ZM193.781 124.112C193.156 124.112 192.545 124.037 191.947 123.888C191.35 123.729 190.874 123.533 190.519 123.3L191.247 121.732C191.583 121.947 191.989 122.124 192.465 122.264C192.941 122.395 193.408 122.46 193.865 122.46C194.789 122.46 195.251 122.231 195.251 121.774C195.251 121.559 195.125 121.405 194.873 121.312C194.621 121.219 194.234 121.139 193.711 121.074C193.095 120.981 192.587 120.873 192.185 120.752C191.784 120.631 191.434 120.416 191.135 120.108C190.846 119.8 190.701 119.361 190.701 118.792C190.701 118.316 190.837 117.896 191.107 117.532C191.387 117.159 191.789 116.869 192.311 116.664C192.843 116.459 193.469 116.356 194.187 116.356C194.719 116.356 195.247 116.417 195.769 116.538C196.301 116.65 196.74 116.809 197.085 117.014L196.357 118.568C195.695 118.195 194.971 118.008 194.187 118.008C193.721 118.008 193.371 118.073 193.137 118.204C192.904 118.335 192.787 118.503 192.787 118.708C192.787 118.941 192.913 119.105 193.165 119.198C193.417 119.291 193.819 119.38 194.369 119.464C194.985 119.567 195.489 119.679 195.881 119.8C196.273 119.912 196.614 120.122 196.903 120.43C197.193 120.738 197.337 121.167 197.337 121.718C197.337 122.185 197.197 122.6 196.917 122.964C196.637 123.328 196.227 123.613 195.685 123.818C195.153 124.014 194.519 124.112 193.781 124.112ZM203.543 123.636C203.328 123.795 203.062 123.916 202.745 124C202.437 124.075 202.11 124.112 201.765 124.112C200.869 124.112 200.173 123.883 199.679 123.426C199.193 122.969 198.951 122.297 198.951 121.41V118.316H197.789V116.636H198.951V114.802H201.135V116.636H203.011V118.316H201.135V121.382C201.135 121.699 201.214 121.947 201.373 122.124C201.541 122.292 201.774 122.376 202.073 122.376C202.418 122.376 202.712 122.283 202.955 122.096L203.543 123.636ZM212.052 114.2V124H209.784V116.02H207.824V114.2H212.052ZM217.954 124.168C217.142 124.168 216.419 123.967 215.784 123.566C215.149 123.165 214.65 122.586 214.286 121.83C213.931 121.065 213.754 120.155 213.754 119.1C213.754 118.045 213.931 117.14 214.286 116.384C214.65 115.619 215.149 115.035 215.784 114.634C216.419 114.233 217.142 114.032 217.954 114.032C218.766 114.032 219.489 114.233 220.124 114.634C220.759 115.035 221.253 115.619 221.608 116.384C221.972 117.14 222.154 118.045 222.154 119.1C222.154 120.155 221.972 121.065 221.608 121.83C221.253 122.586 220.759 123.165 220.124 123.566C219.489 123.967 218.766 124.168 217.954 124.168ZM217.954 122.25C218.551 122.25 219.018 121.993 219.354 121.48C219.699 120.967 219.872 120.173 219.872 119.1C219.872 118.027 219.699 117.233 219.354 116.72C219.018 116.207 218.551 115.95 217.954 115.95C217.366 115.95 216.899 116.207 216.554 116.72C216.218 117.233 216.05 118.027 216.05 119.1C216.05 120.173 216.218 120.967 216.554 121.48C216.899 121.993 217.366 122.25 217.954 122.25ZM227.456 124.168C226.644 124.168 225.921 123.967 225.286 123.566C224.651 123.165 224.152 122.586 223.788 121.83C223.433 121.065 223.256 120.155 223.256 119.1C223.256 118.045 223.433 117.14 223.788 116.384C224.152 115.619 224.651 115.035 225.286 114.634C225.921 114.233 226.644 114.032 227.456 114.032C228.268 114.032 228.991 114.233 229.626 114.634C230.261 115.035 230.755 115.619 231.11 116.384C231.474 117.14 231.656 118.045 231.656 119.1C231.656 120.155 231.474 121.065 231.11 121.83C230.755 122.586 230.261 123.165 229.626 123.566C228.991 123.967 228.268 124.168 227.456 124.168ZM227.456 122.25C228.053 122.25 228.52 121.993 228.856 121.48C229.201 120.967 229.374 120.173 229.374 119.1C229.374 118.027 229.201 117.233 228.856 116.72C228.52 116.207 228.053 115.95 227.456 115.95C226.868 115.95 226.401 116.207 226.056 116.72C225.72 117.233 225.552 118.027 225.552 119.1C225.552 120.173 225.72 120.967 226.056 121.48C226.401 121.993 226.868 122.25 227.456 122.25ZM236.958 124.168C236.146 124.168 235.423 123.967 234.788 123.566C234.153 123.165 233.654 122.586 233.29 121.83C232.935 121.065 232.758 120.155 232.758 119.1C232.758 118.045 232.935 117.14 233.29 116.384C233.654 115.619 234.153 115.035 234.788 114.634C235.423 114.233 236.146 114.032 236.958 114.032C237.77 114.032 238.493 114.233 239.128 114.634C239.763 115.035 240.257 115.619 240.612 116.384C240.976 117.14 241.158 118.045 241.158 119.1C241.158 120.155 240.976 121.065 240.612 121.83C240.257 122.586 239.763 123.165 239.128 123.566C238.493 123.967 237.77 124.168 236.958 124.168ZM236.958 122.25C237.555 122.25 238.022 121.993 238.358 121.48C238.703 120.967 238.876 120.173 238.876 119.1C238.876 118.027 238.703 117.233 238.358 116.72C238.022 116.207 237.555 115.95 236.958 115.95C236.37 115.95 235.903 116.207 235.558 116.72C235.222 117.233 235.054 118.027 235.054 119.1C235.054 120.173 235.222 120.967 235.558 121.48C235.903 121.993 236.37 122.25 236.958 122.25ZM249.221 124.112C248.595 124.112 247.984 124.037 247.387 123.888C246.789 123.729 246.313 123.533 245.959 123.3L246.687 121.732C247.023 121.947 247.429 122.124 247.905 122.264C248.381 122.395 248.847 122.46 249.305 122.46C250.229 122.46 250.691 122.231 250.691 121.774C250.691 121.559 250.565 121.405 250.313 121.312C250.061 121.219 249.673 121.139 249.151 121.074C248.535 120.981 248.026 120.873 247.625 120.752C247.223 120.631 246.873 120.416 246.575 120.108C246.285 119.8 246.141 119.361 246.141 118.792C246.141 118.316 246.276 117.896 246.547 117.532C246.827 117.159 247.228 116.869 247.751 116.664C248.283 116.459 248.908 116.356 249.627 116.356C250.159 116.356 250.686 116.417 251.209 116.538C251.741 116.65 252.179 116.809 252.525 117.014L251.797 118.568C251.134 118.195 250.411 118.008 249.627 118.008C249.16 118.008 248.81 118.073 248.577 118.204C248.343 118.335 248.227 118.503 248.227 118.708C248.227 118.941 248.353 119.105 248.605 119.198C248.857 119.291 249.258 119.38 249.809 119.464C250.425 119.567 250.929 119.679 251.321 119.8C251.713 119.912 252.053 120.122 252.343 120.43C252.632 120.738 252.777 121.167 252.777 121.718C252.777 122.185 252.637 122.6 252.357 122.964C252.077 123.328 251.666 123.613 251.125 123.818C250.593 124.014 249.958 124.112 249.221 124.112ZM254.124 116.468H256.308V124H254.124V116.468ZM255.216 115.418C254.815 115.418 254.488 115.301 254.236 115.068C253.984 114.835 253.858 114.545 253.858 114.2C253.858 113.855 253.984 113.565 254.236 113.332C254.488 113.099 254.815 112.982 255.216 112.982C255.618 112.982 255.944 113.094 256.196 113.318C256.448 113.542 256.574 113.822 256.574 114.158C256.574 114.522 256.448 114.825 256.196 115.068C255.944 115.301 255.618 115.418 255.216 115.418ZM266.105 116.468V122.74C266.105 124.121 265.746 125.148 265.027 125.82C264.308 126.492 263.258 126.828 261.877 126.828C261.149 126.828 260.458 126.739 259.805 126.562C259.152 126.385 258.61 126.128 258.181 125.792L259.049 124.224C259.366 124.485 259.768 124.691 260.253 124.84C260.738 124.999 261.224 125.078 261.709 125.078C262.465 125.078 263.02 124.905 263.375 124.56C263.739 124.224 263.921 123.711 263.921 123.02V122.698C263.352 123.323 262.558 123.636 261.541 123.636C260.85 123.636 260.216 123.487 259.637 123.188C259.068 122.88 258.615 122.451 258.279 121.9C257.943 121.349 257.775 120.715 257.775 119.996C257.775 119.277 257.943 118.643 258.279 118.092C258.615 117.541 259.068 117.117 259.637 116.818C260.216 116.51 260.85 116.356 261.541 116.356C262.633 116.356 263.464 116.715 264.033 117.434V116.468H266.105ZM261.975 121.844C262.554 121.844 263.025 121.676 263.389 121.34C263.762 120.995 263.949 120.547 263.949 119.996C263.949 119.445 263.762 119.002 263.389 118.666C263.025 118.321 262.554 118.148 261.975 118.148C261.396 118.148 260.92 118.321 260.547 118.666C260.174 119.002 259.987 119.445 259.987 119.996C259.987 120.547 260.174 120.995 260.547 121.34C260.92 121.676 261.396 121.844 261.975 121.844ZM272.716 116.356C273.649 116.356 274.401 116.636 274.97 117.196C275.549 117.756 275.838 118.587 275.838 119.688V124H273.654V120.024C273.654 119.427 273.523 118.983 273.262 118.694C273.001 118.395 272.623 118.246 272.128 118.246C271.577 118.246 271.139 118.419 270.812 118.764C270.485 119.1 270.322 119.604 270.322 120.276V124H268.138V116.468H270.224V117.35C270.513 117.033 270.873 116.79 271.302 116.622C271.731 116.445 272.203 116.356 272.716 116.356ZM289.37 116.468V124H287.298V123.104C287.009 123.431 286.664 123.683 286.262 123.86C285.861 124.028 285.427 124.112 284.96 124.112C283.971 124.112 283.187 123.827 282.608 123.258C282.03 122.689 281.74 121.844 281.74 120.724V116.468H283.924V120.402C283.924 121.615 284.433 122.222 285.45 122.222C285.973 122.222 286.393 122.054 286.71 121.718C287.028 121.373 287.186 120.864 287.186 120.192V116.468H289.37ZM295.846 116.356C296.546 116.356 297.18 116.519 297.75 116.846C298.328 117.163 298.781 117.616 299.108 118.204C299.434 118.783 299.598 119.459 299.598 120.234C299.598 121.009 299.434 121.69 299.108 122.278C298.781 122.857 298.328 123.309 297.75 123.636C297.18 123.953 296.546 124.112 295.846 124.112C294.884 124.112 294.128 123.809 293.578 123.202V126.716H291.394V116.468H293.48V117.336C294.021 116.683 294.81 116.356 295.846 116.356ZM295.468 122.32C296.028 122.32 296.485 122.133 296.84 121.76C297.204 121.377 297.386 120.869 297.386 120.234C297.386 119.599 297.204 119.095 296.84 118.722C296.485 118.339 296.028 118.148 295.468 118.148C294.908 118.148 294.446 118.339 294.082 118.722C293.727 119.095 293.55 119.599 293.55 120.234C293.55 120.869 293.727 121.377 294.082 121.76C294.446 122.133 294.908 122.32 295.468 122.32ZM303.594 124.112C302.968 124.112 302.357 124.037 301.76 123.888C301.162 123.729 300.686 123.533 300.332 123.3L301.06 121.732C301.396 121.947 301.802 122.124 302.278 122.264C302.754 122.395 303.22 122.46 303.678 122.46C304.602 122.46 305.064 122.231 305.064 121.774C305.064 121.559 304.938 121.405 304.686 121.312C304.434 121.219 304.046 121.139 303.524 121.074C302.908 120.981 302.399 120.873 301.998 120.752C301.596 120.631 301.246 120.416 300.948 120.108C300.658 119.8 300.514 119.361 300.514 118.792C300.514 118.316 300.649 117.896 300.92 117.532C301.2 117.159 301.601 116.869 302.124 116.664C302.656 116.459 303.281 116.356 304 116.356C304.532 116.356 305.059 116.417 305.582 116.538C306.114 116.65 306.552 116.809 306.898 117.014L306.17 118.568C305.507 118.195 304.784 118.008 304 118.008C303.533 118.008 303.183 118.073 302.95 118.204C302.716 118.335 302.6 118.503 302.6 118.708C302.6 118.941 302.726 119.105 302.978 119.198C303.23 119.291 303.631 119.38 304.182 119.464C304.798 119.567 305.302 119.679 305.694 119.8C306.086 119.912 306.426 120.122 306.716 120.43C307.005 120.738 307.15 121.167 307.15 121.718C307.15 122.185 307.01 122.6 306.73 122.964C306.45 123.328 306.039 123.613 305.498 123.818C304.966 124.014 304.331 124.112 303.594 124.112ZM320.232 116.468V122.74C320.232 124.121 319.873 125.148 319.154 125.82C318.435 126.492 317.385 126.828 316.004 126.828C315.276 126.828 314.585 126.739 313.932 126.562C313.279 126.385 312.737 126.128 312.308 125.792L313.176 124.224C313.493 124.485 313.895 124.691 314.38 124.84C314.865 124.999 315.351 125.078 315.836 125.078C316.592 125.078 317.147 124.905 317.502 124.56C317.866 124.224 318.048 123.711 318.048 123.02V122.698C317.479 123.323 316.685 123.636 315.668 123.636C314.977 123.636 314.343 123.487 313.764 123.188C313.195 122.88 312.742 122.451 312.406 121.9C312.07 121.349 311.902 120.715 311.902 119.996C311.902 119.277 312.07 118.643 312.406 118.092C312.742 117.541 313.195 117.117 313.764 116.818C314.343 116.51 314.977 116.356 315.668 116.356C316.76 116.356 317.591 116.715 318.16 117.434V116.468H320.232ZM316.102 121.844C316.681 121.844 317.152 121.676 317.516 121.34C317.889 120.995 318.076 120.547 318.076 119.996C318.076 119.445 317.889 119.002 317.516 118.666C317.152 118.321 316.681 118.148 316.102 118.148C315.523 118.148 315.047 118.321 314.674 118.666C314.301 119.002 314.114 119.445 314.114 119.996C314.114 120.547 314.301 120.995 314.674 121.34C315.047 121.676 315.523 121.844 316.102 121.844ZM329.643 120.262C329.643 120.29 329.629 120.486 329.601 120.85H323.903C324.006 121.317 324.248 121.685 324.631 121.956C325.014 122.227 325.49 122.362 326.059 122.362C326.451 122.362 326.796 122.306 327.095 122.194C327.403 122.073 327.688 121.886 327.949 121.634L329.111 122.894C328.402 123.706 327.366 124.112 326.003 124.112C325.154 124.112 324.402 123.949 323.749 123.622C323.096 123.286 322.592 122.824 322.237 122.236C321.882 121.648 321.705 120.981 321.705 120.234C321.705 119.497 321.878 118.834 322.223 118.246C322.578 117.649 323.058 117.187 323.665 116.86C324.281 116.524 324.967 116.356 325.723 116.356C326.46 116.356 327.128 116.515 327.725 116.832C328.322 117.149 328.789 117.607 329.125 118.204C329.47 118.792 329.643 119.478 329.643 120.262ZM325.737 118.008C325.242 118.008 324.827 118.148 324.491 118.428C324.155 118.708 323.95 119.091 323.875 119.576H327.585C327.51 119.1 327.305 118.722 326.969 118.442C326.633 118.153 326.222 118.008 325.737 118.008ZM335.955 123.636C335.74 123.795 335.474 123.916 335.157 124C334.849 124.075 334.522 124.112 334.177 124.112C333.281 124.112 332.586 123.883 332.091 123.426C331.606 122.969 331.363 122.297 331.363 121.41V118.316H330.201V116.636H331.363V114.802H333.547V116.636H335.423V118.316H333.547V121.382C333.547 121.699 333.626 121.947 333.785 122.124C333.953 122.292 334.186 122.376 334.485 122.376C334.83 122.376 335.124 122.283 335.367 122.096L335.955 123.636ZM344.184 116.356C345.35 116.356 346.246 116.636 346.872 117.196C347.497 117.747 347.81 118.582 347.81 119.702V124H345.766V123.062C345.355 123.762 344.59 124.112 343.47 124.112C342.891 124.112 342.387 124.014 341.958 123.818C341.538 123.622 341.216 123.351 340.992 123.006C340.768 122.661 340.656 122.269 340.656 121.83C340.656 121.13 340.917 120.579 341.44 120.178C341.972 119.777 342.788 119.576 343.89 119.576H345.626C345.626 119.1 345.481 118.736 345.192 118.484C344.902 118.223 344.468 118.092 343.89 118.092C343.488 118.092 343.092 118.157 342.7 118.288C342.317 118.409 341.99 118.577 341.72 118.792L340.936 117.266C341.346 116.977 341.836 116.753 342.406 116.594C342.984 116.435 343.577 116.356 344.184 116.356ZM344.016 122.642C344.389 122.642 344.72 122.558 345.01 122.39C345.299 122.213 345.504 121.956 345.626 121.62V120.85H344.128C343.232 120.85 342.784 121.144 342.784 121.732C342.784 122.012 342.891 122.236 343.106 122.404C343.33 122.563 343.633 122.642 344.016 122.642ZM181.384 133.636H183.316V135.316H181.44V141H179.256V135.316H178.094V133.636H179.256V133.3C179.256 132.441 179.508 131.76 180.012 131.256C180.526 130.752 181.244 130.5 182.168 130.5C182.495 130.5 182.803 130.537 183.092 130.612C183.391 130.677 183.638 130.775 183.834 130.906L183.26 132.488C183.008 132.311 182.714 132.222 182.378 132.222C181.716 132.222 181.384 132.586 181.384 133.314V133.636ZM187.612 134.462C187.873 134.098 188.223 133.823 188.662 133.636C189.11 133.449 189.623 133.356 190.202 133.356V135.372C189.959 135.353 189.796 135.344 189.712 135.344C189.086 135.344 188.596 135.521 188.242 135.876C187.887 136.221 187.71 136.744 187.71 137.444V141H185.526V133.468H187.612V134.462ZM198.81 137.262C198.81 137.29 198.796 137.486 198.768 137.85H193.07C193.172 138.317 193.415 138.685 193.798 138.956C194.18 139.227 194.656 139.362 195.226 139.362C195.618 139.362 195.963 139.306 196.262 139.194C196.57 139.073 196.854 138.886 197.116 138.634L198.278 139.894C197.568 140.706 196.532 141.112 195.17 141.112C194.32 141.112 193.569 140.949 192.916 140.622C192.262 140.286 191.758 139.824 191.404 139.236C191.049 138.648 190.872 137.981 190.872 137.234C190.872 136.497 191.044 135.834 191.39 135.246C191.744 134.649 192.225 134.187 192.832 133.86C193.448 133.524 194.134 133.356 194.89 133.356C195.627 133.356 196.294 133.515 196.892 133.832C197.489 134.149 197.956 134.607 198.292 135.204C198.637 135.792 198.81 136.478 198.81 137.262ZM194.904 135.008C194.409 135.008 193.994 135.148 193.658 135.428C193.322 135.708 193.116 136.091 193.042 136.576H196.752C196.677 136.1 196.472 135.722 196.136 135.442C195.8 135.153 195.389 135.008 194.904 135.008ZM207.642 137.262C207.642 137.29 207.628 137.486 207.6 137.85H201.902C202.005 138.317 202.247 138.685 202.63 138.956C203.013 139.227 203.489 139.362 204.058 139.362C204.45 139.362 204.795 139.306 205.094 139.194C205.402 139.073 205.687 138.886 205.948 138.634L207.11 139.894C206.401 140.706 205.365 141.112 204.002 141.112C203.153 141.112 202.401 140.949 201.748 140.622C201.095 140.286 200.591 139.824 200.236 139.236C199.881 138.648 199.704 137.981 199.704 137.234C199.704 136.497 199.877 135.834 200.222 135.246C200.577 134.649 201.057 134.187 201.664 133.86C202.28 133.524 202.966 133.356 203.722 133.356C204.459 133.356 205.127 133.515 205.724 133.832C206.321 134.149 206.788 134.607 207.124 135.204C207.469 135.792 207.642 136.478 207.642 137.262ZM203.736 135.008C203.241 135.008 202.826 135.148 202.49 135.428C202.154 135.708 201.949 136.091 201.874 136.576H205.584C205.509 136.1 205.304 135.722 204.968 135.442C204.632 135.153 204.221 135.008 203.736 135.008ZM222.203 131.2V141H220.341L215.455 135.05V141H213.215V131.2H215.091L219.963 137.15V131.2H222.203ZM226.789 133.02V135.61H231.325V137.43H226.789V141H224.521V131.2H231.927V133.02H226.789ZM238.057 141.168C237.058 141.168 236.153 140.953 235.341 140.524C234.538 140.085 233.904 139.483 233.437 138.718C232.98 137.943 232.751 137.071 232.751 136.1C232.751 135.129 232.98 134.261 233.437 133.496C233.904 132.721 234.538 132.119 235.341 131.69C236.153 131.251 237.063 131.032 238.071 131.032C238.92 131.032 239.686 131.181 240.367 131.48C241.058 131.779 241.636 132.208 242.103 132.768L240.647 134.112C239.984 133.347 239.163 132.964 238.183 132.964C237.576 132.964 237.035 133.099 236.559 133.37C236.083 133.631 235.71 134 235.439 134.476C235.178 134.952 235.047 135.493 235.047 136.1C235.047 136.707 235.178 137.248 235.439 137.724C235.71 138.2 236.083 138.573 236.559 138.844C237.035 139.105 237.576 139.236 238.183 139.236C239.163 139.236 239.984 138.849 240.647 138.074L242.103 139.418C241.636 139.987 241.058 140.421 240.367 140.72C239.676 141.019 238.906 141.168 238.057 141.168ZM249.98 141.112C249.354 141.112 248.743 141.037 248.146 140.888C247.548 140.729 247.072 140.533 246.718 140.3L247.446 138.732C247.782 138.947 248.188 139.124 248.664 139.264C249.14 139.395 249.606 139.46 250.064 139.46C250.988 139.46 251.45 139.231 251.45 138.774C251.45 138.559 251.324 138.405 251.072 138.312C250.82 138.219 250.432 138.139 249.91 138.074C249.294 137.981 248.785 137.873 248.384 137.752C247.982 137.631 247.632 137.416 247.334 137.108C247.044 136.8 246.899 136.361 246.899 135.792C246.899 135.316 247.035 134.896 247.306 134.532C247.586 134.159 247.987 133.869 248.51 133.664C249.042 133.459 249.667 133.356 250.386 133.356C250.918 133.356 251.445 133.417 251.968 133.538C252.5 133.65 252.938 133.809 253.284 134.014L252.556 135.568C251.893 135.195 251.17 135.008 250.386 135.008C249.919 135.008 249.569 135.073 249.336 135.204C249.102 135.335 248.986 135.503 248.986 135.708C248.986 135.941 249.112 136.105 249.364 136.198C249.616 136.291 250.017 136.38 250.568 136.464C251.184 136.567 251.688 136.679 252.08 136.8C252.472 136.912 252.812 137.122 253.102 137.43C253.391 137.738 253.536 138.167 253.536 138.718C253.536 139.185 253.396 139.6 253.116 139.964C252.836 140.328 252.425 140.613 251.884 140.818C251.352 141.014 250.717 141.112 249.98 141.112ZM264.529 133.356C265.472 133.356 266.218 133.636 266.769 134.196C267.329 134.747 267.609 135.577 267.609 136.688V141H265.425V137.024C265.425 136.427 265.299 135.983 265.047 135.694C264.804 135.395 264.454 135.246 263.997 135.246C263.484 135.246 263.078 135.414 262.779 135.75C262.48 136.077 262.331 136.567 262.331 137.22V141H260.147V137.024C260.147 135.839 259.671 135.246 258.719 135.246C258.215 135.246 257.814 135.414 257.515 135.75C257.216 136.077 257.067 136.567 257.067 137.22V141H254.883V133.468H256.969V134.336C257.249 134.019 257.59 133.776 257.991 133.608C258.402 133.44 258.85 133.356 259.335 133.356C259.867 133.356 260.348 133.463 260.777 133.678C261.206 133.883 261.552 134.187 261.813 134.588C262.121 134.196 262.508 133.893 262.975 133.678C263.451 133.463 263.969 133.356 264.529 133.356ZM272.605 133.356C273.771 133.356 274.667 133.636 275.293 134.196C275.918 134.747 276.231 135.582 276.231 136.702V141H274.187V140.062C273.776 140.762 273.011 141.112 271.891 141.112C271.312 141.112 270.808 141.014 270.379 140.818C269.959 140.622 269.637 140.351 269.413 140.006C269.189 139.661 269.077 139.269 269.077 138.83C269.077 138.13 269.338 137.579 269.861 137.178C270.393 136.777 271.209 136.576 272.311 136.576H274.047C274.047 136.1 273.902 135.736 273.613 135.484C273.323 135.223 272.889 135.092 272.311 135.092C271.909 135.092 271.513 135.157 271.121 135.288C270.738 135.409 270.411 135.577 270.141 135.792L269.357 134.266C269.767 133.977 270.257 133.753 270.827 133.594C271.405 133.435 271.998 133.356 272.605 133.356ZM272.437 139.642C272.81 139.642 273.141 139.558 273.431 139.39C273.72 139.213 273.925 138.956 274.047 138.62V137.85H272.549C271.653 137.85 271.205 138.144 271.205 138.732C271.205 139.012 271.312 139.236 271.527 139.404C271.751 139.563 272.054 139.642 272.437 139.642ZM280.293 134.462C280.555 134.098 280.905 133.823 281.343 133.636C281.791 133.449 282.305 133.356 282.883 133.356V135.372C282.641 135.353 282.477 135.344 282.393 135.344C281.768 135.344 281.278 135.521 280.923 135.876C280.569 136.221 280.391 136.744 280.391 137.444V141H278.207V133.468H280.293V134.462ZM289.3 140.636C289.085 140.795 288.819 140.916 288.502 141C288.194 141.075 287.867 141.112 287.522 141.112C286.626 141.112 285.93 140.883 285.436 140.426C284.95 139.969 284.708 139.297 284.708 138.41V135.316H283.546V133.636H284.708V131.802H286.892V133.636H288.768V135.316H286.892V138.382C286.892 138.699 286.971 138.947 287.13 139.124C287.298 139.292 287.531 139.376 287.83 139.376C288.175 139.376 288.469 139.283 288.712 139.096L289.3 140.636ZM298.942 133.356C299.642 133.356 300.277 133.519 300.846 133.846C301.425 134.163 301.878 134.616 302.204 135.204C302.531 135.783 302.694 136.459 302.694 137.234C302.694 138.009 302.531 138.69 302.204 139.278C301.878 139.857 301.425 140.309 300.846 140.636C300.277 140.953 299.642 141.112 298.942 141.112C297.981 141.112 297.225 140.809 296.674 140.202V143.716H294.49V133.468H296.576V134.336C297.118 133.683 297.906 133.356 298.942 133.356ZM298.564 139.32C299.124 139.32 299.582 139.133 299.936 138.76C300.3 138.377 300.482 137.869 300.482 137.234C300.482 136.599 300.3 136.095 299.936 135.722C299.582 135.339 299.124 135.148 298.564 135.148C298.004 135.148 297.542 135.339 297.178 135.722C296.824 136.095 296.646 136.599 296.646 137.234C296.646 137.869 296.824 138.377 297.178 138.76C297.542 139.133 298.004 139.32 298.564 139.32ZM306.242 134.462C306.504 134.098 306.854 133.823 307.292 133.636C307.74 133.449 308.254 133.356 308.832 133.356V135.372C308.59 135.353 308.426 135.344 308.342 135.344C307.717 135.344 307.227 135.521 306.872 135.876C306.518 136.221 306.34 136.744 306.34 137.444V141H304.156V133.468H306.242V134.462ZM313.647 141.112C312.853 141.112 312.139 140.949 311.505 140.622C310.879 140.286 310.389 139.824 310.035 139.236C309.68 138.648 309.503 137.981 309.503 137.234C309.503 136.487 309.68 135.82 310.035 135.232C310.389 134.644 310.879 134.187 311.505 133.86C312.139 133.524 312.853 133.356 313.647 133.356C314.44 133.356 315.149 133.524 315.775 133.86C316.4 134.187 316.89 134.644 317.245 135.232C317.599 135.82 317.777 136.487 317.777 137.234C317.777 137.981 317.599 138.648 317.245 139.236C316.89 139.824 316.4 140.286 315.775 140.622C315.149 140.949 314.44 141.112 313.647 141.112ZM313.647 139.32C314.207 139.32 314.664 139.133 315.019 138.76C315.383 138.377 315.565 137.869 315.565 137.234C315.565 136.599 315.383 136.095 315.019 135.722C314.664 135.339 314.207 135.148 313.647 135.148C313.087 135.148 312.625 135.339 312.261 135.722C311.897 136.095 311.715 136.599 311.715 137.234C311.715 137.869 311.897 138.377 312.261 138.76C312.625 139.133 313.087 139.32 313.647 139.32ZM321.631 133.636H323.563V135.316H321.687V141H319.503V135.316H318.341V133.636H319.503V133.3C319.503 132.441 319.755 131.76 320.259 131.256C320.772 130.752 321.491 130.5 322.415 130.5C322.741 130.5 323.049 130.537 323.339 130.612C323.637 130.677 323.885 130.775 324.081 130.906L323.507 132.488C323.255 132.311 322.961 132.222 322.625 132.222C321.962 132.222 321.631 132.586 321.631 133.314V133.636ZM325.775 133.468H327.959V141H325.775V133.468ZM326.867 132.418C326.465 132.418 326.139 132.301 325.887 132.068C325.635 131.835 325.509 131.545 325.509 131.2C325.509 130.855 325.635 130.565 325.887 130.332C326.139 130.099 326.465 129.982 326.867 129.982C327.268 129.982 327.595 130.094 327.847 130.318C328.099 130.542 328.225 130.822 328.225 131.158C328.225 131.522 328.099 131.825 327.847 132.068C327.595 132.301 327.268 132.418 326.867 132.418ZM329.983 130.612H332.167V141H329.983V130.612ZM341.572 137.262C341.572 137.29 341.558 137.486 341.53 137.85H335.832C335.934 138.317 336.177 138.685 336.56 138.956C336.942 139.227 337.418 139.362 337.988 139.362C338.38 139.362 338.725 139.306 339.024 139.194C339.332 139.073 339.616 138.886 339.878 138.634L341.04 139.894C340.33 140.706 339.294 141.112 337.932 141.112C337.082 141.112 336.331 140.949 335.678 140.622C335.024 140.286 334.52 139.824 334.166 139.236C333.811 138.648 333.634 137.981 333.634 137.234C333.634 136.497 333.806 135.834 334.152 135.246C334.506 134.649 334.987 134.187 335.594 133.86C336.21 133.524 336.896 133.356 337.652 133.356C338.389 133.356 339.056 133.515 339.654 133.832C340.251 134.149 340.718 134.607 341.054 135.204C341.399 135.792 341.572 136.478 341.572 137.262ZM337.666 135.008C337.171 135.008 336.756 135.148 336.42 135.428C336.084 135.708 335.878 136.091 335.804 136.576H339.514C339.439 136.1 339.234 135.722 338.898 135.442C338.562 135.153 338.151 135.008 337.666 135.008ZM248.392 158.112C247.589 158.112 246.866 157.949 246.222 157.622C245.587 157.286 245.088 156.824 244.724 156.236C244.369 155.648 244.192 154.981 244.192 154.234C244.192 153.487 244.369 152.82 244.724 152.232C245.088 151.644 245.587 151.187 246.222 150.86C246.866 150.524 247.589 150.356 248.392 150.356C249.185 150.356 249.876 150.524 250.464 150.86C251.061 151.187 251.495 151.658 251.766 152.274L250.072 153.184C249.68 152.493 249.115 152.148 248.378 152.148C247.809 152.148 247.337 152.335 246.964 152.708C246.591 153.081 246.404 153.59 246.404 154.234C246.404 154.878 246.591 155.387 246.964 155.76C247.337 156.133 247.809 156.32 248.378 156.32C249.125 156.32 249.689 155.975 250.072 155.284L251.766 156.208C251.495 156.805 251.061 157.272 250.464 157.608C249.876 157.944 249.185 158.112 248.392 158.112ZM256.062 150.356C257.228 150.356 258.124 150.636 258.75 151.196C259.375 151.747 259.688 152.582 259.688 153.702V158H257.644V157.062C257.233 157.762 256.468 158.112 255.348 158.112C254.769 158.112 254.265 158.014 253.836 157.818C253.416 157.622 253.094 157.351 252.87 157.006C252.646 156.661 252.534 156.269 252.534 155.83C252.534 155.13 252.795 154.579 253.318 154.178C253.85 153.777 254.666 153.576 255.768 153.576H257.504C257.504 153.1 257.359 152.736 257.07 152.484C256.78 152.223 256.346 152.092 255.768 152.092C255.366 152.092 254.97 152.157 254.578 152.288C254.195 152.409 253.868 152.577 253.598 152.792L252.814 151.266C253.224 150.977 253.714 150.753 254.284 150.594C254.862 150.435 255.455 150.356 256.062 150.356ZM255.894 156.642C256.267 156.642 256.598 156.558 256.888 156.39C257.177 156.213 257.382 155.956 257.504 155.62V154.85H256.006C255.11 154.85 254.662 155.144 254.662 155.732C254.662 156.012 254.769 156.236 254.984 156.404C255.208 156.563 255.511 156.642 255.894 156.642ZM263.75 151.462C264.012 151.098 264.362 150.823 264.8 150.636C265.248 150.449 265.762 150.356 266.34 150.356V152.372C266.098 152.353 265.934 152.344 265.85 152.344C265.225 152.344 264.735 152.521 264.38 152.876C264.026 153.221 263.848 153.744 263.848 154.444V158H261.664V150.468H263.75V151.462ZM275.243 147.612V158H273.157V157.132C272.615 157.785 271.831 158.112 270.805 158.112C270.095 158.112 269.451 157.953 268.873 157.636C268.303 157.319 267.855 156.866 267.529 156.278C267.202 155.69 267.039 155.009 267.039 154.234C267.039 153.459 267.202 152.778 267.529 152.19C267.855 151.602 268.303 151.149 268.873 150.832C269.451 150.515 270.095 150.356 270.805 150.356C271.766 150.356 272.517 150.659 273.059 151.266V147.612H275.243ZM271.183 156.32C271.733 156.32 272.191 156.133 272.555 155.76C272.919 155.377 273.101 154.869 273.101 154.234C273.101 153.599 272.919 153.095 272.555 152.722C272.191 152.339 271.733 152.148 271.183 152.148C270.623 152.148 270.161 152.339 269.797 152.722C269.433 153.095 269.251 153.599 269.251 154.234C269.251 154.869 269.433 155.377 269.797 155.76C270.161 156.133 270.623 156.32 271.183 156.32Z" fill="white"/>
<g filter="url(#filter2_d_0_1)">
<path d="M197.796 98H200.064V90.048H203.2V88.2H194.66V90.048H197.796V98ZM211.251 98H213.631L209.249 88.2H207.009L202.641 98H204.965L205.833 95.9H210.383L211.251 98ZM206.561 94.178L208.115 90.426L209.669 94.178H206.561ZM223.327 98L221.129 94.85C222.403 94.304 223.145 93.226 223.145 91.756C223.145 89.558 221.507 88.2 218.889 88.2H214.647V98H216.915V95.27H218.889H219.001L220.891 98H223.327ZM220.849 91.756C220.849 92.82 220.149 93.464 218.763 93.464H216.915V90.048H218.763C220.149 90.048 220.849 90.678 220.849 91.756ZM231.564 95.816C230.99 96.124 230.416 96.236 229.8 96.236C227.924 96.236 226.622 94.934 226.622 93.1C226.622 91.238 227.924 89.964 229.828 89.964C230.822 89.964 231.648 90.314 232.362 91.07L233.818 89.726C232.866 88.62 231.438 88.032 229.716 88.032C226.594 88.032 224.326 90.146 224.326 93.1C224.326 96.054 226.594 98.168 229.674 98.168C231.074 98.168 232.558 97.734 233.636 96.922V92.946H231.564V95.816ZM237.997 96.18V93.912H242.547V92.148H237.997V90.02H243.149V88.2H235.743V98H243.331V96.18H237.997ZM247.166 98H249.434V90.048H252.57V88.2H244.03V90.048H247.166V98ZM266.435 98L264.237 94.85C265.511 94.304 266.253 93.226 266.253 91.756C266.253 89.558 264.615 88.2 261.997 88.2H257.755V98H260.023V95.27H261.997H262.109L263.999 98H266.435ZM263.957 91.756C263.957 92.82 263.257 93.464 261.871 93.464H260.023V90.048H261.871C263.257 90.048 263.957 90.678 263.957 91.756ZM270.304 96.18V93.912H274.854V92.148H270.304V90.02H275.456V88.2H268.05V98H275.638V96.18H270.304ZM284.764 98H287.144L282.762 88.2H280.522L276.154 98H278.478L279.346 95.9H283.896L284.764 98ZM280.074 94.178L281.628 90.426L283.182 94.178H280.074ZM292.714 98.168C294.422 98.168 295.836 97.552 296.76 96.418L295.304 95.074C294.646 95.844 293.82 96.236 292.84 96.236C291.006 96.236 289.704 94.948 289.704 93.1C289.704 91.252 291.006 89.964 292.84 89.964C293.82 89.964 294.646 90.356 295.304 91.112L296.76 89.768C295.836 88.648 294.422 88.032 292.728 88.032C289.676 88.032 287.408 90.146 287.408 93.1C287.408 96.054 289.676 98.168 292.714 98.168ZM305.012 88.2V92.064H300.56V88.2H298.292V98H300.56V93.982H305.012V98H307.28V88.2H305.012ZM311.853 96.18V93.912H316.403V92.148H311.853V90.02H317.005V88.2H309.599V98H317.187V96.18H311.853ZM318.991 98H323.443C326.649 98 328.847 96.068 328.847 93.1C328.847 90.132 326.649 88.2 323.443 88.2H318.991V98ZM321.259 96.138V90.062H323.331C325.277 90.062 326.551 91.224 326.551 93.1C326.551 94.976 325.277 96.138 323.331 96.138H321.259Z" fill="#FFE0B2"/>
</g>
<path d="M91.2249 147.999C59.477 147.828 33.8622 121.969 34.0006 90.2248C34.1375 58.477 60.0309 32.8622 91.7751 33.0006C123.523 33.1375 149.138 59.0309 148.999 90.7751C148.828 122.523 122.969 148.138 91.2249 147.999V147.999ZM84.0975 99.2785L75.8677 90.9119C73.9391 88.9497 70.7724 88.9497 68.8436 90.8771C66.8814 92.8057 66.8814 95.9724 68.8088 97.9012L80.5497 109.78C82.4783 111.743 85.645 111.743 87.5738 109.815L115.843 81.8226C117.805 79.894 117.805 76.7273 115.877 74.7985C113.949 72.8699 110.782 72.8363 108.853 74.7637L84.0975 99.2785Z" fill="#66FFAC"/>
<defs>
<filter id="filter0_d_0_1" x="0" y="0" width="379" height="189" filterUnits="userSpaceOnUse" color-interpolation-filters="sRGB">
<feFlood flood-opacity="0" result="BackgroundImageFix"/>
<feColorMatrix in="SourceAlpha" type="matrix" values="0 0 0 0 0 0 0 0 0 0 0 0 0 0 0 0 0 0 127 0" result="hardAlpha"/>
<feOffset dy="4"/>
<feGaussianBlur stdDeviation="2"/>
<feComposite in2="hardAlpha" operator="out"/>
<feColorMatrix type="matrix" values="0 0 0 0 0 0 0 0 0 0 0 0 0 0 0 0 0 0 0.25 0"/>
<feBlend mode="normal" in2="BackgroundImageFix" result="effect1_dropShadow_0_1"/>
<feBlend mode="normal" in="SourceGraphic" in2="effect1_dropShadow_0_1" result="shape"/>
</filter>
<filter id="filter1_d_0_1" x="190.031" y="25.824" width="134.242" height="62.004" filterUnits="userSpaceOnUse" color-interpolation-filters="sRGB">
<feFlood flood-opacity="0" result="BackgroundImageFix"/>
<feColorMatrix in="SourceAlpha" type="matrix" values="0 0 0 0 0 0 0 0 0 0 0 0 0 0 0 0 0 0 127 0" result="hardAlpha"/>
<feOffset dy="4"/>
<feGaussianBlur stdDeviation="2"/>
<feComposite in2="hardAlpha" operator="out"/>
<feColorMatrix type="matrix" values="0 0 0 0 0 0 0 0 0 0 0 0 0 0 0 0 0 0 0.25 0"/>
<feBlend mode="normal" in2="BackgroundImageFix" result="effect1_dropShadow_0_1"/>
<feBlend mode="normal" in="SourceGraphic" in2="effect1_dropShadow_0_1" result="shape"/>
</filter>
<filter id="filter2_d_0_1" x="190.661" y="88.032" width="142.187" height="18.136" filterUnits="userSpaceOnUse" color-interpolation-filters="sRGB">
<feFlood flood-opacity="0" result="BackgroundImageFix"/>
<feColorMatrix in="SourceAlpha" type="matrix" values="0 0 0 0 0 0 0 0 0 0 0 0 0 0 0 0 0 0 127 0" result="hardAlpha"/>
<feOffset dy="4"/>
<feGaussianBlur stdDeviation="2"/>
<feComposite in2="hardAlpha" operator="out"/>
<feColorMatrix type="matrix" values="0 0 0 0 0 0 0 0 0 0 0 0 0 0 0 0 0 0 0.25 0"/>
<feBlend mode="normal" in2="BackgroundImageFix" result="effect1_dropShadow_0_1"/>
<feBlend mode="normal" in="SourceGraphic" in2="effect1_dropShadow_0_1" result="shape"/>
</filter>
</defs>
</svg>
