<svg width="101" height="84" viewBox="0 0 101 84" fill="none" xmlns="http://www.w3.org/2000/svg">
<g filter="url(#filter0_d_187_227)">
<path d="M32.5826 54.7705C33.0507 55.7799 33.6354 56.4478 34.4147 56.8534L35.2501 56.6037L35.6609 53.8456L32.5789 54.7648C32.5804 54.7648 32.5804 54.7685 32.5826 54.7706L32.5826 54.7705Z" fill="#FFE0B2"/>
<path d="M31.9732 53.0512L35.9569 51.8659L36.3678 49.1072L31.9488 50.4235C31.7596 51.348 31.7691 52.1802 31.9732 53.0512L31.9732 53.0512Z" fill="#FFE0B2"/>
<path d="M32.63 48.3679L36.6594 47.1677L36.9477 45.2307C36.6254 45.2843 36.3095 45.3341 35.9797 45.3903C34.4859 45.6431 33.1298 47.41 32.6299 48.3679H32.63Z" fill="#FFE0B2"/>
<path d="M48.2258 56.2281C47.2409 56.2456 44.9938 56.9601 42.8175 57.6557C40.4352 58.4159 38.5305 58.9884 37.0749 59.2503C36.1482 59.4152 35.4018 59.4555 34.8431 59.333C34.8346 59.3314 34.824 59.3314 34.8145 59.3282C32.8901 58.8628 31.5102 57.6775 30.5911 55.6958C29.3384 53.0013 29.2896 50.8342 30.4347 47.8873C30.5174 47.6678 30.6605 47.3953 30.8265 47.1043C31.0109 46.7793 31.2373 46.4289 31.5145 46.0631C32.455 44.8243 33.8863 43.518 35.6108 43.2249C36.1812 43.129 36.7362 43.0378 37.2854 42.9514L38.2916 36.2046C35.0271 36.5131 31.9063 36.8386 30.1395 37.1137C25.6892 37.8071 22.7593 43.5408 20.1791 47.0475C18.1801 49.7686 16.2903 52.3349 14.4295 54.2476C9.55201 59.2604 5.45358 61.1487 4 61.7063L10.1775 75.7848L10.3021 75.7959C12.8419 76.0191 19.2281 76.3753 23.7123 74.8672C25.8137 74.1589 27.887 72.9269 30.2873 71.4983C32.2477 70.3305 34.4673 69.0068 37.1168 67.7271C37.1693 67.7032 37.2201 67.6783 37.2716 67.6545C38.468 67.0766 39.6629 66.5131 40.8339 65.9714C46.1149 63.5239 50.8531 61.5247 52.7922 60.7216C51.9499 58.4226 50.429 56.1876 48.2259 56.2284L48.2258 56.2281Z" fill="#FFE0B2"/>
<path d="M76.4154 29.5585C76.4154 24.1174 71.9985 19.6995 66.5574 19.6995C62.5778 19.6995 59.1448 22.0669 57.5911 25.4677L62.9054 26.2618C63.8045 25.2652 65.1033 24.6369 66.559 24.6369C69.2865 24.6369 71.4801 26.8311 71.4801 29.5586C71.4801 31.4919 70.3775 33.1527 68.7643 33.958L67.9654 39.3154C72.738 38.6321 76.4155 34.5236 76.4155 29.5586L76.4154 29.5585Z" fill="#FFE0B2"/>
<path d="M86.2583 29.5585C86.2583 18.662 77.452 9.8562 66.556 9.8562C57.595 9.8562 50.0551 15.8126 47.6558 23.9863L52.5885 24.7215C54.5913 18.9311 60.0812 14.7792 66.5558 14.7792C74.7253 14.7792 81.3345 21.3887 81.3345 29.558C81.3345 37.5065 75.076 43.9757 67.2139 44.3218L66.4781 49.2566C66.5031 49.2566 66.529 49.2582 66.5555 49.2582C77.4531 49.2582 86.2578 40.4535 86.2578 29.5559L86.2583 29.5585Z" fill="#FFE0B2"/>
<path d="M66.5562 0.000996108C50.2181 0.000996108 36.9973 13.2205 36.9973 29.5585C36.9973 31.1208 37.1198 32.6539 37.352 34.1504C37.5942 34.1281 37.8381 34.1032 38.0899 34.0804L38.6794 34.0242L39.8032 26.4876C40.0328 24.964 41.2128 23.7665 42.677 23.4659C45.3881 12.8043 55.0483 4.92119 66.5551 4.92119C80.164 4.92119 91.1918 15.9492 91.1918 29.5593C91.1918 43.1709 80.1637 54.1933 66.5551 54.1933C66.2831 54.1933 66.0154 54.1811 65.7445 54.1742L65.0124 59.0767C65.5235 59.1027 66.0377 59.1164 66.5556 59.1164C82.895 59.1164 96.1158 45.8964 96.1158 29.5575C96.1158 13.2195 82.8953 0 66.5569 0L66.5562 0.000996108Z" fill="#FFE0B2"/>
<path d="M65.8505 28.8597L43.6186 25.5428C42.7996 25.4214 42.0388 25.986 41.9164 26.8039L37.4199 56.9369C38.9308 56.5896 40.8216 55.988 42.1512 55.5634C45.087 54.6245 46.9588 54.052 48.1913 54.0313C48.4845 54.026 48.7808 54.0462 49.0703 54.0891C51.5475 54.4575 53.6023 56.5457 54.8532 59.9644L55.5747 61.9411L53.6329 62.7469C52.3601 63.2754 48.945 64.7099 44.8229 66.5654L59.8893 68.8141C60.7084 68.9355 61.4701 68.373 61.5937 67.555L67.1117 30.562C67.2325 29.7435 66.6669 28.9802 65.8505 28.8593V28.8597Z" fill="#FFE0B2"/>
</g>
<defs>
<filter id="filter0_d_187_227" x="0" y="0" width="100.116" height="83.9999" filterUnits="userSpaceOnUse" color-interpolation-filters="sRGB">
<feFlood flood-opacity="0" result="BackgroundImageFix"/>
<feColorMatrix in="SourceAlpha" type="matrix" values="0 0 0 0 0 0 0 0 0 0 0 0 0 0 0 0 0 0 127 0" result="hardAlpha"/>
<feOffset dy="4"/>
<feGaussianBlur stdDeviation="2"/>
<feComposite in2="hardAlpha" operator="out"/>
<feColorMatrix type="matrix" values="0 0 0 0 0 0 0 0 0 0 0 0 0 0 0 0 0 0 0.25 0"/>
<feBlend mode="normal" in2="BackgroundImageFix" result="effect1_dropShadow_187_227"/>
<feBlend mode="normal" in="SourceGraphic" in2="effect1_dropShadow_187_227" result="shape"/>
</filter>
</defs>
</svg>
